<svg width="430" height="430" viewBox="0 0 430 430" fill="none" xmlns="http://www.w3.org/2000/svg">
<rect opacity="0.75" width="430" height="430" fill="url(#paint0_linear_137_32)" fill-opacity="0.75"/>
<rect opacity="0.75" width="430" height="430" fill="url(#paint1_linear_137_32)" fill-opacity="0.75"/>
<path d="M119.933 219.494V199.236C119.933 194.664 120.39 191.358 121.305 189.318C122.219 187.243 123.975 186.205 126.572 186.205C127.962 186.205 129.041 186.768 129.81 187.894C130.578 189.019 130.962 190.619 130.962 192.694C130.962 196.457 128.932 200.291 124.871 204.195V206.991C126.225 205.584 127.944 204.881 130.029 204.881C133.211 204.881 135.827 205.918 137.875 207.993C139.924 210.068 140.948 213.005 140.948 216.804C140.948 220.602 139.96 223.574 137.985 225.719C136.01 227.829 133.449 228.885 130.303 228.885C127.194 228.885 124.688 228.023 122.786 226.3C120.884 224.576 119.933 222.308 119.933 219.494ZM135.735 216.804C135.735 213.146 135.333 210.596 134.528 209.154C133.723 207.677 132.297 206.938 130.249 206.938C128.2 206.938 126.792 207.554 126.024 208.785C125.255 210.016 124.871 212.126 124.871 215.115V217.859C124.871 221.024 125.292 223.31 126.133 224.717C127.011 226.124 128.438 226.827 130.413 226.827C132.388 226.827 133.76 226.071 134.528 224.559C135.333 223.046 135.735 220.461 135.735 216.804ZM126.627 188.263C125.895 188.263 125.42 188.984 125.2 190.426C124.981 191.832 124.871 194.804 124.871 199.341V201.663C127.359 198.568 128.602 195.561 128.602 192.641C128.602 189.722 127.944 188.263 126.627 188.263ZM167.786 216.856C168.554 216.856 168.938 217.419 168.938 218.544C168.938 221.147 167.987 223.521 166.085 225.666C164.219 227.812 161.366 228.885 157.525 228.885C153.684 228.885 150.593 227.9 148.252 225.93C145.948 223.925 144.796 221.006 144.796 217.173C144.796 213.304 145.82 210.297 147.868 208.152C149.917 205.971 152.532 204.881 155.714 204.881C158.019 204.881 159.702 205.479 160.763 206.675C161.823 207.835 162.354 209.224 162.354 210.842C162.354 213.48 161.202 215.678 158.897 217.437C156.629 219.16 153.721 220.022 150.173 220.022C150.502 222.273 151.343 223.978 152.697 225.139C154.087 226.264 155.897 226.827 158.129 226.827C160.397 226.827 162.427 226.018 164.219 224.4C166.048 222.747 166.963 220.338 166.963 217.173C166.999 216.962 167.273 216.856 167.786 216.856ZM150.008 217.595V218.07C152.276 217.788 154.233 217.103 155.879 216.012C157.562 214.922 158.403 213.304 158.403 211.159C158.403 209.787 158.092 208.75 157.47 208.046C156.848 207.307 155.971 206.938 154.837 206.938C153.117 206.938 151.874 207.747 151.106 209.365C150.374 210.983 150.008 213.726 150.008 217.595ZM183.381 206.411C183.856 205.391 184.606 204.881 185.63 204.881C186.691 204.881 187.478 205.127 187.99 205.619V220.76C187.99 222.765 188.319 224.277 188.978 225.297C189.636 226.317 190.532 226.827 191.666 226.827C195.105 226.827 196.824 223.398 196.824 216.54C196.86 216.329 197.135 216.223 197.647 216.223C198.305 216.223 198.635 217.155 198.635 219.019C198.635 222.009 197.958 224.4 196.604 226.194C195.287 227.988 193.422 228.885 191.008 228.885C187.313 228.885 184.862 227.32 183.655 224.189C182.96 225.631 182.009 226.774 180.802 227.618C179.595 228.463 178.223 228.885 176.687 228.885C170.286 228.885 167.085 224.858 167.085 216.804C167.085 212.724 168.072 209.717 170.048 207.782C172.06 205.848 174.712 204.881 178.004 204.881C180.528 204.881 182.32 205.391 183.381 206.411ZM173.065 223.293C173.578 224.84 174.163 225.825 174.821 226.247C175.48 226.634 176.358 226.827 177.455 226.827C178.552 226.827 179.741 226.176 181.021 224.875C182.338 223.539 182.997 221.815 182.997 219.705V212.478C182.997 210.824 182.54 209.488 181.625 208.468C180.747 207.448 179.741 206.938 178.607 206.938C177.51 206.938 176.632 207.044 175.974 207.255C175.315 207.466 174.693 207.905 174.108 208.574C172.901 209.84 172.297 212.583 172.297 216.804C172.297 219.582 172.553 221.745 173.065 223.293ZM211.69 208.099C211.69 207.044 212.002 206.252 212.622 205.725C213.245 205.162 213.994 204.881 214.872 204.881C215.75 204.881 216.446 205.127 216.957 205.619V220.76C216.957 222.765 217.286 224.277 217.945 225.297C218.603 226.317 219.5 226.827 220.633 226.827C221.768 226.827 222.866 226.194 223.925 224.928C225.17 223.416 225.792 220.62 225.792 216.54C225.828 216.329 226.102 216.223 226.614 216.223C227.272 216.223 227.602 217.155 227.602 219.019C227.602 222.009 226.927 224.4 225.572 226.194C224.255 227.988 222.389 228.885 219.975 228.885C216.134 228.885 213.61 227.214 212.403 223.873C210.976 227.214 208.362 228.885 204.557 228.885C202.289 228.885 200.46 228.234 199.07 226.933C197.68 225.596 196.985 223.697 196.985 221.235V208.099C196.985 207.044 197.26 206.252 197.808 205.725C198.357 205.162 199.052 204.881 199.893 204.881C200.735 204.881 201.411 205.127 201.924 205.619V220.76C201.924 224.946 203.021 227.038 205.216 227.038C206.861 227.038 208.343 226.089 209.659 224.189C211.014 222.29 211.69 219.617 211.69 216.17V208.099ZM225.864 200.291C225.864 199.236 226.139 198.445 226.687 197.917C227.237 197.354 227.933 197.073 228.772 197.073C229.615 197.073 230.292 197.319 230.802 197.811V205.619H238.319C239.087 205.619 239.581 205.76 239.801 206.041C240.059 206.323 240.186 206.798 240.186 207.466H230.802V220.76C230.802 222.695 231.371 224.189 232.504 225.245C233.675 226.3 235.01 226.827 236.509 226.827C238.777 226.827 240.442 226.018 241.503 224.4C242.564 222.783 243.094 220.162 243.094 216.54C243.166 216.329 243.441 216.223 243.917 216.223C244.576 216.223 244.904 217.155 244.904 219.019C244.904 221.868 244.154 224.224 242.654 226.089C241.192 227.953 238.924 228.885 235.851 228.885C232.778 228.885 230.346 228.111 228.554 226.563C226.761 225.016 225.864 222.712 225.864 219.652V200.291ZM243.226 208.099C243.226 207.044 243.501 206.252 244.049 205.725C244.599 205.162 245.293 204.881 246.134 204.881C246.975 204.881 247.652 205.127 248.164 205.619V220.76C248.164 224.946 249.263 227.038 251.457 227.038C253.433 227.038 255.04 226.036 256.286 224.031C257.565 222.026 258.206 218.65 258.206 213.902V208.099C258.206 207.044 258.48 206.252 259.028 205.725C259.577 205.162 260.272 204.881 261.113 204.881C261.954 204.881 262.632 205.127 263.144 205.619V232.419C263.583 232.384 264.277 232.367 265.229 232.367C266.178 232.367 266.656 232.753 266.656 233.527L266.327 234.318C264.936 234.318 263.876 234.336 263.144 234.371V237.009C263.144 240.631 262.283 243.48 260.565 245.555C258.881 247.666 256.615 248.721 253.762 248.721C252.078 248.721 250.58 248.228 249.263 247.244C247.981 246.294 247.342 244.782 247.342 242.707C247.342 240.034 248.33 237.906 250.306 236.323C252.28 234.74 254.913 233.633 258.206 232.999V224.77C256.669 227.513 254.201 228.885 250.8 228.885C248.457 228.885 246.61 228.164 245.257 226.722C243.902 225.279 243.226 223.205 243.226 220.496V208.099ZM250.14 242.865C250.14 244.096 250.487 245.028 251.183 245.661C251.877 246.329 252.719 246.663 253.707 246.663C254.695 246.663 255.498 246.382 256.121 245.819C257.51 244.623 258.206 241.018 258.206 235.004C252.828 236.165 250.14 238.785 250.14 242.865Z" fill="#FF5E81"/>
<path d="M292.953 217.911C293.722 217.911 294.107 218.421 294.107 219.441C294.107 220.461 293.887 221.481 293.447 222.501C293.008 223.521 292.369 224.523 291.528 225.508C290.723 226.493 289.57 227.302 288.07 227.935C286.608 228.568 284.942 228.885 283.077 228.885C278.98 228.885 275.762 227.9 273.421 225.93C271.116 223.925 269.963 221.006 269.963 217.173C269.963 213.304 270.989 210.297 273.036 208.152C275.085 205.971 277.7 204.881 280.882 204.881C283.186 204.881 284.87 205.479 285.93 206.675C286.991 207.835 287.521 209.224 287.521 210.842C287.521 211.721 287.247 212.425 286.699 212.952C286.15 213.48 285.62 213.744 285.108 213.744C284.158 213.744 283.535 213.533 283.243 213.111C283.461 212.583 283.571 211.827 283.571 210.842C283.571 209.857 283.224 208.961 282.529 208.152C281.833 207.343 280.992 206.938 280.004 206.938C278.286 206.938 277.042 207.747 276.274 209.365C275.542 210.983 275.175 213.533 275.175 217.015C275.175 220.461 275.873 222.958 277.26 224.506C278.688 226.053 280.664 226.827 283.186 226.827C285.711 226.827 287.834 226.089 289.552 224.611C291.272 223.099 292.131 220.971 292.131 218.228C292.169 218.017 292.443 217.911 292.953 217.911ZM306.961 208.099C306.961 207.044 307.272 206.252 307.895 205.725C308.516 205.162 309.266 204.881 310.143 204.881C311.022 204.881 311.716 205.127 312.228 205.619V220.76C312.228 222.765 312.558 224.277 313.216 225.297C313.875 226.317 314.77 226.827 315.905 226.827C317.039 226.827 318.136 226.194 319.196 224.928C320.44 223.416 321.061 220.62 321.061 216.54C321.098 216.329 321.372 216.223 321.886 216.223C322.543 216.223 322.872 217.155 322.872 219.019C322.872 222.009 322.196 224.4 320.843 226.194C319.527 227.988 317.66 228.885 315.246 228.885C311.405 228.885 308.881 227.214 307.675 223.873C306.247 227.214 303.632 228.885 299.827 228.885C297.559 228.885 295.732 228.234 294.341 226.933C292.95 225.596 292.256 223.697 292.256 221.235V208.099C292.256 207.044 292.53 206.252 293.079 205.725C293.627 205.162 294.323 204.881 295.164 204.881C296.006 204.881 296.682 205.127 297.194 205.619V220.76C297.194 224.946 298.291 227.038 300.487 227.038C302.132 227.038 303.614 226.089 304.931 224.189C306.284 222.29 306.961 219.617 306.961 216.17V208.099ZM326.128 219.758V228.146C325.763 228.638 325.122 228.885 324.209 228.885C323.295 228.885 322.563 228.621 322.013 228.093C321.465 227.531 321.19 226.722 321.19 225.666V205.619C321.555 205.127 322.196 204.881 323.112 204.881C324.025 204.881 324.757 205.162 325.306 205.725C325.854 206.252 326.128 207.044 326.128 208.099V212.108C327.959 207.747 330.483 205.567 333.702 205.567C336.006 205.567 337.688 206.165 338.749 207.36C339.811 208.521 340.339 209.91 340.339 211.528C340.339 212.407 340.065 213.111 339.517 213.638C338.968 214.166 338.438 214.429 337.926 214.429C336.974 214.429 336.353 214.219 336.061 213.797C336.28 213.269 336.389 212.513 336.389 211.528C336.389 210.543 336.041 209.646 335.347 208.837C334.653 208.029 333.811 207.624 332.823 207.624C331.103 207.624 329.55 209.136 328.159 212.161C326.806 215.151 326.128 217.683 326.128 219.758ZM358.593 216.223C359.251 216.223 359.579 217.155 359.579 219.019C359.579 221.728 358.813 224.049 357.277 225.983C355.74 227.917 353.782 228.885 351.405 228.885C348.441 228.885 346.229 228.04 344.765 226.352C343.303 224.664 342.571 222.273 342.571 219.178V199.341C342.571 194.804 343.065 191.481 344.052 189.371C345.04 187.26 346.779 186.205 349.266 186.205C352.887 186.205 354.698 188.562 354.698 193.275C354.698 196.827 353.966 199.676 352.502 201.821C351.076 203.966 349.429 205.567 347.564 206.622V220.76C347.564 222.765 347.967 224.277 348.772 225.297C349.576 226.317 350.675 226.827 352.062 226.827C353.454 226.827 354.752 226.018 355.958 224.4C357.166 222.783 357.769 220.162 357.769 216.54C357.843 216.329 358.117 216.223 358.593 216.223ZM352.337 193.327C352.337 189.951 351.46 188.263 349.703 188.263C349.266 188.263 348.919 188.403 348.661 188.685C348.441 188.966 348.241 189.669 348.058 190.795C347.729 192.518 347.564 197.055 347.564 204.406C350.746 202.19 352.337 198.497 352.337 193.327ZM367.937 218.122C366.473 217.63 365.011 217.12 363.548 216.592C362.122 216.03 360.914 215.238 359.926 214.219C358.938 213.199 358.446 211.897 358.446 210.315C358.446 208.697 359.214 207.395 360.749 206.411C362.285 205.391 364.517 204.881 367.443 204.881C370.407 204.881 372.712 205.373 374.357 206.358C376.039 207.343 376.882 208.486 376.882 209.787C376.882 210.42 376.624 210.93 376.113 211.317C375.636 211.704 375.162 211.897 374.686 211.897C373.77 211.897 373.168 211.686 372.875 211.264C373.095 211.018 373.206 210.543 373.206 209.84C373.206 209.101 372.637 208.433 371.504 207.835C370.369 207.237 369.107 206.938 367.717 206.938C366.328 206.938 365.175 207.184 364.261 207.677C363.346 208.169 362.89 208.925 362.89 209.945C362.89 210.93 363.4 211.792 364.427 212.53C365.485 213.269 366.748 213.884 368.211 214.377C369.711 214.869 371.192 215.397 372.657 215.96C374.156 216.522 375.418 217.331 376.442 218.386C377.503 219.406 378.033 220.672 378.033 222.185C378.033 224.436 377.009 226.124 374.96 227.249C372.948 228.339 370.278 228.885 366.949 228.885C363.658 228.885 360.969 227.97 358.884 226.141C356.835 224.277 355.811 221.974 355.811 219.23C355.811 218.246 356.013 217.472 356.416 216.909C356.817 216.346 357.275 216.065 357.787 216.065C358.737 216.065 359.285 216.223 359.432 216.54L359.543 216.698C359.323 217.226 359.214 217.876 359.214 218.65C359.214 221.006 359.926 222.958 361.354 224.506C362.779 226.053 364.755 226.827 367.28 226.827C371.155 226.827 373.113 225.508 373.149 222.87C373.149 220.866 371.411 219.283 367.937 218.122Z" fill="#703D57"/>
<g filter="url(#filter0_d_137_32)">
<path d="M55.4183 224.192C55.359 223.6 55.4306 222.957 55.211 222.426C54.8356 221.519 54.8587 220.68 55.1439 219.772C55.2556 219.417 55.2504 218.92 55.0727 218.606C54.4574 217.521 54.6707 216.58 55.3302 215.602C55.5753 215.239 55.7179 214.747 55.7229 214.311C55.7315 213.571 55.8961 212.932 56.471 212.43C57.1255 211.858 57.4906 211.188 57.4063 210.308C57.3094 209.296 57.6524 208.49 58.5783 207.906C58.8291 207.748 58.9905 207.347 59.0466 207.033C59.227 206.024 59.6595 205.258 60.659 204.757C61.0568 204.558 61.2807 204.019 61.5599 203.62C61.8532 203.2 62.0983 202.749 62.4003 202.336C62.7392 201.872 63.0983 201.419 63.4855 200.993C63.8514 200.589 64.2629 200.224 64.6585 199.846C64.9585 199.56 65.3228 199.318 65.5562 198.988C66.0841 198.243 66.5487 197.456 67.1308 196.649C67.379 196.568 67.5606 196.561 67.6876 196.476C68.8899 195.677 70.0903 194.882 71.5693 194.621C71.996 194.545 72.4193 194.452 72.8415 194.355C73.1312 194.289 73.4786 194.279 73.6913 194.113C74.2754 193.659 74.8956 193.7 75.5806 193.759C76.1362 193.806 76.7104 193.686 77.2729 193.615C78.0536 193.517 78.8345 193.284 79.6093 193.307C81.2843 193.355 82.9183 193.334 84.4204 192.483C84.8016 192.267 85.2135 192.102 85.6401 191.966C85.5792 192.678 85.5625 193.357 85.3836 193.993C85.0769 195.085 85.2351 196.052 85.6724 197.108C85.9497 197.778 85.74 198.651 85.6795 199.427C85.6575 199.709 85.4345 199.975 85.3034 200.249C86.3017 199.275 86.7826 198.138 86.2879 196.826C85.591 194.98 85.6372 193.205 86.6217 191.469C86.6177 191.466 86.6197 191.476 86.6587 191.463C86.7439 191.418 86.7741 191.375 86.8367 191.289C87.3585 191.021 87.8321 190.785 88.3007 190.613C88.2738 190.754 88.2762 190.852 88.2266 190.905C86.6751 192.557 86.54 194.417 87.2878 196.444C87.6892 197.532 87.606 198.634 86.933 199.606C85.9168 201.074 85.8079 202.624 86.2192 204.294C86.5821 205.765 86.7292 207.255 86.0521 208.742C85.9296 208.964 85.8429 209.153 85.7025 209.375C85.3662 210.084 84.7364 210.841 84.8822 211.416C85.0994 212.271 84.8768 212.509 84.045 212.616C84.479 213.537 84.1632 214.298 83.709 215.036C83.3185 215.67 83.3104 216.302 83.7104 216.94C84.021 217.434 84.0123 217.929 83.5741 218.339C82.9224 218.947 82.7802 219.68 82.9667 220.483C83.1433 221.245 82.9313 221.884 82.5549 222.553C82.3407 222.934 82.1786 223.535 82.3431 223.884C82.7768 224.802 82.5645 225.485 81.8747 226.132C81.2166 226.749 80.8426 227.48 80.6547 228.366C80.5633 228.796 80.1521 229.359 79.7519 229.495C78.5828 229.893 77.7719 230.593 77.0798 231.556C76.25 232.71 74.2114 233.053 73.2211 231.847C72.995 231.572 72.477 231.318 72.1402 231.365C70.7559 231.559 70.0456 230.837 69.4163 229.817C68.9238 229.018 67.6665 228.638 66.6544 228.894C66.1519 228.833 65.7084 228.756 65.2531 228.623C64.8632 228.198 64.4836 227.832 64.1069 227.462C63.768 227.13 63.3394 226.845 63.1155 226.451C62.7031 225.725 62.2013 225.515 61.4515 225.948C61.1453 226.124 60.8795 226.366 60.5942 226.577C60.004 227.013 59.4252 227.059 58.7526 226.677C58.3965 226.475 57.9221 226.392 57.4999 226.389C56.1727 226.377 55.7325 226.026 55.5548 224.728C55.53 224.547 55.4648 224.371 55.4183 224.192ZM85.2124 200.77L85.1786 200.78C85.1786 200.78 85.2126 200.79 85.2124 200.77Z" fill="#402A2C"/>
<path d="M85.6578 191.255C85.2463 191.446 84.8202 191.613 84.4259 191.831C82.8721 192.692 81.1822 192.713 79.4494 192.664C78.648 192.642 77.8401 192.877 77.0327 192.977C76.4506 193.048 75.8568 193.17 75.2821 193.122C74.5735 193.062 73.932 193.021 73.3278 193.481C73.1079 193.648 72.7485 193.658 72.4488 193.725C72.0122 193.822 71.5742 193.917 71.1329 193.994C69.6031 194.258 68.3613 195.062 67.1176 195.87C66.9865 195.956 66.7985 195.963 66.5744 195.996C65.2178 193.462 66.1867 191.117 67.1612 188.777C67.4794 188.014 67.6933 187.14 68.2387 186.55C68.8865 185.85 69.7806 185.29 70.6741 184.869C72.3838 184.065 74.1483 183.355 75.9274 182.695C77.9201 181.956 80.0088 181.879 82.1198 182.128C83.7222 182.318 85.3376 182.429 86.9282 182.681C88.8149 182.981 90.6176 183.658 92.0572 184.809C92.909 185.49 93.3323 186.647 93.8995 187.676C92.0487 188.465 90.2466 189.17 88.4448 189.875C87.955 190.114 87.465 190.352 86.8862 190.638C86.7475 190.716 86.7153 190.758 86.7008 190.812C86.7008 190.812 86.6986 190.802 86.6436 190.813C86.2784 190.968 85.9682 191.112 85.6578 191.255Z" fill="#703D57"/>
<path d="M64.5213 228.385C64.9737 228.459 65.4259 228.533 65.9457 228.656C66.0973 229.39 66.0288 230.103 66.7796 230.587C69.4562 232.31 72.429 233.319 75.6622 233.675C79.597 234.109 83.376 233.368 87.1288 232.37C89.8392 231.65 91.177 229.9 91.3696 227.493C91.5445 225.308 91.4051 223.098 91.3119 220.903C91.2492 219.431 91.0255 217.966 90.9203 216.461C91.433 216.44 91.8994 216.455 92.3712 216.532C92.6555 217.704 92.8854 218.826 93.2219 219.921C94.7727 224.965 97.1642 229.822 97.2588 235.189C94.7988 235.509 92.3425 235.854 89.8783 236.141C88.1293 236.345 86.373 236.559 84.6139 236.616C79.9837 236.767 75.3502 236.902 70.7179 236.908C68.3929 236.912 66.0675 236.624 63.6655 236.392C63.8994 233.672 64.2104 231.029 64.5213 228.385Z" fill="#703D57"/>
<path d="M88.3239 190.653C90.0385 189.887 91.748 189.185 93.5145 188.46C95.9207 190.312 96.6622 192.702 95.9085 195.577C95.675 196.467 96.0019 197.11 96.7149 197.737C97.3576 198.303 97.875 199.008 98.3788 199.7C97.1651 199.588 96.1257 199.786 95.07 200.697C95.8958 200.787 96.5324 200.857 97.1691 200.926C97.3678 201.271 97.5665 201.616 97.7312 202.023C96.6204 202.54 95.5437 202.995 94.3285 203.509C95.2687 204.313 95.9252 205.233 97.1562 205.308C97.2248 205.997 97.2067 206.707 97.3798 207.369C97.7748 208.879 97.054 209.975 95.4765 209.991C94.1238 210.005 92.7699 209.898 91.282 209.827C90.5902 209.754 90.0334 209.698 89.4114 209.613C88.2817 209.351 87.217 209.12 86.1524 208.888C86.7818 207.422 86.6374 205.921 86.2813 204.438C85.8776 202.756 85.9844 201.194 86.9814 199.715C87.6421 198.735 87.7238 197.625 87.3299 196.529C86.5958 194.487 86.7284 192.613 88.2512 190.948C88.2997 190.894 88.2975 190.795 88.3239 190.653ZM91.8519 191.977C92.7915 191.598 93.5915 192.14 94.438 192.366C94.7569 192.451 95.1182 192.765 95.2999 192.215C95.4654 191.715 95.1946 191.432 94.727 191.347C93.9834 191.213 93.2307 191.019 92.4846 191.031C91.1127 191.052 90.2357 191.958 89.3705 192.829C89.4214 192.923 89.4726 193.017 89.5234 193.111C90.2602 192.75 90.9967 192.39 91.8519 191.977ZM93.0483 195.795C93.2881 195.988 93.5276 196.18 93.7673 196.373C93.8999 196.403 94.0321 196.433 94.1647 196.463C93.4526 195.247 94.7998 195.203 94.9587 194.53C93.693 194.699 92.4761 194.862 91.0969 195.047C91.8108 195.307 92.3811 195.515 93.0483 195.795Z" fill="#9E6448"/>
<path d="M97.5062 235.832C97.3621 230.102 95.0361 224.894 93.5276 219.486C93.2003 218.312 92.9768 217.108 92.7799 215.836C93.65 215.67 94.4457 215.586 95.2413 215.503C96.1688 215.461 97.0963 215.417 98.0238 215.38C100.368 215.284 103.082 217.029 103.811 219.467C104.895 223.089 105.824 226.759 106.816 230.409C106.982 231.017 107.148 231.626 107.292 232.24C107.419 232.781 107.295 233.157 106.697 233.379C103.726 234.483 100.695 235.345 97.5062 235.832Z" fill="#9F6548"/>
<path d="M64.7854 228.436C64.4937 231.276 64.1904 234.057 63.8851 236.909C61.8902 236.552 59.8603 236.245 57.9161 235.66C56.2247 235.151 54.6361 234.314 52.9897 233.652C52.4364 233.429 52.4047 233.011 52.5253 232.584C53.3302 229.735 54.1628 226.894 54.9959 223.989C55.0517 224.11 55.1165 224.289 55.1412 224.474C55.3179 225.794 55.7557 226.151 57.0755 226.163C57.4953 226.167 57.9671 226.252 58.3211 226.457C58.99 226.845 59.5655 226.799 60.1524 226.355C60.4361 226.141 60.7004 225.894 61.005 225.715C61.7506 225.274 62.2495 225.489 62.6598 226.227C62.8823 226.627 63.3085 226.918 63.6454 227.256C64.0201 227.631 64.3974 228.004 64.7854 228.436Z" fill="#9F6448"/>
<path d="M95.0194 216.096C94.2261 216.256 93.4337 216.345 92.5624 216.451C92.0311 216.451 91.5795 216.433 91.0143 216.452C90.4153 216.457 89.9292 216.396 89.4443 216.404C88.9078 216.413 88.6657 216.155 88.5938 215.603C88.5042 214.917 88.3695 214.238 88.3007 213.513C88.4194 213.285 88.5175 213.107 88.5602 212.914C88.8553 211.583 89.139 210.249 89.4261 208.916C89.9866 208.977 90.5472 209.038 91.1679 209.13C91.1536 210.472 91.2242 211.694 92.6855 212.168C92.8689 212.228 93.0712 212.442 93.1432 212.635C93.3996 213.327 93.7192 213.804 94.4409 214.146C94.8192 214.325 94.8387 215.369 95.0194 216.096Z" fill="#412A2C"/>
<path d="M97.1629 204.61C95.7051 204.544 94.9626 203.623 93.8997 202.818C95.2736 202.303 96.4909 201.847 97.7742 201.38C98.0055 201.521 98.2242 201.652 98.3197 201.832C98.4 201.985 98.3938 202.339 98.3284 202.359C97.0168 202.761 98.5253 204.216 97.1629 204.61Z" fill="#573429"/>
<path d="M97.2043 200.303C96.507 200.265 95.8594 200.202 95.0193 200.122C96.0933 199.302 97.151 199.123 98.3786 199.276C98.0457 199.617 97.6496 199.948 97.2043 200.303Z" fill="#583529"/>
<path d="M88.1641 213.165C88.2845 213.786 88.4255 214.404 88.519 215.028C88.5942 215.53 88.847 215.766 89.4078 215.758C89.9147 215.75 90.4227 215.806 91.0016 215.839C91.2268 217.357 91.4535 218.867 91.5167 220.384C91.6111 222.647 91.7522 224.925 91.5753 227.176C91.3803 229.657 90.0262 231.461 87.283 232.203C83.4851 233.232 79.6604 233.995 75.678 233.548C72.4057 233.181 69.3969 232.141 66.6882 230.365C65.9282 229.866 65.9975 229.132 65.9049 228.36C66.8813 228.054 68.1789 228.433 68.6872 229.229C69.3366 230.245 70.0698 230.965 71.4984 230.772C71.846 230.725 72.3808 230.978 72.614 231.252C73.6359 232.454 75.7399 232.112 76.5962 230.962C77.3107 230.002 78.1475 229.305 79.354 228.908C79.7671 228.772 80.1914 228.211 80.2858 227.783C80.4798 226.901 80.8657 226.171 81.5449 225.556C82.257 224.912 82.4761 224.231 82.0282 223.316C81.8586 222.969 82.0258 222.37 82.247 221.99C82.6355 221.323 82.8544 220.686 82.672 219.927C82.4797 219.127 82.6264 218.396 83.2986 217.79C83.751 217.382 83.7601 216.889 83.4395 216.396C83.0263 215.761 83.0352 215.131 83.4381 214.499C83.9066 213.764 84.2326 213.005 83.7848 212.087C84.6432 211.98 84.873 211.744 84.6489 210.891C84.4983 210.319 85.1483 209.564 85.5286 208.916C85.9579 209.461 86.3179 209.971 86.6351 210.503C87.1593 211.383 87.656 212.277 88.1641 213.165ZM84.0437 222.251C84.9977 221.402 85.9519 220.553 86.9057 219.704C85.0468 219.898 84.3585 221.478 83.0396 222.31C83.0854 222.385 83.1311 222.46 83.1769 222.535C83.4315 222.459 83.6861 222.383 84.0437 222.251Z" fill="#9F6548"/>
<path d="M88.4246 213.222C87.9241 212.476 87.4775 211.69 87.0063 210.917C86.721 210.449 86.3975 210.001 86.0612 209.492C86.1118 209.275 86.1923 209.11 86.306 208.916C87.3459 209.089 88.3524 209.291 89.4206 209.518C89.2121 210.61 88.9457 211.677 88.6684 212.743C88.6282 212.897 88.5362 213.04 88.4246 213.222Z" fill="#58352A"/>
<path d="M85.2875 191.15C85.5136 190.935 85.7635 190.779 86.061 190.613C85.2851 192.52 85.2468 194.481 85.8272 196.521C86.2395 197.971 85.8387 199.227 85.0069 200.303C85.1164 200.001 85.3022 199.706 85.3205 199.395C85.3708 198.537 85.5454 197.573 85.3143 196.832C84.9502 195.666 84.8185 194.597 85.0741 193.391C85.223 192.687 85.2368 191.937 85.2875 191.15Z" fill="#965F45"/>
<path d="M91.6886 191.62C90.9433 192.02 90.2533 192.393 89.5636 192.766C89.5158 192.669 89.4681 192.571 89.4203 192.474C90.2306 191.573 91.0519 190.635 92.3368 190.613C93.0354 190.602 93.7405 190.802 94.4368 190.941C94.8748 191.028 95.1285 191.321 94.9734 191.839C94.8031 192.408 94.4647 192.083 94.1663 191.995C93.3734 191.762 92.6241 191.201 91.6886 191.62Z" fill="#59362A"/>
<path d="M92.747 195.212C92.0295 194.941 91.3682 194.71 90.5399 194.42C92.1396 194.214 93.5514 194.033 95.0192 193.843C94.835 194.594 93.2723 194.642 94.0982 195.997C93.9446 195.964 93.7909 195.93 93.6375 195.897C93.3593 195.682 93.0814 195.468 92.747 195.212Z" fill="#5C382B"/>
<path d="M83.8054 222.621C83.4507 222.74 83.1558 222.826 82.861 222.913C82.808 222.827 82.7548 222.742 82.7019 222.657C84.2296 221.708 85.0271 219.905 87.1808 219.683C86.0757 220.652 84.9704 221.621 83.8054 222.621Z" fill="#5C382B"/>
</g>
<defs>
<filter id="filter0_d_137_32" x="48.4678" y="181" width="62.8691" height="62.9089" filterUnits="userSpaceOnUse" color-interpolation-filters="sRGB">
<feFlood flood-opacity="0" result="BackgroundImageFix"/>
<feColorMatrix in="SourceAlpha" type="matrix" values="0 0 0 0 0 0 0 0 0 0 0 0 0 0 0 0 0 0 127 0" result="hardAlpha"/>
<feOffset dy="3"/>
<feGaussianBlur stdDeviation="2"/>
<feComposite in2="hardAlpha" operator="out"/>
<feColorMatrix type="matrix" values="0 0 0 0 1 0 0 0 0 0.368627 0 0 0 0 0.505882 0 0 0 0.15 0"/>
<feBlend mode="normal" in2="BackgroundImageFix" result="effect1_dropShadow_137_32"/>
<feBlend mode="normal" in="SourceGraphic" in2="effect1_dropShadow_137_32" result="shape"/>
</filter>
<linearGradient id="paint0_linear_137_32" x1="430" y1="0" x2="0" y2="430" gradientUnits="userSpaceOnUse">
<stop stop-color="#FF5E81"/>
<stop offset="1" stop-color="white"/>
</linearGradient>
<linearGradient id="paint1_linear_137_32" x1="430" y1="0" x2="0" y2="430" gradientUnits="userSpaceOnUse">
<stop stop-color="#FF5E81"/>
<stop offset="1" stop-color="white"/>
</linearGradient>
</defs>
</svg>
