<svg width="1998" height="512" viewBox="0 0 1998 512" fill="none" xmlns="http://www.w3.org/2000/svg">
<g filter="url(#filter0_d_97_21)">
<path d="M424.321 315.346V190.231C424.321 161.994 427.069 141.576 432.565 128.978C438.061 116.162 448.614 109.754 464.223 109.754C472.578 109.754 479.063 113.229 483.68 120.181C488.296 127.132 490.605 137.014 490.605 149.83C490.605 173.072 478.403 196.748 454 220.858V238.127C462.134 229.439 472.467 225.094 484.999 225.094C504.125 225.094 519.844 231.501 532.156 244.317C544.468 257.133 550.623 275.27 550.623 298.729C550.623 322.188 544.687 340.543 532.815 353.792C520.944 366.825 505.555 373.341 486.648 373.341C467.961 373.341 452.901 368.019 441.469 357.376C430.037 346.733 424.321 332.723 424.321 315.346ZM519.295 298.729C519.295 276.139 516.876 260.391 512.04 251.485C507.204 242.362 498.63 237.801 486.318 237.801C474.006 237.801 465.542 241.602 460.925 249.205C456.309 256.807 454 269.84 454 288.303V305.245C454 324.794 456.528 338.913 461.585 347.602C466.861 356.29 475.435 360.634 487.307 360.634C499.179 360.634 507.423 355.964 512.04 346.624C516.876 337.284 519.295 321.319 519.295 298.729ZM464.553 122.461C460.156 122.461 457.298 126.914 455.979 135.82C454.66 144.508 454 162.863 454 190.883V205.219C468.95 186.105 476.425 167.533 476.425 149.504C476.425 131.475 472.467 122.461 464.553 122.461ZM711.922 299.055C716.539 299.055 718.848 302.53 718.848 309.481C718.848 325.555 713.131 340.217 701.7 353.466C690.487 366.716 673.339 373.341 650.255 373.341C627.171 373.341 608.594 367.26 594.524 355.095C580.674 342.714 573.748 324.685 573.748 301.01C573.748 277.116 579.904 258.544 592.216 245.295C604.526 231.827 620.246 225.094 639.373 225.094C653.223 225.094 663.336 228.787 669.712 236.172C676.087 243.34 679.275 251.92 679.275 261.911C679.275 278.202 672.35 291.778 658.5 302.639C644.869 313.282 627.391 318.604 606.066 318.604C608.045 332.505 613.101 343.04 621.235 350.208C629.589 357.159 640.471 360.634 653.883 360.634C667.513 360.634 679.714 355.638 690.487 345.647C701.479 335.437 706.976 320.559 706.976 301.01C707.195 299.706 708.844 299.055 711.922 299.055ZM605.077 303.616V306.549C618.707 304.811 630.469 300.575 640.362 293.842C650.475 287.108 655.532 277.116 655.532 263.866C655.532 255.395 653.662 248.988 649.926 244.643C646.188 240.082 640.911 237.801 634.097 237.801C623.763 237.801 616.289 242.797 611.672 252.789C607.275 262.78 605.077 279.723 605.077 303.616ZM805.652 234.543C808.51 228.243 813.017 225.094 819.172 225.094C825.548 225.094 830.274 226.614 833.353 229.655V323.165C833.353 335.546 835.331 344.886 839.288 351.186C843.246 357.485 848.632 360.634 855.447 360.634C876.113 360.634 886.446 339.456 886.446 297.1C886.665 295.797 888.314 295.145 891.392 295.145C895.349 295.145 897.328 300.901 897.328 312.413C897.328 330.876 893.261 345.647 885.127 356.725C877.212 367.802 866 373.341 851.49 373.341C829.285 373.341 814.556 363.676 807.301 344.343C803.124 353.249 797.408 360.309 790.153 365.522C782.898 370.735 774.653 373.341 765.42 373.341C726.947 373.341 707.71 348.47 707.71 298.729C707.71 273.532 713.646 254.96 725.517 243.014C737.609 231.068 753.548 225.094 773.334 225.094C788.504 225.094 799.276 228.243 805.652 234.543ZM743.655 338.805C746.733 348.362 750.25 354.444 754.208 357.05C758.165 359.44 763.441 360.634 770.037 360.634C776.632 360.634 783.777 356.616 791.472 348.579C799.386 340.325 803.343 329.682 803.343 316.649V272.012C803.343 261.803 800.595 253.549 795.099 247.25C789.823 240.95 783.777 237.801 776.962 237.801C770.366 237.801 765.09 238.453 761.133 239.756C757.176 241.059 753.438 243.775 749.921 247.901C742.666 255.721 739.038 272.663 739.038 298.729C739.038 315.888 740.577 329.247 743.655 338.805ZM975.792 244.969C975.792 238.453 977.667 233.565 981.398 230.307C985.139 226.832 989.642 225.094 994.919 225.094C1000.19 225.094 1004.38 226.614 1007.45 229.655V323.165C1007.45 335.546 1009.43 344.886 1013.39 351.186C1017.34 357.485 1022.73 360.634 1029.54 360.634C1036.37 360.634 1042.96 356.725 1049.33 348.905C1056.81 339.565 1060.54 322.297 1060.54 297.1C1060.77 295.797 1062.42 295.145 1065.49 295.145C1069.45 295.145 1071.43 300.901 1071.43 312.413C1071.43 330.876 1067.36 345.647 1059.22 356.725C1051.31 367.802 1040.1 373.341 1025.59 373.341C1002.5 373.341 987.334 363.024 980.079 342.389C971.505 363.024 955.789 373.341 932.926 373.341C919.295 373.341 908.303 369.323 899.948 361.286C891.594 353.032 887.417 341.302 887.417 326.098V244.969C887.417 238.453 889.066 233.565 892.364 230.307C895.661 226.832 899.838 225.094 904.895 225.094C909.952 225.094 914.018 226.614 917.096 229.655V323.165C917.096 349.014 923.692 361.938 936.883 361.938C946.772 361.938 955.676 356.073 963.59 344.343C971.731 332.614 975.792 316.106 975.792 294.819V244.969ZM1060.99 196.748C1060.99 190.231 1062.63 185.344 1065.93 182.086C1069.23 178.611 1073.41 176.873 1078.46 176.873C1083.52 176.873 1087.59 178.393 1090.67 181.434V229.655H1135.84C1140.46 229.655 1143.43 230.524 1144.75 232.262C1146.29 234 1147.06 236.932 1147.06 241.059H1090.67V323.165C1090.67 335.112 1094.08 344.343 1100.89 350.86C1107.93 357.376 1115.95 360.634 1124.96 360.634C1138.6 360.634 1148.6 355.638 1154.97 345.647C1161.35 335.655 1164.53 319.472 1164.53 297.1C1164.98 295.797 1166.63 295.145 1169.48 295.145C1173.44 295.145 1175.42 300.901 1175.42 312.413C1175.42 330.007 1170.91 344.56 1161.9 356.073C1153.1 367.585 1139.47 373.341 1121 373.341C1102.54 373.341 1087.92 368.563 1077.14 359.005C1066.38 349.448 1060.99 335.221 1060.99 316.323V196.748ZM1165.33 244.969C1165.33 238.453 1166.98 233.565 1170.28 230.307C1173.58 226.832 1177.75 225.094 1182.81 225.094C1187.86 225.094 1191.93 226.614 1195.01 229.655V323.165C1195.01 349.014 1201.61 361.938 1214.8 361.938C1226.67 361.938 1236.34 355.747 1243.82 343.366C1251.51 330.985 1255.36 310.133 1255.36 280.809V244.969C1255.36 238.453 1257.01 233.565 1260.31 230.307C1263.61 226.832 1267.78 225.094 1272.84 225.094C1277.89 225.094 1281.96 226.614 1285.04 229.655V395.171C1287.68 394.954 1291.85 394.845 1297.57 394.845C1303.28 394.845 1306.15 397.235 1306.15 402.013L1304.17 406.901C1295.81 406.901 1289.43 407.009 1285.04 407.226V423.517C1285.04 445.89 1279.87 463.484 1269.54 476.3C1259.42 489.333 1245.8 495.849 1228.65 495.849C1218.53 495.849 1209.52 492.808 1201.61 486.726C1193.91 480.861 1190.07 471.521 1190.07 458.706C1190.07 442.198 1196 429.056 1207.88 419.282C1219.75 409.507 1235.58 402.665 1255.36 398.755V347.927C1246.13 364.87 1231.29 373.341 1210.84 373.341C1196.77 373.341 1185.67 368.889 1177.54 359.983C1169.4 351.077 1165.33 338.262 1165.33 321.536V244.969ZM1206.89 459.683C1206.89 467.286 1208.97 473.042 1213.15 476.951C1217.33 481.078 1222.39 483.142 1228.32 483.142C1234.26 483.142 1239.09 481.404 1242.83 477.929C1251.18 470.544 1255.36 448.279 1255.36 411.136C1223.04 418.304 1206.89 434.486 1206.89 459.683Z" fill="#FF5E81"/>
</g>
<g filter="url(#filter1_d_97_21)">
<path d="M1464.2 305.571C1468.82 305.571 1471.13 308.72 1471.13 315.02C1471.13 321.319 1469.81 327.618 1467.17 333.917C1464.53 340.217 1460.69 346.407 1455.63 352.489C1450.79 358.571 1443.87 363.567 1434.85 367.477C1426.06 371.386 1416.06 373.341 1404.84 373.341C1380.22 373.341 1360.88 367.26 1346.8 355.095C1332.95 342.714 1326.03 324.685 1326.03 301.01C1326.03 277.116 1332.19 258.544 1344.49 245.295C1356.81 231.827 1372.53 225.094 1391.65 225.094C1405.5 225.094 1415.62 228.787 1421.99 236.172C1428.37 243.34 1431.55 251.92 1431.55 261.912C1431.55 267.342 1429.91 271.686 1426.61 274.944C1423.31 278.202 1420.13 279.832 1417.04 279.832C1411.33 279.832 1407.59 278.528 1405.83 275.922C1407.15 272.663 1407.81 267.993 1407.81 261.912C1407.81 255.83 1405.73 250.291 1401.55 245.295C1397.37 240.299 1392.31 237.801 1386.38 237.801C1376.05 237.801 1368.57 242.797 1363.95 252.789C1359.56 262.78 1357.36 278.528 1357.36 300.032C1357.36 321.319 1361.54 336.741 1369.89 346.298C1378.46 355.856 1390.33 360.634 1405.5 360.634C1420.67 360.634 1433.43 356.073 1443.76 346.95C1454.09 337.61 1459.26 324.469 1459.26 307.526C1459.48 306.223 1461.13 305.571 1464.2 305.571ZM1548.39 244.969C1548.39 238.453 1550.25 233.565 1553.99 230.307C1557.73 226.832 1562.24 225.094 1567.51 225.094C1572.79 225.094 1576.96 226.614 1580.05 229.655V323.165C1580.05 335.546 1582.02 344.886 1585.98 351.186C1589.94 357.485 1595.33 360.634 1602.14 360.634C1608.95 360.634 1615.55 356.725 1621.93 348.905C1629.4 339.565 1633.14 322.297 1633.14 297.1C1633.36 295.797 1635 295.145 1638.09 295.145C1642.04 295.145 1644.02 300.901 1644.02 312.413C1644.02 330.876 1639.95 345.647 1631.82 356.725C1623.9 367.802 1612.69 373.341 1598.18 373.341C1575.1 373.341 1559.93 363.024 1552.67 342.389C1544.1 363.024 1528.38 373.341 1505.52 373.341C1491.88 373.341 1480.9 369.323 1472.54 361.286C1464.18 353.032 1460.01 341.302 1460.01 326.098V244.969C1460.01 238.453 1461.66 233.565 1464.96 230.307C1468.25 226.832 1472.43 225.094 1477.49 225.094C1482.55 225.094 1486.61 226.614 1489.69 229.655V323.165C1489.69 349.014 1496.28 361.938 1509.47 361.938C1519.37 361.938 1528.27 356.073 1536.19 344.344C1544.32 332.614 1548.39 316.106 1548.39 294.819V244.969ZM1663.59 316.975V368.78C1661.4 371.821 1657.54 373.341 1652.05 373.341C1646.56 373.341 1642.16 371.712 1638.86 368.454C1635.56 364.979 1633.91 359.983 1633.91 353.466V229.655C1636.11 226.614 1639.96 225.094 1645.45 225.094C1650.95 225.094 1655.35 226.832 1658.64 230.307C1661.94 233.565 1663.59 238.453 1663.59 244.969V269.731C1674.59 242.797 1689.76 229.33 1709.1 229.33C1722.95 229.33 1733.06 233.023 1739.44 240.408C1745.82 247.576 1749 256.156 1749 266.147C1749 271.577 1747.35 275.922 1744.05 279.18C1740.76 282.438 1737.57 284.067 1734.49 284.067C1728.77 284.067 1725.04 282.764 1723.28 280.157C1724.6 276.899 1725.26 272.229 1725.26 266.147C1725.26 260.065 1723.17 254.527 1718.99 249.53C1714.82 244.534 1709.76 242.037 1703.82 242.037C1693.49 242.037 1684.15 251.376 1675.79 270.057C1667.66 288.52 1663.59 304.159 1663.59 316.975ZM1858.7 295.145C1862.66 295.145 1864.64 300.901 1864.64 312.413C1864.64 329.139 1860.02 343.475 1850.79 355.421C1841.55 367.368 1829.8 373.341 1815.5 373.341C1797.69 373.341 1784.4 368.128 1775.6 357.702C1766.81 347.276 1762.41 332.505 1762.41 313.391V190.883C1762.41 162.863 1765.38 142.336 1771.31 129.303C1777.25 116.271 1787.7 109.754 1802.64 109.754C1824.41 109.754 1835.29 124.307 1835.29 153.414C1835.29 175.353 1830.9 192.947 1822.1 206.197C1813.52 219.446 1803.63 229.33 1792.42 235.846V323.165C1792.42 335.546 1794.84 344.886 1799.67 351.186C1804.52 357.485 1811.11 360.634 1819.46 360.634C1827.82 360.634 1835.62 355.638 1842.87 345.647C1850.13 335.655 1853.76 319.472 1853.76 297.1C1854.2 295.797 1855.85 295.145 1858.7 295.145ZM1821.11 153.74C1821.11 132.887 1815.83 122.461 1805.28 122.461C1802.64 122.461 1800.56 123.33 1799.01 125.068C1797.69 126.806 1796.49 131.149 1795.39 138.101C1793.41 148.744 1792.42 176.764 1792.42 222.162C1811.54 208.477 1821.11 185.67 1821.11 153.74ZM1914.87 306.874C1906.07 303.833 1897.28 300.684 1888.48 297.426C1879.91 293.951 1872.66 289.063 1866.72 282.764C1860.78 276.464 1857.82 268.428 1857.82 258.653C1857.82 248.662 1862.43 240.624 1871.67 234.543C1880.9 228.243 1894.31 225.094 1911.9 225.094C1929.71 225.094 1943.56 228.135 1953.45 234.217C1963.56 240.299 1968.62 247.359 1968.62 255.395C1968.62 259.305 1967.07 262.454 1964 264.844C1961.14 267.234 1958.28 268.428 1955.43 268.428C1949.93 268.428 1946.3 267.125 1944.55 264.518C1945.86 262.998 1946.52 260.065 1946.52 255.721C1946.52 251.159 1943.11 247.033 1936.3 243.34C1929.48 239.647 1921.9 237.801 1913.55 237.801C1905.19 237.801 1898.26 239.321 1892.77 242.362C1887.27 245.404 1884.53 250.073 1884.53 256.373C1884.53 262.454 1887.6 267.776 1893.76 272.338C1900.13 276.899 1907.72 280.7 1916.52 283.741C1925.52 286.783 1934.43 290.041 1943.23 293.516C1952.23 296.991 1959.82 301.987 1965.98 308.503C1972.35 314.803 1975.54 322.623 1975.54 331.962C1975.54 345.864 1969.38 356.29 1957.08 363.241C1944.98 369.974 1928.93 373.341 1908.93 373.341C1889.14 373.341 1872.99 367.693 1860.45 356.399C1848.14 344.886 1841.99 330.659 1841.99 313.717C1841.99 307.635 1843.19 302.856 1845.61 299.381C1848.03 295.905 1850.78 294.168 1853.86 294.168C1859.57 294.168 1862.87 295.145 1863.75 297.1L1864.41 298.077C1863.09 301.335 1862.43 305.354 1862.43 310.133C1862.43 324.685 1866.72 336.741 1875.29 346.298C1883.87 355.856 1895.74 360.634 1910.91 360.634C1934.21 360.634 1945.97 352.489 1946.19 336.198C1946.19 323.817 1935.75 314.042 1914.87 306.874Z" fill="#703D57"/>
</g>
<g filter="url(#filter2_d_97_21)">
<path d="M36.5765 344.358C36.2198 340.7 36.6506 336.73 35.331 333.452C33.0747 327.848 33.2131 322.67 34.9273 317.063C35.5987 314.867 35.5677 311.798 34.4998 309.862C30.8015 303.156 32.0833 297.345 36.0469 291.309C37.5203 289.064 38.3772 286.025 38.4074 283.336C38.459 278.765 39.4483 274.816 42.9033 271.716C46.8371 268.187 49.0316 264.05 48.5245 258.609C47.9425 252.364 50.0038 247.382 55.5687 243.777C57.076 242.802 58.046 240.324 58.3833 238.385C59.4673 232.151 62.0667 227.42 68.0743 224.328C70.465 223.097 71.8105 219.773 73.4888 217.306C75.2511 214.715 76.7246 211.928 78.5393 209.377C80.5762 206.513 82.7345 203.715 85.0613 201.08C87.2607 198.589 89.7346 196.335 92.1118 194.001C93.9143 192.231 96.1043 190.736 97.5073 188.702C100.68 184.1 103.471 179.238 106.971 174.251C108.462 173.753 109.554 173.708 110.317 173.187C117.542 168.253 124.758 163.342 133.646 161.728C136.211 161.263 138.755 160.683 141.293 160.088C143.034 159.679 145.122 159.617 146.4 158.595C149.911 155.789 153.638 156.043 157.755 156.404C161.094 156.697 164.545 155.956 167.926 155.519C172.618 154.912 177.312 153.475 181.968 153.611C192.036 153.908 201.855 153.779 210.883 148.526C213.175 147.193 215.65 146.172 218.214 145.33C217.848 149.728 217.748 153.92 216.673 157.852C214.829 164.595 215.78 170.57 218.408 177.09C220.075 181.226 218.814 186.616 218.451 191.412C218.319 193.15 216.979 194.797 216.19 196.485C222.191 190.474 225.081 183.451 222.107 175.35C217.92 163.945 218.197 152.985 224.114 142.26C224.089 142.242 224.102 142.303 224.336 142.225C224.848 141.948 225.03 141.684 225.406 141.153C228.542 139.496 231.389 138.038 234.205 136.975C234.043 137.845 234.057 138.452 233.759 138.777C224.434 148.985 223.622 160.471 228.117 172.99C230.529 179.707 230.03 186.512 225.984 192.518C219.878 201.58 219.223 211.157 221.695 221.466C223.875 230.555 224.76 239.754 220.691 248.942C219.954 250.31 219.433 251.477 218.59 252.848C216.568 257.226 212.783 261.906 213.659 265.455C214.964 270.737 213.626 272.203 208.627 272.866C211.236 278.557 209.337 283.256 206.608 287.813C204.262 291.729 204.212 295.633 206.616 299.568C208.483 302.623 208.431 305.681 205.796 308.208C201.881 311.965 201.026 316.492 202.146 321.454C203.208 326.157 201.934 330.104 199.671 334.238C198.384 336.589 197.41 340.304 198.398 342.455C201.005 348.125 199.73 352.346 195.584 356.338C191.628 360.148 189.381 364.669 188.251 370.135C187.701 372.792 185.231 376.269 182.825 377.111C175.799 379.569 170.926 383.892 166.766 389.838C161.779 396.967 149.526 399.082 143.574 391.636C142.216 389.938 139.103 388.368 137.078 388.659C128.758 389.859 124.489 385.396 120.707 379.098C117.747 374.166 110.19 371.819 104.107 373.397C101.087 373.02 98.4212 372.549 95.6851 371.726C93.3417 369.103 91.0606 366.838 88.7961 364.557C86.7602 362.506 84.1833 360.742 82.8383 358.312C80.3591 353.83 77.3437 352.53 72.8373 355.202C70.9964 356.294 69.3991 357.788 67.6842 359.09C64.1373 361.784 60.6588 362.065 56.6163 359.709C54.4762 358.462 51.625 357.947 49.0874 357.925C41.1107 357.853 38.4646 355.684 37.397 347.669C37.2479 346.55 36.856 345.462 36.5765 344.358ZM215.643 199.705L215.441 199.769C215.441 199.769 215.644 199.832 215.643 199.705Z" fill="#402A2C"/>
<path d="M218.321 140.941C215.848 142.119 213.287 143.152 210.918 144.5C201.578 149.813 191.422 149.945 181.007 149.644C176.191 149.505 171.336 150.959 166.482 151.574C162.985 152.016 159.416 152.766 155.962 152.469C151.703 152.104 147.848 151.847 144.216 154.685C142.894 155.718 140.734 155.782 138.933 156.195C136.309 156.796 133.677 157.384 131.025 157.855C121.83 159.487 114.366 164.454 106.892 169.445C106.104 169.971 104.974 170.018 103.627 170.224C95.4733 154.574 101.297 140.085 107.154 125.637C109.066 120.921 110.352 115.525 113.63 111.885C117.523 107.561 122.897 104.098 128.267 101.503C138.542 96.5366 149.148 92.149 159.84 88.0736C171.816 83.5089 184.369 83.0332 197.058 84.5753C206.688 85.7456 216.397 86.431 225.956 87.9905C237.296 89.8406 248.13 94.0232 256.783 101.13C261.902 105.333 264.446 112.484 267.855 118.834C256.731 123.711 245.901 128.064 235.071 132.418C232.128 133.892 229.183 135.367 225.705 137.133C224.87 137.61 224.677 137.871 224.59 138.205C224.59 138.205 224.577 138.145 224.246 138.212C222.051 139.166 220.186 140.054 218.321 140.941Z" fill="#703D57"/>
<path d="M91.2875 370.258C94.0058 370.714 96.7245 371.169 99.8479 371.931C100.759 376.464 100.348 380.866 104.86 383.852C120.947 394.496 138.814 400.729 158.247 402.928C181.895 405.603 204.608 401.031 227.162 394.869C243.452 390.419 251.493 379.612 252.651 364.745C253.701 351.254 252.864 337.604 252.303 324.045C251.927 314.957 250.581 305.906 249.949 296.612C253.031 296.482 255.834 296.578 258.669 297.054C260.379 304.287 261.76 311.219 263.783 317.981C273.103 349.135 287.476 379.131 288.044 412.276C273.26 414.253 258.498 416.383 243.686 418.159C233.175 419.418 222.619 420.737 212.047 421.091C184.218 422.024 156.371 422.853 128.53 422.896C114.557 422.918 100.581 421.139 86.1438 419.704C87.5499 402.909 89.4187 386.584 91.2875 370.258Z" fill="#703D57"/>
<path d="M234.345 137.225C244.65 132.491 254.924 128.154 265.541 123.677C280.003 135.119 284.459 149.877 279.929 167.631C278.525 173.131 280.491 177.099 284.776 180.974C288.639 184.468 291.748 188.824 294.777 193.097C287.482 192.403 281.235 193.631 274.89 199.257C279.853 199.812 283.679 200.239 287.506 200.667C288.699 202.799 289.894 204.932 290.883 207.446C284.208 210.639 277.737 213.45 270.434 216.622C276.084 221.587 280.03 227.269 287.428 227.734C287.841 231.985 287.732 236.374 288.772 240.459C291.146 249.785 286.813 256.558 277.333 256.657C269.203 256.742 261.066 256.079 252.123 255.642C247.966 255.191 244.619 254.845 240.881 254.318C234.091 252.704 227.692 251.272 221.293 249.839C225.076 240.784 224.208 231.515 222.069 222.358C219.642 211.971 220.284 202.321 226.277 193.19C230.247 187.139 230.738 180.282 228.371 173.514C223.959 160.9 224.756 149.326 233.907 139.041C234.2 138.713 234.186 138.102 234.345 137.225ZM255.548 145.401C261.196 143.061 266.004 146.407 271.091 147.803C273.008 148.329 275.179 150.268 276.272 146.871C277.267 143.779 275.639 142.031 272.828 141.509C268.359 140.681 263.835 139.484 259.351 139.554C251.105 139.685 245.835 145.282 240.635 150.662C240.941 151.243 241.248 151.824 241.554 152.405C245.982 150.176 250.408 147.947 255.548 145.401ZM262.739 168.979C264.179 170.169 265.62 171.36 267.061 172.55C267.857 172.735 268.652 172.919 269.448 173.102C265.169 165.596 273.266 165.324 274.221 161.165C266.614 162.213 259.3 163.22 251.011 164.361C255.302 165.966 258.729 167.248 262.739 168.979Z" fill="#9E6448"/>
<path d="M289.531 416.249C288.666 380.856 274.686 348.695 265.62 315.293C263.653 308.043 262.309 300.611 261.126 292.751C266.355 291.725 271.138 291.209 275.919 290.694C281.493 290.439 287.067 290.166 292.642 289.934C306.729 289.345 323.044 300.123 327.425 315.176C333.937 337.548 339.522 360.21 345.488 382.752C346.483 386.51 347.478 390.271 348.344 394.061C349.108 397.402 348.365 399.725 344.771 401.097C326.913 407.914 308.697 413.239 289.531 416.249Z" fill="#9F6548"/>
<path d="M92.8742 370.573C91.1212 388.108 89.2988 405.286 87.4636 422.899C75.4743 420.694 63.274 418.798 51.5895 415.185C41.4238 412.041 31.876 406.872 21.9809 402.782C18.6552 401.408 18.4647 398.825 19.1896 396.189C24.0272 378.594 29.0311 361.046 34.0384 343.107C34.3738 343.853 34.7635 344.96 34.9118 346.099C35.9734 354.252 38.6048 356.459 46.5368 356.532C49.0602 356.555 51.8955 357.079 54.0236 358.348C58.0435 360.745 61.5025 360.459 65.0296 357.718C66.7349 356.393 68.3233 354.873 70.154 353.763C74.6351 351.043 77.6336 352.367 80.0989 356.926C81.4365 359.399 83.9989 361.194 86.0234 363.28C88.2752 365.601 90.5436 367.904 92.8742 370.573Z" fill="#9F6448"/>
<path d="M274.585 294.356C269.818 295.35 265.056 295.893 259.818 296.548C256.626 296.55 253.911 296.441 250.515 296.556C246.914 296.591 243.993 296.213 241.078 296.263C237.853 296.319 236.399 294.722 235.966 291.313C235.428 287.078 234.619 282.884 234.205 278.407C234.918 276.998 235.508 275.896 235.764 274.706C237.539 266.485 239.243 258.246 240.969 250.013C244.338 250.39 247.707 250.767 251.437 251.335C251.351 259.627 251.776 267.17 260.558 270.102C261.661 270.47 262.876 271.789 263.309 272.987C264.85 277.256 266.771 280.2 271.109 282.315C273.382 283.423 273.5 289.869 274.585 294.356Z" fill="#412A2C"/>
<path d="M287.469 223.419C278.706 223.012 274.245 217.323 267.856 212.351C276.113 209.174 283.43 206.359 291.142 203.472C292.533 204.341 293.848 205.149 294.421 206.267C294.904 207.207 294.867 209.394 294.474 209.518C286.591 212.002 295.657 220.989 287.469 223.419Z" fill="#573429"/>
<path d="M287.717 196.823C283.527 196.584 279.635 196.199 274.585 195.701C281.041 190.639 287.397 189.535 294.775 190.48C292.774 192.581 290.394 194.629 287.717 196.823Z" fill="#583529"/>
<path d="M233.385 276.256C234.109 280.089 234.956 283.907 235.518 287.763C235.97 290.866 237.49 292.319 240.86 292.269C243.906 292.223 246.959 292.567 250.439 292.768C251.792 302.144 253.155 311.473 253.534 320.839C254.102 334.815 254.95 348.885 253.887 362.789C252.715 378.113 244.576 389.251 228.089 393.837C205.264 400.188 182.276 404.901 158.342 402.143C138.674 399.877 120.592 393.453 104.311 382.482C99.7435 379.404 100.16 374.867 99.604 370.102C105.472 368.213 113.271 370.552 116.326 375.467C120.229 381.743 124.635 386.191 133.222 384.995C135.311 384.705 138.525 386.269 139.926 387.962C146.069 395.383 158.714 393.274 163.86 386.17C168.154 380.244 173.183 375.937 180.435 373.487C182.918 372.648 185.468 369.183 186.035 366.535C187.201 361.087 189.52 356.582 193.603 352.786C197.882 348.806 199.199 344.601 196.508 338.949C195.488 336.806 196.494 333.105 197.822 330.762C200.157 326.642 201.472 322.708 200.376 318.021C199.22 313.076 200.102 308.565 204.142 304.822C206.861 302.303 206.916 299.255 204.989 296.211C202.507 292.289 202.559 288.399 204.981 284.496C207.797 279.955 209.756 275.272 207.064 269.6C212.224 268.94 213.605 267.48 212.257 262.214C211.353 258.679 215.259 254.015 217.545 250.013C220.126 253.382 222.289 256.531 224.195 259.817C227.346 265.251 230.331 270.772 233.385 276.256ZM208.621 332.374C214.355 327.129 220.089 321.884 225.822 316.64C214.649 317.84 210.513 327.6 202.586 332.738C202.861 333.201 203.136 333.663 203.411 334.126C204.941 333.658 206.471 333.189 208.621 332.374Z" fill="#9F6548"/>
<path d="M234.95 276.611C231.942 272.002 229.258 267.148 226.425 262.372C224.711 259.483 222.767 256.714 220.746 253.574C221.05 252.234 221.533 251.212 222.217 250.013C228.467 251.083 234.516 252.329 240.936 253.731C239.683 260.476 238.082 267.07 236.415 273.648C236.174 274.601 235.62 275.483 234.95 276.611Z" fill="#58352A"/>
<path d="M216.096 140.294C217.455 138.967 218.957 137.998 220.745 136.975C216.082 148.753 215.851 160.863 219.339 173.465C221.817 182.416 219.409 190.177 214.409 196.82C215.067 194.954 216.184 193.133 216.294 191.214C216.596 185.913 217.646 179.958 216.257 175.387C214.068 168.183 213.277 161.582 214.813 154.13C215.708 149.786 215.791 145.153 216.096 140.294Z" fill="#965F45"/>
<path d="M254.567 143.193C250.088 145.663 245.941 147.968 241.795 150.274C241.508 149.673 241.221 149.072 240.934 148.47C245.804 142.904 250.741 137.113 258.463 136.978C262.661 136.906 266.898 138.144 271.084 139.001C273.716 139.541 275.242 141.349 274.309 144.549C273.286 148.063 271.252 146.057 269.458 145.513C264.693 144.069 260.19 140.607 254.567 143.193Z" fill="#59362A"/>
<path d="M260.929 165.381C256.615 163.704 252.641 162.276 247.664 160.487C257.278 159.216 265.762 158.094 274.584 156.927C273.478 161.559 264.085 161.861 269.05 170.226C268.126 170.021 267.203 169.815 266.28 169.61C264.608 168.284 262.938 166.957 260.929 165.381Z" fill="#5C382B"/>
<path d="M207.187 334.658C205.056 335.39 203.284 335.925 201.512 336.459C201.193 335.931 200.874 335.404 200.555 334.876C209.738 329.015 214.53 317.88 227.475 316.511C220.832 322.495 214.19 328.478 207.187 334.658Z" fill="#5C382B"/>
</g>
<defs>
<filter id="filter0_d_97_21" x="420.321" y="109.754" width="889.826" height="394.095" filterUnits="userSpaceOnUse" color-interpolation-filters="sRGB">
<feFlood flood-opacity="0" result="BackgroundImageFix"/>
<feColorMatrix in="SourceAlpha" type="matrix" values="0 0 0 0 0 0 0 0 0 0 0 0 0 0 0 0 0 0 127 0" result="hardAlpha"/>
<feOffset dy="4"/>
<feGaussianBlur stdDeviation="2"/>
<feComposite in2="hardAlpha" operator="out"/>
<feColorMatrix type="matrix" values="0 0 0 0 1 0 0 0 0 0.368627 0 0 0 0 0.505882 0 0 0 0.25 0"/>
<feBlend mode="normal" in2="BackgroundImageFix" result="effect1_dropShadow_97_21"/>
<feBlend mode="normal" in="SourceGraphic" in2="effect1_dropShadow_97_21" result="shape"/>
</filter>
<filter id="filter1_d_97_21" x="1322.03" y="109.754" width="657.517" height="271.587" filterUnits="userSpaceOnUse" color-interpolation-filters="sRGB">
<feFlood flood-opacity="0" result="BackgroundImageFix"/>
<feColorMatrix in="SourceAlpha" type="matrix" values="0 0 0 0 0 0 0 0 0 0 0 0 0 0 0 0 0 0 127 0" result="hardAlpha"/>
<feOffset dy="4"/>
<feGaussianBlur stdDeviation="2"/>
<feComposite in2="hardAlpha" operator="out"/>
<feColorMatrix type="matrix" values="0 0 0 0 1 0 0 0 0 0.368627 0 0 0 0 0.505882 0 0 0 0.25 0"/>
<feBlend mode="normal" in2="BackgroundImageFix" result="effect1_dropShadow_97_21"/>
<feBlend mode="normal" in="SourceGraphic" in2="effect1_dropShadow_97_21" result="shape"/>
</filter>
<filter id="filter2_d_97_21" x="14.844" y="83.7822" width="337.772" height="347.117" filterUnits="userSpaceOnUse" color-interpolation-filters="sRGB">
<feFlood flood-opacity="0" result="BackgroundImageFix"/>
<feColorMatrix in="SourceAlpha" type="matrix" values="0 0 0 0 0 0 0 0 0 0 0 0 0 0 0 0 0 0 127 0" result="hardAlpha"/>
<feOffset dy="4"/>
<feGaussianBlur stdDeviation="2"/>
<feComposite in2="hardAlpha" operator="out"/>
<feColorMatrix type="matrix" values="0 0 0 0 1 0 0 0 0 0.368627 0 0 0 0 0.505882 0 0 0 0.25 0"/>
<feBlend mode="normal" in2="BackgroundImageFix" result="effect1_dropShadow_97_21"/>
<feBlend mode="normal" in="SourceGraphic" in2="effect1_dropShadow_97_21" result="shape"/>
</filter>
</defs>
</svg>
