<svg width="25" height="130" viewBox="0 0 25 130" fill="none" xmlns="http://www.w3.org/2000/svg">
<g opacity="0.5">
<path d="M0.568225 37.2721C1.62692 39.5935 2.14102 42.3253 2.03779 45.0812C0.367592 43.9792 -1.69084 41.8819 -2.62887 39.645C-3.57225 37.4473 -4.01597 34.8953 -3.90041 32.3318C-2.07743 33.2702 -0.512776 35 0.568225 37.2721Z" fill="#FF5E81" fill-opacity="0.5"/>
<path d="M0.574707 41.5878C0.543319 41.4466 0.504115 41.309 0.457455 41.1764C0.376681 40.9157 0.249006 40.541 0.0848517 40.0745C-0.774253 37.7062 -1.84139 35.4996 -3.0914 33.507C-3.33111 33.1397 -3.53174 32.8274 -3.67245 32.6254C-3.74282 32.5151 -3.81951 32.4131 -3.90174 32.3206C-3.84321 32.4426 -3.77693 32.557 -3.70372 32.6622C-3.57083 32.8752 -3.37802 33.1874 -3.14612 33.5768C-1.93246 35.599 -0.871458 37.7939 0.0197113 40.1259C0.191682 40.5704 0.327174 40.9377 0.420977 41.1875C0.462715 41.3277 0.514209 41.4619 0.574707 41.5878Z" fill="#FF5E81" fill-opacity="0.5"/>
<path d="M9.00682 36.3905C10.067 38.7122 10.5812 41.446 10.4764 44.2032C8.80618 43.1013 6.75035 41.0002 5.81233 38.767C4.87109 36.5134 4.43258 33.9128 4.55381 31.3032C6.37983 32.2988 7.9376 34.0785 9.00682 36.3905Z" fill="#FF5E81" fill-opacity="0.5"/>
<path d="M9.01465 40.7065C8.98423 40.5648 8.94499 40.4271 8.8974 40.2951C8.81662 40.0343 8.69155 39.6597 8.5274 39.1932C8.09714 38.0097 7.61504 36.8652 7.08389 35.7662C6.55225 34.6693 5.97359 33.6193 5.35115 32.622C5.10883 32.2547 4.9108 31.9424 4.76749 31.7404C4.69713 31.6301 4.62043 31.5281 4.5382 31.4355C4.59673 31.5576 4.66301 31.672 4.73623 31.7771C4.87172 31.9939 5.06193 32.3024 5.29383 32.6918C5.75763 33.4705 6.37776 34.5687 6.9979 35.8506C7.61804 37.1326 8.11832 38.3484 8.46226 39.2409C8.63162 39.689 8.76972 40.0527 8.86092 40.3061C8.90557 40.4444 8.95694 40.5782 9.01465 40.7065Z" fill="#FF5E81" fill-opacity="0.5"/>
<path d="M12.1935 26.9543C13.321 24.6986 13.9163 21.9999 13.895 19.2407C12.1935 20.2325 10.0751 22.2196 9.07196 24.3831C8.0658 26.5798 7.55109 29.152 7.59457 31.7661C9.44796 30.8827 11.057 29.1992 12.1935 26.9543Z" fill="#FF5E81" fill-opacity="0.5"/>
<path d="M12.332 22.646C12.2958 22.785 12.2522 22.9201 12.2018 23.05C12.1132 23.3072 11.9751 23.6708 11.7979 24.1152C11.3367 25.2715 10.8241 26.3854 10.2632 27.4504C9.70064 28.5167 9.09148 29.5324 8.43924 30.4918C8.17868 30.8591 7.98065 31.1456 7.83213 31.3403C7.75935 31.4467 7.68 31.5438 7.59502 31.6304C7.65674 31.511 7.72655 31.4003 7.80347 31.2999C7.94156 31.0942 8.1422 30.793 8.38713 30.4183C9.02171 29.4429 9.62089 28.423 10.1824 27.3623C10.839 26.1208 11.3758 24.9343 11.7458 24.0565C11.9308 23.6194 12.0767 23.2631 12.1757 23.017C12.2197 22.8869 12.2721 22.7627 12.332 22.646Z" fill="#FF5E81" fill-opacity="0.5"/>
<path d="M3.8844 26.9618C5.01192 24.7062 5.60721 22.0075 5.58587 19.2483C3.8844 20.2437 1.76604 22.2272 0.762873 24.3907C-0.243995 26.5867 -0.757942 29.1596 -0.711907 31.7736C1.14028 30.889 2.74822 29.2056 3.8844 26.9618Z" fill="#FF5E81" fill-opacity="0.5"/>
<path d="M4.00977 22.6533C3.97291 22.792 3.92938 22.927 3.87948 23.0574C3.79089 23.3145 3.6554 23.6781 3.47822 24.1226C2.54878 26.4372 1.41691 28.5782 0.109156 30.4954C-0.151406 30.8627 -0.352037 31.1529 -0.500557 31.3439C-0.573338 31.4504 -0.652688 31.5475 -0.737669 31.6341C-0.674923 31.5158 -0.605191 31.4052 -0.529219 31.3035C-0.388516 31.0978 -0.19049 30.8003 0.0544384 30.4256C0.541689 29.691 1.19309 28.6111 1.84971 27.3696C2.50632 26.1281 3.04308 24.9417 3.41308 24.0638C3.59808 23.6304 3.74399 23.2741 3.84301 23.0243C3.89054 22.8938 3.94635 22.7696 4.00977 22.6533Z" fill="#FF5E81" fill-opacity="0.5"/>
<path d="M-9.3957 34.9507C-9.32788 34.8925 -9.25635 34.8433 -9.18204 34.8038L-8.55409 34.4365L-8.0981 34.1683C-7.93134 34.0765 -7.74635 33.9847 -7.54832 33.8855C-7.15227 33.6872 -6.7041 33.4411 -6.196 33.2354L-5.39869 32.8938C-5.12249 32.7762 -4.82806 32.6844 -4.52841 32.5742C-3.92651 32.3391 -3.2725 32.1665 -2.58462 31.9681C-1.08909 31.583 0.422854 31.3376 1.94134 31.2335C3.46082 31.1553 4.9823 31.2179 6.49596 31.4208C7.19426 31.5384 7.85609 31.6339 8.46841 31.7882C8.77587 31.8653 9.07291 31.9204 9.35693 32.0049L10.1699 32.251C10.691 32.3942 11.1496 32.5889 11.5587 32.7358L12.1241 32.9525L12.5931 33.1656L13.2393 33.4668C13.3157 33.4991 13.3906 33.5384 13.4634 33.5843C13.3845 33.5695 13.3068 33.5437 13.2315 33.5072L12.5775 33.239L12.1059 33.0444C11.9313 32.9782 11.7411 32.9158 11.5378 32.8423C11.1287 32.7064 10.6702 32.5228 10.149 32.3869L9.33608 32.1555C9.05468 32.0783 8.75763 32.0232 8.45017 31.9498C7.83785 31.7992 7.17863 31.7073 6.48554 31.5825C4.97655 31.3921 3.46062 31.3344 1.94655 31.4098C0.434791 31.5126 -1.07081 31.7506 -2.56117 32.1224C-3.24644 32.3134 -3.89785 32.4897 -4.49975 32.7064C-4.79939 32.8166 -5.09383 32.9048 -5.37002 33.015L-6.16474 33.3456C-6.68586 33.5402 -7.1236 33.7753 -7.52226 33.9626C-7.72029 34.0581 -7.90529 34.1426 -8.07466 34.2308L-8.53324 34.4806L-9.16901 34.8221C-9.24262 34.8716 -9.31832 34.9145 -9.3957 34.9507Z" fill="#FF5E81" fill-opacity="0.5"/>
<path d="M16.569 32.3799C18.4323 33.2457 20.055 34.9164 21.207 37.155C19.4222 37.7941 16.8817 37.9888 15.1542 37.0889C13.4141 36.1761 11.9095 34.5454 10.8367 32.4093C12.6981 31.5531 14.7033 31.5428 16.569 32.3799Z" fill="#FF5E81" fill-opacity="0.5"/>
<path d="M18.5063 35.7332C18.4194 35.6497 18.3269 35.5784 18.2302 35.5201C18.0504 35.3879 17.7872 35.2116 17.4485 35.0059C15.7241 33.9367 13.9111 33.1778 12.0522 32.7469C11.6953 32.6625 11.406 32.6074 11.2028 32.578C11.0992 32.5569 10.9948 32.5459 10.8901 32.5449C10.9903 32.5893 11.0933 32.6201 11.1976 32.6367C11.3982 32.6808 11.6848 32.7543 12.0392 32.8498C12.9617 33.096 13.8748 33.4074 14.7751 33.7828C15.6747 34.1611 16.56 34.6036 17.4276 35.1088C17.7611 35.3034 18.0295 35.4761 18.2093 35.5789C18.3051 35.642 18.4045 35.6936 18.5063 35.7332Z" fill="#FF5E81" fill-opacity="0.5"/>
<path d="M4.7436 3.93123C3.7652 4.11474 2.76981 3.9194 1.86416 3.36615C0.958517 2.8129 0.176763 1.9226 -0.397279 0.790713C-0.621362 0.33892 -0.808967 -0.278165 -0.5927 -0.737304C-0.376434 -1.19644 0.152508 -1.18175 0.556378 -1.02748C1.39956 -0.694823 2.18527 -0.121498 2.86477 0.65694C3.54427 1.43538 4.10306 2.40232 4.50649 3.4978C3.69775 1.8012 3.2643 -0.195539 3.26101 -2.23961C3.26101 -3.01463 3.40432 -3.94393 3.92023 -4.19738C4.43614 -4.45082 4.93642 -3.88884 5.2517 -3.29012C5.78308 -2.23097 6.05968 -0.959621 6.04093 0.337389C6.02217 1.6344 5.70904 2.88879 5.14748 3.91654C5.55899 2.90975 6.17854 2.10384 6.92344 1.60636C7.66834 1.10889 8.50315 0.943516 9.31646 1.13231C9.93921 1.2976 10.6375 1.91469 10.5646 2.79991C10.5203 3.33986 10.1972 3.74022 9.87407 4.03775C9.24548 4.60256 8.53772 4.96917 7.79926 5.11244C7.0608 5.25572 6.30909 5.17229 5.59564 4.86787C6.46839 5.0846 7.27689 5.65734 7.9211 6.51519C8.5653 7.37305 9.01692 8.47837 9.22006 9.69435C9.33991 10.4694 9.31646 11.3987 8.88393 11.8982C8.33675 12.541 7.49774 12.1333 6.91929 11.5309C6.20237 10.7993 5.61057 9.85096 5.18723 8.75528C4.7639 7.6596 4.51973 6.44434 4.47262 5.19845C4.461 5.96943 4.31638 6.72481 4.05125 7.39934C3.78613 8.07387 3.40848 8.64724 2.95094 9.06992C2.34904 9.61721 1.40581 9.76781 1.02799 8.9083C0.65018 8.04879 1.10356 7.03134 1.5856 6.33712C2.46057 5.0844 3.52243 4.12202 4.6941 3.51984" fill="#FF5E81" fill-opacity="0.5"/>
<path d="M1.33954 1.27901C1.32391 1.35982 2.27496 1.67938 3.29375 2.53889C4.31255 3.3984 4.97438 4.40851 5.01607 4.34974C5.05776 4.29097 4.44544 3.18169 3.39016 2.31116C2.33489 1.44063 1.34215 1.2129 1.33954 1.27901Z" fill="#FF5E81" fill-opacity="0.5"/>
<path d="M4.13904 -0.722563C4.08953 -0.678486 4.5377 0.265506 4.68882 1.61354C4.83995 2.96157 4.74093 4.0782 4.80607 4.08555C4.87121 4.0929 5.03797 2.98361 4.87643 1.56579C4.71488 0.147967 4.1703 -0.773987 4.13904 -0.722563Z" fill="#FF5E81" fill-opacity="0.5"/>
<path d="M8.04273 3.21179C8.05837 3.15302 7.29232 2.84449 6.33605 3.05385C5.37979 3.26322 4.74402 4.01621 4.77268 4.06029C4.80134 4.10436 5.43972 3.51666 6.3569 3.32566C7.27408 3.13466 8.03492 3.29995 8.04273 3.21179Z" fill="#FF5E81" fill-opacity="0.5"/>
<path d="M5.49173 4.68774C5.57206 4.54224 5.62015 4.36655 5.62996 4.18269C5.63978 3.99883 5.61088 3.81498 5.54688 3.65417C5.48289 3.49337 5.38666 3.36276 5.27024 3.27873C5.15382 3.19469 5.02239 3.16096 4.89243 3.18176C4.90813 3.47056 4.88964 3.76103 4.83772 4.04127C5.07671 4.21113 5.297 4.42888 5.49173 4.68774Z" fill="#FAFAFA"/>
<path d="M7.63135 10.0103C7.61215 9.64713 7.55053 9.29094 7.44895 8.9561C7.02514 7.29534 6.28609 5.83042 5.31235 4.721C5.12151 4.47424 4.90206 4.27546 4.66355 4.1333C4.62447 4.19942 5.60678 5.13606 6.43016 6.78896C7.25353 8.44187 7.57142 10.0433 7.63135 10.0103Z" fill="#FF5E81" fill-opacity="0.5"/>
<path d="M1.04392 87.2525C2.80371 86.0413 4.24856 84.0804 5.17383 81.6473C3.3499 81.3608 0.798996 81.6473 -0.819092 82.8852C-2.64302 84.3103 -3.78689 85.9338 -4.59984 88.2075C-2.69431 88.7397 -0.718119 88.4053 1.04392 87.2525Z" fill="#FF5E81" fill-opacity="0.5"/>
<path d="M2.63965 83.5681C2.55869 83.6684 2.47148 83.7581 2.37909 83.8363C2.21493 83.9979 1.97 84.2256 1.66254 84.4937C0.859419 85.1898 0.0266514 85.8154 -0.831033 86.367C-1.68902 86.9168 -2.57058 87.3903 -3.47052 87.7849C-3.81707 87.9355 -4.09848 88.0456 -4.2939 88.1154C-4.38965 88.1605 -4.48825 88.1924 -4.58833 88.2109C-4.49289 88.1487 -4.39342 88.0995 -4.29129 88.064C-4.09848 87.9795 -3.82228 87.851 -3.48095 87.6967C-2.59095 87.2699 -1.71694 86.7795 -0.862299 86.2275C0.138258 85.5847 1.01374 84.9125 1.63649 84.3909C1.94916 84.1338 2.1993 83.9207 2.37127 83.7701C2.45666 83.6926 2.54642 83.625 2.63965 83.5681Z" fill="#FF5E81" fill-opacity="0.5"/>
<path d="M7.93601 94.1761C9.69532 92.9675 11.1402 91.009 12.0659 88.5783C10.242 88.2918 7.70151 88.5783 6.073 89.8124C4.43999 91.0531 3.10848 92.9558 2.25056 95.2744C4.18048 95.7603 6.16997 95.376 7.93601 94.1761Z" fill="#FF5E81" fill-opacity="0.5"/>
<path d="M9.53027 90.4958C9.44873 90.594 9.36158 90.6824 9.26971 90.7603C9.10556 90.9256 8.86063 91.1497 8.55317 91.4178C6.9465 92.8168 5.22212 93.9274 3.4201 94.7236C3.07355 94.8742 2.79215 94.9844 2.59672 95.0505C2.49604 95.0929 2.39327 95.1249 2.28926 95.146C2.38485 95.0833 2.48427 95.0329 2.5863 94.9954C2.77912 94.9109 3.05531 94.786 3.39665 94.6281C4.07932 94.3012 5.01474 93.8127 6.00227 93.1589C6.85647 92.606 7.69044 91.993 8.50105 91.3223C8.81373 91.0652 9.06387 90.8521 9.23584 90.7052C9.32856 90.6212 9.42724 90.551 9.53027 90.4958Z" fill="#FF5E81" fill-opacity="0.5"/>
<path d="M7.18702 104.575C7.32144 107.328 6.83636 110.071 5.80083 112.413C4.71169 110.323 3.63296 107.076 3.57564 104.479C3.52429 101.866 4.03081 99.2914 5.02957 97.0889C6.28851 99.2029 7.04334 101.822 7.18702 104.575Z" fill="#FF5E81" fill-opacity="0.5"/>
<path d="M5.718 108.358C5.74062 108.213 5.7537 108.065 5.75709 107.917C5.77533 107.634 5.79096 107.223 5.80399 106.712C5.86528 104.054 5.69021 101.396 5.28287 98.8002C5.20209 98.3006 5.13174 97.904 5.07442 97.6285C5.05173 97.4837 5.01945 97.3423 4.97801 97.2061C4.9887 97.3537 5.00787 97.4999 5.03533 97.6432C5.07963 97.9186 5.13956 98.3227 5.20991 98.8222C5.57616 101.42 5.7508 104.064 5.73103 106.712C5.73103 107.219 5.73103 107.63 5.7154 107.913C5.70669 108.061 5.70756 108.21 5.718 108.358Z" fill="#FF5E81" fill-opacity="0.5"/>
<path d="M0.0876348 98.4956C0.219575 101.25 -0.265291 103.993 -1.29855 106.338C-2.3877 104.244 -3.46643 100.997 -3.52375 98.4038C-3.57643 95.7893 -3.06982 93.2129 -2.06982 91.0098C-0.811338 93.1241 -0.056565 95.743 0.0876348 98.4956Z" fill="#FF5E81" fill-opacity="0.5"/>
<path d="M-8.32848 81.967C-8.29043 82.0649 -8.24686 82.1582 -8.19819 82.2462L-7.79954 83.0286L-7.51031 83.5906C-7.40088 83.7926 -7.2758 84.002 -7.14552 84.2334C-6.88496 84.6925 -6.58532 85.2324 -6.22574 85.7797L-5.67074 86.6539C-5.47793 86.9551 -5.26166 87.249 -5.04279 87.5649C-4.61547 88.204 -4.1204 88.8321 -3.60709 89.5043C-2.46854 90.9242 -1.26569 92.2383 -0.00613308 93.4382C1.2656 94.615 2.59032 95.6738 3.95962 96.6081C4.59799 97.0158 5.19989 97.4198 5.78355 97.7284C6.07538 97.89 6.35157 98.059 6.62516 98.1949L7.40685 98.5622C7.90452 98.823 8.36832 98.9919 8.77219 99.1646C8.97283 99.2454 9.16043 99.3262 9.33501 99.3923L9.81444 99.5503L10.4789 99.767C10.5556 99.7975 10.6341 99.8184 10.7134 99.8294C10.6389 99.7881 10.5622 99.755 10.4841 99.7302L9.82747 99.4768L9.35325 99.3005C9.18128 99.2307 8.99367 99.1425 8.79304 99.0581C8.39438 98.8781 7.93318 98.6907 7.44072 98.43L6.65904 98.0369C6.39848 97.8974 6.11446 97.7247 5.82524 97.5631C5.24679 97.2472 4.65011 96.8285 4.00131 96.4281C2.64247 95.4861 1.3259 94.4275 0.0590076 93.2582C-1.19496 92.0629 -2.39499 90.7589 -3.53414 89.3537C-4.05526 88.6852 -4.54512 88.0644 -4.97504 87.4326C-5.19131 87.1204 -5.41018 86.8302 -5.6056 86.5327L-6.1632 85.6695C-6.52799 85.1296 -6.82503 84.6007 -7.09602 84.1489C-7.23151 83.9211 -7.35658 83.7154 -7.47122 83.5171L-7.77087 82.9661L-8.18777 82.2095C-8.23069 82.1242 -8.2777 82.0432 -8.32848 81.967Z" fill="#FF5E81" fill-opacity="0.5"/>
<path d="M12.9311 103.124C14.8375 103.751 16.8357 103.518 18.6426 102.455C17.3528 100.619 15.2553 98.5802 13.4313 98.0843C11.6097 97.5919 9.72516 97.8824 8.02208 98.9181C9.30395 101.013 11.0217 102.485 12.9311 103.124Z" fill="#FF5E81" fill-opacity="0.5"/>
<path d="M15.8154 101.687C15.7102 101.695 15.6046 101.689 15.5001 101.669C15.2995 101.651 15.0077 101.607 14.6507 101.541C13.7162 101.368 12.7902 101.113 11.8783 100.777C10.9664 100.438 10.0701 100.021 9.19456 99.5277C8.85843 99.3367 8.59005 99.1604 8.41287 99.0502C8.31568 98.9952 8.22234 98.9276 8.13407 98.8481C8.23515 98.8845 8.3337 98.9337 8.4285 98.9951C8.61611 99.1016 8.8897 99.2522 9.22582 99.4285C9.90068 99.7958 10.8465 100.237 11.9096 100.633C12.9727 101.03 13.9524 101.283 14.6664 101.438C15.0207 101.515 15.3099 101.574 15.5106 101.61C15.6136 101.624 15.7156 101.649 15.8154 101.687Z" fill="#FF5E81" fill-opacity="0.5"/>
<path d="M-1.77504 123.657C-2.54826 122.791 -3.47403 122.238 -4.45311 122.058C-5.43219 121.877 -6.42767 122.076 -7.33282 122.632C-7.68979 122.86 -8.07543 123.253 -8.05719 123.804C-8.03895 124.355 -7.58036 124.726 -7.17909 124.883C-6.33434 125.209 -5.45109 125.287 -4.5842 125.111C-3.71731 124.935 -2.88529 124.51 -2.13983 123.862C-3.45117 124.734 -4.55071 126.132 -5.30044 127.881C-5.58185 128.542 -5.79811 129.445 -5.44636 130.041C-5.0946 130.636 -4.46404 130.511 -3.97679 130.224C-3.13654 129.701 -2.43689 128.813 -1.97988 127.69C-1.52287 126.566 -1.33242 125.267 -1.43631 123.98C-1.44864 125.144 -1.20817 126.286 -0.747113 127.253C-0.28606 128.219 0.373531 128.964 1.14325 129.387C1.73733 129.695 2.5607 129.673 2.82127 128.858C2.98021 128.366 2.84993 127.785 2.68056 127.3C2.34795 126.356 1.8737 125.524 1.29064 124.863C0.707578 124.202 0.0296211 123.728 -0.696317 123.473C0.130509 123.914 1.03082 124.004 1.89347 123.732C2.75612 123.459 3.54334 122.837 4.15795 121.941C4.54358 121.361 4.86146 120.549 4.67907 119.8C4.44456 118.852 3.57429 118.595 2.85514 118.676C1.9719 118.789 1.11784 119.179 0.355786 119.819C-0.406272 120.458 -1.05694 121.33 -1.54836 122.371C-1.27872 121.7 -1.1284 120.947 -1.11025 120.176C-1.09209 119.405 -1.20665 118.64 -1.44413 117.945C-1.76201 117.041 -2.51504 116.226 -3.15342 116.689C-3.79179 117.152 -3.77095 118.356 -3.612 119.297C-3.3219 121.008 -2.76566 122.608 -1.98349 123.98" fill="#FF5E81" fill-opacity="0.5"/>
<path d="M0.791786 126.665C0.791786 126.724 0.0100995 126.448 -0.729896 125.563C-1.46989 124.678 -1.74348 123.583 -1.69658 123.572C-1.64968 123.561 -1.32137 124.523 -0.607431 125.357C0.106508 126.191 0.817842 126.584 0.791786 126.665Z" fill="#FF5E81" fill-opacity="0.5"/>
<path d="M2.91797 120.534C2.77098 120.835 2.58752 121.098 2.376 121.309C1.40421 122.43 0.232272 123.152 -1.0113 123.396C-1.26833 123.473 -1.53314 123.484 -1.79299 123.429C-1.79299 123.344 -0.620459 123.252 0.690167 122.433C2.00079 121.614 2.87888 120.464 2.91797 120.534Z" fill="#FF5E81" fill-opacity="0.5"/>
<path d="M9.48126 70.7123C10.6633 73.3043 11.2358 76.3555 11.1176 79.4323C9.25457 78.2129 6.9486 75.8547 5.90635 73.3607C4.85733 70.8434 4.3698 67.9394 4.50714 65.0264C6.54738 66.1389 8.2876 68.1281 9.48126 70.7123Z" fill="#FF5E81" fill-opacity="0.5"/>
<path d="M9.48096 75.5273C9.44366 75.3704 9.39927 75.2171 9.34807 75.0682C9.25948 74.778 9.11878 74.3629 8.93638 73.8561C8.45691 72.5352 7.9191 71.2582 7.32611 70.0323C6.73569 68.8047 6.0899 67.6317 5.39274 66.5208C5.13218 66.0948 4.90028 65.7568 4.74134 65.5328C4.66151 65.4087 4.57434 65.2944 4.48078 65.1912C4.54711 65.3279 4.62118 65.4569 4.70226 65.5768C4.85078 65.8119 5.06444 66.1609 5.325 66.5943C6.00022 67.7247 6.6342 68.9029 7.22449 70.1242C7.91498 71.553 8.47519 72.9121 8.85821 73.9075C9.04842 74.407 9.19955 74.8147 9.30377 75.0976C9.35155 75.2495 9.41097 75.3936 9.48096 75.5273Z" fill="#FF5E81" fill-opacity="0.5"/>
<path d="M0.743861 69.757C1.31666 72.3263 1.29934 75.0849 0.694353 77.6395C-0.676202 76.0013 -2.22394 73.2685 -2.69295 70.8259C-3.16427 68.3632 -3.09981 65.7578 -2.50795 63.3474C-0.972746 64.9486 0.165154 67.1915 0.743861 69.757Z" fill="#FF5E81" fill-opacity="0.5"/>
<path d="M4.99762 62.2417C6.63637 60.8579 7.9238 58.7808 8.67676 56.3059C6.88149 56.2435 4.43481 56.8385 2.9444 58.2233C1.42956 59.62 0.248989 61.6286 -0.442904 63.9864C1.45557 64.2244 3.35901 63.614 4.99762 62.2417Z" fill="#FF5E81" fill-opacity="0.5"/>
<path d="M6.32666 58.4583C6.25785 58.5663 6.18097 58.6636 6.09737 58.7484C5.94885 58.9284 5.72476 59.1782 5.44075 59.483C4.70228 60.2553 3.93039 60.9619 3.12957 61.5988C2.32897 62.2353 1.50144 62.802 0.651625 63.2958C0.323318 63.4831 0.0575442 63.6227 -0.13006 63.7145C-0.225372 63.7684 -0.323908 63.8102 -0.424494 63.8394C-0.334922 63.7695 -0.241721 63.7094 -0.145693 63.6594C0.0367002 63.5565 0.299868 63.3986 0.635992 63.2002C1.27958 62.8036 2.15767 62.2158 3.09309 61.4739C4.02851 60.7319 4.83885 59.9716 5.41209 59.3986C5.69871 59.1121 5.93321 58.877 6.08694 58.7117C6.16178 58.6181 6.24196 58.5333 6.32666 58.4583Z" fill="#FF5E81" fill-opacity="0.5"/>
<path d="M12.9858 62.238C14.2812 60.3447 15.1217 57.9251 15.3882 55.3215C13.6815 55.9056 11.4798 57.3381 10.3098 59.182C9.13403 61.043 8.38234 63.3594 8.15239 65.8303C9.9912 65.3783 11.6823 64.1214 12.9858 62.238Z" fill="#FF5E81" fill-opacity="0.5"/>
<path d="M13.5615 58.2087C13.5128 58.3363 13.4579 58.459 13.3974 58.5761C13.2879 58.8001 13.1186 59.1123 12.9075 59.4943C11.7907 61.4828 10.5023 63.267 9.07204 64.8057C8.79585 65.0995 8.56916 65.3272 8.41022 65.4778C8.32918 65.5652 8.24185 65.6403 8.14966 65.7019C8.22242 65.605 8.29991 65.5154 8.38156 65.4338C8.53529 65.2685 8.75416 65.0297 9.02254 64.7248C9.55929 64.1225 10.2837 63.2556 11.0315 62.2198C11.7793 61.184 12.4072 60.1775 12.8554 59.4319C13.0743 59.0646 13.2488 58.756 13.3765 58.543C13.4291 58.4221 13.4912 58.31 13.5615 58.2087Z" fill="#FF5E81" fill-opacity="0.5"/>
<path d="M-17.4273 54.885L-17.3465 54.9364L-17.1224 55.1017L-16.2599 55.7482L-15.6372 56.222C-15.4079 56.3873 -15.1552 56.5636 -14.8868 56.751C-14.3474 57.1183 -13.7377 57.5774 -13.0446 58.0072L-11.9607 58.705C-11.5829 58.9438 -11.179 59.1679 -10.7725 59.4103C-9.95435 59.9135 -9.05802 60.369 -8.12 60.8795C-6.06865 61.9089 -3.98145 62.7904 -1.86652 63.5205C0.243919 64.2151 2.37925 64.7497 4.53028 65.122C5.52823 65.2579 6.47407 65.4195 7.36519 65.4673C7.81075 65.504 8.24067 65.5481 8.65236 65.5701L9.84313 65.5995C10.6014 65.6362 11.2866 65.5995 11.8885 65.5738L12.7275 65.5407L13.4337 65.4746L14.4082 65.3864L14.6687 65.3681H14.7573L14.6713 65.3901L14.4108 65.4269L13.4363 65.5517L12.7328 65.6362L11.8911 65.684C11.2892 65.7097 10.5883 65.7685 9.84313 65.7391L8.64976 65.7207C8.23546 65.7207 7.80554 65.6619 7.35998 65.6325C6.46625 65.5885 5.5152 65.4342 4.51464 65.302C2.34982 64.938 0.201159 64.4033 -1.92123 63.7005C-4.03744 62.9696 -6.12483 62.0819 -8.17471 61.0412C-9.11274 60.5343 -10.0117 60.0714 -10.8272 59.5719C-11.2389 59.3221 -11.6376 59.0944 -12.0154 58.8373L-13.0967 58.1284C-13.7898 57.6876 -14.3995 57.2285 -14.9207 56.8428L-15.6659 56.2992L-16.2834 55.8106L-17.1328 55.1274L-17.3517 54.9475L-17.4273 54.885Z" fill="#FF5E81" fill-opacity="0.5"/>
<path d="M19.5702 66.1356C18.7879 64.9269 18.2534 63.4411 18.0239 61.8372C17.7944 60.2333 17.8786 58.5717 18.2673 57.03C18.4263 56.4202 18.7233 55.7517 19.1845 55.737C19.6457 55.7223 19.9897 56.4496 20.1538 57.0998C20.4929 58.4708 20.6288 59.9254 20.553 61.3735C20.4773 62.8216 20.1915 64.2324 19.7135 65.5185C20.33 63.2773 21.4046 61.3444 22.8011 59.9648C23.3222 59.4432 24.0622 59.0135 24.586 59.5461C25.1097 60.0787 25.0576 61.1328 24.8596 61.963C24.4914 63.3968 23.8075 64.627 22.9078 65.4737C22.0082 66.3203 20.9399 66.7389 19.8594 66.6682C20.8268 66.5501 21.7967 66.8516 22.6392 67.5324C23.4817 68.2132 24.1564 69.2407 24.5729 70.4773C24.8804 71.4359 24.9273 72.7987 24.2707 73.2945C23.872 73.5994 23.3796 73.4304 22.9679 73.1917C22.1582 72.7173 21.4309 72.0016 20.8358 71.0937C20.2408 70.1858 19.7921 69.1071 19.5206 67.9318C19.9544 69.2649 20.1016 70.748 19.9442 72.1978C19.7867 73.6476 19.3315 75.0006 18.6347 76.0898C18.184 76.773 17.5326 77.3643 16.8942 77.1182C16.0864 76.806 15.8024 75.3919 15.8129 74.2091C15.8346 72.7373 16.09 71.2909 16.5603 69.9764C17.0306 68.662 17.7038 67.5127 18.5305 66.6131C17.9951 67.1151 17.3811 67.4259 16.7415 67.5187C16.1019 67.6114 15.4559 67.4835 14.8592 67.1457C14.0775 66.6939 13.3401 65.5112 13.6736 64.4203C14.0072 63.3294 15.0103 63.2633 15.8076 63.4543C17.2529 63.8005 18.6254 64.596 19.8255 65.783" fill="#FF5E81" fill-opacity="0.5"/>
<path d="M19.0986 59.722C19.0308 59.755 19.4504 61.261 19.5468 63.2261C19.6432 65.1913 19.4008 66.767 19.4686 66.7854C19.5363 66.8038 19.8829 65.2243 19.7708 63.2004C19.6588 61.1765 19.1429 59.6816 19.0986 59.722Z" fill="#FF5E81" fill-opacity="0.5"/>
<path d="M22.3497 62.1836C22.2846 62.1432 21.9433 63.3884 21.1225 64.5013C20.3017 65.6143 19.4705 66.2277 19.5096 66.3195C19.5487 66.4113 20.4268 65.8897 21.2788 64.7254C22.1309 63.561 22.4045 62.1946 22.3497 62.1836Z" fill="#FF5E81" fill-opacity="0.5"/>
<path d="M22.2833 70.1356C22.3328 70.1172 22.0384 68.861 21.241 67.7076C20.4437 66.5543 19.5135 66.1906 19.5083 66.2751C19.5031 66.3596 20.3291 66.815 21.0717 67.928C21.8143 69.041 22.2181 70.1833 22.2833 70.1356Z" fill="#FF5E81" fill-opacity="0.5"/>
<path d="M19.558 67.6598C19.7127 67.6728 19.8667 67.6207 20.0004 67.51C20.1341 67.3993 20.2414 67.2351 20.3087 67.0383C20.376 66.8414 20.4003 66.6208 20.3784 66.4044C20.3566 66.1881 20.2896 65.9858 20.1859 65.8232C19.9982 66.0377 19.787 66.2077 19.5606 66.3265C19.6062 66.7649 19.6062 67.2104 19.5606 67.6488" fill="#FAFAFA"/>
<path d="M17.3526 74.1467C17.5904 73.8786 17.7932 73.5542 17.9519 73.188C18.804 71.4958 19.3096 69.5059 19.4137 67.4359C19.4538 67.0153 19.4432 66.5881 19.3824 66.1724C19.3095 66.1724 19.3303 68.1265 18.7545 70.3597C18.1786 72.593 17.2979 74.0879 17.3526 74.1467Z" fill="#FF5E81" fill-opacity="0.5"/>
</g>
</svg>
