<svg width="250" height="250" viewBox="0 0 250 250" fill="none" xmlns="http://www.w3.org/2000/svg">
<rect width="250" height="250" rx="125" fill="#FF5E81"/>
<rect width="250" height="250" rx="125" fill="url(#paint0_linear_4_773)" fill-opacity="0.75"/>
<path d="M50.4147 169.525C50.2351 167.66 50.452 165.637 49.7876 163.967C48.6517 161.111 48.7213 158.473 49.5844 155.616C49.9224 154.497 49.9067 152.933 49.3691 151.946C47.5072 148.529 48.1525 145.568 50.148 142.492C50.8898 141.349 51.3212 139.8 51.3365 138.43C51.3624 136.1 51.8605 134.088 53.5999 132.508C55.5804 130.71 56.6853 128.602 56.43 125.829C56.137 122.647 57.1747 120.108 59.9764 118.272C60.7353 117.775 61.2236 116.512 61.3934 115.524C61.9392 112.348 63.2479 109.937 66.2724 108.361C67.4761 107.734 68.1535 106.04 68.9984 104.783C69.8857 103.463 70.6275 102.042 71.5412 100.742C72.5666 99.2834 73.6532 97.8573 74.8247 96.5148C75.932 95.2457 77.1775 94.097 78.3743 92.9076C79.2818 92.0057 80.3846 91.244 81.0905 90.2073C82.6877 87.8619 84.0933 85.3851 85.8552 82.8437C86.6063 82.5901 87.156 82.5668 87.5396 82.3016C91.1774 79.787 94.8103 77.2849 99.2854 76.4624C100.576 76.2252 101.857 75.9294 103.135 75.6263C104.011 75.4184 105.063 75.3865 105.706 74.8657C107.473 73.4358 109.35 73.5653 111.423 73.7496C113.104 73.8991 114.841 73.5212 116.543 73.2984C118.906 72.9891 121.269 72.2566 123.613 72.3265C128.682 72.4777 133.625 72.4116 138.171 69.7348C139.324 69.0556 140.571 68.5353 141.861 68.1064C141.677 70.3473 141.627 72.4839 141.086 74.4869C140.158 77.9234 140.636 80.9677 141.959 84.2901C142.798 86.3977 142.164 89.1441 141.981 91.5883C141.915 92.4737 141.24 93.3132 140.842 94.1736C143.863 91.1101 145.319 87.5313 143.821 83.4036C141.713 77.5922 141.853 72.0072 144.832 66.5422C144.819 66.5331 144.826 66.5637 144.944 66.5246C145.201 66.3834 145.293 66.2482 145.482 65.9782C147.061 65.1335 148.494 64.3907 149.912 63.8492C149.831 64.2927 149.838 64.6013 149.688 64.7675C144.993 69.969 144.584 75.822 146.847 82.201C148.062 85.6237 147.81 89.0916 145.773 92.1517C142.699 96.7698 142.369 101.65 143.614 106.903C144.712 111.534 145.157 116.222 143.108 120.903C142.737 121.6 142.475 122.195 142.05 122.894C141.033 125.125 139.127 127.51 139.568 129.318C140.225 132.01 139.552 132.756 137.035 133.094C138.348 135.994 137.392 138.389 136.018 140.711C134.837 142.706 134.812 144.696 136.022 146.701C136.962 148.257 136.936 149.816 135.61 151.104C133.638 153.018 133.208 155.324 133.772 157.853C134.307 160.25 133.665 162.261 132.526 164.367C131.878 165.566 131.388 167.458 131.885 168.554C133.198 171.444 132.556 173.594 130.468 175.629C128.476 177.57 127.345 179.874 126.776 182.659C126.5 184.013 125.256 185.785 124.044 186.214C120.507 187.467 118.054 189.669 115.959 192.699C113.448 196.332 107.28 197.41 104.284 193.616C103.6 192.75 102.032 191.95 101.013 192.099C96.8244 192.71 94.6747 190.436 92.771 187.226C91.2803 184.713 87.476 183.518 84.4135 184.322C82.8927 184.129 81.5506 183.889 80.1735 183.47C78.9935 182.133 77.8451 180.979 76.705 179.817C75.68 178.772 74.3827 177.873 73.7055 176.634C72.4573 174.351 70.9392 173.688 68.6705 175.05C67.7436 175.606 66.9394 176.368 66.0761 177.031C64.2904 178.404 62.5391 178.547 60.5038 177.347C59.4264 176.711 57.991 176.449 56.7134 176.437C52.6975 176.4 51.3653 175.295 50.8278 171.211C50.7527 170.641 50.5554 170.086 50.4147 169.525ZM140.568 95.8142L140.465 95.8466C140.465 95.8466 140.568 95.8786 140.568 95.8142Z" fill="#402A2C"/>
<path d="M141.915 65.8696C140.67 66.4697 139.381 66.996 138.188 67.6831C133.486 70.3906 128.372 70.4574 123.129 70.3045C120.705 70.2338 118.26 70.9747 115.817 71.2875C114.056 71.5129 112.259 71.8951 110.52 71.7439C108.376 71.5575 106.435 71.4266 104.607 72.8729C103.941 73.3997 102.854 73.4319 101.947 73.6422C100.626 73.9488 99.3005 74.248 97.9652 74.488C93.3363 75.3199 89.5784 77.8507 85.8156 80.3942C85.4187 80.6625 84.8502 80.6861 84.1717 80.791C80.0669 72.8163 82.9985 65.4335 85.9475 58.0708C86.9099 55.6678 87.5574 52.9187 89.2077 51.0635C91.1675 48.8605 93.8733 47.096 96.5769 45.7735C101.75 43.2427 107.089 41.0068 112.473 38.9301C118.502 36.6041 124.822 36.3617 131.21 37.1475C136.059 37.7439 140.946 38.0931 145.759 38.8878C151.468 39.8305 156.923 41.962 161.28 45.5831C163.857 47.725 165.137 51.369 166.853 54.6044C161.253 57.0896 155.801 59.3078 150.348 61.5261C148.866 62.2775 147.384 63.0289 145.633 63.929C145.212 64.1725 145.115 64.3051 145.071 64.4755C145.071 64.4755 145.065 64.4445 144.898 64.4786C143.793 64.965 142.854 65.4173 141.915 65.8696Z" fill="#703D57"/>
<path d="M77.9596 182.722C79.3281 182.954 80.6967 183.186 82.2693 183.574C82.7283 185.884 82.5211 188.128 84.793 189.649C92.8917 195.073 101.887 198.249 111.67 199.369C123.576 200.733 135.012 198.403 146.367 195.263C154.568 192.995 158.616 187.489 159.199 179.913C159.728 173.039 159.306 166.083 159.024 159.173C158.835 154.543 158.158 149.93 157.839 145.194C159.39 145.128 160.802 145.177 162.229 145.42C163.09 149.105 163.785 152.638 164.804 156.084C169.496 171.959 176.732 187.244 177.018 204.133C169.575 205.141 162.143 206.226 154.686 207.13C149.394 207.772 144.08 208.444 138.757 208.625C124.746 209.1 110.726 209.523 96.7093 209.545C89.6747 209.556 82.6384 208.649 75.3699 207.918C76.0778 199.36 77.0187 191.041 77.9596 182.722Z" fill="#703D57"/>
<path d="M149.982 63.9767C155.17 61.5641 160.343 59.3544 165.688 57.073C172.969 62.9033 175.213 70.4237 172.932 79.4701C172.225 82.2732 173.215 84.2948 175.373 86.2698C177.317 88.0499 178.883 90.2693 180.407 92.4469C176.735 92.0934 173.59 92.719 170.395 95.5861C172.894 95.8686 174.82 96.0864 176.746 96.3042C177.348 97.3909 177.949 98.4776 178.447 99.7586C175.086 101.385 171.828 102.818 168.152 104.434C170.997 106.965 172.983 109.86 176.708 110.097C176.915 112.263 176.86 114.499 177.384 116.581C178.58 121.333 176.398 124.784 171.625 124.835C167.532 124.878 163.435 124.54 158.933 124.318C156.84 124.088 155.155 123.911 153.273 123.643C149.855 122.821 146.633 122.091 143.412 121.361C145.316 116.747 144.879 112.023 143.802 107.357C142.58 102.064 142.904 97.1472 145.921 92.494C147.92 89.4107 148.166 85.9165 146.975 82.4678C144.754 76.0404 145.155 70.143 149.762 64.902C149.909 64.7346 149.903 64.4236 149.982 63.9767ZM160.658 68.143C163.501 66.9505 165.921 68.6553 168.483 69.3668C169.448 69.6348 170.54 70.623 171.091 68.8919C171.592 67.3159 170.772 66.4254 169.357 66.1598C167.107 65.7374 164.829 65.1275 162.572 65.1635C158.421 65.2297 155.767 68.0822 153.149 70.8234C153.304 71.1194 153.458 71.4155 153.612 71.7116C155.841 70.576 158.07 69.4404 160.658 68.143ZM164.278 80.157C165.003 80.7637 165.728 81.3704 166.453 81.9771C166.854 82.0709 167.255 82.1647 167.656 82.2586C165.501 78.4329 169.578 78.2946 170.058 76.1758C166.229 76.7095 162.546 77.2227 158.373 77.8042C160.534 78.6222 162.259 79.2753 164.278 80.157Z" fill="#9E6448"/>
<path d="M177.767 206.157C177.331 188.122 170.292 171.734 165.728 154.714C164.738 151.019 164.061 147.232 163.465 143.227C166.098 142.704 168.506 142.441 170.914 142.179C173.72 142.049 176.526 141.91 179.333 141.791C186.425 141.491 194.638 146.983 196.844 154.654C200.123 166.054 202.935 177.601 205.938 189.088C206.439 191.003 206.94 192.919 207.376 194.851C207.761 196.554 207.387 197.737 205.577 198.436C196.587 201.91 187.416 204.624 177.767 206.157Z" fill="#9F6548"/>
<path d="M78.7582 182.882C77.8757 191.817 76.9582 200.57 76.0342 209.546C69.9982 208.422 63.8558 207.456 57.9731 205.615C52.8552 204.013 48.0482 201.379 43.0664 199.295C41.3921 198.595 41.2962 197.278 41.6612 195.935C44.0967 186.969 46.616 178.027 49.1369 168.886C49.3058 169.266 49.502 169.83 49.5766 170.411C50.1111 174.566 51.4359 175.69 55.4293 175.727C56.6998 175.739 58.1272 176.006 59.1986 176.652C61.2225 177.874 62.9639 177.728 64.7397 176.332C65.5982 175.656 66.3979 174.882 67.3196 174.316C69.5756 172.931 71.0853 173.605 72.3265 175.928C72.9998 177.188 74.2899 178.103 75.3092 179.166C76.4429 180.348 77.5849 181.522 78.7582 182.882Z" fill="#9F6448"/>
<path d="M170.242 144.045C167.842 144.552 165.444 144.829 162.807 145.163C161.2 145.163 159.834 145.108 158.123 145.167C156.311 145.184 154.84 144.992 153.373 145.017C151.749 145.046 151.017 144.232 150.799 142.495C150.528 140.337 150.12 138.2 149.912 135.918C150.272 135.201 150.568 134.639 150.697 134.033C151.59 129.843 152.449 125.645 153.318 121.45C155.014 121.642 156.71 121.834 158.588 122.124C158.544 126.349 158.759 130.193 163.18 131.687C163.735 131.874 164.347 132.546 164.565 133.156C165.341 135.332 166.308 136.832 168.492 137.91C169.636 138.475 169.695 141.759 170.242 144.045Z" fill="#412A2C"/>
<path d="M176.728 107.897C172.317 107.69 170.071 104.79 166.854 102.257C171.011 100.638 174.695 99.2036 178.578 97.7322C179.278 98.1754 179.94 98.5873 180.228 99.1568C180.471 99.636 180.453 100.75 180.255 100.813C176.286 102.079 180.85 106.658 176.728 107.897Z" fill="#573429"/>
<path d="M176.854 94.3443C174.744 94.2227 172.784 94.0267 170.242 93.7726C173.492 91.1933 176.692 90.6306 180.407 91.1124C179.399 92.183 178.201 93.2265 176.854 94.3443Z" fill="#583529"/>
<path d="M149.5 134.822C149.864 136.776 150.29 138.721 150.573 140.686C150.801 142.267 151.566 143.008 153.263 142.982C154.796 142.959 156.333 143.134 158.085 143.237C158.767 148.014 159.452 152.768 159.644 157.541C159.929 164.662 160.356 171.831 159.821 178.916C159.231 186.725 155.134 192.401 146.833 194.738C135.341 197.974 123.768 200.375 111.718 198.97C101.817 197.815 92.7126 194.542 84.5161 188.952C82.2167 187.383 82.4264 185.071 82.1464 182.643C85.1005 181.681 89.0268 182.872 90.5652 185.377C92.53 188.575 94.7486 190.841 99.0715 190.232C100.123 190.084 101.741 190.881 102.447 191.744C105.54 195.525 111.906 194.451 114.497 190.831C116.658 187.811 119.191 185.616 122.841 184.368C124.092 183.94 125.375 182.175 125.661 180.825C126.247 178.05 127.415 175.754 129.471 173.819C131.625 171.792 132.288 169.649 130.933 166.769C130.42 165.677 130.926 163.791 131.595 162.596C132.771 160.497 133.433 158.493 132.881 156.105C132.299 153.585 132.743 151.286 134.777 149.378C136.146 148.095 136.173 146.542 135.203 144.991C133.954 142.992 133.98 141.01 135.199 139.021C136.617 136.707 137.603 134.321 136.248 131.431C138.845 131.094 139.541 130.35 138.863 127.667C138.407 125.865 140.374 123.489 141.525 121.45C142.824 123.166 143.913 124.771 144.873 126.446C146.459 129.214 147.962 132.028 149.5 134.822ZM137.032 163.418C139.918 160.745 142.805 158.073 145.692 155.4C140.067 156.012 137.984 160.986 133.993 163.604C134.132 163.839 134.27 164.075 134.409 164.311C135.179 164.072 135.949 163.833 137.032 163.418Z" fill="#9F6548"/>
<path d="M150.287 135.003C148.773 132.655 147.422 130.181 145.995 127.748C145.133 126.275 144.153 124.865 143.136 123.265C143.289 122.582 143.533 122.061 143.877 121.45C147.023 121.995 150.069 122.63 153.301 123.344C152.67 126.781 151.864 130.141 151.025 133.494C150.904 133.979 150.625 134.428 150.287 135.003Z" fill="#58352A"/>
<path d="M140.795 65.5402C141.479 64.8645 142.235 64.3704 143.136 63.8492C140.788 69.8505 140.671 76.0218 142.428 82.4432C143.675 87.0041 142.463 90.9585 139.946 94.3437C140.277 93.3929 140.839 92.4653 140.894 91.487C141.047 88.7862 141.575 85.7515 140.876 83.4227C139.774 79.7516 139.375 76.3877 140.149 72.5905C140.6 70.3772 140.641 68.0164 140.795 65.5402Z" fill="#965F45"/>
<path d="M160.164 67.0172C157.908 68.2759 155.821 69.4508 153.734 70.6257C153.589 70.3194 153.445 70.013 153.3 69.7067C155.752 66.8705 158.237 63.9192 162.125 63.8507C164.239 63.8135 166.372 64.4445 168.479 64.8815C169.805 65.1564 170.572 66.0777 170.103 67.7083C169.588 69.4994 168.564 68.4769 167.661 68.1997C165.262 67.4635 162.994 65.6997 160.164 67.0172Z" fill="#59362A"/>
<path d="M163.367 78.3236C161.195 77.4686 159.194 76.741 156.689 75.8297C161.529 75.1819 165.8 74.6101 170.242 74.0156C169.685 76.3761 164.956 76.5302 167.455 80.7922C166.99 80.6876 166.526 80.5831 166.061 80.4785C165.219 79.8027 164.378 79.1268 163.367 78.3236Z" fill="#5C382B"/>
<path d="M136.31 164.581C135.237 164.954 134.345 165.226 133.453 165.499C133.292 165.23 133.131 164.961 132.971 164.692C137.594 161.705 140.007 156.032 146.524 155.334C143.18 158.383 139.835 161.431 136.31 164.581Z" fill="#5C382B"/>
<defs>
<linearGradient id="paint0_linear_4_773" x1="250" y1="0" x2="0" y2="250" gradientUnits="userSpaceOnUse">
<stop stop-color="#FF5E81"/>
<stop offset="1" stop-color="white"/>
</linearGradient>
</defs>
</svg>
