<svg width="188" height="90" viewBox="0 0 188 90" fill="none" xmlns="http://www.w3.org/2000/svg">
<g filter="url(#filter0_d_8_615)">
<path d="M38.2024 28.563C38.2024 28.2923 38.2894 28.07 38.4634 27.896C38.6181 27.722 38.8114 27.635 39.0434 27.635C39.2561 27.635 39.4204 27.693 39.5364 27.809C39.5364 28.8723 39.8747 29.7907 40.5514 30.564C41.2474 31.3373 42.1657 31.9173 43.3064 32.304V13.628C41.4117 14.1113 40.4644 14.904 40.4644 16.006C40.4644 16.3733 40.5224 16.731 40.6384 17.079C40.5224 17.311 40.2614 17.427 39.8554 17.427C39.4494 17.427 39.1014 17.282 38.8114 16.992C38.5214 16.702 38.3764 16.3153 38.3764 15.832C38.3764 14.962 38.8114 14.1983 39.6814 13.541C40.5707 12.8837 41.7791 12.4003 43.3064 12.091V10.757C43.3064 10.177 43.4514 9.742 43.7414 9.452C44.0314 9.14266 44.3891 8.988 44.8144 8.988C45.2397 8.988 45.6071 9.12333 45.9164 9.394V11.801C46.1097 11.7817 46.3997 11.772 46.7864 11.772C49.9957 11.772 52.6154 12.6807 54.6454 14.498C55.6507 15.426 56.4337 16.6633 56.9944 18.21C57.5744 19.7373 57.8644 21.516 57.8644 23.546C57.8644 27.0647 56.8204 29.7327 54.7324 31.55C52.6637 33.348 49.9087 34.247 46.4674 34.247C43.8574 34.247 41.8274 33.6767 40.3774 32.536C38.9274 31.3953 38.2024 30.071 38.2024 28.563ZM46.9314 13.193L46.0324 13.222V32.797H46.4674C49.1161 32.797 51.2331 32.0623 52.8184 30.593C54.4037 29.1237 55.1964 26.7553 55.1964 23.488C55.1964 20.2013 54.4521 17.6687 52.9634 15.89C51.4747 14.092 49.4641 13.193 46.9314 13.193ZM60.0956 17.05C59.7669 16.7213 59.6026 16.3153 59.6026 15.832C59.6026 15.3487 59.7669 14.9427 60.0956 14.614C60.4242 14.266 60.8302 14.092 61.3136 14.092C61.7969 14.092 62.2029 14.266 62.5316 14.614C62.8796 14.9427 63.0536 15.3487 63.0536 15.832C63.0536 16.3153 62.8796 16.7213 62.5316 17.05C62.2029 17.3787 61.7969 17.543 61.3136 17.543C60.8302 17.543 60.4242 17.3787 60.0956 17.05ZM59.9796 21.661C59.9796 21.081 60.1246 20.646 60.4146 20.356C60.7046 20.0467 61.0719 19.892 61.5166 19.892C61.9612 19.892 62.3189 20.0273 62.5896 20.298V28.621C62.5896 29.723 62.8022 30.5543 63.2276 31.115C63.6529 31.6757 64.2329 31.956 64.9676 31.956C65.7022 31.956 66.3886 31.5113 67.0266 30.622C67.6646 29.7327 67.9836 28.2923 67.9836 26.301C68.0222 26.185 68.1672 26.127 68.4186 26.127C68.7666 26.127 68.9406 26.6393 68.9406 27.664C68.9406 29.1527 68.5346 30.4287 67.7226 31.492C66.9106 32.5553 65.8762 33.087 64.6196 33.087C63.0536 33.087 61.8839 32.623 61.1106 31.695C60.3566 30.767 59.9796 29.4523 59.9796 27.751V21.661ZM80.1998 27.055C80.6058 27.055 80.8088 27.3353 80.8088 27.896C80.8088 28.4567 80.6928 29.0173 80.4608 29.578C80.2288 30.1387 79.8905 30.6897 79.4458 31.231C79.0205 31.7723 78.4115 32.217 77.6188 32.565C76.8455 32.913 75.9658 33.087 74.9798 33.087C72.8145 33.087 71.1132 32.5457 69.8758 31.463C68.6578 30.361 68.0488 28.7563 68.0488 26.649C68.0488 24.5223 68.5902 22.8693 69.6728 21.69C70.7555 20.4913 72.1378 19.892 73.8198 19.892C75.0378 19.892 75.9272 20.2207 76.4878 20.878C77.0485 21.516 77.3288 22.2797 77.3288 23.169C77.3288 23.6523 77.1838 24.039 76.8938 24.329C76.6038 24.619 76.3235 24.764 76.0528 24.764C75.5502 24.764 75.2215 24.648 75.0668 24.416C75.1828 24.126 75.2408 23.7103 75.2408 23.169C75.2408 22.6277 75.0572 22.1347 74.6898 21.69C74.3225 21.2453 73.8778 21.023 73.3558 21.023C72.4472 21.023 71.7898 21.4677 71.3838 22.357C70.9972 23.2463 70.8038 24.648 70.8038 26.562C70.8038 28.4567 71.1712 29.8293 71.9058 30.68C72.6598 31.5307 73.7038 31.956 75.0378 31.956C76.3718 31.956 77.4932 31.55 78.4018 30.738C79.3105 29.9067 79.7648 28.737 79.7648 27.229C79.7842 27.113 79.9292 27.055 80.1998 27.055ZM88.4148 20.733C88.6661 20.1723 89.0624 19.892 89.6038 19.892C90.1644 19.892 90.5801 20.0273 90.8508 20.298V28.621C90.8508 29.723 91.0248 30.5543 91.3728 31.115C91.7208 31.6757 92.1944 31.956 92.7938 31.956C94.6111 31.956 95.5198 30.071 95.5198 26.301C95.5391 26.185 95.6841 26.127 95.9548 26.127C96.3028 26.127 96.4768 26.6393 96.4768 27.664C96.4768 29.3073 96.1191 30.622 95.4038 31.608C94.7078 32.594 93.7218 33.087 92.4458 33.087C90.4931 33.087 89.1978 32.2267 88.5598 30.506C88.1924 31.2987 87.6898 31.927 87.0518 32.391C86.4138 32.855 85.6888 33.087 84.8768 33.087C81.4934 33.087 79.8018 30.8733 79.8018 26.446C79.8018 24.2033 80.3238 22.5503 81.3678 21.487C82.4311 20.4237 83.8328 19.892 85.5728 19.892C86.9068 19.892 87.8541 20.1723 88.4148 20.733ZM82.9628 30.013C83.2334 30.8637 83.5428 31.405 83.8908 31.637C84.2388 31.8497 84.7028 31.956 85.2828 31.956C85.8628 31.956 86.4911 31.5983 87.1678 30.883C87.8638 30.1483 88.2118 29.201 88.2118 28.041V24.068C88.2118 23.1593 87.9701 22.4247 87.4868 21.864C87.0228 21.3033 86.4911 21.023 85.8918 21.023C85.3118 21.023 84.8478 21.081 84.4998 21.197C84.1518 21.313 83.8231 21.5547 83.5138 21.922C82.8758 22.618 82.5568 24.126 82.5568 26.446C82.5568 27.9733 82.6921 29.1623 82.9628 30.013ZM100.941 27.171C100.168 26.9003 99.3945 26.62 98.6212 26.33C97.8672 26.0207 97.2292 25.5857 96.7072 25.025C96.1852 24.4643 95.9242 23.749 95.9242 22.879C95.9242 21.9897 96.3302 21.2743 97.1422 20.733C97.9542 20.1723 99.1335 19.892 100.68 19.892C102.246 19.892 103.464 20.1627 104.334 20.704C105.224 21.2453 105.668 21.8737 105.668 22.589C105.668 22.937 105.533 23.2173 105.262 23.43C105.011 23.6427 104.76 23.749 104.508 23.749C104.025 23.749 103.706 23.633 103.551 23.401C103.667 23.2657 103.725 23.0047 103.725 22.618C103.725 22.212 103.426 21.8447 102.826 21.516C102.227 21.1873 101.56 21.023 100.825 21.023C100.091 21.023 99.4815 21.1583 98.9982 21.429C98.5148 21.6997 98.2732 22.1153 98.2732 22.676C98.2732 23.2173 98.5438 23.691 99.0852 24.097C99.6458 24.503 100.313 24.8413 101.086 25.112C101.879 25.3827 102.662 25.6727 103.435 25.982C104.228 26.2913 104.895 26.736 105.436 27.316C105.997 27.8767 106.277 28.5727 106.277 29.404C106.277 30.6413 105.736 31.5693 104.653 32.188C103.59 32.7873 102.179 33.087 100.419 33.087C98.6792 33.087 97.2582 32.5843 96.1562 31.579C95.0735 30.5543 94.5322 29.288 94.5322 27.78C94.5322 27.2387 94.6385 26.8133 94.8512 26.504C95.0638 26.1947 95.3055 26.04 95.5762 26.04C96.0788 26.04 96.3688 26.127 96.4462 26.301L96.5042 26.388C96.3882 26.678 96.3302 27.0357 96.3302 27.461C96.3302 28.7563 96.7072 29.8293 97.4612 30.68C98.2152 31.5307 99.2592 31.956 100.593 31.956C102.643 31.956 103.677 31.231 103.696 29.781C103.696 28.679 102.778 27.809 100.941 27.171ZM118.232 26.272C118.232 24.0487 118.754 22.4343 119.798 21.429C120.862 20.4043 122.263 19.892 124.003 19.892C125.125 19.892 126.014 20.1143 126.671 20.559V16.615C126.671 14.179 126.913 12.41 127.396 11.308C127.899 10.1867 128.827 9.626 130.18 9.626C130.915 9.626 131.485 9.93533 131.891 10.554C132.297 11.1727 132.5 12.0523 132.5 13.193C132.5 15.2617 131.427 17.369 129.281 19.515V28.621C129.281 29.723 129.465 30.5543 129.832 31.115C130.219 31.6757 130.722 31.956 131.34 31.956C131.959 31.956 132.549 31.579 133.109 30.825C133.689 30.0517 133.979 28.8337 133.979 27.171C133.979 26.8037 133.97 26.5137 133.95 26.301C133.97 26.185 134.115 26.127 134.385 26.127C134.733 26.127 134.907 26.6393 134.907 27.664C134.907 29.2687 134.54 30.5737 133.805 31.579C133.09 32.5843 132.162 33.087 131.021 33.087C128.953 33.087 127.599 32.1783 126.961 30.361C126.594 31.173 126.091 31.8303 125.453 32.333C124.815 32.8163 124.1 33.058 123.307 33.058C119.924 33.058 118.232 30.796 118.232 26.272ZM123.597 31.927C124.313 31.927 124.989 31.5403 125.627 30.767C126.285 29.9743 126.613 28.969 126.613 27.751V24.039C126.613 23.0917 126.381 22.357 125.917 21.835C125.473 21.2937 124.941 21.023 124.322 21.023C123.723 21.023 123.249 21.0713 122.901 21.168C122.573 21.2647 122.244 21.4773 121.915 21.806C121.297 22.444 120.987 23.9327 120.987 26.272C120.987 28.6307 121.258 30.1773 121.799 30.912C122.283 31.5887 122.882 31.927 123.597 31.927ZM130.209 10.757C129.803 10.757 129.542 11.2113 129.426 12.12C129.33 13.0093 129.281 15.0103 129.281 18.123C130.596 16.4217 131.253 14.7687 131.253 13.164C131.253 11.5593 130.905 10.757 130.209 10.757ZM142.563 20.733C142.815 20.1723 143.211 19.892 143.752 19.892C144.313 19.892 144.729 20.0273 144.999 20.298V28.621C144.999 29.723 145.173 30.5543 145.521 31.115C145.869 31.6757 146.343 31.956 146.942 31.956C148.76 31.956 149.668 30.071 149.668 26.301C149.688 26.185 149.833 26.127 150.103 26.127C150.451 26.127 150.625 26.6393 150.625 27.664C150.625 29.3073 150.268 30.622 149.552 31.608C148.856 32.594 147.87 33.087 146.594 33.087C144.642 33.087 143.346 32.2267 142.708 30.506C142.341 31.2987 141.838 31.927 141.2 32.391C140.562 32.855 139.837 33.087 139.025 33.087C135.642 33.087 133.95 30.8733 133.95 26.446C133.95 24.2033 134.472 22.5503 135.516 21.487C136.58 20.4237 137.981 19.892 139.721 19.892C141.055 19.892 142.003 20.1723 142.563 20.733ZM137.111 30.013C137.382 30.8637 137.691 31.405 138.039 31.637C138.387 31.8497 138.851 31.956 139.431 31.956C140.011 31.956 140.64 31.5983 141.316 30.883C142.012 30.1483 142.36 29.201 142.36 28.041V24.068C142.36 23.1593 142.119 22.4247 141.635 21.864C141.171 21.3033 140.64 21.023 140.04 21.023C139.46 21.023 138.996 21.081 138.648 21.197C138.3 21.313 137.972 21.5547 137.662 21.922C137.024 22.618 136.705 24.126 136.705 26.446C136.705 27.9733 136.841 29.1623 137.111 30.013Z" fill="#703D57"/>
<path d="M38.4634 27.896L38.8169 28.2496L38.8273 28.2392L38.8371 28.2282L38.4634 27.896ZM39.5364 27.809H40.0364V27.6019L39.8899 27.4554L39.5364 27.809ZM40.5514 30.564L40.1751 30.8933L40.1797 30.8985L40.5514 30.564ZM43.3064 32.304L43.1459 32.7775L43.8064 33.0014V32.304H43.3064ZM43.3064 13.628H43.8064V12.9844L43.1828 13.1435L43.3064 13.628ZM40.6384 17.079L41.0856 17.3026L41.1782 17.1174L41.1127 16.9209L40.6384 17.079ZM38.8114 16.992L39.1649 16.6384L39.1649 16.6384L38.8114 16.992ZM39.6814 13.541L39.3842 13.1389L39.38 13.1421L39.6814 13.541ZM43.3064 12.091L43.4056 12.581L43.8064 12.4999V12.091H43.3064ZM43.7414 9.452L44.0949 9.80555L44.1006 9.79985L44.1062 9.79397L43.7414 9.452ZM45.9164 9.394H46.4164V9.16712L46.2456 9.01771L45.9164 9.394ZM45.9164 11.801H45.4164V12.3535L45.9661 12.2985L45.9164 11.801ZM54.6454 14.498L54.9846 14.1306L54.9789 14.1255L54.6454 14.498ZM56.9944 18.21L56.5243 18.3804L56.527 18.3875L56.9944 18.21ZM54.7324 31.55L55.0604 31.9274L55.0607 31.9272L54.7324 31.55ZM46.9314 13.193V12.693H46.9233L46.9153 12.6933L46.9314 13.193ZM46.0324 13.222L46.0163 12.7223L45.5324 12.7379V13.222H46.0324ZM46.0324 32.797H45.5324V33.297H46.0324V32.797ZM52.8184 30.593L52.4785 30.2263L52.4785 30.2263L52.8184 30.593ZM52.9634 15.89L52.5783 16.2089L52.58 16.2109L52.9634 15.89ZM38.7024 28.563C38.7024 28.4104 38.7465 28.32 38.8169 28.2496L38.1098 27.5424C37.8323 27.82 37.7024 28.1743 37.7024 28.563H38.7024ZM38.8371 28.2282C38.8973 28.1605 38.9548 28.135 39.0434 28.135V27.135C38.668 27.135 38.3389 27.2835 38.0897 27.5638L38.8371 28.2282ZM39.0434 28.135C39.1051 28.135 39.1413 28.1435 39.1597 28.15C39.176 28.1557 39.1809 28.1606 39.1828 28.1626L39.8899 27.4554C39.6547 27.2202 39.3477 27.135 39.0434 27.135V28.135ZM39.0364 27.809C39.0364 28.9888 39.4157 30.0254 40.1751 30.8933L40.9277 30.2347C40.3338 29.556 40.0364 28.7558 40.0364 27.809H39.0364ZM40.1797 30.8985C40.9415 31.7449 41.937 32.3677 43.1459 32.7775L43.4669 31.8305C42.3945 31.4669 41.5533 30.9298 40.923 30.2295L40.1797 30.8985ZM43.8064 32.304V13.628H42.8064V32.304H43.8064ZM43.1828 13.1435C42.2007 13.394 41.4089 13.7373 40.854 14.2015C40.2823 14.6799 39.9644 15.2879 39.9644 16.006H40.9644C40.9644 15.6221 41.1202 15.2827 41.4958 14.9685C41.8882 14.6401 42.5174 14.3453 43.43 14.1125L43.1828 13.1435ZM39.9644 16.006C39.9644 16.427 40.031 16.8381 40.164 17.2371L41.1127 16.9209C41.0138 16.6239 40.9644 16.3197 40.9644 16.006H39.9644ZM40.1912 16.8554C40.1904 16.857 40.1885 16.8671 40.1526 16.8831C40.107 16.9034 40.0158 16.927 39.8554 16.927V17.927C40.3334 17.927 40.8428 17.7882 41.0856 17.3026L40.1912 16.8554ZM39.8554 16.927C39.5835 16.927 39.3622 16.8357 39.1649 16.6384L38.4578 17.3456C38.8405 17.7283 39.3153 17.927 39.8554 17.927V16.927ZM39.1649 16.6384C38.9853 16.4588 38.8764 16.2082 38.8764 15.832H37.8764C37.8764 16.4225 38.0575 16.9452 38.4578 17.3456L39.1649 16.6384ZM38.8764 15.832C38.8764 15.158 39.2028 14.5293 39.9828 13.9399L39.38 13.1421C38.42 13.8674 37.8764 14.766 37.8764 15.832H38.8764ZM39.9786 13.9431C40.7902 13.3432 41.9226 12.8814 43.4056 12.581L43.2071 11.6009C41.6355 11.9192 40.3512 12.4242 39.3842 13.1389L39.9786 13.9431ZM43.8064 12.091V10.757H42.8064V12.091H43.8064ZM43.8064 10.757C43.8064 10.2541 43.9318 9.96871 44.0949 9.80555L43.3878 9.09845C42.971 9.51529 42.8064 10.0999 42.8064 10.757H43.8064ZM44.1062 9.79397C44.3013 9.58582 44.5268 9.488 44.8144 9.488V8.488C44.2513 8.488 43.7615 8.69951 43.3766 9.11003L44.1062 9.79397ZM44.8144 9.488C45.1232 9.488 45.3724 9.58236 45.5871 9.77029L46.2456 9.01771C45.8418 8.6643 45.3562 8.488 44.8144 8.488V9.488ZM45.4164 9.394V11.801H46.4164V9.394H45.4164ZM45.9661 12.2985C46.1338 12.2818 46.4035 12.272 46.7864 12.272V11.272C46.396 11.272 46.0857 11.2816 45.8666 11.3035L45.9661 12.2985ZM46.7864 12.272C49.8958 12.272 52.3895 13.1495 54.3119 14.8705L54.9789 14.1255C52.8413 12.2118 50.0956 11.272 46.7864 11.272V12.272ZM54.3063 14.8654C55.2421 15.7292 55.9854 16.8938 56.5243 18.3804L57.4645 18.0396C56.882 16.4328 56.0594 15.1228 54.9845 14.1306L54.3063 14.8654ZM56.527 18.3875C57.0809 19.8462 57.3644 21.5625 57.3644 23.546H58.3644C58.3644 21.4695 58.0679 19.6284 57.4618 18.0325L56.527 18.3875ZM57.3644 23.546C57.3644 26.9622 56.3548 29.475 54.4041 31.1728L55.0607 31.9272C57.286 29.9903 58.3644 27.1672 58.3644 23.546H57.3644ZM54.4044 31.1726C52.4481 32.8729 49.82 33.747 46.4674 33.747V34.747C49.9974 34.747 52.8793 33.8231 55.0604 31.9274L54.4044 31.1726ZM46.4674 33.747C43.9241 33.747 42.0183 33.1907 40.6865 32.143L40.0682 32.929C41.6365 34.1626 43.7907 34.747 46.4674 34.747V33.747ZM40.6865 32.143C39.3272 31.0737 38.7024 29.8834 38.7024 28.563H37.7024C37.7024 30.2586 38.5276 31.717 40.0682 32.929L40.6865 32.143ZM46.9153 12.6933L46.0163 12.7223L46.0485 13.7217L46.9475 13.6927L46.9153 12.6933ZM45.5324 13.222V32.797H46.5324V13.222H45.5324ZM46.0324 33.297H46.4674V32.297H46.0324V33.297ZM46.4674 33.297C49.2122 33.297 51.4607 32.5331 53.1583 30.9597L52.4785 30.2263C51.0054 31.5916 49.0199 32.297 46.4674 32.297V33.297ZM53.1583 30.9597C54.8882 29.3564 55.6964 26.8235 55.6964 23.488H54.6964C54.6964 26.6871 53.9193 28.8909 52.4785 30.2263L53.1583 30.9597ZM55.6964 23.488C55.6964 20.1322 54.9368 17.4688 53.3468 15.5691L52.58 16.2109C53.9673 17.8685 54.6964 20.2705 54.6964 23.488H55.6964ZM53.3485 15.5711C51.756 13.6477 49.5986 12.693 46.9314 12.693V13.693C49.3295 13.693 51.1934 14.5362 52.5783 16.2089L53.3485 15.5711ZM60.0956 17.05L59.742 17.4036L59.742 17.4036L60.0956 17.05ZM60.0956 14.614L60.4491 14.9676L60.4542 14.9625L60.4591 14.9573L60.0956 14.614ZM62.5316 14.614L62.1681 14.9573L62.1779 14.9677L62.1883 14.9775L62.5316 14.614ZM62.5316 17.05L62.1883 16.6865L62.1831 16.6914L62.178 16.6964L62.5316 17.05ZM60.4146 20.356L60.7681 20.7096L60.7738 20.7039L60.7793 20.698L60.4146 20.356ZM62.5896 20.298H63.0896V20.0909L62.9431 19.9444L62.5896 20.298ZM63.2276 31.115L62.8292 31.4172L62.8292 31.4172L63.2276 31.115ZM67.0266 30.622L66.6203 30.3305L66.6203 30.3305L67.0266 30.622ZM67.9836 26.301L67.5092 26.1429L67.4836 26.2199V26.301H67.9836ZM67.7226 31.492L68.12 31.7955L68.12 31.7955L67.7226 31.492ZM61.1106 31.695L60.7225 32.0103L60.7265 32.0151L61.1106 31.695ZM60.4491 16.6964C60.2183 16.4656 60.1026 16.1886 60.1026 15.832H59.1026C59.1026 16.442 59.3155 16.977 59.742 17.4036L60.4491 16.6964ZM60.1026 15.832C60.1026 15.4754 60.2183 15.1984 60.4491 14.9676L59.742 14.2604C59.3155 14.687 59.1026 15.222 59.1026 15.832H60.1026ZM60.4591 14.9573C60.6923 14.7104 60.9663 14.592 61.3136 14.592V13.592C60.6942 13.592 60.1562 13.8216 59.7321 14.2707L60.4591 14.9573ZM61.3136 14.592C61.6609 14.592 61.9349 14.7104 62.1681 14.9573L62.8951 14.2707C62.4709 13.8216 61.933 13.592 61.3136 13.592V14.592ZM62.1883 14.9775C62.4352 15.2107 62.5536 15.4847 62.5536 15.832H63.5536C63.5536 15.2126 63.324 14.6747 62.8749 14.2505L62.1883 14.9775ZM62.5536 15.832C62.5536 16.1793 62.4352 16.4533 62.1883 16.6865L62.8749 17.4135C63.324 16.9893 63.5536 16.4514 63.5536 15.832H62.5536ZM62.178 16.6964C61.9472 16.9273 61.6702 17.043 61.3136 17.043V18.043C61.9236 18.043 62.4586 17.8301 62.8851 17.4036L62.178 16.6964ZM61.3136 17.043C60.957 17.043 60.6799 16.9273 60.4491 16.6964L59.742 17.4036C60.1685 17.8301 60.7035 18.043 61.3136 18.043V17.043ZM60.4796 21.661C60.4796 21.1581 60.605 20.8727 60.7681 20.7096L60.061 20.0024C59.6442 20.4193 59.4796 21.0039 59.4796 21.661H60.4796ZM60.7793 20.698C60.9698 20.4949 61.2025 20.392 61.5166 20.392V19.392C60.9413 19.392 60.4394 19.5985 60.0498 20.014L60.7793 20.698ZM61.5166 20.392C61.8518 20.392 62.0743 20.4899 62.236 20.6516L62.9431 19.9444C62.5635 19.5648 62.0707 19.392 61.5166 19.392V20.392ZM62.0896 20.298V28.621H63.0896V20.298H62.0896ZM62.0896 28.621C62.0896 29.7744 62.31 30.7327 62.8292 31.4172L63.6259 30.8128C63.2945 30.376 63.0896 29.6716 63.0896 28.621H62.0896ZM62.8292 31.4172C63.3538 32.1087 64.0845 32.456 64.9676 32.456V31.456C64.3813 31.456 63.952 31.2426 63.6259 30.8128L62.8292 31.4172ZM64.9676 32.456C65.9313 32.456 66.7491 31.8665 67.4328 30.9135L66.6203 30.3305C66.028 31.1561 65.4732 31.456 64.9676 31.456V32.456ZM67.4328 30.9135C68.1643 29.8939 68.4836 28.3223 68.4836 26.301H67.4836C67.4836 28.2624 67.1649 29.5714 66.6203 30.3305L67.4328 30.9135ZM68.4579 26.4591C68.4407 26.5108 68.411 26.5551 68.3764 26.5879C68.3441 26.6184 68.3161 26.6311 68.307 26.6347C68.2983 26.6382 68.3014 26.6357 68.3224 26.6326C68.3428 26.6296 68.3742 26.627 68.4186 26.627V25.627C68.2634 25.627 68.0922 25.6436 67.9356 25.7063C67.7674 25.7736 67.5874 25.9085 67.5092 26.1429L68.4579 26.4591ZM68.4186 26.627C68.2659 26.627 68.2736 26.4864 68.3366 26.672C68.3967 26.8489 68.4406 27.1666 68.4406 27.664H69.4406C69.4406 27.1367 69.3975 26.686 69.2835 26.3505C69.1726 26.0238 68.9192 25.627 68.4186 25.627V26.627ZM68.4406 27.664C68.4406 29.056 68.0631 30.2222 67.3252 31.1885L68.12 31.7955C69.006 30.6351 69.4406 29.2493 69.4406 27.664H68.4406ZM67.3252 31.1885C66.6007 32.1373 65.7091 32.587 64.6196 32.587V33.587C66.0434 33.587 67.2205 32.9734 68.12 31.7955L67.3252 31.1885ZM64.6196 32.587C63.1547 32.587 62.1464 32.157 61.4947 31.3749L60.7265 32.0151C61.6214 33.089 62.9525 33.587 64.6196 33.587V32.587ZM61.4986 31.3797C60.8422 30.5718 60.4796 29.3851 60.4796 27.751H59.4796C59.4796 29.5196 59.8709 30.9622 60.7225 32.0103L61.4986 31.3797ZM60.4796 27.751V21.661H59.4796V27.751H60.4796ZM80.4608 29.578L80.9228 29.7692L80.9228 29.7692L80.4608 29.578ZM79.4458 31.231L79.0594 30.9136L79.0527 30.9221L79.4458 31.231ZM77.6188 32.565L77.4178 32.1072L77.4136 32.109L77.6188 32.565ZM69.8758 31.463L69.5403 31.8338L69.5466 31.8393L69.8758 31.463ZM69.6728 21.69L70.0412 22.0281L70.0439 22.0251L69.6728 21.69ZM76.4878 20.878L76.1074 21.2025L76.1122 21.2081L76.4878 20.878ZM76.8938 24.329L76.5403 23.9754L76.5403 23.9754L76.8938 24.329ZM75.0668 24.416L74.6026 24.2303L74.5049 24.4745L74.6508 24.6933L75.0668 24.416ZM74.6898 21.69L75.0753 21.3716L75.0753 21.3716L74.6898 21.69ZM71.3838 22.357L70.9289 22.1493L70.9253 22.1576L71.3838 22.357ZM71.9058 30.68L71.5274 31.0068L71.5317 31.0117L71.9058 30.68ZM78.4018 30.738L78.735 31.1109L78.7393 31.1069L78.4018 30.738ZM79.7648 27.229L79.2716 27.1468L79.2648 27.1876V27.229H79.7648ZM80.1998 27.555C80.2441 27.555 80.259 27.5626 80.2572 27.5618C80.2527 27.5597 80.2495 27.5556 80.2516 27.5585C80.2636 27.5751 80.3088 27.6611 80.3088 27.896H81.3088C81.3088 27.5702 81.2525 27.2357 81.0616 26.972C80.8489 26.6783 80.5315 26.555 80.1998 26.555V27.555ZM80.3088 27.896C80.3088 28.3858 80.2078 28.8817 79.9988 29.3868L80.9228 29.7692C81.1778 29.1529 81.3088 28.5275 81.3088 27.896H80.3088ZM79.9988 29.3868C79.7883 29.8955 79.4776 30.4046 79.0595 30.9136L79.8322 31.5484C80.3034 30.9747 80.6693 30.3818 80.9228 29.7692L79.9988 29.3868ZM79.0527 30.9221C78.6896 31.3842 78.1542 31.7839 77.4178 32.1072L77.8198 33.0228C78.6688 32.6501 79.3514 32.1605 79.839 31.5399L79.0527 30.9221ZM77.4136 32.109C76.7145 32.4237 75.9065 32.587 74.9798 32.587V33.587C76.0251 33.587 76.9765 33.4023 77.824 33.021L77.4136 32.109ZM74.9798 32.587C72.8965 32.587 71.3256 32.0672 70.2051 31.0867L69.5466 31.8393C70.9007 33.0241 72.7324 33.587 74.9798 33.587V32.587ZM70.2113 31.0922C69.1259 30.1102 68.5488 28.6576 68.5488 26.649H67.5488C67.5488 28.8551 68.1897 30.6118 69.5404 31.8338L70.2113 31.0922ZM68.5488 26.649C68.5488 24.6056 69.0678 23.0884 70.0412 22.0281L69.3045 21.3519C68.1125 22.6503 67.5488 24.4391 67.5488 26.649H68.5488ZM70.0439 22.0251C71.0274 20.9363 72.2726 20.392 73.8198 20.392V19.392C72.003 19.392 70.4836 20.0464 69.3018 21.3549L70.0439 22.0251ZM73.8198 20.392C74.9537 20.392 75.6758 20.6965 76.1074 21.2025L76.8682 20.5535C76.1785 19.7448 75.1219 19.392 73.8198 19.392V20.392ZM76.1122 21.2081C76.5887 21.7502 76.8288 22.3949 76.8288 23.169H77.8288C77.8288 22.1644 77.5083 21.2818 76.8634 20.5479L76.1122 21.2081ZM76.8288 23.169C76.8288 23.5452 76.7199 23.7958 76.5403 23.9754L77.2474 24.6826C77.6477 24.2822 77.8288 23.7595 77.8288 23.169H76.8288ZM76.5403 23.9754C76.2965 24.2192 76.1361 24.264 76.0528 24.264V25.264C76.5109 25.264 76.9112 25.0188 77.2474 24.6826L76.5403 23.9754ZM76.0528 24.264C75.5865 24.264 75.4903 24.1498 75.4829 24.1387L74.6508 24.6933C74.9527 25.1462 75.5139 25.264 76.0528 25.264V24.264ZM75.5311 24.6017C75.682 24.2245 75.7408 23.7342 75.7408 23.169H74.7408C74.7408 23.6864 74.6837 24.0275 74.6026 24.2303L75.5311 24.6017ZM75.7408 23.169C75.7408 22.5035 75.5114 21.8995 75.0753 21.3716L74.3043 22.0084C74.6029 22.3698 74.7408 22.7518 74.7408 23.169H75.7408ZM75.0753 21.3716C74.6243 20.8256 74.0438 20.523 73.3558 20.523V21.523C73.7118 21.523 74.0207 21.6651 74.3043 22.0084L75.0753 21.3716ZM73.3558 20.523C72.8166 20.523 72.3241 20.6563 71.9012 20.9424C71.4805 21.2269 71.1613 21.6404 70.929 22.1494L71.8387 22.5646C72.0123 22.1842 72.2248 21.9308 72.4615 21.7706C72.6959 21.6121 72.9864 21.523 73.3558 21.523V20.523ZM70.9253 22.1576C70.4958 23.1454 70.3038 24.6332 70.3038 26.562H71.3038C71.3038 24.6628 71.4985 23.3473 71.8424 22.5564L70.9253 22.1576ZM70.3038 26.562C70.3038 28.5008 70.676 30.0209 71.5274 31.0068L72.2842 30.3532C71.6664 29.6378 71.3038 28.4125 71.3038 26.562H70.3038ZM71.5317 31.0117C72.3973 31.9882 73.5881 32.456 75.0378 32.456V31.456C73.8196 31.456 72.9224 31.0731 72.28 30.3483L71.5317 31.0117ZM75.0378 32.456C76.4822 32.456 77.7257 32.0127 78.735 31.1108L78.0687 30.3652C77.2606 31.0873 76.2615 31.456 75.0378 31.456V32.456ZM78.7393 31.1069C79.7742 30.1601 80.2648 28.8433 80.2648 27.229H79.2648C79.2648 28.6307 78.8468 29.6532 78.0643 30.3691L78.7393 31.1069ZM80.258 27.3112C80.2462 27.382 80.2128 27.4471 80.1664 27.4962C80.1244 27.5407 80.0852 27.5582 80.0738 27.5627C80.0623 27.5673 80.0648 27.5645 80.0895 27.5611C80.1131 27.5578 80.149 27.555 80.1998 27.555V26.555C80.0406 26.555 79.8621 26.5704 79.7024 26.6343C79.5278 26.7041 79.3193 26.861 79.2716 27.1468L80.258 27.3112ZM88.4148 20.733L88.0612 21.0866L88.5742 21.5996L88.871 20.9375L88.4148 20.733ZM90.8508 20.298H91.3508V20.0909L91.2043 19.9444L90.8508 20.298ZM91.3728 31.115L91.7976 30.8513L91.7976 30.8513L91.3728 31.115ZM95.5198 26.301L95.0266 26.2188L95.0198 26.2596V26.301H95.5198ZM95.4038 31.608L94.999 31.3144L94.9953 31.3197L95.4038 31.608ZM88.5598 30.506L89.0286 30.3322L88.6111 29.2061L88.1061 30.2958L88.5598 30.506ZM87.0518 32.391L86.7577 31.9866L86.7577 31.9866L87.0518 32.391ZM81.3678 21.487L81.0142 21.1334L81.011 21.1367L81.3678 21.487ZM82.9628 30.013L83.4392 29.8614L83.4392 29.8614L82.9628 30.013ZM83.8908 31.637L83.6134 32.053L83.6216 32.0585L83.63 32.0636L83.8908 31.637ZM87.1678 30.883L86.8048 30.5391L86.8045 30.5394L87.1678 30.883ZM87.4868 21.864L87.1015 22.1828L87.1081 22.1905L87.4868 21.864ZM84.4998 21.197L84.6579 21.6713L84.6579 21.6713L84.4998 21.197ZM83.5138 21.922L83.8823 22.2599L83.8894 22.2521L83.8962 22.2441L83.5138 21.922ZM88.871 20.9375C88.9697 20.7175 89.0812 20.5869 89.1892 20.5105C89.2934 20.4368 89.4241 20.392 89.6038 20.392V19.392C89.2421 19.392 88.904 19.4874 88.6118 19.694C88.3235 19.8979 88.1112 20.1879 87.9585 20.5285L88.871 20.9375ZM89.6038 20.392C90.0933 20.392 90.3563 20.5106 90.4972 20.6516L91.2043 19.9444C90.8039 19.544 90.2356 19.392 89.6038 19.392V20.392ZM90.3508 20.298V28.621H91.3508V20.298H90.3508ZM90.3508 28.621C90.3508 29.7605 90.528 30.7021 90.9479 31.3787L91.7976 30.8513C91.5215 30.4066 91.3508 29.6855 91.3508 28.621H90.3508ZM90.9479 31.3787C91.3761 32.0685 92.0016 32.456 92.7938 32.456V31.456C92.3873 31.456 92.0654 31.2828 91.7976 30.8513L90.9479 31.3787ZM92.7938 32.456C93.3394 32.456 93.8384 32.3128 94.2708 32.0138C94.6991 31.7176 95.0336 31.2885 95.2887 30.7594C95.7922 29.7147 96.0198 28.2102 96.0198 26.301H95.0198C95.0198 28.1618 94.7929 29.4848 94.3879 30.3251C94.1886 30.7385 93.9552 31.0163 93.702 31.1913C93.4529 31.3636 93.1568 31.456 92.7938 31.456V32.456ZM96.013 26.3832C96.0012 26.454 95.9677 26.5191 95.9213 26.5682C95.8793 26.6127 95.8401 26.6302 95.8287 26.6347C95.8172 26.6393 95.8197 26.6365 95.8444 26.6331C95.868 26.6298 95.904 26.627 95.9548 26.627V25.627C95.7955 25.627 95.617 25.6424 95.4573 25.7063C95.2827 25.7761 95.0742 25.933 95.0266 26.2188L96.013 26.3832ZM95.9548 26.627C95.8021 26.627 95.8098 26.4864 95.8728 26.672C95.9329 26.8489 95.9768 27.1666 95.9768 27.664H96.9768C96.9768 27.1367 96.9336 26.686 96.8197 26.3505C96.7087 26.0238 96.4554 25.627 95.9548 25.627V26.627ZM95.9768 27.664C95.9768 29.2381 95.6341 30.4391 94.999 31.3144L95.8085 31.9016C96.6041 30.8049 96.9768 29.3765 96.9768 27.664H95.9768ZM94.9953 31.3197C94.3991 32.1642 93.5703 32.587 92.4458 32.587V33.587C93.8732 33.587 95.0164 33.0238 95.8122 31.8963L94.9953 31.3197ZM92.4458 32.587C91.5427 32.587 90.8334 32.3885 90.2864 32.0252C89.7419 31.6636 89.3176 31.1117 89.0286 30.3322L88.0909 30.6798C88.4399 31.6209 88.9823 32.3596 89.7331 32.8583C90.4815 33.3553 91.3962 33.587 92.4458 33.587V32.587ZM88.1061 30.2958C87.7706 31.0197 87.3196 31.5779 86.7577 31.9866L87.3458 32.7954C88.0599 32.2761 88.6142 31.5777 89.0134 30.7162L88.1061 30.2958ZM86.7577 31.9866C86.2078 32.3866 85.5864 32.587 84.8768 32.587V33.587C85.7911 33.587 86.6197 33.3234 87.3458 32.7954L86.7577 31.9866ZM84.8768 32.587C83.3036 32.587 82.1985 32.0793 81.4678 31.1232C80.7177 30.1416 80.3018 28.6101 80.3018 26.446H79.3018C79.3018 28.7092 79.7317 30.4983 80.6732 31.7303C81.6342 32.9878 83.0666 33.587 84.8768 33.587V32.587ZM80.3018 26.446C80.3018 24.2692 80.8096 22.7692 81.7245 21.8373L81.011 21.1367C79.8379 22.3315 79.3018 24.1374 79.3018 26.446H80.3018ZM81.7213 21.8406C82.6761 20.8858 83.9428 20.392 85.5728 20.392V19.392C83.7227 19.392 82.1861 19.9615 81.0142 21.1334L81.7213 21.8406ZM85.5728 20.392C86.8594 20.392 87.641 20.6663 88.0612 21.0866L88.7683 20.3794C88.0672 19.6783 86.9542 19.392 85.5728 19.392V20.392ZM82.4863 30.1646C82.6281 30.6104 82.7858 30.9939 82.9636 31.3051C83.1395 31.6128 83.3509 31.8781 83.6134 32.053L84.1681 31.221C84.0826 31.1639 83.9654 31.0426 83.8319 30.8089C83.7004 30.5788 83.568 30.2663 83.4392 29.8614L82.4863 30.1646ZM83.63 32.0636C84.083 32.3404 84.6476 32.456 85.2828 32.456V31.456C84.7579 31.456 84.3946 31.3589 84.1515 31.2104L83.63 32.0636ZM85.2828 32.456C86.0702 32.456 86.8222 31.9759 87.531 31.2266L86.8045 30.5394C86.16 31.2208 85.6554 31.456 85.2828 31.456V32.456ZM87.5307 31.2269C88.3277 30.3857 88.7118 29.3088 88.7118 28.041H87.7118C87.7118 29.0932 87.3999 29.911 86.8048 30.5391L87.5307 31.2269ZM88.7118 28.041V24.068H87.7118V28.041H88.7118ZM88.7118 24.068C88.7118 23.0678 88.4438 22.2084 87.8655 21.5375L87.1081 22.1905C87.4964 22.641 87.7118 23.2508 87.7118 24.068H88.7118ZM87.872 21.5452C87.3354 20.8968 86.672 20.523 85.8918 20.523V21.523C86.3102 21.523 86.7102 21.7098 87.1016 22.1828L87.872 21.5452ZM85.8918 20.523C85.2855 20.523 84.7614 20.5827 84.3416 20.7227L84.6579 21.6713C84.9341 21.5793 85.3381 21.523 85.8918 21.523V20.523ZM84.3416 20.7227C83.8832 20.8755 83.482 21.1834 83.1313 21.5999L83.8962 22.2441C84.1642 21.9259 84.4204 21.7505 84.6579 21.6713L84.3416 20.7227ZM83.1452 21.5841C82.7388 22.0274 82.4743 22.6796 82.3068 23.4715C82.1375 24.272 82.0568 25.2668 82.0568 26.446H83.0568C83.0568 25.3052 83.1355 24.386 83.2852 23.6785C83.4367 22.9624 83.6507 22.5126 83.8823 22.2599L83.1452 21.5841ZM82.0568 26.446C82.0568 27.9937 82.1928 29.2422 82.4863 30.1646L83.4392 29.8614C83.1914 29.0825 83.0568 27.9529 83.0568 26.446H82.0568ZM100.941 27.171L100.776 27.6429L100.777 27.6433L100.941 27.171ZM98.6212 26.33L98.4314 26.7926L98.4385 26.7955L98.4456 26.7982L98.6212 26.33ZM96.7072 25.025L96.3412 25.3657L96.3412 25.3657L96.7072 25.025ZM97.1422 20.733L97.4196 21.1491L97.4263 21.1444L97.1422 20.733ZM104.334 20.704L104.07 21.1285L104.074 21.1311L104.334 20.704ZM105.262 23.43L104.953 23.0368L104.946 23.0424L104.939 23.0483L105.262 23.43ZM103.551 23.401L103.172 23.0756L102.925 23.3632L103.135 23.6783L103.551 23.401ZM102.826 21.516L103.067 21.0776L103.067 21.0776L102.826 21.516ZM98.9982 21.429L99.2425 21.8653L99.2425 21.8653L98.9982 21.429ZM99.0852 24.097L98.7851 24.4971L98.7919 24.502L99.0852 24.097ZM101.086 25.112L100.921 25.5839L100.925 25.5852L101.086 25.112ZM103.435 25.982L103.249 26.4463L103.253 26.4478L103.435 25.982ZM105.436 27.316L105.071 27.6572L105.077 27.6635L105.083 27.6696L105.436 27.316ZM104.653 32.188L104.899 32.6236L104.901 32.6221L104.653 32.188ZM96.1562 31.579L95.8124 31.9422L95.8192 31.9484L96.1562 31.579ZM94.8512 26.504L95.2632 26.7873L95.2632 26.7873L94.8512 26.504ZM96.4462 26.301L95.9893 26.5041L96.0065 26.5429L96.0301 26.5784L96.4462 26.301ZM96.5042 26.388L96.9684 26.5737L97.0661 26.3295L96.9202 26.1106L96.5042 26.388ZM97.4612 30.68L97.8353 30.3483L97.8353 30.3483L97.4612 30.68ZM103.696 29.781L104.196 29.7877V29.781H103.696ZM101.106 26.6991C100.337 26.4296 99.5666 26.1506 98.7967 25.8618L98.4456 26.7982C99.2224 27.0894 99.9992 27.371 100.776 27.6429L101.106 26.6991ZM98.811 25.8674C98.1194 25.5837 97.5428 25.1887 97.0731 24.6843L96.3412 25.3657C96.9156 25.9826 97.6149 26.4576 98.4314 26.7926L98.811 25.8674ZM97.0731 24.6843C96.6491 24.2288 96.4242 23.641 96.4242 22.879H95.4242C95.4242 23.857 95.7213 24.6998 96.3412 25.3657L97.0731 24.6843ZM96.4242 22.879C96.4242 22.1752 96.7306 21.6083 97.4195 21.149L96.8648 20.317C95.9297 20.9404 95.4242 21.8041 95.4242 22.879H96.4242ZM97.4263 21.1444C98.1196 20.6657 99.1817 20.392 100.68 20.392V19.392C99.0853 19.392 97.7887 19.679 96.8581 20.3216L97.4263 21.1444ZM100.68 20.392C102.198 20.392 103.311 20.6561 104.07 21.1285L104.598 20.2795C103.618 19.6693 102.294 19.392 100.68 19.392V20.392ZM104.074 21.1311C104.888 21.6267 105.168 22.1201 105.168 22.589H106.168C106.168 21.6272 105.559 20.8639 104.594 20.2769L104.074 21.1311ZM105.168 22.589C105.168 22.7855 105.102 22.9202 104.953 23.0368L105.571 23.8232C105.964 23.5145 106.168 23.0885 106.168 22.589H105.168ZM104.939 23.0483C104.75 23.2086 104.609 23.249 104.508 23.249V24.249C104.91 24.249 105.272 24.0767 105.585 23.8117L104.939 23.0483ZM104.508 23.249C104.07 23.249 103.977 23.1391 103.967 23.1236L103.135 23.6783C103.434 24.1269 103.979 24.249 104.508 24.249V23.249ZM103.931 23.7264C104.062 23.573 104.131 23.386 104.17 23.2122C104.209 23.0342 104.225 22.8332 104.225 22.618H103.225C103.225 22.7895 103.212 22.9123 103.194 22.9953C103.174 23.0825 103.156 23.0937 103.172 23.0756L103.931 23.7264ZM104.225 22.618C104.225 21.9285 103.712 21.4314 103.067 21.0776L102.586 21.9544C103.139 22.2579 103.225 22.4955 103.225 22.618H104.225ZM103.067 21.0776C102.388 20.7055 101.637 20.523 100.825 20.523V21.523C101.482 21.523 102.066 21.6692 102.586 21.9544L103.067 21.0776ZM100.825 20.523C100.032 20.523 99.3323 20.6688 98.7539 20.9927L99.2425 21.8653C99.6307 21.6478 100.149 21.523 100.825 21.523V20.523ZM98.7539 20.9927C98.4462 21.165 98.1944 21.3961 98.0222 21.6924C97.8501 21.9885 97.7732 22.3222 97.7732 22.676H98.7732C98.7732 22.4691 98.8171 22.3147 98.8867 22.1951C98.9561 22.0757 99.0668 21.9636 99.2425 21.8653L98.7539 20.9927ZM97.7732 22.676C97.7732 23.4138 98.1528 24.0228 98.7852 24.497L99.3852 23.697C98.9348 23.3592 98.7732 23.0209 98.7732 22.676H97.7732ZM98.7919 24.502C99.3982 24.941 100.11 25.3001 100.921 25.5839L101.251 24.6401C100.516 24.3826 99.8934 24.065 99.3784 23.692L98.7919 24.502ZM100.925 25.5852C101.709 25.8531 102.484 26.1401 103.249 26.4462L103.621 25.5178C102.84 25.2052 102.048 24.9122 101.248 24.6388L100.925 25.5852ZM103.253 26.4478C103.981 26.7319 104.584 27.1359 105.071 27.6572L105.802 26.9748C105.206 26.3361 104.474 25.8508 103.617 25.5162L103.253 26.4478ZM105.083 27.6696C105.545 28.1315 105.777 28.6981 105.777 29.404H106.777C106.777 28.4472 106.449 27.6218 105.79 26.9624L105.083 27.6696ZM105.777 29.404C105.777 30.4602 105.333 31.2234 104.405 31.7539L104.901 32.6221C106.138 31.9153 106.777 30.8225 106.777 29.404H105.777ZM104.408 31.7524C103.445 32.2949 102.128 32.587 100.419 32.587V33.587C102.229 33.587 103.735 33.2797 104.899 32.6236L104.408 31.7524ZM100.419 32.587C98.7818 32.587 97.4879 32.1171 96.4932 31.2096L95.8192 31.9484C97.0284 33.0515 98.5766 33.587 100.419 33.587V32.587ZM96.4999 31.2159C95.5183 30.2869 95.0322 29.1524 95.0322 27.78H94.0322C94.0322 29.4236 94.6287 30.8218 95.8125 31.9421L96.4999 31.2159ZM95.0322 27.78C95.0322 27.2971 95.128 26.9839 95.2632 26.7873L94.4392 26.2207C94.149 26.6428 94.0322 27.1803 94.0322 27.78H95.0322ZM95.2632 26.7873C95.4218 26.5566 95.529 26.54 95.5762 26.54V25.54C95.082 25.54 94.7059 25.8327 94.4392 26.2207L95.2632 26.7873ZM95.5762 26.54C95.8064 26.54 95.9492 26.5608 96.027 26.5842C96.1138 26.6102 96.0373 26.6121 95.9893 26.5041L96.9031 26.0979C96.7777 25.8159 96.5175 25.6873 96.3143 25.6263C96.1022 25.5627 95.8486 25.54 95.5762 25.54V26.54ZM96.0301 26.5784L96.0881 26.6654L96.9202 26.1106L96.8622 26.0236L96.0301 26.5784ZM96.0399 26.2023C95.8934 26.5685 95.8302 26.9936 95.8302 27.461H96.8302C96.8302 27.0777 96.8829 26.7875 96.9684 26.5737L96.0399 26.2023ZM95.8302 27.461C95.8302 28.8603 96.2406 30.0568 97.087 31.0117L97.8353 30.3483C97.1737 29.6019 96.8302 28.6523 96.8302 27.461H95.8302ZM97.087 31.0117C97.9526 31.9882 99.1434 32.456 100.593 32.456V31.456C99.3749 31.456 98.4777 31.0731 97.8353 30.3483L97.087 31.0117ZM100.593 32.456C101.662 32.456 102.554 32.2695 103.193 31.8217C103.863 31.3523 104.185 30.646 104.196 29.7877L103.196 29.7743C103.188 30.366 102.984 30.7472 102.619 31.0028C102.224 31.28 101.574 31.456 100.593 31.456V32.456ZM104.196 29.781C104.196 28.3299 102.973 27.3477 101.105 26.6987L100.777 27.6433C102.582 28.2703 103.196 29.0281 103.196 29.781H104.196ZM119.798 21.429L120.145 21.7892L120.145 21.789L119.798 21.429ZM126.671 20.559L126.391 20.9731L127.171 21.5009V20.559H126.671ZM127.396 11.308L126.94 11.1035L126.939 11.1072L127.396 11.308ZM129.281 19.515L128.928 19.1614L128.781 19.3079V19.515H129.281ZM129.832 31.115L129.414 31.3891L129.421 31.3989L129.832 31.115ZM133.109 30.825L132.709 30.525L132.708 30.5266L133.109 30.825ZM133.95 26.301L133.457 26.2188L133.447 26.2822L133.452 26.3463L133.95 26.301ZM133.805 31.579L133.402 31.284L133.398 31.2891L133.805 31.579ZM126.961 30.361L127.433 30.1954L127.02 29.0184L126.506 30.1549L126.961 30.361ZM125.453 32.333L125.755 32.7316L125.763 32.7257L125.453 32.333ZM125.627 30.767L125.243 30.4478L125.242 30.4488L125.627 30.767ZM125.917 21.835L125.531 22.1524L125.537 22.1599L125.544 22.1672L125.917 21.835ZM122.901 21.168L122.768 20.6862L122.76 20.6883L122.901 21.168ZM121.915 21.806L121.562 21.4524L121.556 21.4579L121.915 21.806ZM121.799 30.912L122.206 30.6213L122.202 30.6154L121.799 30.912ZM129.426 12.12L128.93 12.0567L128.929 12.066L129.426 12.12ZM129.281 18.123H128.781V19.5878L129.677 18.4287L129.281 18.123ZM118.732 26.272C118.732 24.1131 119.241 22.6601 120.145 21.7892L119.452 21.0688C118.268 22.2086 117.732 23.9843 117.732 26.272H118.732ZM120.145 21.789C121.099 20.87 122.368 20.392 124.003 20.392V19.392C122.159 19.392 120.624 19.9387 119.451 21.069L120.145 21.789ZM124.003 20.392C125.065 20.392 125.844 20.6031 126.391 20.9731L126.952 20.1449C126.184 19.6255 125.185 19.392 124.003 19.392V20.392ZM127.171 20.559V16.615H126.171V20.559H127.171ZM127.171 16.615C127.171 14.1917 127.415 12.5108 127.854 11.5088L126.939 11.1072C126.411 12.3092 126.171 14.1663 126.171 16.615H127.171ZM127.853 11.5125C128.068 11.0319 128.362 10.6953 128.728 10.4745C129.097 10.2516 129.572 10.126 130.18 10.126V9.126C129.435 9.126 128.77 9.28068 128.211 9.61854C127.648 9.95833 127.227 10.4628 126.94 11.1035L127.853 11.5125ZM130.18 10.126C130.745 10.126 131.159 10.3493 131.473 10.8283L132.309 10.2797C131.812 9.5214 131.085 9.126 130.18 9.126V10.126ZM131.473 10.8283C131.804 11.3325 132 12.1009 132 13.193H133C133 12.0038 132.791 11.0129 132.309 10.2797L131.473 10.8283ZM132 13.193C132 15.078 131.024 17.0656 128.928 19.1614L129.635 19.8686C131.831 17.6724 133 15.4454 133 13.193H132ZM128.781 19.515V28.621H129.781V19.515H128.781ZM128.781 28.621C128.781 29.7638 128.969 30.7099 129.414 31.389L130.251 30.841C129.961 30.3988 129.781 29.6822 129.781 28.621H128.781ZM129.421 31.3989C129.89 32.0789 130.539 32.456 131.34 32.456V31.456C130.905 31.456 130.548 31.2725 130.244 30.8311L129.421 31.3989ZM131.34 32.456C132.186 32.456 132.906 31.9362 133.511 31.1234L132.708 30.5266C132.191 31.2218 131.732 31.456 131.34 31.456V32.456ZM133.509 31.125C134.186 30.2222 134.479 28.8719 134.479 27.171H133.479C133.479 28.7954 133.192 29.8811 132.709 30.525L133.509 31.125ZM134.479 27.171C134.479 26.7976 134.47 26.4904 134.448 26.2557L133.452 26.3463C133.47 26.537 133.479 26.8097 133.479 27.171H134.479ZM134.444 26.3832C134.432 26.454 134.398 26.5191 134.352 26.5682C134.31 26.6127 134.271 26.6302 134.259 26.6347C134.248 26.6393 134.25 26.6365 134.275 26.6331C134.299 26.6298 134.335 26.627 134.385 26.627V25.627C134.226 25.627 134.048 25.6424 133.888 25.7063C133.713 25.7761 133.505 25.933 133.457 26.2188L134.444 26.3832ZM134.385 26.627C134.233 26.627 134.24 26.4864 134.303 26.672C134.364 26.8489 134.407 27.1666 134.407 27.664H135.407C135.407 27.1367 135.364 26.686 135.25 26.3505C135.139 26.0238 134.886 25.627 134.385 25.627V26.627ZM134.407 27.664C134.407 29.1933 134.058 30.3861 133.402 31.284L134.209 31.874C135.022 30.7612 135.407 29.3441 135.407 27.664H134.407ZM133.398 31.2891C132.768 32.1752 131.985 32.587 131.021 32.587V33.587C132.339 33.587 133.413 32.9934 134.213 31.8689L133.398 31.2891ZM131.021 32.587C130.06 32.587 129.308 32.3762 128.734 31.9904C128.162 31.6066 127.723 31.0213 127.433 30.1954L126.49 30.5266C126.838 31.518 127.394 32.2957 128.176 32.8206C128.955 33.3435 129.914 33.587 131.021 33.587V32.587ZM126.506 30.1549C126.168 30.9011 125.713 31.4919 125.144 31.9403L125.763 32.7257C126.47 32.1688 127.02 31.4449 127.417 30.5671L126.506 30.1549ZM125.151 31.9345C124.599 32.3527 123.99 32.558 123.307 32.558V33.558C124.21 33.558 125.031 33.28 125.755 32.7315L125.151 31.9345ZM123.307 32.558C121.738 32.558 120.634 32.0411 119.902 31.062C119.149 30.0557 118.732 28.4861 118.732 26.272H117.732C117.732 28.5819 118.162 30.4053 119.101 31.661C120.06 32.9439 121.493 33.558 123.307 33.558V32.558ZM123.597 32.427C124.515 32.427 125.32 31.9253 126.013 31.0852L125.242 30.4488C124.659 31.1554 124.11 31.427 123.597 31.427V32.427ZM126.012 31.0862C126.757 30.188 127.113 29.0633 127.113 27.751H126.113C126.113 28.8747 125.812 29.7607 125.243 30.4478L126.012 31.0862ZM127.113 27.751V24.039H126.113V27.751H127.113ZM127.113 24.039C127.113 23.0133 126.862 22.1446 126.291 21.5028L125.544 22.1672C125.901 22.5694 126.113 23.1701 126.113 24.039H127.113ZM126.304 21.5176C125.778 20.8779 125.112 20.523 124.322 20.523V21.523C124.771 21.523 125.167 21.7094 125.531 22.1524L126.304 21.5176ZM124.322 20.523C123.703 20.523 123.178 20.5721 122.768 20.6862L123.035 21.6498C123.32 21.5705 123.743 21.523 124.322 21.523V20.523ZM122.76 20.6883C122.328 20.8155 121.93 21.0848 121.562 21.4524L122.269 22.1596C122.559 21.8699 122.818 21.7138 123.043 21.6477L122.76 20.6883ZM121.556 21.4579C121.149 21.8779 120.892 22.5205 120.73 23.2993C120.566 24.0899 120.487 25.0843 120.487 26.272H121.487C121.487 25.1203 121.564 24.2008 121.709 23.5027C121.856 22.7929 122.063 22.3721 122.274 22.1541L121.556 21.4579ZM120.487 26.272C120.487 27.4674 120.556 28.4751 120.698 29.2872C120.838 30.0892 121.058 30.7493 121.397 31.2086L122.202 30.6154C121.999 30.34 121.813 29.8595 121.683 29.1148C121.554 28.3803 121.487 27.4353 121.487 26.272H120.487ZM121.393 31.2026C121.952 31.9862 122.693 32.427 123.597 32.427V31.427C123.071 31.427 122.613 31.1911 122.206 30.6214L121.393 31.2026ZM130.209 10.257C129.775 10.257 129.465 10.5183 129.276 10.8487C129.096 11.1607 128.991 11.5785 128.93 12.0567L129.922 12.1833C129.977 11.7528 130.061 11.4891 130.143 11.3468C130.181 11.2799 130.208 11.259 130.214 11.2554C130.216 11.254 130.214 11.2551 130.211 11.2563C130.207 11.2574 130.206 11.257 130.209 11.257V10.257ZM128.929 12.066C128.829 12.9876 128.781 15.0178 128.781 18.123H129.781C129.781 15.0028 129.83 13.031 129.923 12.174L128.929 12.066ZM129.677 18.4287C131.037 16.6694 131.753 14.9117 131.753 13.164H130.753C130.753 14.6257 130.156 16.1739 128.886 17.8173L129.677 18.4287ZM131.753 13.164C131.753 12.3409 131.666 11.6563 131.451 11.1598C131.341 10.906 131.187 10.6772 130.971 10.511C130.748 10.3396 130.487 10.257 130.209 10.257V11.257C130.28 11.257 130.324 11.2747 130.361 11.3039C130.406 11.3383 130.47 11.4103 130.534 11.5577C130.666 11.8636 130.753 12.3825 130.753 13.164H131.753ZM142.563 20.733L142.21 21.0866L142.723 21.5996L143.019 20.9375L142.563 20.733ZM144.999 20.298H145.499V20.0909L145.353 19.9444L144.999 20.298ZM145.521 31.115L145.946 30.8513L145.946 30.8513L145.521 31.115ZM149.668 26.301L149.175 26.2188L149.168 26.2596V26.301H149.668ZM149.552 31.608L149.147 31.3144L149.144 31.3197L149.552 31.608ZM142.708 30.506L143.177 30.3322L142.759 29.2061L142.255 30.2958L142.708 30.506ZM141.2 32.391L140.906 31.9866L140.906 31.9866L141.2 32.391ZM135.516 21.487L135.163 21.1334L135.159 21.1367L135.516 21.487ZM137.111 30.013L137.588 29.8614L137.588 29.8614L137.111 30.013ZM138.039 31.637L137.762 32.053L137.77 32.0585L137.778 32.0636L138.039 31.637ZM141.316 30.883L140.953 30.5391L140.953 30.5394L141.316 30.883ZM141.635 21.864L141.25 22.1828L141.256 22.1905L141.635 21.864ZM138.648 21.197L138.806 21.6713L138.806 21.6713L138.648 21.197ZM137.662 21.922L138.031 22.2599L138.038 22.2521L138.045 22.2441L137.662 21.922ZM143.019 20.9375C143.118 20.7175 143.23 20.5869 143.338 20.5105C143.442 20.4368 143.573 20.392 143.752 20.392V19.392C143.391 19.392 143.052 19.4874 142.76 19.694C142.472 19.8979 142.26 20.1879 142.107 20.5285L143.019 20.9375ZM143.752 20.392C144.242 20.392 144.505 20.5106 144.646 20.6516L145.353 19.9444C144.952 19.544 144.384 19.392 143.752 19.392V20.392ZM144.499 20.298V28.621H145.499V20.298H144.499ZM144.499 28.621C144.499 29.7605 144.676 30.7021 145.096 31.3787L145.946 30.8513C145.67 30.4066 145.499 29.6855 145.499 28.621H144.499ZM145.096 31.3787C145.525 32.0685 146.15 32.456 146.942 32.456V31.456C146.536 31.456 146.214 31.2828 145.946 30.8513L145.096 31.3787ZM146.942 32.456C147.488 32.456 147.987 32.3128 148.419 32.0138C148.848 31.7176 149.182 31.2885 149.437 30.7594C149.941 29.7147 150.168 28.2102 150.168 26.301H149.168C149.168 28.1618 148.941 29.4848 148.536 30.3251C148.337 30.7385 148.104 31.0163 147.85 31.1913C147.601 31.3636 147.305 31.456 146.942 31.456V32.456ZM150.161 26.3832C150.15 26.454 150.116 26.5191 150.07 26.5682C150.028 26.6127 149.989 26.6302 149.977 26.6347C149.966 26.6393 149.968 26.6365 149.993 26.6331C150.016 26.6298 150.052 26.627 150.103 26.627V25.627C149.944 25.627 149.765 25.6424 149.606 25.7063C149.431 25.7761 149.223 25.933 149.175 26.2188L150.161 26.3832ZM150.103 26.627C149.951 26.627 149.958 26.4864 150.021 26.672C150.081 26.8489 150.125 27.1666 150.125 27.664H151.125C151.125 27.1367 151.082 26.686 150.968 26.3505C150.857 26.0238 150.604 25.627 150.103 25.627V26.627ZM150.125 27.664C150.125 29.2381 149.783 30.4391 149.147 31.3144L149.957 31.9016C150.753 30.8049 151.125 29.3765 151.125 27.664H150.125ZM149.144 31.3197C148.548 32.1642 147.719 32.587 146.594 32.587V33.587C148.022 33.587 149.165 33.0238 149.961 31.8963L149.144 31.3197ZM146.594 32.587C145.691 32.587 144.982 32.3885 144.435 32.0252C143.89 31.6636 143.466 31.1117 143.177 30.3322L142.239 30.6798C142.588 31.6209 143.131 32.3596 143.882 32.8583C144.63 33.3553 145.545 33.587 146.594 33.587V32.587ZM142.255 30.2958C141.919 31.0197 141.468 31.5779 140.906 31.9866L141.494 32.7954C142.208 32.2761 142.763 31.5777 143.162 30.7162L142.255 30.2958ZM140.906 31.9866C140.356 32.3866 139.735 32.587 139.025 32.587V33.587C139.94 33.587 140.768 33.3234 141.494 32.7954L140.906 31.9866ZM139.025 32.587C137.452 32.587 136.347 32.0793 135.616 31.1232C134.866 30.1416 134.45 28.6101 134.45 26.446H133.45C133.45 28.7092 133.88 30.4983 134.822 31.7303C135.783 32.9878 137.215 33.587 139.025 33.587V32.587ZM134.45 26.446C134.45 24.2692 134.958 22.7692 135.873 21.8373L135.159 21.1367C133.986 22.3315 133.45 24.1374 133.45 26.446H134.45ZM135.87 21.8406C136.824 20.8858 138.091 20.392 139.721 20.392V19.392C137.871 19.392 136.335 19.9615 135.163 21.1334L135.87 21.8406ZM139.721 20.392C141.008 20.392 141.789 20.6663 142.21 21.0866L142.917 20.3794C142.216 19.6783 141.103 19.392 139.721 19.392V20.392ZM136.635 30.1646C136.777 30.6104 136.934 30.9939 137.112 31.3051C137.288 31.6128 137.499 31.8781 137.762 32.053L138.317 31.221C138.231 31.1639 138.114 31.0426 137.98 30.8089C137.849 30.5788 137.716 30.2663 137.588 29.8614L136.635 30.1646ZM137.778 32.0636C138.231 32.3404 138.796 32.456 139.431 32.456V31.456C138.906 31.456 138.543 31.3589 138.3 31.2104L137.778 32.0636ZM139.431 32.456C140.219 32.456 140.971 31.9759 141.679 31.2266L140.953 30.5394C140.308 31.2208 139.804 31.456 139.431 31.456V32.456ZM141.679 31.2269C142.476 30.3857 142.86 29.3088 142.86 28.041H141.86C141.86 29.0932 141.548 29.911 140.953 30.5391L141.679 31.2269ZM142.86 28.041V24.068H141.86V28.041H142.86ZM142.86 24.068C142.86 23.0678 142.592 22.2084 142.014 21.5375L141.256 22.1905C141.645 22.641 141.86 23.2508 141.86 24.068H142.86ZM142.02 21.5452C141.484 20.8968 140.82 20.523 140.04 20.523V21.523C140.459 21.523 140.859 21.7098 141.25 22.1828L142.02 21.5452ZM140.04 20.523C139.434 20.523 138.91 20.5827 138.49 20.7227L138.806 21.6713C139.083 21.5793 139.487 21.523 140.04 21.523V20.523ZM138.49 20.7227C138.032 20.8755 137.63 21.1834 137.28 21.5999L138.045 22.2441C138.313 21.9259 138.569 21.7505 138.806 21.6713L138.49 20.7227ZM137.294 21.5841C136.887 22.0274 136.623 22.6796 136.455 23.4715C136.286 24.272 136.205 25.2668 136.205 26.446H137.205C137.205 25.3052 137.284 24.386 137.434 23.6785C137.585 22.9624 137.799 22.5126 138.031 22.2599L137.294 21.5841ZM136.205 26.446C136.205 27.9937 136.341 29.2422 136.635 30.1646L137.588 29.8614C137.34 29.0825 137.205 27.9529 137.205 26.446H136.205Z" fill="#703D57"/>
</g>
<g clip-path="url(#clip0_8_615)" filter="url(#filter1_d_8_615)">
<g filter="url(#filter2_d_8_615)">
<mask id="path-3-inside-1_8_615" fill="white">
<path d="M41.8745 65.3318V54.0911C41.8745 51.5542 42.1263 49.7197 42.6299 48.5878C43.1334 47.4364 44.1002 46.8607 45.5302 46.8607C46.2956 46.8607 46.8898 47.1729 47.3128 47.7975C47.7357 48.422 47.9472 49.3099 47.9472 50.4613C47.9472 52.5494 46.8294 54.6766 44.5937 56.8427V58.3942C45.3389 57.6136 46.2855 57.2233 47.4336 57.2233C49.1859 57.2233 50.626 57.7989 51.754 58.9504C52.8819 60.1018 53.4458 61.7313 53.4458 63.8389C53.4458 65.9466 52.902 67.5956 51.8144 68.786C50.7267 69.9569 49.3169 70.5424 47.5847 70.5424C45.8727 70.5424 44.4929 70.0642 43.4456 69.108C42.3983 68.1518 41.8745 66.8931 41.8745 65.3318ZM50.5757 63.8389C50.5757 61.8093 50.3541 60.3945 49.911 59.5944C49.4679 58.7747 48.6824 58.3649 47.5545 58.3649C46.4265 58.3649 45.6511 58.7064 45.2281 59.3895C44.8051 60.0725 44.5937 61.2434 44.5937 62.9022V64.4244C44.5937 66.1807 44.8253 67.4492 45.2885 68.2298C45.7719 69.0104 46.5575 69.4007 47.6451 69.4007C48.7327 69.4007 49.488 68.9811 49.911 68.142C50.3541 67.3029 50.5757 65.8685 50.5757 63.8389ZM45.5604 48.0024C45.1576 48.0024 44.8958 48.4024 44.7749 49.2026C44.6541 49.9831 44.5937 51.6322 44.5937 54.1496V55.4376C45.9633 53.7203 46.6481 52.0518 46.6481 50.432C46.6481 48.8122 46.2855 48.0024 45.5604 48.0024ZM68.2234 63.8682C68.6464 63.8682 68.8579 64.1804 68.8579 64.8049C68.8579 66.2491 68.3342 67.5663 67.2869 68.7567C66.2596 69.9471 64.6886 70.5424 62.5737 70.5424C60.4589 70.5424 58.7569 69.996 57.4679 68.9031C56.199 67.7907 55.5645 66.1709 55.5645 64.0438C55.5645 61.8971 56.1284 60.2286 57.2564 59.0382C58.3843 57.8282 59.8244 57.2233 61.5767 57.2233C62.8457 57.2233 63.7721 57.5551 64.3563 58.2186C64.9403 58.8626 65.2324 59.6334 65.2324 60.5311C65.2324 61.9947 64.598 63.2144 63.3291 64.1902C62.0802 65.1464 60.479 65.6245 58.5253 65.6245C58.7066 66.8735 59.1698 67.82 59.9151 68.464C60.6804 69.0885 61.6774 69.4007 62.9061 69.4007C64.1548 69.4007 65.2727 68.9519 66.2596 68.0542C67.2667 67.1369 67.7703 65.8002 67.7703 64.0438C67.7904 63.9267 67.9414 63.8682 68.2234 63.8682ZM58.4347 64.278V64.5415C59.6834 64.3853 60.761 64.0048 61.6674 63.3998C62.5939 62.7949 63.0571 61.8971 63.0571 60.7067C63.0571 59.9456 62.8859 59.37 62.5435 58.9796C62.2011 58.5698 61.7177 58.3649 61.0933 58.3649C60.1467 58.3649 59.4619 58.8138 59.0389 59.7115C58.6361 60.6091 58.4347 62.1313 58.4347 64.278ZM76.8105 58.0722C77.0724 57.5062 77.4853 57.2233 78.0492 57.2233C78.6334 57.2233 79.0664 57.3599 79.3484 57.6331V66.0344C79.3484 67.1467 79.5296 67.9859 79.8922 68.5518C80.2547 69.1178 80.7482 69.4007 81.3726 69.4007C83.2659 69.4007 84.2125 67.498 84.2125 63.6926C84.2327 63.5755 84.3837 63.5169 84.6657 63.5169C85.0283 63.5169 85.2096 64.034 85.2096 65.0684C85.2096 66.7271 84.8369 68.0542 84.0917 69.0495C83.3666 70.0447 82.3394 70.5424 81.01 70.5424C78.9757 70.5424 77.6263 69.674 76.9616 67.9371C76.5789 68.7372 76.0552 69.3715 75.3906 69.8398C74.7259 70.3082 73.9706 70.5424 73.1246 70.5424C69.5999 70.5424 67.8375 68.3079 67.8375 63.8389C67.8375 61.5751 68.3813 59.9066 69.469 58.8333C70.5767 57.76 72.037 57.2233 73.8497 57.2233C75.2395 57.2233 76.2264 57.5062 76.8105 58.0722ZM71.1306 67.4395C71.4126 68.2982 71.7349 68.8446 72.0974 69.0787C72.46 69.2934 72.9434 69.4007 73.5476 69.4007C74.1519 69.4007 74.8064 69.0397 75.5114 68.3176C76.2365 67.576 76.5991 66.6198 76.5991 65.4489V61.4386C76.5991 60.5213 76.3473 59.7798 75.8438 59.2138C75.3604 58.6479 74.8064 58.3649 74.1821 58.3649C73.5778 58.3649 73.0944 58.4235 72.7319 58.5406C72.3693 58.6576 72.0269 58.9016 71.7047 59.2724C71.04 59.9749 70.7077 61.4971 70.7077 63.8389C70.7077 65.3806 70.8486 66.5808 71.1306 67.4395ZM92.3981 59.0089C92.3981 58.4235 92.5699 57.9844 92.9117 57.6916C93.2544 57.3794 93.667 57.2233 94.1504 57.2233C94.6338 57.2233 95.0171 57.3599 95.2985 57.6331V66.0344C95.2985 67.1467 95.4797 67.9859 95.8423 68.5518C96.2048 69.1178 96.6986 69.4007 97.3227 69.4007C97.9476 69.4007 98.5519 69.0495 99.1354 68.3469C99.8208 67.5078 100.163 65.9563 100.163 63.6926C100.183 63.5755 100.334 63.5169 100.616 63.5169C100.978 63.5169 101.16 64.034 101.16 65.0684C101.16 66.7271 100.788 68.0542 100.042 69.0495C99.3167 70.0447 98.2895 70.5424 96.9601 70.5424C94.8453 70.5424 93.4555 69.6154 92.7908 67.7615C92.0053 69.6154 90.5655 70.5424 88.4708 70.5424C87.222 70.5424 86.215 70.1813 85.4496 69.4593C84.6842 68.7177 84.3015 67.6639 84.3015 66.2978V59.0089C84.3015 58.4235 84.4526 57.9844 84.7547 57.6916C85.0569 57.3794 85.4395 57.2233 85.9028 57.2233C86.3661 57.2233 86.7386 57.3599 87.0207 57.6331V66.0344C87.0207 68.3567 87.6249 69.5178 88.8334 69.5178C89.7394 69.5178 90.5551 68.9909 91.2802 67.9371C92.026 66.8833 92.3981 65.4002 92.3981 63.4876V59.0089ZM100.203 54.6766C100.203 54.0911 100.354 53.652 100.656 53.3593C100.959 53.0471 101.342 52.8909 101.804 52.8909C102.268 52.8909 102.641 53.0275 102.922 53.3007V57.6331H107.061C107.484 57.6331 107.756 57.7111 107.877 57.8673C108.019 58.0234 108.089 58.2869 108.089 58.6576H102.922V66.0344C102.922 67.1077 103.235 67.9371 103.859 68.5226C104.504 69.108 105.239 69.4007 106.064 69.4007C107.313 69.4007 108.23 68.9519 108.814 68.0542C109.398 67.1565 109.69 65.7026 109.69 63.6926C109.73 63.5755 109.881 63.5169 110.143 63.5169C110.506 63.5169 110.687 64.034 110.687 65.0684C110.687 66.6491 110.274 67.9566 109.448 68.9909C108.643 70.0252 107.394 70.5424 105.702 70.5424C104.01 70.5424 102.671 70.1131 101.684 69.2544C100.697 68.3957 100.203 67.1175 100.203 65.4196V54.6766ZM109.763 59.0089C109.763 58.4235 109.914 57.9844 110.216 57.6916C110.519 57.3794 110.901 57.2233 111.364 57.2233C111.827 57.2233 112.2 57.3599 112.482 57.6331V66.0344C112.482 68.3567 113.087 69.5178 114.295 69.5178C115.383 69.5178 116.268 68.9616 116.954 67.8493C117.658 66.7369 118.011 64.8635 118.011 62.2289V59.0089C118.011 58.4235 118.162 57.9844 118.464 57.6916C118.766 57.3794 119.149 57.2233 119.612 57.2233C120.075 57.2233 120.448 57.3599 120.73 57.6331V72.5036C120.972 72.4842 121.354 72.4744 121.878 72.4744C122.401 72.4744 122.664 72.6891 122.664 73.1184L122.483 73.5575C121.717 73.5575 121.133 73.5672 120.73 73.5867V75.0504C120.73 77.0604 120.256 78.6411 119.31 79.7926C118.383 80.9635 117.135 81.5489 115.564 81.5489C114.637 81.5489 113.812 81.2757 113.087 80.7293C112.381 80.2024 112.029 79.3632 112.029 78.2118C112.029 76.7287 112.573 75.548 113.661 74.6698C114.748 73.7916 116.198 73.1769 118.011 72.8256V68.2591C117.165 69.7813 115.806 70.5424 113.933 70.5424C112.643 70.5424 111.626 70.1423 110.881 69.3422C110.135 68.542 109.763 67.3907 109.763 65.888V59.0089ZM113.57 78.2996C113.57 78.9827 113.761 79.4998 114.144 79.8511C114.526 80.2219 114.99 80.4073 115.534 80.4073C116.078 80.4073 116.52 80.2511 116.863 79.9389C117.628 79.2754 118.011 77.2751 118.011 73.938C115.05 74.582 113.57 76.0359 113.57 78.2996Z"/>
</mask>
<path d="M41.8745 65.3318V54.0911C41.8745 51.5542 42.1263 49.7197 42.6299 48.5878C43.1334 47.4364 44.1002 46.8607 45.5302 46.8607C46.2956 46.8607 46.8898 47.1729 47.3128 47.7975C47.7357 48.422 47.9472 49.3099 47.9472 50.4613C47.9472 52.5494 46.8294 54.6766 44.5937 56.8427V58.3942C45.3389 57.6136 46.2855 57.2233 47.4336 57.2233C49.1859 57.2233 50.626 57.7989 51.754 58.9504C52.8819 60.1018 53.4458 61.7313 53.4458 63.8389C53.4458 65.9466 52.902 67.5956 51.8144 68.786C50.7267 69.9569 49.3169 70.5424 47.5847 70.5424C45.8727 70.5424 44.4929 70.0642 43.4456 69.108C42.3983 68.1518 41.8745 66.8931 41.8745 65.3318ZM50.5757 63.8389C50.5757 61.8093 50.3541 60.3945 49.911 59.5944C49.4679 58.7747 48.6824 58.3649 47.5545 58.3649C46.4265 58.3649 45.6511 58.7064 45.2281 59.3895C44.8051 60.0725 44.5937 61.2434 44.5937 62.9022V64.4244C44.5937 66.1807 44.8253 67.4492 45.2885 68.2298C45.7719 69.0104 46.5575 69.4007 47.6451 69.4007C48.7327 69.4007 49.488 68.9811 49.911 68.142C50.3541 67.3029 50.5757 65.8685 50.5757 63.8389ZM45.5604 48.0024C45.1576 48.0024 44.8958 48.4024 44.7749 49.2026C44.6541 49.9831 44.5937 51.6322 44.5937 54.1496V55.4376C45.9633 53.7203 46.6481 52.0518 46.6481 50.432C46.6481 48.8122 46.2855 48.0024 45.5604 48.0024ZM68.2234 63.8682C68.6464 63.8682 68.8579 64.1804 68.8579 64.8049C68.8579 66.2491 68.3342 67.5663 67.2869 68.7567C66.2596 69.9471 64.6886 70.5424 62.5737 70.5424C60.4589 70.5424 58.7569 69.996 57.4679 68.9031C56.199 67.7907 55.5645 66.1709 55.5645 64.0438C55.5645 61.8971 56.1284 60.2286 57.2564 59.0382C58.3843 57.8282 59.8244 57.2233 61.5767 57.2233C62.8457 57.2233 63.7721 57.5551 64.3563 58.2186C64.9403 58.8626 65.2324 59.6334 65.2324 60.5311C65.2324 61.9947 64.598 63.2144 63.3291 64.1902C62.0802 65.1464 60.479 65.6245 58.5253 65.6245C58.7066 66.8735 59.1698 67.82 59.9151 68.464C60.6804 69.0885 61.6774 69.4007 62.9061 69.4007C64.1548 69.4007 65.2727 68.9519 66.2596 68.0542C67.2667 67.1369 67.7703 65.8002 67.7703 64.0438C67.7904 63.9267 67.9414 63.8682 68.2234 63.8682ZM58.4347 64.278V64.5415C59.6834 64.3853 60.761 64.0048 61.6674 63.3998C62.5939 62.7949 63.0571 61.8971 63.0571 60.7067C63.0571 59.9456 62.8859 59.37 62.5435 58.9796C62.2011 58.5698 61.7177 58.3649 61.0933 58.3649C60.1467 58.3649 59.4619 58.8138 59.0389 59.7115C58.6361 60.6091 58.4347 62.1313 58.4347 64.278ZM76.8105 58.0722C77.0724 57.5062 77.4853 57.2233 78.0492 57.2233C78.6334 57.2233 79.0664 57.3599 79.3484 57.6331V66.0344C79.3484 67.1467 79.5296 67.9859 79.8922 68.5518C80.2547 69.1178 80.7482 69.4007 81.3726 69.4007C83.2659 69.4007 84.2125 67.498 84.2125 63.6926C84.2327 63.5755 84.3837 63.5169 84.6657 63.5169C85.0283 63.5169 85.2096 64.034 85.2096 65.0684C85.2096 66.7271 84.8369 68.0542 84.0917 69.0495C83.3666 70.0447 82.3394 70.5424 81.01 70.5424C78.9757 70.5424 77.6263 69.674 76.9616 67.9371C76.5789 68.7372 76.0552 69.3715 75.3906 69.8398C74.7259 70.3082 73.9706 70.5424 73.1246 70.5424C69.5999 70.5424 67.8375 68.3079 67.8375 63.8389C67.8375 61.5751 68.3813 59.9066 69.469 58.8333C70.5767 57.76 72.037 57.2233 73.8497 57.2233C75.2395 57.2233 76.2264 57.5062 76.8105 58.0722ZM71.1306 67.4395C71.4126 68.2982 71.7349 68.8446 72.0974 69.0787C72.46 69.2934 72.9434 69.4007 73.5476 69.4007C74.1519 69.4007 74.8064 69.0397 75.5114 68.3176C76.2365 67.576 76.5991 66.6198 76.5991 65.4489V61.4386C76.5991 60.5213 76.3473 59.7798 75.8438 59.2138C75.3604 58.6479 74.8064 58.3649 74.1821 58.3649C73.5778 58.3649 73.0944 58.4235 72.7319 58.5406C72.3693 58.6576 72.0269 58.9016 71.7047 59.2724C71.04 59.9749 70.7077 61.4971 70.7077 63.8389C70.7077 65.3806 70.8486 66.5808 71.1306 67.4395ZM92.3981 59.0089C92.3981 58.4235 92.5699 57.9844 92.9117 57.6916C93.2544 57.3794 93.667 57.2233 94.1504 57.2233C94.6338 57.2233 95.0171 57.3599 95.2985 57.6331V66.0344C95.2985 67.1467 95.4797 67.9859 95.8423 68.5518C96.2048 69.1178 96.6986 69.4007 97.3227 69.4007C97.9476 69.4007 98.5519 69.0495 99.1354 68.3469C99.8208 67.5078 100.163 65.9563 100.163 63.6926C100.183 63.5755 100.334 63.5169 100.616 63.5169C100.978 63.5169 101.16 64.034 101.16 65.0684C101.16 66.7271 100.788 68.0542 100.042 69.0495C99.3167 70.0447 98.2895 70.5424 96.9601 70.5424C94.8453 70.5424 93.4555 69.6154 92.7908 67.7615C92.0053 69.6154 90.5655 70.5424 88.4708 70.5424C87.222 70.5424 86.215 70.1813 85.4496 69.4593C84.6842 68.7177 84.3015 67.6639 84.3015 66.2978V59.0089C84.3015 58.4235 84.4526 57.9844 84.7547 57.6916C85.0569 57.3794 85.4395 57.2233 85.9028 57.2233C86.3661 57.2233 86.7386 57.3599 87.0207 57.6331V66.0344C87.0207 68.3567 87.6249 69.5178 88.8334 69.5178C89.7394 69.5178 90.5551 68.9909 91.2802 67.9371C92.026 66.8833 92.3981 65.4002 92.3981 63.4876V59.0089ZM100.203 54.6766C100.203 54.0911 100.354 53.652 100.656 53.3593C100.959 53.0471 101.342 52.8909 101.804 52.8909C102.268 52.8909 102.641 53.0275 102.922 53.3007V57.6331H107.061C107.484 57.6331 107.756 57.7111 107.877 57.8673C108.019 58.0234 108.089 58.2869 108.089 58.6576H102.922V66.0344C102.922 67.1077 103.235 67.9371 103.859 68.5226C104.504 69.108 105.239 69.4007 106.064 69.4007C107.313 69.4007 108.23 68.9519 108.814 68.0542C109.398 67.1565 109.69 65.7026 109.69 63.6926C109.73 63.5755 109.881 63.5169 110.143 63.5169C110.506 63.5169 110.687 64.034 110.687 65.0684C110.687 66.6491 110.274 67.9566 109.448 68.9909C108.643 70.0252 107.394 70.5424 105.702 70.5424C104.01 70.5424 102.671 70.1131 101.684 69.2544C100.697 68.3957 100.203 67.1175 100.203 65.4196V54.6766ZM109.763 59.0089C109.763 58.4235 109.914 57.9844 110.216 57.6916C110.519 57.3794 110.901 57.2233 111.364 57.2233C111.827 57.2233 112.2 57.3599 112.482 57.6331V66.0344C112.482 68.3567 113.087 69.5178 114.295 69.5178C115.383 69.5178 116.268 68.9616 116.954 67.8493C117.658 66.7369 118.011 64.8635 118.011 62.2289V59.0089C118.011 58.4235 118.162 57.9844 118.464 57.6916C118.766 57.3794 119.149 57.2233 119.612 57.2233C120.075 57.2233 120.448 57.3599 120.73 57.6331V72.5036C120.972 72.4842 121.354 72.4744 121.878 72.4744C122.401 72.4744 122.664 72.6891 122.664 73.1184L122.483 73.5575C121.717 73.5575 121.133 73.5672 120.73 73.5867V75.0504C120.73 77.0604 120.256 78.6411 119.31 79.7926C118.383 80.9635 117.135 81.5489 115.564 81.5489C114.637 81.5489 113.812 81.2757 113.087 80.7293C112.381 80.2024 112.029 79.3632 112.029 78.2118C112.029 76.7287 112.573 75.548 113.661 74.6698C114.748 73.7916 116.198 73.1769 118.011 72.8256V68.2591C117.165 69.7813 115.806 70.5424 113.933 70.5424C112.643 70.5424 111.626 70.1423 110.881 69.3422C110.135 68.542 109.763 67.3907 109.763 65.888V59.0089ZM113.57 78.2996C113.57 78.9827 113.761 79.4998 114.144 79.8511C114.526 80.2219 114.99 80.4073 115.534 80.4073C116.078 80.4073 116.52 80.2511 116.863 79.9389C117.628 79.2754 118.011 77.2751 118.011 73.938C115.05 74.582 113.57 76.0359 113.57 78.2996Z" fill="white"/>
<path d="M41.8745 65.3318V54.0911C41.8745 51.5542 42.1263 49.7197 42.6299 48.5878C43.1334 47.4364 44.1002 46.8607 45.5302 46.8607C46.2956 46.8607 46.8898 47.1729 47.3128 47.7975C47.7357 48.422 47.9472 49.3099 47.9472 50.4613C47.9472 52.5494 46.8294 54.6766 44.5937 56.8427V58.3942C45.3389 57.6136 46.2855 57.2233 47.4336 57.2233C49.1859 57.2233 50.626 57.7989 51.754 58.9504C52.8819 60.1018 53.4458 61.7313 53.4458 63.8389C53.4458 65.9466 52.902 67.5956 51.8144 68.786C50.7267 69.9569 49.3169 70.5424 47.5847 70.5424C45.8727 70.5424 44.4929 70.0642 43.4456 69.108C42.3983 68.1518 41.8745 66.8931 41.8745 65.3318ZM50.5757 63.8389C50.5757 61.8093 50.3541 60.3945 49.911 59.5944C49.4679 58.7747 48.6824 58.3649 47.5545 58.3649C46.4265 58.3649 45.6511 58.7064 45.2281 59.3895C44.8051 60.0725 44.5937 61.2434 44.5937 62.9022V64.4244C44.5937 66.1807 44.8253 67.4492 45.2885 68.2298C45.7719 69.0104 46.5575 69.4007 47.6451 69.4007C48.7327 69.4007 49.488 68.9811 49.911 68.142C50.3541 67.3029 50.5757 65.8685 50.5757 63.8389ZM45.5604 48.0024C45.1576 48.0024 44.8958 48.4024 44.7749 49.2026C44.6541 49.9831 44.5937 51.6322 44.5937 54.1496V55.4376C45.9633 53.7203 46.6481 52.0518 46.6481 50.432C46.6481 48.8122 46.2855 48.0024 45.5604 48.0024ZM68.2234 63.8682C68.6464 63.8682 68.8579 64.1804 68.8579 64.8049C68.8579 66.2491 68.3342 67.5663 67.2869 68.7567C66.2596 69.9471 64.6886 70.5424 62.5737 70.5424C60.4589 70.5424 58.7569 69.996 57.4679 68.9031C56.199 67.7907 55.5645 66.1709 55.5645 64.0438C55.5645 61.8971 56.1284 60.2286 57.2564 59.0382C58.3843 57.8282 59.8244 57.2233 61.5767 57.2233C62.8457 57.2233 63.7721 57.5551 64.3563 58.2186C64.9403 58.8626 65.2324 59.6334 65.2324 60.5311C65.2324 61.9947 64.598 63.2144 63.3291 64.1902C62.0802 65.1464 60.479 65.6245 58.5253 65.6245C58.7066 66.8735 59.1698 67.82 59.9151 68.464C60.6804 69.0885 61.6774 69.4007 62.9061 69.4007C64.1548 69.4007 65.2727 68.9519 66.2596 68.0542C67.2667 67.1369 67.7703 65.8002 67.7703 64.0438C67.7904 63.9267 67.9414 63.8682 68.2234 63.8682ZM58.4347 64.278V64.5415C59.6834 64.3853 60.761 64.0048 61.6674 63.3998C62.5939 62.7949 63.0571 61.8971 63.0571 60.7067C63.0571 59.9456 62.8859 59.37 62.5435 58.9796C62.2011 58.5698 61.7177 58.3649 61.0933 58.3649C60.1467 58.3649 59.4619 58.8138 59.0389 59.7115C58.6361 60.6091 58.4347 62.1313 58.4347 64.278ZM76.8105 58.0722C77.0724 57.5062 77.4853 57.2233 78.0492 57.2233C78.6334 57.2233 79.0664 57.3599 79.3484 57.6331V66.0344C79.3484 67.1467 79.5296 67.9859 79.8922 68.5518C80.2547 69.1178 80.7482 69.4007 81.3726 69.4007C83.2659 69.4007 84.2125 67.498 84.2125 63.6926C84.2327 63.5755 84.3837 63.5169 84.6657 63.5169C85.0283 63.5169 85.2096 64.034 85.2096 65.0684C85.2096 66.7271 84.8369 68.0542 84.0917 69.0495C83.3666 70.0447 82.3394 70.5424 81.01 70.5424C78.9757 70.5424 77.6263 69.674 76.9616 67.9371C76.5789 68.7372 76.0552 69.3715 75.3906 69.8398C74.7259 70.3082 73.9706 70.5424 73.1246 70.5424C69.5999 70.5424 67.8375 68.3079 67.8375 63.8389C67.8375 61.5751 68.3813 59.9066 69.469 58.8333C70.5767 57.76 72.037 57.2233 73.8497 57.2233C75.2395 57.2233 76.2264 57.5062 76.8105 58.0722ZM71.1306 67.4395C71.4126 68.2982 71.7349 68.8446 72.0974 69.0787C72.46 69.2934 72.9434 69.4007 73.5476 69.4007C74.1519 69.4007 74.8064 69.0397 75.5114 68.3176C76.2365 67.576 76.5991 66.6198 76.5991 65.4489V61.4386C76.5991 60.5213 76.3473 59.7798 75.8438 59.2138C75.3604 58.6479 74.8064 58.3649 74.1821 58.3649C73.5778 58.3649 73.0944 58.4235 72.7319 58.5406C72.3693 58.6576 72.0269 58.9016 71.7047 59.2724C71.04 59.9749 70.7077 61.4971 70.7077 63.8389C70.7077 65.3806 70.8486 66.5808 71.1306 67.4395ZM92.3981 59.0089C92.3981 58.4235 92.5699 57.9844 92.9117 57.6916C93.2544 57.3794 93.667 57.2233 94.1504 57.2233C94.6338 57.2233 95.0171 57.3599 95.2985 57.6331V66.0344C95.2985 67.1467 95.4797 67.9859 95.8423 68.5518C96.2048 69.1178 96.6986 69.4007 97.3227 69.4007C97.9476 69.4007 98.5519 69.0495 99.1354 68.3469C99.8208 67.5078 100.163 65.9563 100.163 63.6926C100.183 63.5755 100.334 63.5169 100.616 63.5169C100.978 63.5169 101.16 64.034 101.16 65.0684C101.16 66.7271 100.788 68.0542 100.042 69.0495C99.3167 70.0447 98.2895 70.5424 96.9601 70.5424C94.8453 70.5424 93.4555 69.6154 92.7908 67.7615C92.0053 69.6154 90.5655 70.5424 88.4708 70.5424C87.222 70.5424 86.215 70.1813 85.4496 69.4593C84.6842 68.7177 84.3015 67.6639 84.3015 66.2978V59.0089C84.3015 58.4235 84.4526 57.9844 84.7547 57.6916C85.0569 57.3794 85.4395 57.2233 85.9028 57.2233C86.3661 57.2233 86.7386 57.3599 87.0207 57.6331V66.0344C87.0207 68.3567 87.6249 69.5178 88.8334 69.5178C89.7394 69.5178 90.5551 68.9909 91.2802 67.9371C92.026 66.8833 92.3981 65.4002 92.3981 63.4876V59.0089ZM100.203 54.6766C100.203 54.0911 100.354 53.652 100.656 53.3593C100.959 53.0471 101.342 52.8909 101.804 52.8909C102.268 52.8909 102.641 53.0275 102.922 53.3007V57.6331H107.061C107.484 57.6331 107.756 57.7111 107.877 57.8673C108.019 58.0234 108.089 58.2869 108.089 58.6576H102.922V66.0344C102.922 67.1077 103.235 67.9371 103.859 68.5226C104.504 69.108 105.239 69.4007 106.064 69.4007C107.313 69.4007 108.23 68.9519 108.814 68.0542C109.398 67.1565 109.69 65.7026 109.69 63.6926C109.73 63.5755 109.881 63.5169 110.143 63.5169C110.506 63.5169 110.687 64.034 110.687 65.0684C110.687 66.6491 110.274 67.9566 109.448 68.9909C108.643 70.0252 107.394 70.5424 105.702 70.5424C104.01 70.5424 102.671 70.1131 101.684 69.2544C100.697 68.3957 100.203 67.1175 100.203 65.4196V54.6766ZM109.763 59.0089C109.763 58.4235 109.914 57.9844 110.216 57.6916C110.519 57.3794 110.901 57.2233 111.364 57.2233C111.827 57.2233 112.2 57.3599 112.482 57.6331V66.0344C112.482 68.3567 113.087 69.5178 114.295 69.5178C115.383 69.5178 116.268 68.9616 116.954 67.8493C117.658 66.7369 118.011 64.8635 118.011 62.2289V59.0089C118.011 58.4235 118.162 57.9844 118.464 57.6916C118.766 57.3794 119.149 57.2233 119.612 57.2233C120.075 57.2233 120.448 57.3599 120.73 57.6331V72.5036C120.972 72.4842 121.354 72.4744 121.878 72.4744C122.401 72.4744 122.664 72.6891 122.664 73.1184L122.483 73.5575C121.717 73.5575 121.133 73.5672 120.73 73.5867V75.0504C120.73 77.0604 120.256 78.6411 119.31 79.7926C118.383 80.9635 117.135 81.5489 115.564 81.5489C114.637 81.5489 113.812 81.2757 113.087 80.7293C112.381 80.2024 112.029 79.3632 112.029 78.2118C112.029 76.7287 112.573 75.548 113.661 74.6698C114.748 73.7916 116.198 73.1769 118.011 72.8256V68.2591C117.165 69.7813 115.806 70.5424 113.933 70.5424C112.643 70.5424 111.626 70.1423 110.881 69.3422C110.135 68.542 109.763 67.3907 109.763 65.888V59.0089ZM113.57 78.2996C113.57 78.9827 113.761 79.4998 114.144 79.8511C114.526 80.2219 114.99 80.4073 115.534 80.4073C116.078 80.4073 116.52 80.2511 116.863 79.9389C117.628 79.2754 118.011 77.2751 118.011 73.938C115.05 74.582 113.57 76.0359 113.57 78.2996Z" stroke="white" stroke-width="10" mask="url(#path-3-inside-1_8_615)"/>
</g>
<g filter="url(#filter3_d_8_615)">
<mask id="path-4-inside-2_8_615" fill="white">
<path d="M137.144 64.4536C137.567 64.4536 137.779 64.7366 137.779 65.3026C137.779 65.8685 137.658 66.4344 137.416 67.0004C137.174 67.5663 136.822 68.1225 136.359 68.6689C135.916 69.2153 135.281 69.6642 134.455 70.0155C133.65 70.3667 132.733 70.5424 131.706 70.5424C129.45 70.5424 127.678 69.996 126.389 68.9031C125.12 67.7907 124.485 66.1709 124.485 64.0438C124.485 61.8971 125.05 60.2286 126.177 59.0382C127.305 57.8282 128.745 57.2233 130.497 57.2233C131.766 57.2233 132.693 57.5551 133.277 58.2186C133.861 58.8626 134.153 59.6334 134.153 60.5311C134.153 61.0189 134.002 61.4093 133.7 61.702C133.398 61.9947 133.106 62.1411 132.824 62.1411C132.301 62.1411 131.958 62.024 131.797 61.7898C131.917 61.4971 131.978 61.0775 131.978 60.5311C131.978 59.9847 131.787 59.4871 131.404 59.0382C131.021 58.5893 130.558 58.3649 130.014 58.3649C129.068 58.3649 128.383 58.8138 127.96 59.7115C127.557 60.6091 127.355 62.024 127.355 63.956C127.355 65.8685 127.739 67.254 128.503 68.1127C129.289 68.9714 130.377 69.4007 131.766 69.4007C133.156 69.4007 134.325 68.9909 135.271 68.1713C136.218 67.3322 136.691 66.1515 136.691 64.6293C136.712 64.5122 136.863 64.4536 137.144 64.4536ZM144.857 59.0089C144.857 58.4235 145.028 57.9844 145.371 57.6916C145.713 57.3794 146.126 57.2233 146.609 57.2233C147.093 57.2233 147.475 57.3599 147.757 57.6331V66.0344C147.757 67.1467 147.939 67.9859 148.301 68.5518C148.664 69.1178 149.157 69.4007 149.782 69.4007C150.406 69.4007 151.01 69.0495 151.594 68.3469C152.279 67.5078 152.621 65.9563 152.621 63.6926C152.641 63.5755 152.792 63.5169 153.075 63.5169C153.437 63.5169 153.618 64.034 153.618 65.0684C153.618 66.7271 153.246 68.0542 152.501 69.0495C151.776 70.0447 150.748 70.5424 149.419 70.5424C147.304 70.5424 145.914 69.6154 145.25 67.7615C144.464 69.6154 143.024 70.5424 140.929 70.5424C139.68 70.5424 138.674 70.1813 137.908 69.4593C137.142 68.7177 136.76 67.6639 136.76 66.2978V59.0089C136.76 58.4235 136.911 57.9844 137.213 57.6916C137.515 57.3794 137.898 57.2233 138.361 57.2233C138.825 57.2233 139.197 57.3599 139.479 57.6331V66.0344C139.479 68.3567 140.083 69.5178 141.292 69.5178C142.198 69.5178 143.014 68.9909 143.739 67.9371C144.484 66.8833 144.857 65.4002 144.857 63.4876V59.0089ZM155.411 65.4782V70.1326C155.21 70.4058 154.857 70.5424 154.354 70.5424C153.851 70.5424 153.448 70.396 153.145 70.1033C152.843 69.7911 152.692 69.3422 152.692 68.7567V57.6331C152.893 57.3599 153.246 57.2233 153.75 57.2233C154.253 57.2233 154.656 57.3794 154.958 57.6916C155.26 57.9844 155.411 58.4235 155.411 59.0089V61.2336C156.419 58.8138 157.809 57.6038 159.581 57.6038C160.85 57.6038 161.776 57.9356 162.36 58.5991C162.945 59.2431 163.236 60.014 163.236 60.9116C163.236 61.3995 163.085 61.7898 162.783 62.0826C162.481 62.3753 162.189 62.5216 161.907 62.5216C161.383 62.5216 161.041 62.4046 160.88 62.1704C161.001 61.8776 161.061 61.458 161.061 60.9116C161.061 60.3652 160.869 59.8676 160.487 59.4187C160.105 58.9699 159.641 58.7455 159.097 58.7455C158.15 58.7455 157.295 59.5846 156.529 61.2629C155.784 62.9217 155.411 64.3268 155.411 65.4782ZM173.287 63.5169C173.649 63.5169 173.83 64.034 173.83 65.0684C173.83 66.5711 173.408 67.8591 172.562 68.9324C171.716 70.0057 170.638 70.5424 169.329 70.5424C167.697 70.5424 166.479 70.074 165.673 69.1373C164.868 68.2006 164.465 66.8735 164.465 65.1562V54.1496C164.465 51.6322 164.737 49.788 165.28 48.6171C165.824 47.4462 166.782 46.8607 168.151 46.8607C170.145 46.8607 171.142 48.1682 171.142 50.7833C171.142 52.7543 170.739 54.3351 169.933 55.5255C169.148 56.7159 168.241 57.6038 167.214 58.1893V66.0344C167.214 67.1467 167.436 67.9859 167.879 68.5518C168.322 69.1178 168.927 69.4007 169.691 69.4007C170.457 69.4007 171.172 68.9519 171.836 68.0542C172.501 67.1565 172.833 65.7026 172.833 63.6926C172.874 63.5755 173.025 63.5169 173.287 63.5169ZM169.842 50.8126C169.842 48.9391 169.359 48.0024 168.392 48.0024C168.151 48.0024 167.96 48.0804 167.818 48.2366C167.697 48.3927 167.587 48.7829 167.486 49.4075C167.305 50.3637 167.214 52.8811 167.214 56.9598C168.966 55.7304 169.842 53.6813 169.842 50.8126ZM178.432 64.5707C177.626 64.2975 176.821 64.0146 176.015 63.7218C175.23 63.4096 174.565 62.9705 174.021 62.4046C173.477 61.8386 173.206 61.1166 173.206 60.2384C173.206 59.3407 173.629 58.6186 174.474 58.0722C175.32 57.5062 176.549 57.2233 178.16 57.2233C179.792 57.2233 181.061 57.4965 181.967 58.0429C182.893 58.5893 183.357 59.2236 183.357 59.9456C183.357 60.2969 183.215 60.5799 182.934 60.7946C182.671 61.0092 182.41 61.1166 182.148 61.1166C181.644 61.1166 181.312 60.9995 181.151 60.7653C181.272 60.6287 181.333 60.3652 181.333 59.9749C181.333 59.5651 181.02 59.1943 180.396 58.8626C179.771 58.5308 179.076 58.3649 178.311 58.3649C177.546 58.3649 176.911 58.5015 176.408 58.7747C175.904 59.048 175.653 59.4675 175.653 60.0335C175.653 60.5799 175.934 61.058 176.499 61.4678C177.082 61.8776 177.777 62.2191 178.583 62.4924C179.409 62.7656 180.224 63.0583 181.031 63.3706C181.856 63.6828 182.551 64.1316 183.115 64.7171C183.699 65.2831 183.991 65.9856 183.991 66.8247C183.991 68.0737 183.427 69.0104 182.299 69.6349C181.191 70.2399 179.721 70.5424 177.888 70.5424C176.076 70.5424 174.595 70.0349 173.447 69.0202C172.319 67.9859 171.755 66.7076 171.755 65.1855C171.755 64.6391 171.866 64.2097 172.088 63.8975C172.309 63.5852 172.561 63.4291 172.843 63.4291C173.366 63.4291 173.668 63.5169 173.749 63.6926L173.81 63.7804C173.689 64.0731 173.629 64.4342 173.629 64.8635C173.629 66.1709 174.021 67.254 174.807 68.1127C175.592 68.9714 176.68 69.4007 178.07 69.4007C180.204 69.4007 181.282 68.6689 181.302 67.2053C181.302 66.0929 180.345 65.2147 178.432 64.5707Z"/>
</mask>
<path d="M137.144 64.4536C137.567 64.4536 137.779 64.7366 137.779 65.3026C137.779 65.8685 137.658 66.4344 137.416 67.0004C137.174 67.5663 136.822 68.1225 136.359 68.6689C135.916 69.2153 135.281 69.6642 134.455 70.0155C133.65 70.3667 132.733 70.5424 131.706 70.5424C129.45 70.5424 127.678 69.996 126.389 68.9031C125.12 67.7907 124.485 66.1709 124.485 64.0438C124.485 61.8971 125.05 60.2286 126.177 59.0382C127.305 57.8282 128.745 57.2233 130.497 57.2233C131.766 57.2233 132.693 57.5551 133.277 58.2186C133.861 58.8626 134.153 59.6334 134.153 60.5311C134.153 61.0189 134.002 61.4093 133.7 61.702C133.398 61.9947 133.106 62.1411 132.824 62.1411C132.301 62.1411 131.958 62.024 131.797 61.7898C131.917 61.4971 131.978 61.0775 131.978 60.5311C131.978 59.9847 131.787 59.4871 131.404 59.0382C131.021 58.5893 130.558 58.3649 130.014 58.3649C129.068 58.3649 128.383 58.8138 127.96 59.7115C127.557 60.6091 127.355 62.024 127.355 63.956C127.355 65.8685 127.739 67.254 128.503 68.1127C129.289 68.9714 130.377 69.4007 131.766 69.4007C133.156 69.4007 134.325 68.9909 135.271 68.1713C136.218 67.3322 136.691 66.1515 136.691 64.6293C136.712 64.5122 136.863 64.4536 137.144 64.4536ZM144.857 59.0089C144.857 58.4235 145.028 57.9844 145.371 57.6916C145.713 57.3794 146.126 57.2233 146.609 57.2233C147.093 57.2233 147.475 57.3599 147.757 57.6331V66.0344C147.757 67.1467 147.939 67.9859 148.301 68.5518C148.664 69.1178 149.157 69.4007 149.782 69.4007C150.406 69.4007 151.01 69.0495 151.594 68.3469C152.279 67.5078 152.621 65.9563 152.621 63.6926C152.641 63.5755 152.792 63.5169 153.075 63.5169C153.437 63.5169 153.618 64.034 153.618 65.0684C153.618 66.7271 153.246 68.0542 152.501 69.0495C151.776 70.0447 150.748 70.5424 149.419 70.5424C147.304 70.5424 145.914 69.6154 145.25 67.7615C144.464 69.6154 143.024 70.5424 140.929 70.5424C139.68 70.5424 138.674 70.1813 137.908 69.4593C137.142 68.7177 136.76 67.6639 136.76 66.2978V59.0089C136.76 58.4235 136.911 57.9844 137.213 57.6916C137.515 57.3794 137.898 57.2233 138.361 57.2233C138.825 57.2233 139.197 57.3599 139.479 57.6331V66.0344C139.479 68.3567 140.083 69.5178 141.292 69.5178C142.198 69.5178 143.014 68.9909 143.739 67.9371C144.484 66.8833 144.857 65.4002 144.857 63.4876V59.0089ZM155.411 65.4782V70.1326C155.21 70.4058 154.857 70.5424 154.354 70.5424C153.851 70.5424 153.448 70.396 153.145 70.1033C152.843 69.7911 152.692 69.3422 152.692 68.7567V57.6331C152.893 57.3599 153.246 57.2233 153.75 57.2233C154.253 57.2233 154.656 57.3794 154.958 57.6916C155.26 57.9844 155.411 58.4235 155.411 59.0089V61.2336C156.419 58.8138 157.809 57.6038 159.581 57.6038C160.85 57.6038 161.776 57.9356 162.36 58.5991C162.945 59.2431 163.236 60.014 163.236 60.9116C163.236 61.3995 163.085 61.7898 162.783 62.0826C162.481 62.3753 162.189 62.5216 161.907 62.5216C161.383 62.5216 161.041 62.4046 160.88 62.1704C161.001 61.8776 161.061 61.458 161.061 60.9116C161.061 60.3652 160.869 59.8676 160.487 59.4187C160.105 58.9699 159.641 58.7455 159.097 58.7455C158.15 58.7455 157.295 59.5846 156.529 61.2629C155.784 62.9217 155.411 64.3268 155.411 65.4782ZM173.287 63.5169C173.649 63.5169 173.83 64.034 173.83 65.0684C173.83 66.5711 173.408 67.8591 172.562 68.9324C171.716 70.0057 170.638 70.5424 169.329 70.5424C167.697 70.5424 166.479 70.074 165.673 69.1373C164.868 68.2006 164.465 66.8735 164.465 65.1562V54.1496C164.465 51.6322 164.737 49.788 165.28 48.6171C165.824 47.4462 166.782 46.8607 168.151 46.8607C170.145 46.8607 171.142 48.1682 171.142 50.7833C171.142 52.7543 170.739 54.3351 169.933 55.5255C169.148 56.7159 168.241 57.6038 167.214 58.1893V66.0344C167.214 67.1467 167.436 67.9859 167.879 68.5518C168.322 69.1178 168.927 69.4007 169.691 69.4007C170.457 69.4007 171.172 68.9519 171.836 68.0542C172.501 67.1565 172.833 65.7026 172.833 63.6926C172.874 63.5755 173.025 63.5169 173.287 63.5169ZM169.842 50.8126C169.842 48.9391 169.359 48.0024 168.392 48.0024C168.151 48.0024 167.96 48.0804 167.818 48.2366C167.697 48.3927 167.587 48.7829 167.486 49.4075C167.305 50.3637 167.214 52.8811 167.214 56.9598C168.966 55.7304 169.842 53.6813 169.842 50.8126ZM178.432 64.5707C177.626 64.2975 176.821 64.0146 176.015 63.7218C175.23 63.4096 174.565 62.9705 174.021 62.4046C173.477 61.8386 173.206 61.1166 173.206 60.2384C173.206 59.3407 173.629 58.6186 174.474 58.0722C175.32 57.5062 176.549 57.2233 178.16 57.2233C179.792 57.2233 181.061 57.4965 181.967 58.0429C182.893 58.5893 183.357 59.2236 183.357 59.9456C183.357 60.2969 183.215 60.5799 182.934 60.7946C182.671 61.0092 182.41 61.1166 182.148 61.1166C181.644 61.1166 181.312 60.9995 181.151 60.7653C181.272 60.6287 181.333 60.3652 181.333 59.9749C181.333 59.5651 181.02 59.1943 180.396 58.8626C179.771 58.5308 179.076 58.3649 178.311 58.3649C177.546 58.3649 176.911 58.5015 176.408 58.7747C175.904 59.048 175.653 59.4675 175.653 60.0335C175.653 60.5799 175.934 61.058 176.499 61.4678C177.082 61.8776 177.777 62.2191 178.583 62.4924C179.409 62.7656 180.224 63.0583 181.031 63.3706C181.856 63.6828 182.551 64.1316 183.115 64.7171C183.699 65.2831 183.991 65.9856 183.991 66.8247C183.991 68.0737 183.427 69.0104 182.299 69.6349C181.191 70.2399 179.721 70.5424 177.888 70.5424C176.076 70.5424 174.595 70.0349 173.447 69.0202C172.319 67.9859 171.755 66.7076 171.755 65.1855C171.755 64.6391 171.866 64.2097 172.088 63.8975C172.309 63.5852 172.561 63.4291 172.843 63.4291C173.366 63.4291 173.668 63.5169 173.749 63.6926L173.81 63.7804C173.689 64.0731 173.629 64.4342 173.629 64.8635C173.629 66.1709 174.021 67.254 174.807 68.1127C175.592 68.9714 176.68 69.4007 178.07 69.4007C180.204 69.4007 181.282 68.6689 181.302 67.2053C181.302 66.0929 180.345 65.2147 178.432 64.5707Z" fill="#703D57"/>
<path d="M137.144 64.4536C137.567 64.4536 137.779 64.7366 137.779 65.3026C137.779 65.8685 137.658 66.4344 137.416 67.0004C137.174 67.5663 136.822 68.1225 136.359 68.6689C135.916 69.2153 135.281 69.6642 134.455 70.0155C133.65 70.3667 132.733 70.5424 131.706 70.5424C129.45 70.5424 127.678 69.996 126.389 68.9031C125.12 67.7907 124.485 66.1709 124.485 64.0438C124.485 61.8971 125.05 60.2286 126.177 59.0382C127.305 57.8282 128.745 57.2233 130.497 57.2233C131.766 57.2233 132.693 57.5551 133.277 58.2186C133.861 58.8626 134.153 59.6334 134.153 60.5311C134.153 61.0189 134.002 61.4093 133.7 61.702C133.398 61.9947 133.106 62.1411 132.824 62.1411C132.301 62.1411 131.958 62.024 131.797 61.7898C131.917 61.4971 131.978 61.0775 131.978 60.5311C131.978 59.9847 131.787 59.4871 131.404 59.0382C131.021 58.5893 130.558 58.3649 130.014 58.3649C129.068 58.3649 128.383 58.8138 127.96 59.7115C127.557 60.6091 127.355 62.024 127.355 63.956C127.355 65.8685 127.739 67.254 128.503 68.1127C129.289 68.9714 130.377 69.4007 131.766 69.4007C133.156 69.4007 134.325 68.9909 135.271 68.1713C136.218 67.3322 136.691 66.1515 136.691 64.6293C136.712 64.5122 136.863 64.4536 137.144 64.4536ZM144.857 59.0089C144.857 58.4235 145.028 57.9844 145.371 57.6916C145.713 57.3794 146.126 57.2233 146.609 57.2233C147.093 57.2233 147.475 57.3599 147.757 57.6331V66.0344C147.757 67.1467 147.939 67.9859 148.301 68.5518C148.664 69.1178 149.157 69.4007 149.782 69.4007C150.406 69.4007 151.01 69.0495 151.594 68.3469C152.279 67.5078 152.621 65.9563 152.621 63.6926C152.641 63.5755 152.792 63.5169 153.075 63.5169C153.437 63.5169 153.618 64.034 153.618 65.0684C153.618 66.7271 153.246 68.0542 152.501 69.0495C151.776 70.0447 150.748 70.5424 149.419 70.5424C147.304 70.5424 145.914 69.6154 145.25 67.7615C144.464 69.6154 143.024 70.5424 140.929 70.5424C139.68 70.5424 138.674 70.1813 137.908 69.4593C137.142 68.7177 136.76 67.6639 136.76 66.2978V59.0089C136.76 58.4235 136.911 57.9844 137.213 57.6916C137.515 57.3794 137.898 57.2233 138.361 57.2233C138.825 57.2233 139.197 57.3599 139.479 57.6331V66.0344C139.479 68.3567 140.083 69.5178 141.292 69.5178C142.198 69.5178 143.014 68.9909 143.739 67.9371C144.484 66.8833 144.857 65.4002 144.857 63.4876V59.0089ZM155.411 65.4782V70.1326C155.21 70.4058 154.857 70.5424 154.354 70.5424C153.851 70.5424 153.448 70.396 153.145 70.1033C152.843 69.7911 152.692 69.3422 152.692 68.7567V57.6331C152.893 57.3599 153.246 57.2233 153.75 57.2233C154.253 57.2233 154.656 57.3794 154.958 57.6916C155.26 57.9844 155.411 58.4235 155.411 59.0089V61.2336C156.419 58.8138 157.809 57.6038 159.581 57.6038C160.85 57.6038 161.776 57.9356 162.36 58.5991C162.945 59.2431 163.236 60.014 163.236 60.9116C163.236 61.3995 163.085 61.7898 162.783 62.0826C162.481 62.3753 162.189 62.5216 161.907 62.5216C161.383 62.5216 161.041 62.4046 160.88 62.1704C161.001 61.8776 161.061 61.458 161.061 60.9116C161.061 60.3652 160.869 59.8676 160.487 59.4187C160.105 58.9699 159.641 58.7455 159.097 58.7455C158.15 58.7455 157.295 59.5846 156.529 61.2629C155.784 62.9217 155.411 64.3268 155.411 65.4782ZM173.287 63.5169C173.649 63.5169 173.83 64.034 173.83 65.0684C173.83 66.5711 173.408 67.8591 172.562 68.9324C171.716 70.0057 170.638 70.5424 169.329 70.5424C167.697 70.5424 166.479 70.074 165.673 69.1373C164.868 68.2006 164.465 66.8735 164.465 65.1562V54.1496C164.465 51.6322 164.737 49.788 165.28 48.6171C165.824 47.4462 166.782 46.8607 168.151 46.8607C170.145 46.8607 171.142 48.1682 171.142 50.7833C171.142 52.7543 170.739 54.3351 169.933 55.5255C169.148 56.7159 168.241 57.6038 167.214 58.1893V66.0344C167.214 67.1467 167.436 67.9859 167.879 68.5518C168.322 69.1178 168.927 69.4007 169.691 69.4007C170.457 69.4007 171.172 68.9519 171.836 68.0542C172.501 67.1565 172.833 65.7026 172.833 63.6926C172.874 63.5755 173.025 63.5169 173.287 63.5169ZM169.842 50.8126C169.842 48.9391 169.359 48.0024 168.392 48.0024C168.151 48.0024 167.96 48.0804 167.818 48.2366C167.697 48.3927 167.587 48.7829 167.486 49.4075C167.305 50.3637 167.214 52.8811 167.214 56.9598C168.966 55.7304 169.842 53.6813 169.842 50.8126ZM178.432 64.5707C177.626 64.2975 176.821 64.0146 176.015 63.7218C175.23 63.4096 174.565 62.9705 174.021 62.4046C173.477 61.8386 173.206 61.1166 173.206 60.2384C173.206 59.3407 173.629 58.6186 174.474 58.0722C175.32 57.5062 176.549 57.2233 178.16 57.2233C179.792 57.2233 181.061 57.4965 181.967 58.0429C182.893 58.5893 183.357 59.2236 183.357 59.9456C183.357 60.2969 183.215 60.5799 182.934 60.7946C182.671 61.0092 182.41 61.1166 182.148 61.1166C181.644 61.1166 181.312 60.9995 181.151 60.7653C181.272 60.6287 181.333 60.3652 181.333 59.9749C181.333 59.5651 181.02 59.1943 180.396 58.8626C179.771 58.5308 179.076 58.3649 178.311 58.3649C177.546 58.3649 176.911 58.5015 176.408 58.7747C175.904 59.048 175.653 59.4675 175.653 60.0335C175.653 60.5799 175.934 61.058 176.499 61.4678C177.082 61.8776 177.777 62.2191 178.583 62.4924C179.409 62.7656 180.224 63.0583 181.031 63.3706C181.856 63.6828 182.551 64.1316 183.115 64.7171C183.699 65.2831 183.991 65.9856 183.991 66.8247C183.991 68.0737 183.427 69.0104 182.299 69.6349C181.191 70.2399 179.721 70.5424 177.888 70.5424C176.076 70.5424 174.595 70.0349 173.447 69.0202C172.319 67.9859 171.755 66.7076 171.755 65.1855C171.755 64.6391 171.866 64.2097 172.088 63.8975C172.309 63.5852 172.561 63.4291 172.843 63.4291C173.366 63.4291 173.668 63.5169 173.749 63.6926L173.81 63.7804C173.689 64.0731 173.629 64.4342 173.629 64.8635C173.629 66.1709 174.021 67.254 174.807 68.1127C175.592 68.9714 176.68 69.4007 178.07 69.4007C180.204 69.4007 181.282 68.6689 181.302 67.2053C181.302 66.0929 180.345 65.2147 178.432 64.5707Z" stroke="#703D57" stroke-width="30" mask="url(#path-4-inside-2_8_615)"/>
</g>
<g filter="url(#filter4_d_8_615)">
<path d="M6.35101 67.9384C6.31834 67.6098 6.3578 67.253 6.2369 66.9586C6.03019 66.4551 6.04287 65.9899 6.19992 65.4861C6.26143 65.2888 6.25859 65.0131 6.16075 64.8391C5.82193 64.2367 5.93936 63.7146 6.3025 63.1723C6.43748 62.9706 6.51599 62.6975 6.51876 62.456C6.52348 62.0453 6.61412 61.6905 6.93065 61.412C7.29104 61.0949 7.4921 60.7232 7.44564 60.2344C7.39232 59.6733 7.58117 59.2257 8.091 58.9019C8.22909 58.8142 8.31796 58.5916 8.34886 58.4174C8.44817 57.8573 8.68632 57.4323 9.23671 57.1545C9.45574 57.0439 9.57901 56.7452 9.73276 56.5236C9.89423 56.2908 10.0292 56.0404 10.1955 55.8112C10.3821 55.5539 10.5798 55.3025 10.793 55.0658C10.9945 54.842 11.2211 54.6395 11.4389 54.4297C11.6041 54.2708 11.8047 54.1364 11.9332 53.9537C12.2239 53.5402 12.4797 53.1034 12.8002 52.6554C12.9369 52.6107 13.0369 52.6066 13.1068 52.5598C13.7688 52.1164 14.4298 51.6753 15.2442 51.5302C15.4791 51.4884 15.7122 51.4363 15.9447 51.3829C16.1042 51.3462 16.2955 51.3406 16.4126 51.2487C16.7342 50.9966 17.0757 51.0195 17.4529 51.0519C17.7588 51.0783 18.075 51.0117 18.3847 50.9724C18.8146 50.9179 19.2446 50.7887 19.6712 50.801C20.5935 50.8277 21.4932 50.8161 22.3203 50.3441C22.5302 50.2243 22.757 50.1326 22.9919 50.057C22.9584 50.4521 22.9492 50.8288 22.8507 51.182C22.6818 51.7878 22.7689 52.3246 23.0097 52.9104C23.1624 53.282 23.0469 53.7663 23.0136 54.1972C23.0015 54.3533 22.8787 54.5013 22.8065 54.653C23.3562 54.1128 23.621 53.4819 23.3486 52.7541C22.9649 51.7295 22.9903 50.7447 23.5324 49.7812C23.5302 49.7796 23.5313 49.785 23.5528 49.7781C23.5997 49.7531 23.6163 49.7294 23.6508 49.6817C23.9381 49.5328 24.1989 49.4019 24.4569 49.3064C24.4421 49.3846 24.4434 49.439 24.4161 49.4683C23.5618 50.3853 23.4874 51.4173 23.8992 52.5421C24.1202 53.1455 24.0744 53.757 23.7038 54.2965C23.1443 55.1107 23.0843 55.9712 23.3108 56.8974C23.5106 57.7139 23.5916 58.5404 23.2188 59.3659C23.1513 59.4887 23.1036 59.5936 23.0263 59.7168C22.8411 60.1102 22.4943 60.5306 22.5746 60.8494C22.6942 61.3241 22.5716 61.4557 22.1136 61.5153C22.3526 62.0266 22.1787 62.4488 21.9286 62.8582C21.7136 63.2101 21.7091 63.5607 21.9294 63.9143C22.1004 64.1888 22.0956 64.4635 21.8543 64.6906C21.4955 65.0281 21.4172 65.4348 21.5199 65.8807C21.6171 66.3032 21.5004 66.6578 21.2931 67.0291C21.1752 67.2404 21.0859 67.5742 21.1765 67.7674C21.4153 68.2768 21.2984 68.656 20.9186 69.0148C20.5562 69.3571 20.3503 69.7632 20.2468 70.2543C20.1965 70.493 19.9701 70.8054 19.7497 70.881C19.106 71.1019 18.6595 71.4903 18.2784 72.0245C17.8215 72.665 16.699 72.855 16.1537 72.1861C16.0292 72.0334 15.744 71.8924 15.5585 71.9186C14.7963 72.0264 14.4052 71.6254 14.0587 71.0596C13.7875 70.6165 13.0952 70.4056 12.5379 70.5474C12.2612 70.5135 12.017 70.4712 11.7663 70.3973C11.5516 70.1616 11.3426 69.9581 11.1352 69.7532C10.9486 69.5689 10.7126 69.4104 10.5893 69.1921C10.3622 68.7894 10.0859 68.6726 9.67308 68.9126C9.50443 69.0107 9.35809 69.145 9.20098 69.262C8.87602 69.504 8.55733 69.5293 8.18697 69.3176C7.99091 69.2055 7.7297 69.1593 7.49721 69.1573C6.76642 69.1508 6.524 68.956 6.42619 68.2359C6.41252 68.1353 6.37662 68.0376 6.35101 67.9384ZM22.7564 54.9423L22.7378 54.948C22.7378 54.948 22.7565 54.9536 22.7564 54.9423Z" fill="#402A2C"/>
<path d="M23.0017 49.6627C22.7751 49.7685 22.5405 49.8613 22.3234 49.9824C21.4678 50.4598 20.5373 50.4716 19.5832 50.4446C19.1419 50.4321 18.6971 50.5628 18.2525 50.618C17.932 50.6577 17.605 50.7251 17.2886 50.6984C16.8984 50.6655 16.5452 50.6425 16.2125 50.8975C16.0914 50.9903 15.8935 50.996 15.7285 51.0331C15.4881 51.0872 15.2469 51.1399 15.0039 51.1822C14.1616 51.3289 13.4778 51.7751 12.793 52.2236C12.7208 52.2709 12.6173 52.275 12.4939 52.2935C11.7469 50.8875 12.2804 49.5858 12.817 48.2877C12.9922 47.864 13.11 47.3792 13.4103 47.0521C13.767 46.6637 14.2593 46.3526 14.7513 46.1194C15.6927 45.6732 16.6643 45.279 17.6439 44.9128C18.7411 44.5027 19.8912 44.46 21.0536 44.5985C21.9359 44.7037 22.8254 44.7653 23.7012 44.9054C24.7401 45.0716 25.7327 45.4474 26.5254 46.0859C26.9944 46.4635 27.2275 47.106 27.5398 47.6765C26.5207 48.1146 25.5284 48.5057 24.5363 48.8969C24.2666 49.0294 23.9968 49.1618 23.6781 49.3205C23.6017 49.3634 23.584 49.3868 23.576 49.4168C23.576 49.4168 23.5748 49.4114 23.5445 49.4174C23.3434 49.5032 23.1726 49.583 23.0017 49.6627Z" fill="#703D57"/>
<path d="M11.3634 70.2653C11.6125 70.3063 11.8615 70.3472 12.1477 70.4156C12.2312 70.8229 12.1935 71.2184 12.6069 71.4867C14.0807 72.443 15.7176 73.003 17.4979 73.2005C19.6645 73.4409 21.7453 73.0301 23.8117 72.4765C25.3041 72.0767 26.0407 71.1058 26.1468 69.77C26.2431 68.558 26.1663 67.3316 26.115 66.1134C26.0805 65.2969 25.9573 64.4837 25.8994 63.6487C26.1817 63.6371 26.4385 63.6457 26.6983 63.6884C26.8548 64.3383 26.9814 64.961 27.1667 65.5686C28.0206 68.3676 29.3374 71.0625 29.3895 74.0404C28.035 74.2181 26.6825 74.4094 25.3256 74.5689C24.3626 74.6821 23.3955 74.8006 22.4269 74.8324C19.8774 74.9162 17.3261 74.9907 14.7754 74.9945C13.4952 74.9966 12.2148 74.8367 10.8922 74.7078C11.021 73.1989 11.1922 71.7321 11.3634 70.2653Z" fill="#703D57"/>
<path d="M24.4697 49.3288C25.4138 48.9035 26.3551 48.5139 27.3278 48.1116C28.6527 49.1396 29.061 50.4655 28.646 52.0606C28.5174 52.5548 28.6974 52.9112 29.09 53.2594C29.4439 53.5733 29.7288 53.9646 30.0062 54.3485C29.3379 54.2862 28.7656 54.3965 28.1843 54.902C28.639 54.9519 28.9895 54.9903 29.3401 55.0286C29.4495 55.2203 29.5589 55.4119 29.6496 55.6377C29.038 55.9246 28.4451 56.1771 27.776 56.4622C28.2937 56.9082 28.6552 57.4187 29.333 57.4605C29.3708 57.8424 29.3608 58.2367 29.4561 58.6038C29.6736 59.4416 29.2767 60.0501 28.4081 60.059C27.6633 60.0667 26.9178 60.0071 26.0985 59.9679C25.7176 59.9273 25.411 59.8962 25.0685 59.8489C24.4465 59.7039 23.8602 59.5752 23.274 59.4465C23.6206 58.633 23.5411 57.8002 23.345 56.9775C23.1227 56.0442 23.1815 55.1773 23.7305 54.3569C24.0943 53.8132 24.1393 53.1972 23.9224 52.5891C23.5182 51.4559 23.5912 50.416 24.4297 49.492C24.4564 49.4625 24.4552 49.4076 24.4697 49.3288ZM26.4123 50.0634C26.9297 49.8531 27.3702 50.1537 27.8363 50.2792C28.0119 50.3264 28.2108 50.5007 28.3109 50.1955C28.402 49.9176 28.2529 49.7606 27.9954 49.7137C27.586 49.6393 27.1715 49.5317 26.7607 49.5381C26.0053 49.5498 25.5224 50.0527 25.046 50.536C25.074 50.5882 25.1022 50.6404 25.1302 50.6926C25.5359 50.4924 25.9414 50.2922 26.4123 50.0634ZM27.0711 52.1817C27.2031 52.2886 27.335 52.3956 27.467 52.5026C27.54 52.5191 27.6128 52.5357 27.6858 52.5522C27.2937 51.8777 28.0355 51.8533 28.123 51.4797C27.4261 51.5738 26.756 51.6643 25.9966 51.7668C26.3897 51.911 26.7037 52.0262 27.0711 52.1817Z" fill="#9E6448"/>
<path d="M29.5257 74.3973C29.4464 71.2176 28.1656 68.3281 27.335 65.3271C27.1548 64.6757 27.0317 64.008 26.9233 63.3018C27.4024 63.2096 27.8405 63.1633 28.2786 63.1171C28.7893 63.0941 29.3 63.0696 29.8107 63.0487C31.1013 62.9959 32.5959 63.9642 32.9973 65.3166C33.594 67.3266 34.1056 69.3626 34.6522 71.3879C34.7433 71.7255 34.8345 72.0634 34.9139 72.404C34.9838 72.7041 34.9158 72.9128 34.5865 73.0361C32.9505 73.6485 31.2815 74.1269 29.5257 74.3973Z" fill="#9F6548"/>
<path d="M11.5088 70.2936C11.3482 71.8691 11.1812 73.4124 11.0131 74.9948C9.91466 74.7967 8.79692 74.6263 7.72643 74.3017C6.79509 74.0193 5.92036 73.5549 5.01381 73.1875C4.70912 73.064 4.69167 72.8319 4.75808 72.5951C5.20128 71.0142 5.65972 69.4377 6.11847 67.826C6.1492 67.893 6.1849 67.9925 6.19848 68.0948C6.29575 68.8273 6.53683 69.0255 7.26353 69.0321C7.49471 69.0342 7.75447 69.0813 7.94943 69.1953C8.31772 69.4107 8.63462 69.3849 8.95776 69.1387C9.11399 69.0197 9.25951 68.8831 9.42723 68.7833C9.83778 68.539 10.1125 68.658 10.3384 69.0675C10.4609 69.2897 10.6956 69.451 10.8811 69.6384C11.0874 69.8469 11.2952 70.0538 11.5088 70.2936Z" fill="#9F6448"/>
<path d="M28.1564 63.446C27.7196 63.5353 27.2833 63.5842 26.8035 63.643C26.511 63.6431 26.2623 63.6333 25.9511 63.6437C25.6213 63.6468 25.3536 63.6128 25.0866 63.6174C24.7912 63.6224 24.6579 63.4789 24.6183 63.1727C24.569 62.7921 24.4948 62.4153 24.4569 62.0131C24.5223 61.8865 24.5763 61.7875 24.5998 61.6806C24.7623 60.942 24.9185 60.2017 25.0766 59.4621C25.3852 59.4959 25.6939 59.5298 26.0357 59.5808C26.0278 60.3258 26.0667 61.0036 26.8713 61.2669C26.9723 61.3 27.0837 61.4186 27.1233 61.5261C27.2645 61.9097 27.4405 62.1742 27.8379 62.3642C28.0462 62.4638 28.0569 63.0429 28.1564 63.446Z" fill="#412A2C"/>
<path d="M29.3367 57.0728C28.534 57.0363 28.1252 56.5251 27.5399 56.0784C28.2964 55.793 28.9667 55.5401 29.6733 55.2806C29.8007 55.3588 29.9211 55.4314 29.9737 55.5318C30.0179 55.6163 30.0145 55.8127 29.9785 55.8239C29.2563 56.047 30.0869 56.8544 29.3367 57.0728Z" fill="#573429"/>
<path d="M29.3595 54.6833C28.9756 54.6619 28.619 54.6272 28.1564 54.5825C28.7478 54.1277 29.3302 54.0285 30.0061 54.1135C29.8228 54.3022 29.6047 54.4862 29.3595 54.6833Z" fill="#583529"/>
<path d="M24.3818 61.8198C24.4481 62.1643 24.5257 62.5073 24.5772 62.8537C24.6186 63.1324 24.7578 63.263 25.0666 63.2585C25.3457 63.2544 25.6254 63.2853 25.9442 63.3034C26.0682 64.1457 26.193 64.9839 26.2278 65.8254C26.2798 67.081 26.3575 68.3451 26.2601 69.5943C26.1527 70.9711 25.4071 71.9717 23.8966 72.3838C21.8054 72.9544 19.6994 73.3778 17.5066 73.13C15.7048 72.9264 14.0481 72.3492 12.5566 71.3636C12.1381 71.0871 12.1763 70.6794 12.1253 70.2513C12.6629 70.0816 13.3774 70.2918 13.6573 70.7333C14.0149 71.2972 14.4186 71.6968 15.2052 71.5894C15.3966 71.5633 15.6911 71.7038 15.8195 71.856C16.3822 72.5226 17.5407 72.3332 18.0122 71.695C18.4056 71.1625 18.8664 70.7755 19.5307 70.5554C19.7582 70.4801 19.9918 70.1688 20.0438 69.9308C20.1506 69.4414 20.3631 69.0367 20.7371 68.6956C21.1292 68.338 21.2498 67.9602 21.0032 67.4524C20.9098 67.2599 21.0019 66.9274 21.1237 66.7168C21.3376 66.3467 21.4581 65.9933 21.3577 65.5722C21.2518 65.1279 21.3326 64.7226 21.7027 64.3863C21.9518 64.16 21.9568 63.8862 21.7803 63.6127C21.5528 63.2603 21.5577 62.9108 21.7795 62.5602C22.0375 62.1522 22.217 61.7314 21.9704 61.2218C22.4431 61.1625 22.5696 61.0314 22.4462 60.5583C22.3633 60.2406 22.7212 59.8216 22.9306 59.4621C23.167 59.7647 23.3652 60.0477 23.5399 60.3429C23.8285 60.8311 24.102 61.3271 24.3818 61.8198ZM22.113 66.8617C22.6383 66.3905 23.1637 65.9193 23.6889 65.4481C22.6653 65.5559 22.2863 66.4328 21.5601 66.8944C21.5853 66.936 21.6105 66.9775 21.6357 67.0191C21.7759 66.977 21.9161 66.9349 22.113 66.8617Z" fill="#9F6548"/>
<path d="M24.5252 61.8517C24.2496 61.4376 24.0037 61.0015 23.7442 60.5725C23.5871 60.3129 23.409 60.0642 23.2238 59.782C23.2517 59.6616 23.296 59.5698 23.3586 59.4621C23.9312 59.5582 24.4854 59.6701 25.0736 59.7961C24.9588 60.4021 24.8121 60.9945 24.6594 61.5856C24.6373 61.6711 24.5866 61.7504 24.5252 61.8517Z" fill="#58352A"/>
<path d="M22.7978 49.6045C22.9223 49.4853 23.0599 49.3983 23.2237 49.3064C22.7965 50.3645 22.7754 51.4525 23.095 52.5847C23.322 53.3889 23.1013 54.0862 22.6433 54.683C22.7036 54.5154 22.8059 54.3518 22.816 54.1793C22.8437 53.7031 22.9398 53.1681 22.8126 52.7574C22.6121 52.1102 22.5396 51.5171 22.6803 50.8476C22.7623 50.4574 22.7699 50.0411 22.7978 49.6045Z" fill="#965F45"/>
<path d="M26.3224 49.865C25.912 50.0869 25.5321 50.294 25.1523 50.5012C25.126 50.4472 25.0997 50.3931 25.0734 50.3391C25.5196 49.8391 25.9718 49.3188 26.6793 49.3066C27.064 49.3001 27.4522 49.4113 27.8356 49.4884C28.0768 49.5369 28.2165 49.6993 28.1311 49.9868C28.0373 50.3026 27.851 50.1223 27.6867 50.0734C27.2501 49.9437 26.8375 49.6326 26.3224 49.865Z" fill="#59362A"/>
<path d="M26.9052 51.8585C26.5101 51.7078 26.146 51.5795 25.6899 51.4188C26.5707 51.3046 27.3481 51.2038 28.1563 51.0989C28.0549 51.5151 27.1944 51.5422 27.6492 52.2937C27.5646 52.2753 27.48 52.2568 27.3955 52.2384C27.2423 52.1193 27.0893 52.0001 26.9052 51.8585Z" fill="#5C382B"/>
<path d="M21.9817 67.0669C21.7864 67.1327 21.624 67.1807 21.4617 67.2288C21.4325 67.1813 21.4032 67.1339 21.3741 67.0865C22.2153 66.5599 22.6544 65.5595 23.8403 65.4365C23.2318 65.9741 22.6232 66.5117 21.9817 67.0669Z" fill="#5C382B"/>
</g>
</g>
<defs>
<filter id="filter0_d_8_615" x="34.2024" y="8.98801" width="120.423" height="33.259" filterUnits="userSpaceOnUse" color-interpolation-filters="sRGB">
<feFlood flood-opacity="0" result="BackgroundImageFix"/>
<feColorMatrix in="SourceAlpha" type="matrix" values="0 0 0 0 0 0 0 0 0 0 0 0 0 0 0 0 0 0 127 0" result="hardAlpha"/>
<feOffset dy="4"/>
<feGaussianBlur stdDeviation="2"/>
<feComposite in2="hardAlpha" operator="out"/>
<feColorMatrix type="matrix" values="0 0 0 0 0.439216 0 0 0 0 0.239216 0 0 0 0 0.341176 0 0 0 0.25 0"/>
<feBlend mode="normal" in2="BackgroundImageFix" result="effect1_dropShadow_8_615"/>
<feBlend mode="normal" in="SourceGraphic" in2="effect1_dropShadow_8_615" result="shape"/>
</filter>
<filter id="filter1_d_8_615" x="-1" y="37" width="191" height="54" filterUnits="userSpaceOnUse" color-interpolation-filters="sRGB">
<feFlood flood-opacity="0" result="BackgroundImageFix"/>
<feColorMatrix in="SourceAlpha" type="matrix" values="0 0 0 0 0 0 0 0 0 0 0 0 0 0 0 0 0 0 127 0" result="hardAlpha"/>
<feOffset dy="4"/>
<feGaussianBlur stdDeviation="2"/>
<feColorMatrix type="matrix" values="0 0 0 0 1 0 0 0 0 0.368627 0 0 0 0 0.505882 0 0 0 0.25 0"/>
<feBlend mode="normal" in2="BackgroundImageFix" result="effect1_dropShadow_8_615"/>
<feBlend mode="normal" in="SourceGraphic" in2="effect1_dropShadow_8_615" result="shape"/>
</filter>
<filter id="filter2_d_8_615" x="37.8745" y="46.8607" width="88.7893" height="42.6882" filterUnits="userSpaceOnUse" color-interpolation-filters="sRGB">
<feFlood flood-opacity="0" result="BackgroundImageFix"/>
<feColorMatrix in="SourceAlpha" type="matrix" values="0 0 0 0 0 0 0 0 0 0 0 0 0 0 0 0 0 0 127 0" result="hardAlpha"/>
<feOffset dy="4"/>
<feGaussianBlur stdDeviation="2"/>
<feComposite in2="hardAlpha" operator="out"/>
<feColorMatrix type="matrix" values="0 0 0 0 1 0 0 0 0 0.368627 0 0 0 0 0.505882 0 0 0 0.25 0"/>
<feBlend mode="normal" in2="BackgroundImageFix" result="effect1_dropShadow_8_615"/>
<feBlend mode="normal" in="SourceGraphic" in2="effect1_dropShadow_8_615" result="shape"/>
</filter>
<filter id="filter3_d_8_615" x="120.485" y="46.8607" width="67.5061" height="31.6816" filterUnits="userSpaceOnUse" color-interpolation-filters="sRGB">
<feFlood flood-opacity="0" result="BackgroundImageFix"/>
<feColorMatrix in="SourceAlpha" type="matrix" values="0 0 0 0 0 0 0 0 0 0 0 0 0 0 0 0 0 0 127 0" result="hardAlpha"/>
<feOffset dy="4"/>
<feGaussianBlur stdDeviation="2"/>
<feComposite in2="hardAlpha" operator="out"/>
<feColorMatrix type="matrix" values="0 0 0 0 1 0 0 0 0 0.368627 0 0 0 0 0.505882 0 0 0 0.25 0"/>
<feBlend mode="normal" in2="BackgroundImageFix" result="effect1_dropShadow_8_615"/>
<feBlend mode="normal" in="SourceGraphic" in2="effect1_dropShadow_8_615" result="shape"/>
</filter>
<filter id="filter4_d_8_615" x="0.726421" y="44.5273" width="38.2123" height="38.4675" filterUnits="userSpaceOnUse" color-interpolation-filters="sRGB">
<feFlood flood-opacity="0" result="BackgroundImageFix"/>
<feColorMatrix in="SourceAlpha" type="matrix" values="0 0 0 0 0 0 0 0 0 0 0 0 0 0 0 0 0 0 127 0" result="hardAlpha"/>
<feOffset dy="4"/>
<feGaussianBlur stdDeviation="2"/>
<feComposite in2="hardAlpha" operator="out"/>
<feColorMatrix type="matrix" values="0 0 0 0 1 0 0 0 0 0.368627 0 0 0 0 0.505882 0 0 0 0.25 0"/>
<feBlend mode="normal" in2="BackgroundImageFix" result="effect1_dropShadow_8_615"/>
<feBlend mode="normal" in="SourceGraphic" in2="effect1_dropShadow_8_615" result="shape"/>
</filter>
<clipPath id="clip0_8_615">
<rect width="183" height="46" fill="white" transform="translate(3 37)"/>
</clipPath>
</defs>
</svg>
