<svg width="1728" height="586" viewBox="0 0 1728 586" fill="none" xmlns="http://www.w3.org/2000/svg">
<path opacity="0.5" d="M-59.3472 69.3928C-197.147 60.748 -315.865 165.449 -324.51 303.25C-333.154 441.05 -228.453 559.767 -90.6528 568.412L-59.3472 69.3928ZM-90.6528 568.412C440.857 601.756 629.644 589.842 960.398 513.823L848.4 26.5278C581.245 87.9297 444.772 101.018 -59.3472 69.3928L-90.6528 568.412ZM960.398 513.823C1060.51 490.813 1165.88 498.94 1298.88 520.272C1415.27 538.94 1588.67 576.51 1747.45 568.592L1722.55 69.2126C1632.44 73.7061 1540.01 52.5572 1378.06 26.5817C1232.72 3.26924 1047.24 -19.1731 848.4 26.5278L960.398 513.823Z" fill="url(#paint0_linear_4_1266)" fill-opacity="0.45"/>
<defs>
<linearGradient id="paint0_linear_4_1266" x1="1573.36" y1="170.795" x2="1573.36" y2="411.479" gradientUnits="userSpaceOnUse">
<stop stop-color="#FF5E81"/>
<stop offset="1" stop-color="#FF5E81" stop-opacity="0"/>
</linearGradient>
</defs>
</svg>
