<svg width="2079" height="631" viewBox="0 0 2079 631" fill="none" xmlns="http://www.w3.org/2000/svg">
<path opacity="0.75" d="M1804.85 524.768C1942.3 537.828 2064.32 436.989 2077.38 299.537C2090.44 162.084 1989.6 40.07 1852.15 27.0097L1804.85 524.768ZM1852.15 27.0097C1590.89 2.18586 1402.51 -7.32862 1236.65 6.13921C1064.78 20.0959 927.228 57.8532 767.182 113.567L931.562 585.774C1070.39 537.447 1163.57 513.72 1277.12 504.499C1396.69 494.789 1548.44 500.404 1804.85 524.768L1852.15 27.0097ZM767.182 113.567C689.673 140.548 604.797 133.482 474.436 101.813C421.158 88.87 332.167 64.2465 264.026 49.6586C188.197 33.4248 97.0096 19.2848 0.171646 26.5988L37.8284 525.179C65.404 523.096 102.861 526.485 159.355 538.58C223.538 552.321 270.549 566.825 356.402 587.681C504.303 623.611 710.199 662.832 931.562 585.774L767.182 113.567Z" fill="url(#paint0_linear_98_463)" fill-opacity="0.45"/>
<defs>
<linearGradient id="paint0_linear_98_463" x1="180.593" y1="500.149" x2="180.593" y2="135.711" gradientUnits="userSpaceOnUse">
<stop stop-color="#FF5E81"/>
<stop offset="1" stop-color="#FF5E81" stop-opacity="0"/>
</linearGradient>
</defs>
</svg>
