<svg width="1728" height="854" viewBox="0 0 1728 854" fill="none" xmlns="http://www.w3.org/2000/svg">
<g filter="url(#filter0_f_105_465)">
<path d="M338.829 55.1307C309.35 -302.299 -130.804 -221.607 -2.41009 -36.6998C125.984 148.208 -98.1111 119.083 -8.64978 273.929C80.8115 428.776 354.405 243.98 338.829 55.1307Z" fill="url(#paint0_radial_105_465)" fill-opacity="0.25"/>
</g>
<path d="M6.41753 27.6756C1.00393 33.531 -6.11308 37.5369 -13.9275 39.1269C-12.5796 31.7509 -8.84389 22.0507 -3.48435 16.8397C2.60749 10.8646 8.434 7.7975 15.6826 6.52394C14.902 14.3751 11.6591 21.7784 6.41753 27.6756Z" fill="#F8B7C7"/>
<path d="M-5.63885 30.8277C-5.26296 30.6092 -4.90773 30.357 -4.57756 30.0742C-3.93017 29.5647 -3.01744 28.79 -1.9137 27.8242C0.953875 25.2689 3.66173 22.5397 6.19458 19.6522C8.7232 16.7619 11.0696 13.7172 13.2204 10.5357C14.0376 9.31522 14.6744 8.307 15.0989 7.59593C15.3307 7.23983 15.5364 6.86738 15.7144 6.48155C15.423 6.80743 15.1669 7.16317 14.9503 7.54285C14.4939 8.22208 13.8147 9.19847 12.9657 10.3977C10.751 13.5179 8.38129 16.5252 5.86558 19.4082C2.91518 22.7725 0.0284711 25.6273 -2.11535 27.6332C-3.17664 28.6308 -4.06814 29.4268 -4.6837 29.9787C-5.02879 30.2301 -5.34867 30.5144 -5.63885 30.8277Z" fill="#FF5E81"/>
<path d="M17.4974 60.321C12.0838 66.1764 4.96682 70.1823 -2.8476 71.7724C-1.49975 64.3964 2.29968 54.7916 7.59555 49.4852C12.9372 44.1427 19.7643 40.5331 27.1871 39.1269C26.2563 47.032 22.867 54.4453 17.4974 60.321Z" fill="#F8B7C7"/>
<path d="M5.44104 63.473C5.81611 63.2493 6.17119 62.9936 6.50234 62.7089C7.14973 62.2101 8.06245 61.4354 9.1662 60.4696C12.0338 57.9142 14.7416 55.1851 17.2745 52.2976C19.8034 49.4102 22.1465 46.3653 24.2897 43.1811C25.1175 41.9606 25.7542 40.9524 26.1681 40.2413C26.4053 39.8865 26.6146 39.5139 26.7943 39.1269C26.5029 39.4528 26.2468 39.8085 26.0302 40.1882C25.5738 40.8674 24.8946 41.8438 24.0456 43.0431C21.8309 46.1633 19.4612 49.1705 16.9455 52.0535C13.9951 55.4178 11.1084 58.2727 8.96455 60.2679C7.90325 61.2762 7.01175 62.0721 6.3962 62.624C6.0511 62.8755 5.73122 63.1598 5.44104 63.473Z" fill="#FF5E81"/>
<path d="M47.1396 66.0521C54.6103 68.8735 62.7806 69.2672 70.4881 67.1771C65.9669 61.1807 58.2513 54.2717 51.1406 51.8944C43.9692 49.5156 36.248 49.3492 28.9808 51.4168C33.3465 58.0813 39.6998 63.2018 47.1396 66.0521Z" fill="#F8B7C7"/>
<path d="M59.3337 63.4732C58.9076 63.4378 58.4851 63.3668 58.0708 63.2609C57.2642 63.0911 56.1074 62.8152 54.6853 62.4437C50.9652 61.4482 47.3108 60.2218 43.7433 58.7717C40.1893 57.3239 36.7298 55.6544 33.3851 53.773C32.1009 53.0513 31.0821 52.4357 30.3922 51.99C30.016 51.7801 29.6607 51.5349 29.3309 51.2577C29.7273 51.4227 30.1105 51.6178 30.4771 51.8414C31.1882 52.2447 32.2283 52.8178 33.523 53.5076C36.1232 54.8873 39.7635 56.6915 43.9131 58.379C47.4545 59.8197 51.0677 61.0772 54.7383 62.1466C56.1392 62.5605 57.2855 62.8789 58.0814 63.0911C58.5097 63.1798 58.9289 63.3077 59.3337 63.4732Z" fill="#FF5E81"/>
<path d="M38.6491 33.3005C46.1216 36.1156 54.2909 36.5055 61.9976 34.4149C57.4871 28.4292 49.7714 21.5095 42.6501 19.1322C35.4825 16.7529 27.7645 16.5865 20.5009 18.6546C24.8633 25.3203 31.2125 30.4442 38.6491 33.3005Z" fill="#F8B7C7"/>
<path d="M50.8433 30.7109C50.4163 30.6828 49.9932 30.6117 49.5804 30.4987C48.7738 30.3395 47.6064 30.0529 46.1842 29.6815C42.4672 28.6873 38.8163 27.4609 35.2529 26.0094C31.6946 24.5636 28.2314 22.894 24.8841 21.0107C23.5999 20.289 22.581 19.6735 21.8912 19.2277C21.5184 19.0165 21.1634 18.7751 20.8299 18.506C21.2249 18.6624 21.605 18.8542 21.9655 19.0792C22.6766 19.4824 23.7272 20.0555 25.022 20.7454C31.7784 24.3537 38.892 27.249 46.2479 29.3843C47.6594 29.7982 48.8056 30.1272 49.591 30.3395C50.0168 30.4331 50.4353 30.5572 50.8433 30.7109Z" fill="#FF5E81"/>
<path d="M2.74536 -13.2904C2.97581 -13.0619 3.18536 -12.8133 3.37152 -12.5475L5.0696 -10.3506L6.27949 -8.75867C6.70401 -8.16434 7.14975 -7.49572 7.63795 -6.79526C8.59312 -5.37313 9.76054 -3.7918 10.8218 -1.92392L12.5836 0.962804C13.1991 1.97103 13.751 3.08539 14.3771 4.14669C15.6401 6.34357 16.7969 8.80576 18.0493 11.3635C20.6435 16.9866 22.8698 22.7722 24.7142 28.6838C26.5009 34.6316 27.8942 40.6906 28.8851 46.8214C29.2671 49.6444 29.681 52.3295 29.8509 54.866C29.957 56.129 30.095 57.3494 30.1586 58.5275L30.2966 61.913C30.4239 64.0356 30.3603 66.0202 30.3603 67.7289C30.3603 68.5886 30.3603 69.3845 30.3603 70.1168L30.2435 72.1226L30.0631 74.8926C30.0526 75.2168 30.0172 75.5397 29.957 75.8584C29.9315 75.5335 29.9315 75.207 29.957 74.882L30.0313 72.1121L30.095 70.1062C30.095 69.3739 30.095 68.5779 30.095 67.7289C30.095 66.0202 30.095 64.0674 29.957 61.9236L29.7766 58.5487C29.7129 57.3813 29.5537 56.1714 29.4476 54.9084C29.2459 52.3826 28.8214 49.7187 28.3863 46.9063C26.4527 34.7041 22.8382 22.8286 17.646 11.6182C16.4042 9.0605 15.2687 6.60889 14.0269 4.40139C13.422 3.34009 12.8701 2.20451 12.2758 1.2175L10.5459 -1.67981C9.48459 -3.5583 8.35963 -5.15028 7.4363 -6.58302C6.95872 -7.29409 6.53418 -7.97332 6.12027 -8.56764L4.95287 -10.202L3.33968 -12.4626C3.12374 -12.7253 2.92521 -13.0018 2.74536 -13.2904Z" fill="#FF5E81"/>
<path d="M36.3887 87.2462C35.8873 95.2077 32.8906 102.809 27.824 108.971C24.2156 102.391 21.0742 92.5208 21.8277 85.0599C22.5985 77.5434 25.6123 70.4325 30.4772 64.6512C34.7758 71.3734 36.8444 79.2801 36.3887 87.2462Z" fill="#F8B7C7"/>
<path d="M29.0338 97.3073C29.1752 96.9032 29.2817 96.4878 29.3522 96.0655C29.5326 95.259 29.7555 94.0916 29.9996 92.6376C31.2366 85.0506 31.5148 77.3381 30.8274 69.6817C30.6894 68.2172 30.5515 67.0285 30.4241 66.2219C30.3806 65.7961 30.3061 65.374 30.2012 64.959C30.1798 65.3845 30.2011 65.8112 30.2649 66.2325C30.3286 67.0603 30.4241 68.2384 30.5196 69.703C30.7743 73.5216 30.8345 77.3508 30.7 81.1756C30.5584 84.9963 30.2254 88.8076 29.7024 92.5951C29.5008 94.0491 29.3204 95.2271 29.193 96.0337C29.1022 96.4527 29.0489 96.8789 29.0338 97.3073Z" fill="#FF5E81"/>
<path d="M110.149 44.1575C107.989 40.7639 106.793 36.8468 106.688 32.8256C106.583 28.8044 107.574 24.8304 109.554 21.329C110.361 19.96 111.677 18.5166 113.237 18.7501C114.797 18.9836 115.678 20.9576 115.964 22.6344C116.544 26.1546 116.393 29.7564 115.522 33.216C114.652 36.6757 113.079 39.9195 110.902 42.746C113.956 37.6908 118.439 33.6542 123.786 31.146C125.813 30.2015 128.498 29.5965 130.058 31.146C131.619 32.6955 130.992 35.2638 129.963 37.1635C128.101 40.4153 125.248 42.9857 121.82 44.4982C118.392 46.0108 114.569 46.386 110.913 45.569C114.265 45.8602 117.448 47.1689 120.035 49.32C122.622 51.471 124.49 54.3615 125.389 57.6041C126.026 60.0981 125.612 63.4306 123.16 64.2478C121.674 64.736 120.061 64.0356 118.734 63.1865C116.171 61.5562 113.99 59.3911 112.342 56.8394C110.693 54.2876 109.615 51.4097 109.183 48.4027C110.1 51.8859 109.977 55.5615 108.828 58.9753C107.679 62.3892 105.556 65.3918 102.719 67.6121C100.894 69.0024 98.4743 70.0425 96.3517 69.0661C93.7197 67.835 93.3589 64.2266 93.8895 61.3823C94.5953 57.8473 96.081 54.5142 98.2383 51.6262C100.396 48.7381 103.17 46.3679 106.36 44.6881C104.322 45.5764 102.1 45.9593 99.8826 45.8041C97.6652 45.6489 95.5182 44.9602 93.6242 43.7966C91.1514 42.2259 89.1349 38.9359 90.7375 36.495C92.34 34.054 95.7786 34.4785 98.4212 35.4337C103.209 37.1413 107.558 39.8887 111.157 43.4783" fill="#F8B7C7"/>
<path d="M111.252 28.3867C111.008 28.3867 111.804 32.3347 111.305 37.1423C110.807 41.95 109.3 45.6327 109.533 45.707C109.767 45.7813 111.603 42.1835 112.07 37.2166C112.537 32.2498 111.422 28.2805 111.252 28.3867Z" fill="#FF5E81"/>
<path d="M121.303 36.2508C121.112 36.1128 119.403 38.9253 116.134 41.1222C112.866 43.319 109.767 44.306 109.862 44.5714C109.958 44.8367 113.184 44.0725 116.58 41.7695C119.976 39.4665 121.494 36.3039 121.303 36.2508Z" fill="#FF5E81"/>
<path d="M117.716 55.4603C117.885 55.4603 117.418 52.2234 115.19 48.9652C112.961 45.707 109.936 44.2636 109.883 44.4547C109.83 44.6457 112.451 46.2588 114.542 49.4003C116.633 52.5417 117.471 55.5346 117.716 55.4603Z" fill="#FF5E81"/>
<path d="M109.459 47.8403C109.977 47.9595 110.52 47.9231 111.018 47.7357C111.516 47.5483 111.948 47.2182 112.259 46.7866C112.571 46.3551 112.748 45.8413 112.769 45.3095C112.79 44.7777 112.654 44.2515 112.377 43.7967C111.644 44.1995 110.853 44.4859 110.032 44.6458C110 45.7297 109.807 46.8028 109.459 47.8297" fill="#FAFAFA"/>
<path d="M99.1855 62.2315C100.108 61.7205 100.937 61.0566 101.637 60.2681C103.448 58.4863 105.002 56.461 106.254 54.2505C107.504 52.0426 108.45 49.6756 109.066 47.2141C109.384 46.2094 109.528 45.1577 109.491 44.1045C109.247 44.0409 108.482 48.8061 105.575 53.8685C102.667 58.9309 99.0157 62.0511 99.1855 62.2315Z" fill="#FF5E81"/>
<path d="M105.778 142.493C105.491 142.493 105.47 137.824 103.74 132.411C102.01 126.998 99.3887 123.125 99.6328 122.976C99.8769 122.827 102.817 126.542 104.61 132.135C106.404 137.728 106.001 142.525 105.778 142.493Z" fill="#FF5E81"/>
<path d="M115.457 130.978C115.255 131.18 112.623 128.357 108.336 126.606C104.048 124.854 100.238 124.483 100.28 124.154C100.323 123.825 104.218 123.931 108.686 125.767C113.154 127.603 115.658 130.872 115.457 130.978Z" fill="#FF5E81"/>
<path d="M106.701 109.742C106.903 109.742 107.136 113.531 105.353 117.818C103.57 122.106 100.439 124.494 100.333 124.334C100.227 124.175 102.859 121.649 104.515 117.521C106.17 113.393 106.404 109.71 106.701 109.742Z" fill="#FF5E81"/>
<path d="M99.0279 120.493C99.5968 120.231 100.23 120.143 100.849 120.24C101.468 120.336 102.044 120.613 102.506 121.035C102.968 121.458 103.296 122.007 103.447 122.615C103.599 123.222 103.568 123.861 103.358 124.451C102.421 124.155 101.443 124.015 100.461 124.037C100.161 122.791 99.6784 121.597 99.0279 120.493Z" fill="#FAFAFA"/>
<path d="M-19.4658 380.234C-12.4788 384.08 -4.45928 385.632 3.45819 384.67C-0.160827 378.09 -6.80454 370.152 -13.5225 366.777C-20.2814 363.403 -27.8986 362.138 -35.3852 363.147C-32.0054 370.374 -26.4354 376.352 -19.4658 380.234Z" fill="#F8B7C7"/>
<path d="M62.6998 293.972C65.6179 302.382 65.8184 311.497 63.2729 320.027C56.7141 314.816 49.2214 305.996 46.7804 297.994C44.3314 289.921 44.3684 281.297 46.8865 273.245C54.2012 278.324 59.7332 285.575 62.6998 293.972Z" fill="#F8B7C7"/>
<path d="M59.4629 307.503C59.436 307.024 59.3685 306.549 59.2613 306.081C59.1021 305.179 58.8261 303.874 58.444 302.282C56.4414 293.936 53.4 285.875 49.3912 278.286C48.6271 276.832 47.9691 275.675 47.4915 274.89C47.2643 274.468 47.0016 274.067 46.7061 273.69C46.8597 274.153 47.0478 274.604 47.2686 275.038C47.6931 275.845 48.3299 277.023 49.0304 278.498C50.4949 281.427 52.3947 285.545 54.167 290.225C55.9394 294.906 57.2236 299.246 58.062 302.409C58.4865 304.001 58.8049 305.285 59.0171 306.177C59.1304 306.63 59.2794 307.074 59.4629 307.503Z" fill="#FF5E81"/>
<path d="M28.749 282.924C29.273 290.689 27.3344 298.421 23.209 305.02C18.8895 299.109 14.6125 289.95 14.4003 282.637C14.2041 275.27 16.2307 268.014 20.2162 261.815C25.2081 267.779 28.1937 275.166 28.749 282.924Z" fill="#F8B7C7"/>
<path d="M22.8587 293.579C22.9368 293.173 22.9865 292.761 23.0073 292.348C23.0816 291.541 23.1559 290.385 23.1984 288.952C23.3195 285.206 23.2061 281.455 22.8587 277.723C22.5044 273.995 21.9232 270.291 21.1182 266.633C20.7998 265.232 20.5133 264.107 20.2904 263.332C20.197 262.927 20.0728 262.53 19.919 262.144C19.9466 262.56 20.0178 262.973 20.1312 263.375C20.3116 264.16 20.5451 265.296 20.8211 266.697C21.5471 270.357 22.089 274.051 22.4448 277.766C22.8481 282.117 22.933 286.076 22.9118 288.941L22.8481 292.337C22.8128 292.751 22.8163 293.166 22.8587 293.579Z" fill="#FF5E81"/>
<path d="M50.6859 265.89C58.1057 263.569 64.6072 258.972 69.2692 252.751C62.201 250.862 52.1187 250.193 45.2203 252.645C38.2804 255.123 32.2483 259.636 27.9105 265.593C35.2826 268.082 43.2515 268.186 50.6859 265.89Z" fill="#F8B7C7"/>
<path d="M58.4969 256.572C58.1639 256.805 57.8084 257.004 57.4357 257.166C56.7246 257.527 55.6633 258.015 54.3473 258.578C47.4477 261.517 40.206 263.578 32.7924 264.712C31.3702 264.924 30.2134 265.062 29.4175 265.137C29.0031 265.199 28.584 265.224 28.1651 265.211C28.5697 265.105 28.981 265.027 29.3962 264.977C30.1922 264.861 31.3278 264.67 32.7393 264.415C35.5624 263.916 39.4361 263.109 43.6494 261.921C47.8628 260.732 51.5667 259.363 54.2624 258.302C55.5996 257.771 56.6715 257.336 57.4463 257.018C57.7863 256.846 58.1373 256.697 58.4969 256.572Z" fill="#FF5E81"/>
<path d="M82.2913 273.51C88.7139 269.437 93.6899 263.443 96.5127 256.381C89.3702 256.381 79.6805 258.312 73.7904 262.366C67.8734 266.475 63.3258 272.265 60.7364 278.986C68.318 279.467 75.8587 277.551 82.2913 273.51Z" fill="#F8B7C7"/>
<path d="M87.3218 262.738C87.0514 263.045 86.753 263.325 86.4304 263.576C85.8466 264.096 84.9764 264.818 83.8726 265.699C81.0006 267.953 77.9914 270.027 74.8622 271.908C71.7199 273.781 68.4663 275.461 65.1195 276.938C63.8248 277.501 62.7741 277.925 62.0418 278.201C61.6707 278.369 61.283 278.497 60.885 278.583C61.225 278.38 61.5797 278.203 61.9463 278.052C62.668 277.734 63.6974 277.267 64.9603 276.673C71.5758 273.605 77.8536 269.856 83.6922 265.487C84.8172 264.648 85.7193 263.958 86.3348 263.47C86.6406 263.196 86.971 262.951 87.3218 262.738Z" fill="#FF5E81"/>
<path d="M-33.1139 223.788L-32.838 224.011L-32.0526 224.691L-29.081 227.333L-26.9584 229.254L-24.3476 231.462C-22.4585 233.032 -20.3571 234.879 -17.8949 236.768L-14.0849 239.761C-12.7477 240.822 -11.3149 241.799 -9.83972 242.881C-6.94238 245.078 -3.69482 247.211 -0.288058 249.504C7.11839 254.359 14.7698 258.829 22.6359 262.897C30.5449 266.875 38.6653 270.418 46.9608 273.51C50.8133 274.847 54.4536 276.206 57.9452 277.203C59.6857 277.724 61.352 278.265 62.9758 278.711C64.5995 279.156 66.1596 279.549 67.6667 279.931C70.6489 280.769 73.3871 281.289 75.7856 281.82C76.9849 282.075 78.0992 282.308 79.1287 282.531C80.1581 282.754 81.1133 282.871 81.9623 283.009C83.6392 283.306 84.9552 283.539 85.8891 283.699C86.2995 283.784 86.6533 283.847 86.9504 283.89L87.29 283.975C87.1741 283.994 87.0557 283.994 86.9398 283.975C86.6745 283.975 86.3349 283.89 85.8785 283.837C84.9446 283.699 83.618 283.508 81.9411 283.253C81.0815 283.125 80.1263 282.977 79.0968 282.818C78.0674 282.659 76.9742 282.393 75.7325 282.149C73.3234 281.65 70.564 281.162 67.5818 280.345C66.0747 279.973 64.504 279.57 62.8696 279.167C61.2352 278.764 59.5584 278.19 57.8179 277.681C54.305 276.705 50.6541 275.357 46.7804 274.03C38.452 270.951 30.3026 267.408 22.3706 263.417C14.4837 259.339 6.8176 254.847 -0.595843 249.96C-3.97076 247.646 -7.20771 245.492 -10.0944 243.274C-11.5484 242.213 -12.9812 241.151 -14.3396 240.09L-18.1284 237.065C-20.58 235.166 -22.6602 233.298 -24.4962 231.706L-27.0858 229.456L-29.2084 227.503L-32.1057 224.775C-32.4135 224.468 -32.6682 224.234 -32.8592 224.054C-33.0502 223.873 -33.1246 223.799 -33.1139 223.788Z" fill="#FF5E81"/>
<path d="M50.2296 361.078C49.7028 357.091 50.271 353.035 51.8733 349.347C53.4756 345.658 56.0515 342.475 59.3249 340.138C60.6303 339.226 62.4133 338.472 63.7399 339.353C65.0665 340.234 65.0241 342.388 64.5783 344.023C63.6185 347.457 61.9637 350.659 59.7165 353.428C57.4692 356.197 54.6774 358.476 51.5138 360.122C56.4172 356.83 62.1849 355.061 68.0912 355.039C70.3305 355.039 73.0156 355.623 73.7479 357.735C74.4802 359.847 72.8564 361.874 71.1265 363.147C68.0662 365.311 64.3929 366.438 60.6453 366.362C56.8978 366.285 53.2734 365.01 50.3039 362.723C53.2214 364.403 55.5555 366.935 56.9933 369.98C58.4311 373.024 58.904 376.436 58.3485 379.756C57.8709 382.282 56.088 385.127 53.5302 384.829C51.9701 384.649 50.8133 383.344 49.9537 382.028C48.3215 379.465 47.2622 376.581 46.8482 373.571C46.4342 370.562 46.6754 367.498 47.5551 364.591C46.9148 368.136 45.2513 371.417 42.7697 374.028C40.288 376.64 37.0966 378.469 33.5885 379.289C31.3492 379.767 28.6641 379.682 27.2207 377.92C25.3634 375.692 26.5521 372.274 28.282 369.908C30.3975 366.984 33.1409 364.572 36.3107 362.847C39.4805 361.123 42.9963 360.13 46.6 359.942C44.3737 359.888 42.1934 359.297 40.2455 358.217C38.2975 357.138 36.6398 355.603 35.4139 353.744C33.8326 351.282 33.3975 347.44 35.8809 345.901C38.3643 344.362 41.3041 346.219 43.3099 348.172C46.9295 351.736 49.7102 356.061 51.4501 360.834" fill="#F8B7C7"/>
<path d="M57.8815 347.206C57.648 347.143 56.7247 351.006 54.2413 355.156C51.7578 359.305 48.8393 362.001 49.0091 362.181C49.1789 362.362 52.384 359.857 54.8993 355.548C57.4145 351.239 58.0832 347.206 57.8815 347.206Z" fill="#FF5E81"/>
<path d="M63.6761 358.626C63.5488 358.414 60.8212 360.25 56.9263 360.865C53.0313 361.481 49.805 361.067 49.7944 361.332C49.7838 361.598 52.9783 362.287 57.0642 361.629C61.1502 360.971 63.8247 358.753 63.6761 358.626Z" fill="#FF5E81"/>
<path d="M52.3098 374.524C52.4796 374.588 53.3711 371.457 52.7661 367.562C52.1612 363.667 49.9855 361.078 49.8582 361.194C49.7308 361.311 51.4289 363.911 51.9808 367.647C52.5327 371.383 52.0551 374.482 52.3098 374.524Z" fill="#FF5E81"/>
<path d="M48.0433 364.187C48.4637 364.514 48.9713 364.71 49.5025 364.75C50.0338 364.79 50.565 364.673 51.0296 364.412C51.4942 364.151 51.8716 363.759 52.1144 363.285C52.3572 362.811 52.4547 362.276 52.3946 361.746C51.5601 361.81 50.7209 361.735 49.9111 361.523C49.4204 362.497 48.7912 363.394 48.0433 364.187Z" fill="#FAFAFA"/>
<path d="M32.6651 372.837C33.7164 372.771 34.7477 372.52 35.7111 372.094C40.516 370.38 44.7518 367.368 47.9478 363.391C48.6614 362.618 49.2359 361.728 49.6459 360.759C49.4548 360.6 46.7485 364.601 41.9727 367.955C37.1969 371.309 32.5696 372.603 32.6651 372.837Z" fill="#FF5E81"/>
<path d="M105.746 290.756C103.458 286.617 102.339 281.935 102.507 277.209C102.675 272.483 104.125 267.892 106.701 263.927C107.762 262.377 109.386 260.743 111.212 261.178C113.037 261.613 113.918 263.948 114.13 265.932C114.546 270.105 114.101 274.319 112.823 278.313C111.545 282.307 109.462 285.997 106.701 289.154C110.668 283.439 116.247 279.035 122.727 276.503C125.168 275.548 128.362 275.038 130.071 277.034C131.779 279.029 130.856 281.947 129.508 284.091C127.086 287.776 123.547 290.589 119.411 292.117C115.274 293.645 110.757 293.807 106.521 292.582C110.428 293.168 114.064 294.933 116.941 297.641C119.818 300.349 121.8 303.872 122.62 307.737C123.183 310.709 122.44 314.593 119.511 315.357C117.728 315.824 115.892 314.879 114.395 313.807C111.516 311.702 109.125 309.001 107.385 305.887C105.645 302.774 104.597 299.321 104.313 295.765C105.13 299.92 104.711 304.222 103.11 308.142C101.509 312.061 98.7947 315.425 95.3028 317.819C93.0528 319.316 90.0812 320.356 87.7145 319.05C84.7216 317.405 84.5306 313.149 85.4115 309.849C86.4923 305.733 88.484 301.913 91.2395 298.671C93.9949 295.429 97.4437 292.847 101.331 291.117C98.8762 292.006 96.2428 292.288 93.6556 291.938C91.0683 291.589 88.604 290.619 86.4728 289.111C83.7028 287.095 81.5802 283.072 83.6391 280.324C85.698 277.575 89.7097 278.35 92.7344 279.644C98.2224 281.996 103.117 285.542 107.062 290.024" fill="#F8B7C7"/>
<path d="M108.219 272.29C107.932 272.29 108.569 276.949 107.624 282.552C106.68 288.156 104.642 292.359 104.897 292.475C105.152 292.592 107.593 288.496 108.526 282.701C109.46 276.906 108.431 272.215 108.219 272.29Z" fill="#FF5E81"/>
<path d="M119.437 282.308C119.214 282.138 117.006 285.301 113.005 287.615C109.004 289.928 105.3 290.884 105.385 291.181C105.47 291.478 109.312 290.852 113.472 288.4C117.632 285.949 119.638 282.383 119.437 282.308Z" fill="#FF5E81"/>
<path d="M113.769 304.585C113.971 304.585 113.663 300.764 111.297 296.763C108.93 292.762 105.481 290.852 105.406 291.085C105.332 291.319 108.282 293.388 110.511 297.23C112.74 301.072 113.483 304.649 113.769 304.585Z" fill="#FF5E81"/>
<path d="M104.653 295.023C105.253 295.201 105.892 295.198 106.491 295.015C107.089 294.831 107.621 294.476 108.018 293.992C108.416 293.509 108.662 292.918 108.726 292.296C108.79 291.673 108.669 291.045 108.378 290.491C107.492 290.916 106.542 291.192 105.566 291.308C105.448 292.585 105.14 293.837 104.653 295.023Z" fill="#FAFAFA"/>
<path d="M91.5245 311.123C92.6472 310.594 93.6703 309.876 94.5492 309C99.0685 305.058 102.42 299.952 104.239 294.237C104.687 293.081 104.934 291.857 104.971 290.618C104.685 290.533 103.443 296.063 99.6647 301.783C95.8864 307.504 91.3335 310.91 91.5245 311.123Z" fill="#FF5E81"/>
<path d="M99.7497 208.421C96.6043 205.899 94.206 202.568 92.8128 198.785C91.4196 195.002 91.0844 190.91 91.843 186.951C92.1614 185.391 92.9043 183.608 94.4856 183.332C96.067 183.056 97.5209 184.637 98.3275 186.123C100.007 189.271 101.023 192.73 101.311 196.286C101.599 199.842 101.155 203.42 100.004 206.797C101.277 201.024 104.231 195.758 108.495 191.663C110.108 190.124 112.453 188.691 114.449 189.7C116.444 190.708 116.635 193.319 116.253 195.441C115.542 199.123 113.671 202.48 110.913 205.02C108.155 207.561 104.655 209.15 100.928 209.556C104.196 208.755 107.632 208.971 110.775 210.176C113.917 211.38 116.617 213.515 118.513 216.296C119.925 218.418 120.636 221.751 118.513 223.3C117.261 224.245 115.51 224.107 113.992 223.746C111.04 223.027 108.278 221.678 105.897 219.791C103.515 217.904 101.57 215.524 100.195 212.815C102.18 215.82 103.244 219.339 103.255 222.941C103.266 226.542 102.225 230.068 100.259 233.085C98.9749 234.985 96.9691 236.768 94.6873 236.503C91.8112 236.184 90.3041 232.894 89.8902 230.018C89.4059 226.433 89.7323 222.785 90.8454 219.343C91.9585 215.901 93.8299 212.752 96.3217 210.13C94.6795 211.635 92.6959 212.718 90.5419 213.285C88.3879 213.853 86.1282 213.888 83.9576 213.388C81.1133 212.698 78.1417 210.204 78.874 207.402C79.6063 204.6 83.0449 203.932 85.8467 203.932C90.9257 203.999 95.9256 205.199 100.482 207.444" fill="#F8B7C7"/>
<path d="M95.6956 193.096C95.4833 193.212 97.4891 196.651 98.5611 201.363C99.633 206.075 99.3995 210.045 99.6224 210.055C99.8452 210.066 100.45 206.044 99.2933 201.193C98.1365 196.343 95.8441 192.979 95.6956 193.096Z" fill="#FF5E81"/>
<path d="M107.762 197.341C107.529 197.277 106.829 200.525 104.441 203.624C102.053 206.723 99.4313 208.697 99.6011 208.93C99.7709 209.164 102.583 207.391 105.056 204.123C107.529 200.854 107.954 197.33 107.762 197.341Z" fill="#FF5E81"/>
<path d="M110.532 216.667C110.702 216.603 109.216 213.695 106.054 211.361C102.891 209.026 99.5693 208.601 99.5799 208.803C99.5905 209.004 102.594 209.673 105.597 211.987C108.601 214.3 110.331 216.837 110.532 216.667Z" fill="#FF5E81"/>
<path d="M100.27 212.135C100.798 212.079 101.299 211.868 101.709 211.529C102.119 211.191 102.421 210.739 102.577 210.231C102.733 209.722 102.736 209.179 102.587 208.669C102.437 208.158 102.14 207.703 101.734 207.36C101.17 207.979 100.511 208.506 99.7814 208.92C100.105 209.95 100.27 211.024 100.27 212.104" fill="#FAFAFA"/>
<path d="M95.1754 229.052C95.8929 228.279 96.4678 227.384 96.8735 226.41C99.1418 221.846 100.118 216.748 99.6965 211.668C99.6704 210.613 99.4696 209.57 99.1022 208.58C98.8475 208.58 99.6647 213.356 98.5291 219.087C97.3935 224.818 94.9526 228.946 95.1754 229.052Z" fill="#FF5E81"/>
<path d="M105.778 712.507C105.491 712.507 105.47 717.176 103.74 722.589C102.01 728.002 99.3887 731.875 99.6328 732.024C99.8769 732.173 102.817 728.458 104.61 722.865C106.404 717.272 106.001 712.475 105.778 712.507Z" fill="#FF5E81"/>
<path d="M115.457 724.022C115.255 723.82 112.623 726.643 108.336 728.394C104.048 730.146 100.238 730.517 100.28 730.846C100.323 731.175 104.218 731.069 108.686 729.233C113.154 727.397 115.658 724.128 115.457 724.022Z" fill="#FF5E81"/>
<path d="M106.701 745.258C106.903 745.258 107.136 741.469 105.353 737.182C103.57 732.894 100.439 730.506 100.333 730.665C100.227 730.825 102.859 733.351 104.515 737.479C106.17 741.607 106.404 745.29 106.701 745.258Z" fill="#FF5E81"/>
<path d="M99.0279 734.507C99.5968 734.769 100.23 734.857 100.849 734.76C101.468 734.664 102.044 734.387 102.506 733.964C102.968 733.542 103.296 732.993 103.447 732.385C103.599 731.778 103.568 731.139 103.358 730.549C102.421 730.845 101.443 730.985 100.461 730.963C100.161 732.209 99.6784 733.403 99.0279 734.507Z" fill="#FAFAFA"/>
<path d="M-19.4658 474.766C-12.4788 470.92 -4.45928 469.368 3.45819 470.33C-0.160827 476.91 -6.80454 484.848 -13.5225 488.223C-20.2814 491.597 -27.8986 492.862 -35.3852 491.853C-32.0054 484.626 -26.4354 478.648 -19.4658 474.766Z" fill="#F8B7C7"/>
<path d="M62.6998 561.028C65.6179 552.618 65.8184 543.503 63.2729 534.973C56.7141 540.184 49.2214 549.004 46.7804 557.006C44.3314 565.079 44.3684 573.703 46.8865 581.755C54.2012 576.676 59.7332 569.425 62.6998 561.028Z" fill="#F8B7C7"/>
<path d="M59.4629 547.497C59.436 547.975 59.3685 548.451 59.2613 548.919C59.1021 549.821 58.8261 551.126 58.444 552.718C56.4414 561.064 53.4 569.125 49.3912 576.714C48.6271 578.168 47.9691 579.325 47.4915 580.11C47.2643 580.532 47.0016 580.933 46.7061 581.309C46.8597 580.847 47.0478 580.396 47.2686 579.962C47.6931 579.155 48.3299 577.977 49.0304 576.502C50.4949 573.573 52.3947 569.455 54.167 564.774C55.9394 560.094 57.2236 555.753 58.062 552.591C58.4865 550.999 58.8049 549.715 59.0171 548.823C59.1304 548.37 59.2794 547.926 59.4629 547.497Z" fill="#FF5E81"/>
<path d="M28.749 572.076C29.273 564.311 27.3344 556.579 23.209 549.98C18.8895 555.891 14.6125 565.05 14.4003 572.363C14.2041 579.73 16.2307 586.986 20.2162 593.185C25.2081 587.22 28.1937 579.834 28.749 572.076Z" fill="#F8B7C7"/>
<path d="M22.8587 561.421C22.9368 561.827 22.9865 562.239 23.0073 562.652C23.0816 563.459 23.1559 564.615 23.1984 566.048C23.3195 569.794 23.2061 573.544 22.8587 577.277C22.5044 581.005 21.9232 584.709 21.1182 588.367C20.7998 589.768 20.5133 590.893 20.2904 591.668C20.197 592.073 20.0728 592.47 19.919 592.856C19.9466 592.44 20.0178 592.027 20.1312 591.625C20.3116 590.84 20.5451 589.704 20.8211 588.303C21.5471 584.643 22.089 580.949 22.4448 577.234C22.8481 572.883 22.933 568.924 22.9118 566.059L22.8481 562.663C22.8128 562.249 22.8163 561.833 22.8587 561.421Z" fill="#FF5E81"/>
<path d="M50.6859 589.11C58.1057 591.431 64.6072 596.027 69.2692 602.249C62.201 604.138 52.1187 604.807 45.2203 602.355C38.2804 599.876 32.2483 595.364 27.9105 589.407C35.2826 586.918 43.2515 586.814 50.6859 589.11Z" fill="#F8B7C7"/>
<path d="M58.4969 598.428C58.1639 598.195 57.8084 597.996 57.4357 597.834C56.7246 597.473 55.6633 596.985 54.3473 596.422C47.4477 593.483 40.206 591.422 32.7924 590.288C31.3702 590.076 30.2134 589.938 29.4175 589.863C29.0031 589.801 28.584 589.776 28.1651 589.789C28.5697 589.895 28.981 589.973 29.3962 590.023C30.1922 590.139 31.3278 590.33 32.7393 590.585C35.5624 591.084 39.4361 591.891 43.6494 593.079C47.8628 594.268 51.5667 595.637 54.2624 596.698C55.5996 597.229 56.6715 597.664 57.4463 597.982C57.7863 598.154 58.1373 598.303 58.4969 598.428Z" fill="#FF5E81"/>
<path d="M82.2913 581.49C88.7139 585.563 93.6899 591.557 96.5127 598.619C89.3702 598.619 79.6805 596.688 73.7904 592.633C67.8734 588.525 63.3258 582.735 60.7364 576.014C68.318 575.533 75.8587 577.449 82.2913 581.49Z" fill="#F8B7C7"/>
<path d="M87.3218 592.262C87.0514 591.955 86.753 591.675 86.4304 591.423C85.8466 590.903 84.9764 590.182 83.8726 589.301C81.0006 587.047 77.9914 584.973 74.8622 583.092C71.7199 581.219 68.4663 579.539 65.1195 578.062C63.8248 577.499 62.7741 577.075 62.0418 576.799C61.6707 576.631 61.283 576.503 60.885 576.417C61.225 576.62 61.5797 576.797 61.9463 576.947C62.668 577.266 63.6974 577.733 64.9603 578.327C71.5758 581.395 77.8536 585.144 83.6922 589.513C84.8172 590.352 85.7193 591.041 86.3348 591.53C86.6406 591.804 86.971 592.049 87.3218 592.262Z" fill="#FF5E81"/>
<path d="M-33.1139 631.211L-32.838 630.989L-32.0526 630.309L-29.081 627.667L-26.9584 625.746L-24.3476 623.538C-22.4585 621.968 -20.3571 620.121 -17.8949 618.232L-14.0849 615.239C-12.7477 614.178 -11.3149 613.201 -9.83972 612.119C-6.94238 609.922 -3.69482 607.789 -0.288058 605.496C7.11839 600.641 14.7698 596.171 22.6359 592.103C30.5449 588.125 38.6653 584.582 46.9608 581.49C50.8133 580.153 54.4536 578.794 57.9452 577.796C59.6857 577.276 61.352 576.735 62.9758 576.289C64.5995 575.844 66.1596 575.451 67.6667 575.069C70.6489 574.231 73.3871 573.71 75.7856 573.18C76.9849 572.925 78.0992 572.692 79.1287 572.469C80.1581 572.246 81.1133 572.129 81.9623 571.991C83.6392 571.694 84.9552 571.461 85.8891 571.301C86.2995 571.216 86.6533 571.153 86.9504 571.11L87.29 571.025C87.1741 571.006 87.0557 571.006 86.9398 571.025C86.6745 571.025 86.3349 571.11 85.8785 571.163C84.9446 571.301 83.618 571.492 81.9411 571.747C81.0815 571.874 80.1263 572.023 79.0968 572.182C78.0674 572.341 76.9742 572.607 75.7325 572.851C73.3234 573.35 70.564 573.838 67.5818 574.655C66.0747 575.026 64.504 575.43 62.8696 575.833C61.2352 576.236 59.5584 576.809 57.8179 577.319C54.305 578.295 50.6541 579.643 46.7804 580.97C38.452 584.049 30.3026 587.592 22.3706 591.583C14.4837 595.661 6.8176 600.153 -0.595843 605.04C-3.97076 607.354 -7.20771 609.508 -10.0944 611.726C-11.5484 612.787 -12.9812 613.849 -14.3396 614.91L-18.1284 617.935C-20.58 619.834 -22.6602 621.702 -24.4962 623.294L-27.0858 625.544L-29.2084 627.497L-32.1057 630.224C-32.4135 630.532 -32.6682 630.766 -32.8592 630.946C-33.0502 631.127 -33.1246 631.201 -33.1139 631.211Z" fill="#FF5E81"/>
<path d="M50.2296 493.922C49.7028 497.909 50.271 501.965 51.8733 505.653C53.4756 509.342 56.0515 512.525 59.3249 514.862C60.6303 515.774 62.4133 516.528 63.7399 515.647C65.0665 514.766 65.0241 512.612 64.5783 510.977C63.6185 507.542 61.9637 504.341 59.7165 501.572C57.4692 498.803 54.6774 496.524 51.5138 494.877C56.4172 498.17 62.1849 499.939 68.0912 499.961C70.3305 499.961 73.0156 499.377 73.7479 497.265C74.4802 495.153 72.8564 493.126 71.1265 491.853C68.0662 489.688 64.3929 488.562 60.6453 488.638C56.8978 488.715 53.2734 489.99 50.3039 492.277C53.2214 490.597 55.5555 488.064 56.9933 485.02C58.4311 481.976 58.904 478.564 58.3485 475.244C57.8709 472.718 56.088 469.873 53.5302 470.171C51.9701 470.351 50.8133 471.656 49.9537 472.972C48.3215 475.535 47.2622 478.419 46.8482 481.429C46.4342 484.438 46.6754 487.502 47.5551 490.409C46.9148 486.864 45.2513 483.583 42.7697 480.972C40.288 478.36 37.0966 476.531 33.5885 475.71C31.3492 475.233 28.6641 475.318 27.2207 477.08C25.3634 479.308 26.5521 482.726 28.282 485.092C30.3975 488.016 33.1409 490.428 36.3107 492.153C39.4805 493.877 42.9963 494.87 46.6 495.058C44.3737 495.112 42.1934 495.703 40.2455 496.783C38.2975 497.862 36.6398 499.397 35.4139 501.256C33.8326 503.718 33.3975 507.56 35.8809 509.099C38.3643 510.638 41.3041 508.78 43.3099 506.828C46.9295 503.264 49.7102 498.939 51.4501 494.166" fill="#F8B7C7"/>
<path d="M57.8815 507.794C57.648 507.857 56.7247 503.994 54.2413 499.844C51.7578 495.695 48.8393 492.999 49.0091 492.819C49.1789 492.638 52.384 495.143 54.8993 499.452C57.4145 503.761 58.0832 507.794 57.8815 507.794Z" fill="#FF5E81"/>
<path d="M63.6761 496.374C63.5488 496.586 60.8212 494.75 56.9263 494.135C53.0313 493.519 49.805 493.933 49.7944 493.668C49.7838 493.402 52.9783 492.712 57.0642 493.37C61.1502 494.028 63.8247 496.247 63.6761 496.374Z" fill="#FF5E81"/>
<path d="M52.3098 480.476C52.4796 480.412 53.3711 483.543 52.7661 487.438C52.1612 491.333 49.9855 493.922 49.8582 493.806C49.7308 493.689 51.4289 491.089 51.9808 487.353C52.5327 483.617 52.0551 480.518 52.3098 480.476Z" fill="#FF5E81"/>
<path d="M48.0433 490.813C48.4637 490.486 48.9713 490.29 49.5025 490.25C50.0338 490.21 50.565 490.327 51.0296 490.588C51.4942 490.849 51.8716 491.241 52.1144 491.715C52.3572 492.189 52.4547 492.724 52.3946 493.254C51.5601 493.19 50.7209 493.265 49.9111 493.477C49.4204 492.503 48.7912 491.606 48.0433 490.813Z" fill="#FAFAFA"/>
<path d="M32.6651 482.163C33.7164 482.229 34.7477 482.48 35.7111 482.906C40.516 484.62 44.7518 487.632 47.9478 491.609C48.6614 492.381 49.2359 493.272 49.6459 494.241C49.4548 494.4 46.7485 490.399 41.9727 487.045C37.1969 483.691 32.5696 482.397 32.6651 482.163Z" fill="#FF5E81"/>
<path d="M105.746 564.244C103.458 568.382 102.339 573.065 102.507 577.791C102.675 582.517 104.125 587.108 106.701 591.073C107.762 592.623 109.386 594.257 111.212 593.822C113.037 593.387 113.918 591.052 114.13 589.067C114.546 584.895 114.101 580.681 112.823 576.687C111.545 572.693 109.462 569.003 106.701 565.846C110.668 571.561 116.247 575.965 122.727 578.497C125.168 579.452 128.362 579.962 130.071 577.966C131.779 575.971 130.856 573.053 129.508 570.909C127.086 567.224 123.547 564.411 119.411 562.883C115.274 561.355 110.757 561.192 106.521 562.418C110.428 561.832 114.064 560.067 116.941 557.359C119.818 554.65 121.8 551.128 122.62 547.263C123.183 544.291 122.44 540.407 119.511 539.643C117.728 539.176 115.892 540.121 114.395 541.192C111.516 543.297 109.125 545.999 107.385 549.113C105.645 552.226 104.597 555.679 104.313 559.234C105.13 555.08 104.711 550.778 103.11 546.858C101.509 542.939 98.7947 539.575 95.3028 537.181C93.0528 535.684 90.0812 534.644 87.7145 535.95C84.7216 537.595 84.5306 541.85 85.4115 545.151C86.4923 549.266 88.484 553.086 91.2395 556.329C93.9949 559.571 97.4437 562.153 101.331 563.883C98.8762 562.994 96.2428 562.712 93.6556 563.062C91.0683 563.411 88.604 564.381 86.4728 565.889C83.7028 567.905 81.5802 571.928 83.6391 574.676C85.698 577.425 89.7097 576.65 92.7344 575.356C98.2224 573.004 103.117 569.458 107.062 564.976" fill="#F8B7C7"/>
<path d="M108.219 582.71C107.932 582.71 108.569 578.051 107.624 572.448C106.68 566.844 104.642 562.641 104.897 562.525C105.152 562.408 107.593 566.504 108.526 572.299C109.46 578.094 108.431 582.785 108.219 582.71Z" fill="#FF5E81"/>
<path d="M119.437 572.692C119.214 572.861 117.006 569.699 113.005 567.385C109.004 565.072 105.3 564.116 105.385 563.819C105.47 563.522 109.312 564.148 113.472 566.6C117.632 569.051 119.638 572.617 119.437 572.692Z" fill="#FF5E81"/>
<path d="M113.769 550.415C113.971 550.415 113.663 554.236 111.297 558.237C108.93 562.238 105.481 564.148 105.406 563.915C105.332 563.681 108.282 561.612 110.511 557.77C112.74 553.928 113.483 550.351 113.769 550.415Z" fill="#FF5E81"/>
<path d="M104.653 559.977C105.253 559.799 105.892 559.802 106.491 559.985C107.089 560.169 107.621 560.524 108.018 561.008C108.416 561.491 108.662 562.081 108.726 562.704C108.79 563.327 108.669 563.955 108.378 564.509C107.492 564.084 106.542 563.808 105.566 563.692C105.448 562.415 105.14 561.163 104.653 559.977Z" fill="#FAFAFA"/>
<path d="M91.5245 543.877C92.6472 544.406 93.6703 545.124 94.5492 546C99.0685 549.942 102.42 555.048 104.239 560.763C104.687 561.919 104.934 563.143 104.971 564.382C104.685 564.467 103.443 558.937 99.6647 553.217C95.8864 547.496 91.3335 544.09 91.5245 543.877Z" fill="#FF5E81"/>
<path d="M99.7497 646.579C96.6043 649.101 94.206 652.432 92.8128 656.215C91.4196 659.998 91.0844 664.09 91.843 668.049C92.1614 669.609 92.9043 671.392 94.4856 671.668C96.067 671.944 97.5209 670.363 98.3275 668.877C100.007 665.729 101.023 662.27 101.311 658.714C101.599 655.158 101.155 651.58 100.004 648.203C101.277 653.976 104.231 659.242 108.495 663.337C110.108 664.876 112.453 666.309 114.449 665.3C116.444 664.292 116.635 661.681 116.253 659.559C115.542 655.877 113.671 652.52 110.913 649.98C108.155 647.439 104.655 645.85 100.928 645.443C104.196 646.245 107.632 646.029 110.775 644.824C113.917 643.62 116.617 641.485 118.513 638.704C119.925 636.582 120.636 633.249 118.513 631.7C117.261 630.755 115.51 630.893 113.992 631.254C111.04 631.973 108.278 633.322 105.897 635.209C103.515 637.096 101.57 639.476 100.195 642.185C102.18 639.18 103.244 635.661 103.255 632.059C103.266 628.458 102.225 624.932 100.259 621.915C98.9749 620.015 96.9691 618.232 94.6873 618.497C91.8112 618.816 90.3041 622.106 89.8902 624.982C89.4059 628.567 89.7323 632.215 90.8454 635.657C91.9585 639.099 93.8299 642.248 96.3217 644.87C94.6795 643.365 92.6959 642.282 90.5419 641.715C88.3879 641.147 86.1282 641.112 83.9576 641.612C81.1133 642.302 78.1417 644.796 78.874 647.598C79.6063 650.4 83.0449 651.068 85.8467 651.068C90.9257 651.001 95.9256 649.801 100.482 647.555" fill="#F8B7C7"/>
<path d="M95.6956 661.904C95.4833 661.787 97.4891 658.349 98.5611 653.637C99.633 648.925 99.3995 644.955 99.6224 644.945C99.8452 644.934 100.45 648.956 99.2933 653.806C98.1365 658.657 95.8441 662.021 95.6956 661.904Z" fill="#FF5E81"/>
<path d="M107.762 657.659C107.529 657.723 106.829 654.475 104.441 651.376C102.053 648.277 99.4313 646.303 99.6011 646.07C99.7709 645.836 102.583 647.609 105.056 650.877C107.529 654.146 107.954 657.67 107.762 657.659Z" fill="#FF5E81"/>
<path d="M110.532 638.333C110.702 638.397 109.216 641.305 106.054 643.639C102.891 645.974 99.5693 646.399 99.5799 646.197C99.5905 645.995 102.594 645.327 105.597 643.013C108.601 640.7 110.331 638.163 110.532 638.333Z" fill="#FF5E81"/>
<path d="M100.27 642.864C100.798 642.921 101.299 643.132 101.709 643.471C102.119 643.809 102.421 644.261 102.577 644.769C102.733 645.278 102.736 645.821 102.587 646.331C102.437 646.842 102.14 647.297 101.734 647.64C101.17 647.021 100.511 646.494 99.7814 646.08C100.105 645.05 100.27 643.976 100.27 642.896" fill="#FAFAFA"/>
<path d="M95.1754 625.947C95.8929 626.721 96.4678 627.616 96.8735 628.59C99.1418 633.154 100.118 638.252 99.6965 643.332C99.6704 644.387 99.4696 645.43 99.1022 646.42C98.8475 646.42 99.6647 641.644 98.5291 635.913C97.3935 630.182 94.9526 626.054 95.1754 625.947Z" fill="#FF5E81"/>
<path d="M6.41753 827.324C1.00393 821.469 -6.11308 817.463 -13.9275 815.873C-12.5796 823.249 -8.84389 832.949 -3.48435 838.16C2.60749 844.135 8.434 847.202 15.6826 848.476C14.902 840.625 11.6591 833.221 6.41753 827.324Z" fill="#F8B7C7"/>
<path d="M-5.63885 824.172C-5.26296 824.391 -4.90773 824.643 -4.57756 824.926C-3.93017 825.435 -3.01744 826.21 -1.9137 827.176C0.953875 829.731 3.66173 832.46 6.19458 835.348C8.7232 838.238 11.0696 841.283 13.2204 844.464C14.0376 845.685 14.6744 846.693 15.0989 847.404C15.3307 847.76 15.5364 848.133 15.7144 848.518C15.423 848.192 15.1669 847.837 14.9503 847.457C14.4939 846.778 13.8147 845.801 12.9657 844.602C10.751 841.482 8.38129 838.475 5.86558 835.592C2.91518 832.227 0.0284711 829.373 -2.11535 827.367C-3.17664 826.369 -4.06814 825.573 -4.6837 825.021C-5.02879 824.77 -5.34867 824.485 -5.63885 824.172Z" fill="#FF5E81"/>
<path d="M17.4974 794.679C12.0838 788.823 4.96682 784.818 -2.8476 783.228C-1.49975 790.604 2.29968 800.208 7.59555 805.515C12.9372 810.857 19.7643 814.467 27.1871 815.873C26.2563 807.968 22.867 800.555 17.4974 794.679Z" fill="#F8B7C7"/>
<path d="M5.44104 791.527C5.81611 791.751 6.17119 792.006 6.50234 792.291C7.14973 792.79 8.06245 793.565 9.1662 794.53C12.0338 797.086 14.7416 799.815 17.2745 802.702C19.8034 805.59 22.1465 808.635 24.2897 811.819C25.1175 813.039 25.7542 814.048 26.1681 814.759C26.4053 815.113 26.6146 815.486 26.7943 815.873C26.5029 815.547 26.2468 815.191 26.0302 814.812C25.5738 814.132 24.8946 813.156 24.0456 811.957C21.8309 808.837 19.4612 805.829 16.9455 802.946C13.9951 799.582 11.1084 796.727 8.96455 794.732C7.90325 793.724 7.01175 792.928 6.3962 792.376C6.0511 792.124 5.73122 791.84 5.44104 791.527Z" fill="#FF5E81"/>
<path d="M47.1396 788.948C54.6103 786.126 62.7806 785.733 70.4881 787.823C65.9669 793.819 58.2513 800.728 51.1406 803.105C43.9692 805.484 36.248 805.651 28.9808 803.583C33.3465 796.919 39.6998 791.798 47.1396 788.948Z" fill="#F8B7C7"/>
<path d="M59.3337 791.527C58.9076 791.562 58.4851 791.633 58.0708 791.739C57.2642 791.909 56.1074 792.185 54.6853 792.556C50.9652 793.552 47.3108 794.778 43.7433 796.228C40.1893 797.676 36.7298 799.346 33.3851 801.227C32.1009 801.949 31.0821 802.564 30.3922 803.01C30.016 803.22 29.6607 803.465 29.3309 803.742C29.7273 803.577 30.1105 803.382 30.4771 803.159C31.1882 802.755 32.2283 802.182 33.523 801.492C36.1232 800.113 39.7635 798.308 43.9131 796.621C47.4545 795.18 51.0677 793.923 54.7383 792.853C56.1392 792.439 57.2855 792.121 58.0814 791.909C58.5097 791.82 58.9289 791.692 59.3337 791.527Z" fill="#FF5E81"/>
<path d="M38.6491 821.699C46.1216 818.884 54.2909 818.494 61.9976 820.585C57.4871 826.571 49.7714 833.49 42.6501 835.868C35.4825 838.247 27.7645 838.413 20.5009 836.345C24.8633 829.68 31.2125 824.556 38.6491 821.699Z" fill="#F8B7C7"/>
<path d="M50.8433 824.289C50.4163 824.317 49.9932 824.388 49.5804 824.501C48.7738 824.66 47.6064 824.947 46.1842 825.318C42.4672 826.313 38.8163 827.539 35.2529 828.99C31.6946 830.436 28.2314 832.106 24.8841 833.989C23.5999 834.711 22.581 835.326 21.8912 835.772C21.5184 835.983 21.1634 836.225 20.8299 836.494C21.2249 836.337 21.605 836.146 21.9655 835.921C22.6766 835.517 23.7272 834.944 25.022 834.255C31.7784 830.646 38.892 827.751 46.2479 825.616C47.6594 825.202 48.8056 824.873 49.591 824.66C50.0168 824.567 50.4353 824.443 50.8433 824.289Z" fill="#FF5E81"/>
<path d="M2.74536 868.29C2.97581 868.062 3.18536 867.813 3.37152 867.547L5.0696 865.351L6.27949 863.759C6.70401 863.164 7.14975 862.496 7.63795 861.795C8.59312 860.373 9.76054 858.792 10.8218 856.924L12.5836 854.037C13.1991 853.029 13.751 851.915 14.3771 850.853C15.6401 848.656 16.7969 846.194 18.0493 843.636C20.6435 838.013 22.8698 832.228 24.7142 826.316C26.5009 820.368 27.8942 814.309 28.8851 808.179C29.2671 805.355 29.681 802.67 29.8509 800.134C29.957 798.871 30.095 797.65 30.1586 796.472L30.2966 793.087C30.4239 790.964 30.3603 788.98 30.3603 787.271C30.3603 786.411 30.3603 785.615 30.3603 784.883L30.2435 782.877L30.0631 780.107C30.0526 779.783 30.0172 779.46 29.957 779.141C29.9315 779.466 29.9315 779.793 29.957 780.118L30.0313 782.888L30.095 784.894C30.095 785.626 30.095 786.422 30.095 787.271C30.095 788.98 30.095 790.932 29.957 793.076L29.7766 796.451C29.7129 797.619 29.5537 798.829 29.4476 800.091C29.2459 802.617 28.8214 805.281 28.3863 808.094C26.4527 820.296 22.8382 832.171 17.646 843.382C16.4042 845.939 15.2687 848.391 14.0269 850.599C13.422 851.66 12.8701 852.795 12.2758 853.782L10.5459 856.68C9.48459 858.558 8.35963 860.15 7.4363 861.583C6.95872 862.294 6.53418 862.973 6.12027 863.568L4.95287 865.202L3.33968 867.462C3.12374 867.725 2.92521 868.002 2.74536 868.29Z" fill="#FF5E81"/>
<path d="M36.3887 767.754C35.8873 759.792 32.8906 752.191 27.824 746.029C24.2156 752.609 21.0742 762.479 21.8277 769.94C22.5985 777.456 25.6123 784.567 30.4772 790.349C34.7758 783.627 36.8444 775.72 36.3887 767.754Z" fill="#F8B7C7"/>
<path d="M29.0338 757.693C29.1752 758.097 29.2817 758.512 29.3522 758.934C29.5326 759.741 29.7555 760.908 29.9996 762.362C31.2366 769.949 31.5148 777.662 30.8274 785.318C30.6894 786.783 30.5515 787.971 30.4241 788.778C30.3806 789.204 30.3061 789.626 30.2012 790.041C30.1798 789.615 30.2011 789.189 30.2649 788.767C30.3286 787.94 30.4241 786.762 30.5196 785.297C30.7743 781.478 30.8345 777.649 30.7 773.824C30.5584 770.004 30.2254 766.192 29.7024 762.405C29.5008 760.951 29.3204 759.773 29.193 758.966C29.1022 758.547 29.0489 758.121 29.0338 757.693Z" fill="#FF5E81"/>
<path d="M110.149 810.842C107.989 814.236 106.793 818.153 106.688 822.174C106.583 826.196 107.574 830.169 109.554 833.671C110.361 835.04 111.677 836.483 113.237 836.25C114.797 836.016 115.678 834.042 115.964 832.366C116.544 828.845 116.393 825.244 115.522 821.784C114.652 818.324 113.079 815.08 110.902 812.254C113.956 817.309 118.439 821.346 123.786 823.854C125.813 824.798 128.498 825.403 130.058 823.854C131.619 822.304 130.992 819.736 129.963 817.836C128.101 814.585 125.248 812.014 121.82 810.502C118.392 808.989 114.569 808.614 110.913 809.431C114.265 809.14 117.448 807.831 120.035 805.68C122.622 803.529 124.49 800.638 125.389 797.396C126.026 794.902 125.612 791.569 123.16 790.752C121.674 790.264 120.061 790.964 118.734 791.813C116.171 793.444 113.99 795.609 112.342 798.161C110.693 800.712 109.615 803.59 109.183 806.597C110.1 803.114 109.977 799.438 108.828 796.025C107.679 792.611 105.556 789.608 102.719 787.388C100.894 785.998 98.4743 784.957 96.3517 785.934C93.7197 787.165 93.3589 790.773 93.8895 793.618C94.5953 797.153 96.081 800.486 98.2383 803.374C100.396 806.262 103.17 808.632 106.36 810.312C104.322 809.423 102.1 809.041 99.8826 809.196C97.6652 809.351 95.5182 810.04 93.6242 811.203C91.1514 812.774 89.1349 816.064 90.7375 818.505C92.34 820.946 95.7786 820.521 98.4212 819.566C103.209 817.859 107.558 815.111 111.157 811.522" fill="#F8B7C7"/>
<path d="M111.252 826.613C111.008 826.613 111.804 822.665 111.305 817.858C110.807 813.05 109.3 809.367 109.533 809.293C109.767 809.219 111.603 812.816 112.07 817.783C112.537 822.75 111.422 826.719 111.252 826.613Z" fill="#FF5E81"/>
<path d="M121.303 818.749C121.112 818.887 119.403 816.075 116.134 813.878C112.866 811.681 109.767 810.694 109.862 810.429C109.958 810.163 113.184 810.927 116.58 813.23C119.976 815.533 121.494 818.696 121.303 818.749Z" fill="#FF5E81"/>
<path d="M117.716 799.54C117.885 799.54 117.418 802.777 115.19 806.035C112.961 809.293 109.936 810.736 109.883 810.545C109.83 810.354 112.451 808.741 114.542 805.6C116.633 802.458 117.471 799.465 117.716 799.54Z" fill="#FF5E81"/>
<path d="M109.459 807.16C109.977 807.04 110.52 807.077 111.018 807.264C111.516 807.452 111.948 807.782 112.259 808.213C112.571 808.645 112.748 809.159 112.769 809.69C112.79 810.222 112.654 810.748 112.377 811.203C111.644 810.8 110.853 810.514 110.032 810.354C110 809.27 109.807 808.197 109.459 807.17" fill="#FAFAFA"/>
<path d="M99.1855 792.768C100.108 793.279 100.937 793.943 101.637 794.732C103.448 796.514 105.002 798.539 106.254 800.749C107.504 802.957 108.45 805.324 109.066 807.786C109.384 808.79 109.528 809.842 109.491 810.895C109.247 810.959 108.482 806.194 105.575 801.131C102.667 796.069 99.0157 792.949 99.1855 792.768Z" fill="#FF5E81"/>
<path d="M1718.58 27.6756C1724 33.531 1731.11 37.5369 1738.93 39.1269C1737.58 31.7509 1733.84 22.0507 1728.48 16.8397C1722.39 10.8646 1716.57 7.7975 1709.32 6.52394C1710.1 14.3751 1713.34 21.7784 1718.58 27.6756Z" fill="#F8B7C7"/>
<path d="M1730.64 30.8277C1730.26 30.6092 1729.91 30.357 1729.58 30.0742C1728.93 29.5647 1728.02 28.79 1726.91 27.8242C1724.05 25.2689 1721.34 22.5397 1718.81 19.6522C1716.28 16.7619 1713.93 13.7172 1711.78 10.5357C1710.96 9.31522 1710.33 8.307 1709.9 7.59593C1709.67 7.23983 1709.46 6.86738 1709.29 6.48155C1709.58 6.80743 1709.83 7.16317 1710.05 7.54285C1710.51 8.22208 1711.19 9.19847 1712.03 10.3977C1714.25 13.5179 1716.62 16.5252 1719.13 19.4082C1722.08 22.7725 1724.97 25.6273 1727.12 27.6332C1728.18 28.6308 1729.07 29.4268 1729.68 29.9787C1730.03 30.2301 1730.35 30.5144 1730.64 30.8277Z" fill="#FF5E81"/>
<path d="M1707.5 60.321C1712.92 66.1764 1720.03 70.1823 1727.85 71.7724C1726.5 64.3964 1722.7 54.7916 1717.4 49.4852C1712.06 44.1427 1705.24 40.5331 1697.81 39.1269C1698.74 47.032 1702.13 54.4453 1707.5 60.321Z" fill="#F8B7C7"/>
<path d="M1719.56 63.473C1719.18 63.2493 1718.83 62.9936 1718.5 62.7089C1717.85 62.2101 1716.94 61.4354 1715.83 60.4696C1712.97 57.9142 1710.26 55.1851 1707.73 52.2976C1705.2 49.4102 1702.85 46.3653 1700.71 43.1811C1699.88 41.9606 1699.25 40.9524 1698.83 40.2413C1698.59 39.8865 1698.39 39.5139 1698.21 39.1269C1698.5 39.4528 1698.75 39.8085 1698.97 40.1882C1699.43 40.8674 1700.11 41.8438 1700.95 43.0431C1703.17 46.1633 1705.54 49.1705 1708.05 52.0535C1711 55.4178 1713.89 58.2727 1716.04 60.2679C1717.1 61.2762 1717.99 62.0721 1718.6 62.624C1718.95 62.8755 1719.27 63.1598 1719.56 63.473Z" fill="#FF5E81"/>
<path d="M1677.86 66.0521C1670.39 68.8735 1662.22 69.2672 1654.51 67.1771C1659.03 61.1807 1666.75 54.2717 1673.86 51.8944C1681.03 49.5156 1688.75 49.3492 1696.02 51.4168C1691.65 58.0813 1685.3 63.2018 1677.86 66.0521Z" fill="#F8B7C7"/>
<path d="M1665.67 63.4732C1666.09 63.4378 1666.51 63.3668 1666.93 63.2609C1667.74 63.0911 1668.89 62.8152 1670.31 62.4437C1674.03 61.4482 1677.69 60.2218 1681.26 58.7717C1684.81 57.3239 1688.27 55.6544 1691.61 53.773C1692.9 53.0513 1693.92 52.4357 1694.61 51.99C1694.98 51.7801 1695.34 51.5349 1695.67 51.2577C1695.27 51.4227 1694.89 51.6178 1694.52 51.8414C1693.81 52.2447 1692.77 52.8178 1691.48 53.5076C1688.88 54.8873 1685.24 56.6915 1681.09 58.379C1677.55 59.8197 1673.93 61.0772 1670.26 62.1466C1668.86 62.5605 1667.71 62.8789 1666.92 63.0911C1666.49 63.1798 1666.07 63.3077 1665.67 63.4732Z" fill="#FF5E81"/>
<path d="M1686.35 33.3005C1678.88 36.1156 1670.71 36.5055 1663 34.4149C1667.51 28.4292 1675.23 21.5095 1682.35 19.1322C1689.52 16.7529 1697.24 16.5865 1704.5 18.6546C1700.14 25.3203 1693.79 30.4442 1686.35 33.3005Z" fill="#F8B7C7"/>
<path d="M1674.16 30.7109C1674.58 30.6828 1675.01 30.6117 1675.42 30.4987C1676.23 30.3395 1677.39 30.0529 1678.82 29.6815C1682.53 28.6873 1686.18 27.4609 1689.75 26.0094C1693.31 24.5636 1696.77 22.894 1700.12 21.0107C1701.4 20.289 1702.42 19.6735 1703.11 19.2277C1703.48 19.0165 1703.84 18.7751 1704.17 18.506C1703.78 18.6624 1703.39 18.8542 1703.03 19.0792C1702.32 19.4824 1701.27 20.0555 1699.98 20.7454C1693.22 24.3537 1686.11 27.249 1678.75 29.3843C1677.34 29.7982 1676.19 30.1272 1675.41 30.3395C1674.98 30.4331 1674.56 30.5572 1674.16 30.7109Z" fill="#FF5E81"/>
<path d="M1722.25 -13.2904C1722.02 -13.0619 1721.81 -12.8133 1721.63 -12.5475L1719.93 -10.3506L1718.72 -8.75867C1718.3 -8.16434 1717.85 -7.49572 1717.36 -6.79526C1716.41 -5.37313 1715.24 -3.7918 1714.18 -1.92392L1712.42 0.962804C1711.8 1.97103 1711.25 3.08539 1710.62 4.14669C1709.36 6.34357 1708.2 8.80576 1706.95 11.3635C1704.36 16.9866 1702.13 22.7722 1700.29 28.6838C1698.5 34.6316 1697.11 40.6906 1696.11 46.8214C1695.73 49.6444 1695.32 52.3295 1695.15 54.866C1695.04 56.129 1694.91 57.3494 1694.84 58.5275L1694.7 61.913C1694.58 64.0356 1694.64 66.0202 1694.64 67.7289C1694.64 68.5886 1694.64 69.3845 1694.64 70.1168L1694.76 72.1226L1694.94 74.8926C1694.95 75.2168 1694.98 75.5397 1695.04 75.8584C1695.07 75.5335 1695.07 75.207 1695.04 74.882L1694.97 72.1121L1694.91 70.1062C1694.91 69.3739 1694.91 68.5779 1694.91 67.7289C1694.91 66.0202 1694.91 64.0674 1695.04 61.9236L1695.22 58.5487C1695.29 57.3813 1695.45 56.1714 1695.55 54.9084C1695.75 52.3826 1696.18 49.7187 1696.61 46.9063C1698.55 34.7041 1702.16 22.8286 1707.35 11.6182C1708.6 9.0605 1709.73 6.60889 1710.97 4.40139C1711.58 3.34009 1712.13 2.20451 1712.72 1.2175L1714.45 -1.67981C1715.52 -3.5583 1716.64 -5.15028 1717.56 -6.58302C1718.04 -7.29409 1718.47 -7.97332 1718.88 -8.56764L1720.05 -10.202L1721.66 -12.4626C1721.88 -12.7253 1722.07 -13.0018 1722.25 -13.2904Z" fill="#FF5E81"/>
<path d="M1688.61 87.2462C1689.11 95.2077 1692.11 102.809 1697.18 108.971C1700.78 102.391 1703.93 92.5208 1703.17 85.0599C1702.4 77.5434 1699.39 70.4325 1694.52 64.6512C1690.22 71.3734 1688.16 79.2801 1688.61 87.2462Z" fill="#F8B7C7"/>
<path d="M1695.97 97.3073C1695.82 96.9032 1695.72 96.4878 1695.65 96.0655C1695.47 95.259 1695.24 94.0916 1695 92.6376C1693.76 85.0506 1693.49 77.3381 1694.17 69.6817C1694.31 68.2172 1694.45 67.0285 1694.58 66.2219C1694.62 65.7961 1694.69 65.374 1694.8 64.959C1694.82 65.3845 1694.8 65.8112 1694.74 66.2325C1694.67 67.0603 1694.58 68.2384 1694.48 69.703C1694.23 73.5216 1694.17 77.3508 1694.3 81.1756C1694.44 84.9963 1694.77 88.8076 1695.3 92.5951C1695.5 94.0491 1695.68 95.2271 1695.81 96.0337C1695.9 96.4527 1695.95 96.8789 1695.97 97.3073Z" fill="#FF5E81"/>
<path d="M1614.85 44.1575C1617.01 40.7639 1618.21 36.8468 1618.31 32.8256C1618.42 28.8044 1617.43 24.8304 1615.45 21.329C1614.64 19.96 1613.32 18.5166 1611.76 18.7501C1610.2 18.9836 1609.32 20.9576 1609.04 22.6344C1608.46 26.1546 1608.61 29.7564 1609.48 33.216C1610.35 36.6757 1611.92 39.9195 1614.1 42.746C1611.04 37.6908 1606.56 33.6542 1601.21 31.146C1599.19 30.2015 1596.5 29.5965 1594.94 31.146C1593.38 32.6955 1594.01 35.2638 1595.04 37.1635C1596.9 40.4153 1599.75 42.9857 1603.18 44.4982C1606.61 46.0108 1610.43 46.386 1614.09 45.569C1610.74 45.8602 1607.55 47.1689 1604.96 49.32C1602.38 51.471 1600.51 54.3615 1599.61 57.6041C1598.97 60.0981 1599.39 63.4306 1601.84 64.2478C1603.33 64.736 1604.94 64.0356 1606.27 63.1865C1608.83 61.5562 1611.01 59.3911 1612.66 56.8394C1614.31 54.2876 1615.38 51.4097 1615.82 48.4027C1614.9 51.8859 1615.02 55.5615 1616.17 58.9753C1617.32 62.3892 1619.44 65.3918 1622.28 67.6121C1624.11 69.0024 1626.53 70.0425 1628.65 69.0661C1631.28 67.835 1631.64 64.2266 1631.11 61.3823C1630.4 57.8473 1628.92 54.5142 1626.76 51.6262C1624.6 48.7381 1621.83 46.3679 1618.64 44.6881C1620.68 45.5764 1622.9 45.9593 1625.12 45.8041C1627.33 45.6489 1629.48 44.9602 1631.38 43.7966C1633.85 42.2259 1635.87 38.9359 1634.26 36.495C1632.66 34.054 1629.22 34.4785 1626.58 35.4337C1621.79 37.1413 1617.44 39.8887 1613.84 43.4783" fill="#F8B7C7"/>
<path d="M1613.75 28.3867C1613.99 28.3867 1613.2 32.3347 1613.69 37.1423C1614.19 41.95 1615.7 45.6327 1615.47 45.707C1615.23 45.7813 1613.4 42.1835 1612.93 37.2166C1612.46 32.2498 1613.58 28.2805 1613.75 28.3867Z" fill="#FF5E81"/>
<path d="M1603.7 36.2508C1603.89 36.1128 1605.6 38.9253 1608.87 41.1222C1612.13 43.319 1615.23 44.306 1615.14 44.5714C1615.04 44.8367 1611.82 44.0725 1608.42 41.7695C1605.02 39.4665 1603.51 36.3039 1603.7 36.2508Z" fill="#FF5E81"/>
<path d="M1607.28 55.4603C1607.11 55.4603 1607.58 52.2234 1609.81 48.9652C1612.04 45.707 1615.06 44.2636 1615.12 44.4547C1615.17 44.6457 1612.55 46.2588 1610.46 49.4003C1608.37 52.5417 1607.53 55.5346 1607.28 55.4603Z" fill="#FF5E81"/>
<path d="M1615.54 47.8403C1615.02 47.9595 1614.48 47.9231 1613.98 47.7357C1613.48 47.5483 1613.05 47.2182 1612.74 46.7866C1612.43 46.3551 1612.25 45.8413 1612.23 45.3095C1612.21 44.7777 1612.35 44.2515 1612.62 43.7967C1613.36 44.1995 1614.15 44.4859 1614.97 44.6458C1615 45.7297 1615.19 46.8028 1615.54 47.8297" fill="#FAFAFA"/>
<path d="M1625.81 62.2315C1624.89 61.7205 1624.06 61.0566 1623.36 60.2681C1621.55 58.4863 1620 56.461 1618.75 54.2505C1617.5 52.0426 1616.55 49.6756 1615.93 47.2141C1615.62 46.2094 1615.47 45.1577 1615.51 44.1045C1615.75 44.0409 1616.52 48.8061 1619.43 53.8685C1622.33 58.9309 1625.98 62.0511 1625.81 62.2315Z" fill="#FF5E81"/>
<path d="M1619.22 142.493C1619.51 142.493 1619.53 137.824 1621.26 132.411C1622.99 126.998 1625.61 123.125 1625.37 122.976C1625.12 122.827 1622.18 126.542 1620.39 132.135C1618.6 137.728 1619 142.525 1619.22 142.493Z" fill="#FF5E81"/>
<path d="M1609.54 130.978C1609.74 131.18 1612.38 128.357 1616.66 126.606C1620.95 124.854 1624.76 124.483 1624.72 124.154C1624.68 123.825 1620.78 123.931 1616.31 125.767C1611.85 127.603 1609.34 130.872 1609.54 130.978Z" fill="#FF5E81"/>
<path d="M1618.3 109.742C1618.1 109.742 1617.86 113.531 1619.65 117.818C1621.43 122.106 1624.56 124.494 1624.67 124.334C1624.77 124.175 1622.14 121.649 1620.49 117.521C1618.83 113.393 1618.6 109.71 1618.3 109.742Z" fill="#FF5E81"/>
<path d="M1625.97 120.493C1625.4 120.231 1624.77 120.143 1624.15 120.24C1623.53 120.336 1622.96 120.613 1622.49 121.035C1622.03 121.458 1621.7 122.007 1621.55 122.615C1621.4 123.222 1621.43 123.861 1621.64 124.451C1622.58 124.155 1623.56 124.015 1624.54 124.037C1624.84 122.791 1625.32 121.597 1625.97 120.493Z" fill="#FAFAFA"/>
<path d="M1744.47 380.234C1737.48 384.08 1729.46 385.632 1721.54 384.67C1725.16 378.09 1731.8 370.152 1738.52 366.777C1745.28 363.403 1752.9 362.138 1760.39 363.147C1757.01 370.374 1751.44 376.352 1744.47 380.234Z" fill="#F8B7C7"/>
<path d="M1748.2 346.601C1741.22 350.449 1733.19 351.998 1725.28 351.027C1728.9 344.458 1735.55 336.519 1742.26 333.144C1749.02 329.77 1756.63 328.506 1764.12 329.515C1760.74 336.739 1755.17 342.717 1748.2 346.601Z" fill="#F8B7C7"/>
<path d="M1662.3 293.972C1659.38 302.382 1659.18 311.497 1661.73 320.027C1668.29 314.816 1675.78 305.996 1678.22 297.994C1680.67 289.921 1680.63 281.297 1678.11 273.245C1670.8 278.324 1665.27 285.575 1662.3 293.972Z" fill="#F8B7C7"/>
<path d="M1665.54 307.503C1665.56 307.024 1665.63 306.549 1665.74 306.081C1665.9 305.179 1666.17 303.874 1666.56 302.282C1668.56 293.936 1671.6 285.875 1675.61 278.286C1676.37 276.832 1677.03 275.675 1677.51 274.89C1677.74 274.468 1678 274.067 1678.29 273.69C1678.14 274.153 1677.95 274.604 1677.73 275.038C1677.31 275.845 1676.67 277.023 1675.97 278.498C1674.51 281.427 1672.61 285.545 1670.83 290.225C1669.06 294.906 1667.78 299.246 1666.94 302.409C1666.51 304.001 1666.2 305.285 1665.98 306.177C1665.87 306.63 1665.72 307.074 1665.54 307.503Z" fill="#FF5E81"/>
<path d="M1696.25 282.924C1695.73 290.689 1697.67 298.421 1701.79 305.02C1706.11 299.109 1710.39 289.95 1710.6 282.637C1710.8 275.27 1708.77 268.014 1704.78 261.815C1699.79 267.779 1696.81 275.166 1696.25 282.924Z" fill="#F8B7C7"/>
<path d="M1702.14 293.579C1702.06 293.173 1702.01 292.761 1701.99 292.348C1701.92 291.541 1701.84 290.385 1701.8 288.952C1701.68 285.206 1701.79 281.455 1702.14 277.723C1702.5 273.995 1703.08 270.291 1703.88 266.633C1704.2 265.232 1704.49 264.107 1704.71 263.332C1704.8 262.927 1704.93 262.53 1705.08 262.144C1705.05 262.56 1704.98 262.973 1704.87 263.375C1704.69 264.16 1704.45 265.296 1704.18 266.697C1703.45 270.357 1702.91 274.051 1702.56 277.766C1702.15 282.117 1702.07 286.076 1702.09 288.941L1702.15 292.337C1702.19 292.751 1702.18 293.166 1702.14 293.579Z" fill="#FF5E81"/>
<path d="M1674.31 265.89C1666.89 263.569 1660.39 258.972 1655.73 252.751C1662.8 250.862 1672.88 250.193 1679.78 252.645C1686.72 255.123 1692.75 259.636 1697.09 265.593C1689.72 268.082 1681.75 268.186 1674.31 265.89Z" fill="#F8B7C7"/>
<path d="M1666.5 256.572C1666.84 256.805 1667.19 257.004 1667.56 257.166C1668.28 257.527 1669.34 258.015 1670.65 258.578C1677.55 261.517 1684.79 263.578 1692.21 264.712C1693.63 264.924 1694.79 265.062 1695.58 265.137C1696 265.199 1696.42 265.224 1696.83 265.211C1696.43 265.105 1696.02 265.027 1695.6 264.977C1694.81 264.861 1693.67 264.67 1692.26 264.415C1689.44 263.916 1685.56 263.109 1681.35 261.921C1677.14 260.732 1673.43 259.363 1670.74 258.302C1669.4 257.771 1668.33 257.336 1667.55 257.018C1667.21 256.846 1666.86 256.697 1666.5 256.572Z" fill="#FF5E81"/>
<path d="M1642.71 273.51C1636.29 269.437 1631.31 263.443 1628.49 256.381C1635.63 256.381 1645.32 258.312 1651.21 262.366C1657.13 266.475 1661.67 272.265 1664.26 278.986C1656.68 279.467 1649.14 277.551 1642.71 273.51Z" fill="#F8B7C7"/>
<path d="M1637.68 262.738C1637.95 263.045 1638.25 263.325 1638.57 263.576C1639.15 264.096 1640.02 264.818 1641.13 265.699C1644 267.953 1647.01 270.027 1650.14 271.908C1653.28 273.781 1656.53 275.461 1659.88 276.938C1661.18 277.501 1662.23 277.925 1662.96 278.201C1663.33 278.369 1663.72 278.497 1664.12 278.583C1663.78 278.38 1663.42 278.203 1663.05 278.052C1662.33 277.734 1661.3 277.267 1660.04 276.673C1653.42 273.605 1647.15 269.856 1641.31 265.487C1640.18 264.648 1639.28 263.958 1638.67 263.47C1638.36 263.196 1638.03 262.951 1637.68 262.738Z" fill="#FF5E81"/>
<path d="M1758.11 223.788L1757.84 224.011L1757.05 224.691L1754.08 227.333L1751.96 229.254L1749.35 231.462C1747.46 233.032 1745.36 234.879 1742.89 236.768L1739.08 239.761C1737.75 240.822 1736.31 241.799 1734.84 242.881C1731.94 245.078 1728.69 247.211 1725.29 249.504C1717.88 254.359 1710.23 258.829 1702.36 262.897C1694.46 266.875 1686.33 270.418 1678.04 273.51C1674.19 274.847 1670.55 276.206 1667.05 277.203C1665.31 277.724 1663.65 278.265 1662.02 278.711C1660.4 279.156 1658.84 279.549 1657.33 279.931C1654.35 280.769 1651.61 281.289 1649.21 281.82C1648.02 282.075 1646.9 282.308 1645.87 282.531C1644.84 282.754 1643.89 282.871 1643.04 283.009C1641.36 283.306 1640.04 283.539 1639.11 283.699C1638.7 283.784 1638.35 283.847 1638.05 283.89L1637.71 283.975C1637.83 283.994 1637.94 283.994 1638.06 283.975C1638.33 283.975 1638.67 283.89 1639.12 283.837C1640.06 283.699 1641.38 283.508 1643.06 283.253C1643.92 283.125 1644.87 282.977 1645.9 282.818C1646.93 282.659 1648.03 282.393 1649.27 282.149C1651.68 281.65 1654.44 281.162 1657.42 280.345C1658.93 279.973 1660.5 279.57 1662.13 279.167C1663.76 278.764 1665.44 278.19 1667.18 277.681C1670.7 276.705 1674.35 275.357 1678.22 274.03C1686.55 270.951 1694.7 267.408 1702.63 263.417C1710.52 259.339 1718.18 254.847 1725.6 249.96C1728.97 247.646 1732.21 245.492 1735.09 243.274C1736.55 242.213 1737.98 241.151 1739.34 240.09L1743.13 237.065C1745.58 235.166 1747.66 233.298 1749.5 231.706L1752.09 229.456L1754.21 227.503L1757.11 224.775C1757.41 224.468 1757.67 224.234 1757.86 224.054C1758.05 223.873 1758.12 223.799 1758.11 223.788Z" fill="#FF5E81"/>
<path d="M1674.77 361.078C1675.3 357.091 1674.73 353.035 1673.13 349.347C1671.52 345.658 1668.95 342.475 1665.68 340.138C1664.37 339.226 1662.59 338.472 1661.26 339.353C1659.93 340.234 1659.98 342.388 1660.42 344.023C1661.38 347.457 1663.04 350.659 1665.28 353.428C1667.53 356.197 1670.32 358.476 1673.49 360.122C1668.58 356.83 1662.82 355.061 1656.91 355.039C1654.67 355.039 1651.98 355.623 1651.25 357.735C1650.52 359.847 1652.14 361.874 1653.87 363.147C1656.93 365.311 1660.61 366.438 1664.35 366.362C1668.1 366.285 1671.73 365.01 1674.7 362.723C1671.78 364.403 1669.44 366.935 1668.01 369.98C1666.57 373.024 1666.1 376.436 1666.65 379.756C1667.13 382.282 1668.91 385.127 1671.47 384.829C1673.03 384.649 1674.19 383.344 1675.05 382.028C1676.68 379.465 1677.74 376.581 1678.15 373.571C1678.57 370.562 1678.32 367.498 1677.44 364.591C1678.09 368.136 1679.75 371.417 1682.23 374.028C1684.71 376.64 1687.9 378.469 1691.41 379.289C1693.65 379.767 1696.34 379.682 1697.78 377.92C1699.64 375.692 1698.45 372.274 1696.72 369.908C1694.6 366.984 1691.86 364.572 1688.69 362.847C1685.52 361.123 1682 360.13 1678.4 359.942C1680.63 359.888 1682.81 359.297 1684.75 358.217C1686.7 357.138 1688.36 355.603 1689.59 353.744C1691.17 351.282 1691.6 347.44 1689.12 345.901C1686.64 344.362 1683.7 346.219 1681.69 348.172C1678.07 351.736 1675.29 356.061 1673.55 360.834" fill="#F8B7C7"/>
<path d="M1667.12 347.206C1667.35 347.143 1668.28 351.006 1670.76 355.156C1673.24 359.305 1676.16 362.001 1675.99 362.181C1675.82 362.362 1672.62 359.857 1670.1 355.548C1667.59 351.239 1666.92 347.206 1667.12 347.206Z" fill="#FF5E81"/>
<path d="M1661.32 358.626C1661.45 358.414 1664.18 360.25 1668.07 360.865C1671.97 361.481 1675.2 361.067 1675.21 361.332C1675.22 361.598 1672.02 362.287 1667.94 361.629C1663.85 360.971 1661.18 358.753 1661.32 358.626Z" fill="#FF5E81"/>
<path d="M1672.69 374.524C1672.52 374.588 1671.63 371.457 1672.23 367.562C1672.84 363.667 1675.01 361.078 1675.14 361.194C1675.27 361.311 1673.57 363.911 1673.02 367.647C1672.47 371.383 1672.94 374.482 1672.69 374.524Z" fill="#FF5E81"/>
<path d="M1676.96 364.187C1676.54 364.514 1676.03 364.71 1675.5 364.75C1674.97 364.79 1674.44 364.673 1673.97 364.412C1673.51 364.151 1673.13 363.759 1672.89 363.285C1672.64 362.811 1672.55 362.276 1672.61 361.746C1673.44 361.81 1674.28 361.735 1675.09 361.523C1675.58 362.497 1676.21 363.394 1676.96 364.187Z" fill="#FAFAFA"/>
<path d="M1692.33 372.837C1691.28 372.771 1690.25 372.52 1689.29 372.094C1684.48 370.38 1680.25 367.368 1677.05 363.391C1676.34 362.618 1675.76 361.728 1675.35 360.759C1675.55 360.6 1678.25 364.601 1683.03 367.955C1687.8 371.309 1692.43 372.603 1692.33 372.837Z" fill="#FF5E81"/>
<path d="M1619.25 290.756C1621.54 286.617 1622.66 281.935 1622.49 277.209C1622.32 272.483 1620.87 267.892 1618.3 263.927C1617.24 262.377 1615.61 260.743 1613.79 261.178C1611.96 261.613 1611.08 263.948 1610.87 265.932C1610.45 270.105 1610.9 274.319 1612.18 278.313C1613.45 282.307 1615.54 285.997 1618.3 289.154C1614.33 283.439 1608.75 279.035 1602.27 276.503C1599.83 275.548 1596.64 275.038 1594.93 277.034C1593.22 279.029 1594.14 281.947 1595.49 284.091C1597.91 287.776 1601.45 290.589 1605.59 292.117C1609.73 293.645 1614.24 293.807 1618.48 292.582C1614.57 293.168 1610.94 294.933 1608.06 297.641C1605.18 300.349 1603.2 303.872 1602.38 307.737C1601.82 310.709 1602.56 314.593 1605.49 315.357C1607.27 315.824 1609.11 314.879 1610.6 313.807C1613.48 311.702 1615.88 309.001 1617.62 305.887C1619.36 302.774 1620.4 299.321 1620.69 295.765C1619.87 299.92 1620.29 304.222 1621.89 308.142C1623.49 312.061 1626.21 315.425 1629.7 317.819C1631.95 319.316 1634.92 320.356 1637.29 319.05C1640.28 317.405 1640.47 313.149 1639.59 309.849C1638.51 305.733 1636.52 301.913 1633.76 298.671C1631.01 295.429 1627.56 292.847 1623.67 291.117C1626.12 292.006 1628.76 292.288 1631.34 291.938C1633.93 291.589 1636.4 290.619 1638.53 289.111C1641.3 287.095 1643.42 283.072 1641.36 280.324C1639.3 277.575 1635.29 278.35 1632.27 279.644C1626.78 281.996 1621.88 285.542 1617.94 290.024" fill="#F8B7C7"/>
<path d="M1616.78 272.29C1617.07 272.29 1616.43 276.949 1617.38 282.552C1618.32 288.156 1620.36 292.359 1620.1 292.475C1619.85 292.592 1617.41 288.496 1616.47 282.701C1615.54 276.906 1616.57 272.215 1616.78 272.29Z" fill="#FF5E81"/>
<path d="M1605.56 282.308C1605.79 282.138 1607.99 285.301 1611.99 287.615C1616 289.928 1619.7 290.884 1619.61 291.181C1619.53 291.478 1615.69 290.852 1611.53 288.4C1607.37 285.949 1605.36 282.383 1605.56 282.308Z" fill="#FF5E81"/>
<path d="M1611.23 304.585C1611.03 304.585 1611.34 300.764 1613.7 296.763C1616.07 292.762 1619.52 290.852 1619.59 291.085C1619.67 291.319 1616.72 293.388 1614.49 297.23C1612.26 301.072 1611.52 304.649 1611.23 304.585Z" fill="#FF5E81"/>
<path d="M1620.35 295.023C1619.75 295.201 1619.11 295.198 1618.51 295.015C1617.91 294.831 1617.38 294.476 1616.98 293.992C1616.58 293.509 1616.34 292.918 1616.27 292.296C1616.21 291.673 1616.33 291.045 1616.62 290.491C1617.51 290.916 1618.46 291.192 1619.43 291.308C1619.55 292.585 1619.86 293.837 1620.35 295.023Z" fill="#FAFAFA"/>
<path d="M1633.48 311.123C1632.35 310.594 1631.33 309.876 1630.45 309C1625.93 305.058 1622.58 299.952 1620.76 294.237C1620.31 293.081 1620.07 291.857 1620.03 290.618C1620.32 290.533 1621.56 296.063 1625.34 301.783C1629.11 307.504 1633.67 310.91 1633.48 311.123Z" fill="#FF5E81"/>
<path d="M1625.25 208.421C1628.4 205.899 1630.79 202.568 1632.19 198.785C1633.58 195.002 1633.92 190.91 1633.16 186.951C1632.84 185.391 1632.1 183.608 1630.51 183.332C1628.93 183.056 1627.48 184.637 1626.67 186.123C1624.99 189.271 1623.98 192.73 1623.69 196.286C1623.4 199.842 1623.85 203.42 1625 206.797C1623.72 201.024 1620.77 195.758 1616.51 191.663C1614.89 190.124 1612.55 188.691 1610.55 189.7C1608.56 190.708 1608.37 193.319 1608.75 195.441C1609.46 199.123 1611.33 202.48 1614.09 205.02C1616.85 207.561 1620.34 209.15 1624.07 209.556C1620.8 208.755 1617.37 208.971 1614.23 210.176C1611.08 211.38 1608.38 213.515 1606.49 216.296C1605.08 218.418 1604.36 221.751 1606.49 223.3C1607.74 224.245 1609.49 224.107 1611.01 223.746C1613.96 223.027 1616.72 221.678 1619.1 219.791C1621.48 217.904 1623.43 215.524 1624.8 212.815C1622.82 215.82 1621.76 219.339 1621.74 222.941C1621.73 226.542 1622.77 230.068 1624.74 233.085C1626.03 234.985 1628.03 236.768 1630.31 236.503C1633.19 236.184 1634.7 232.894 1635.11 230.018C1635.59 226.433 1635.27 222.785 1634.15 219.343C1633.04 215.901 1631.17 212.752 1628.68 210.13C1630.32 211.635 1632.3 212.718 1634.46 213.285C1636.61 213.853 1638.87 213.888 1641.04 213.388C1643.89 212.698 1646.86 210.204 1646.13 207.402C1645.39 204.6 1641.96 203.932 1639.15 203.932C1634.07 203.999 1629.07 205.199 1624.52 207.444" fill="#F8B7C7"/>
<path d="M1629.3 193.096C1629.52 193.212 1627.51 196.651 1626.44 201.363C1625.37 206.075 1625.6 210.045 1625.38 210.055C1625.15 210.066 1624.55 206.044 1625.71 201.193C1626.86 196.343 1629.16 192.979 1629.3 193.096Z" fill="#FF5E81"/>
<path d="M1617.24 197.341C1617.47 197.277 1618.17 200.525 1620.56 203.624C1622.95 206.723 1625.57 208.697 1625.4 208.93C1625.23 209.164 1622.42 207.391 1619.94 204.123C1617.47 200.854 1617.05 197.33 1617.24 197.341Z" fill="#FF5E81"/>
<path d="M1614.47 216.667C1614.3 216.603 1615.78 213.695 1618.95 211.361C1622.11 209.026 1625.43 208.601 1625.42 208.803C1625.41 209.004 1622.41 209.673 1619.4 211.987C1616.4 214.3 1614.67 216.837 1614.47 216.667Z" fill="#FF5E81"/>
<path d="M1624.73 212.135C1624.2 212.079 1623.7 211.868 1623.29 211.529C1622.88 211.191 1622.58 210.739 1622.42 210.231C1622.27 209.722 1622.26 209.179 1622.41 208.669C1622.56 208.158 1622.86 207.703 1623.27 207.36C1623.83 207.979 1624.49 208.506 1625.22 208.92C1624.89 209.95 1624.73 211.024 1624.73 212.104" fill="#FAFAFA"/>
<path d="M1629.82 229.052C1629.11 228.279 1628.53 227.384 1628.13 226.41C1625.86 221.846 1624.88 216.748 1625.3 211.668C1625.33 210.613 1625.53 209.57 1625.9 208.58C1626.15 208.58 1625.34 213.356 1626.47 219.087C1627.61 224.818 1630.05 228.946 1629.82 229.052Z" fill="#FF5E81"/>
<path d="M1619.22 712.507C1619.51 712.507 1619.53 717.176 1621.26 722.589C1622.99 728.002 1625.61 731.875 1625.37 732.024C1625.12 732.173 1622.18 728.458 1620.39 722.865C1618.6 717.272 1619 712.475 1619.22 712.507Z" fill="#FF5E81"/>
<path d="M1609.54 724.022C1609.74 723.82 1612.38 726.643 1616.66 728.394C1620.95 730.146 1624.76 730.517 1624.72 730.846C1624.68 731.175 1620.78 731.069 1616.31 729.233C1611.85 727.397 1609.34 724.128 1609.54 724.022Z" fill="#FF5E81"/>
<path d="M1618.3 745.258C1618.1 745.258 1617.86 741.469 1619.65 737.182C1621.43 732.894 1624.56 730.506 1624.67 730.665C1624.77 730.825 1622.14 733.351 1620.49 737.479C1618.83 741.607 1618.6 745.29 1618.3 745.258Z" fill="#FF5E81"/>
<path d="M1625.97 734.507C1625.4 734.769 1624.77 734.857 1624.15 734.76C1623.53 734.664 1622.96 734.387 1622.49 733.964C1622.03 733.542 1621.7 732.993 1621.55 732.385C1621.4 731.778 1621.43 731.139 1621.64 730.549C1622.58 730.845 1623.56 730.985 1624.54 730.963C1624.84 732.209 1625.32 733.403 1625.97 734.507Z" fill="#FAFAFA"/>
<path d="M1744.47 474.766C1737.48 470.92 1729.46 469.368 1721.54 470.33C1725.16 476.91 1731.8 484.848 1738.52 488.223C1745.28 491.597 1752.9 492.862 1760.39 491.853C1757.01 484.626 1751.44 478.648 1744.47 474.766Z" fill="#F8B7C7"/>
<path d="M1748.2 508.398C1741.22 504.55 1733.19 503.002 1725.28 503.973C1728.9 510.542 1735.55 518.481 1742.26 521.856C1749.02 525.229 1756.63 526.494 1764.12 525.485C1760.74 518.261 1755.17 512.283 1748.2 508.398Z" fill="#F8B7C7"/>
<path d="M1662.3 561.028C1659.38 552.618 1659.18 543.503 1661.73 534.973C1668.29 540.184 1675.78 549.004 1678.22 557.006C1680.67 565.079 1680.63 573.703 1678.11 581.755C1670.8 576.676 1665.27 569.425 1662.3 561.028Z" fill="#F8B7C7"/>
<path d="M1665.54 547.497C1665.56 547.975 1665.63 548.451 1665.74 548.919C1665.9 549.821 1666.17 551.126 1666.56 552.718C1668.56 561.064 1671.6 569.125 1675.61 576.714C1676.37 578.168 1677.03 579.325 1677.51 580.11C1677.74 580.532 1678 580.933 1678.29 581.309C1678.14 580.847 1677.95 580.396 1677.73 579.962C1677.31 579.155 1676.67 577.977 1675.97 576.502C1674.51 573.573 1672.61 569.455 1670.83 564.774C1669.06 560.094 1667.78 555.753 1666.94 552.591C1666.51 550.999 1666.2 549.715 1665.98 548.823C1665.87 548.37 1665.72 547.926 1665.54 547.497Z" fill="#FF5E81"/>
<path d="M1696.25 572.076C1695.73 564.311 1697.67 556.579 1701.79 549.98C1706.11 555.891 1710.39 565.05 1710.6 572.363C1710.8 579.73 1708.77 586.986 1704.78 593.185C1699.79 587.22 1696.81 579.834 1696.25 572.076Z" fill="#F8B7C7"/>
<path d="M1702.14 561.421C1702.06 561.827 1702.01 562.239 1701.99 562.652C1701.92 563.459 1701.84 564.615 1701.8 566.048C1701.68 569.794 1701.79 573.544 1702.14 577.277C1702.5 581.005 1703.08 584.709 1703.88 588.367C1704.2 589.768 1704.49 590.893 1704.71 591.668C1704.8 592.073 1704.93 592.47 1705.08 592.856C1705.05 592.44 1704.98 592.027 1704.87 591.625C1704.69 590.84 1704.45 589.704 1704.18 588.303C1703.45 584.643 1702.91 580.949 1702.56 577.234C1702.15 572.883 1702.07 568.924 1702.09 566.059L1702.15 562.663C1702.19 562.249 1702.18 561.833 1702.14 561.421Z" fill="#FF5E81"/>
<path d="M1674.31 589.11C1666.89 591.431 1660.39 596.027 1655.73 602.249C1662.8 604.138 1672.88 604.807 1679.78 602.355C1686.72 599.876 1692.75 595.364 1697.09 589.407C1689.72 586.918 1681.75 586.814 1674.31 589.11Z" fill="#F8B7C7"/>
<path d="M1666.5 598.428C1666.84 598.195 1667.19 597.996 1667.56 597.834C1668.28 597.473 1669.34 596.985 1670.65 596.422C1677.55 593.483 1684.79 591.422 1692.21 590.288C1693.63 590.076 1694.79 589.938 1695.58 589.863C1696 589.801 1696.42 589.776 1696.83 589.789C1696.43 589.895 1696.02 589.973 1695.6 590.023C1694.81 590.139 1693.67 590.33 1692.26 590.585C1689.44 591.084 1685.56 591.891 1681.35 593.079C1677.14 594.268 1673.43 595.637 1670.74 596.698C1669.4 597.229 1668.33 597.664 1667.55 597.982C1667.21 598.154 1666.86 598.303 1666.5 598.428Z" fill="#FF5E81"/>
<path d="M1642.71 581.49C1636.29 585.563 1631.31 591.557 1628.49 598.619C1635.63 598.619 1645.32 596.688 1651.21 592.633C1657.13 588.525 1661.67 582.735 1664.26 576.014C1656.68 575.533 1649.14 577.449 1642.71 581.49Z" fill="#F8B7C7"/>
<path d="M1637.68 592.262C1637.95 591.955 1638.25 591.675 1638.57 591.423C1639.15 590.903 1640.02 590.182 1641.13 589.301C1644 587.047 1647.01 584.973 1650.14 583.092C1653.28 581.219 1656.53 579.539 1659.88 578.062C1661.18 577.499 1662.23 577.075 1662.96 576.799C1663.33 576.631 1663.72 576.503 1664.12 576.417C1663.78 576.62 1663.42 576.797 1663.05 576.947C1662.33 577.266 1661.3 577.733 1660.04 578.327C1653.42 581.395 1647.15 585.144 1641.31 589.513C1640.18 590.352 1639.28 591.041 1638.67 591.53C1638.36 591.804 1638.03 592.049 1637.68 592.262Z" fill="#FF5E81"/>
<path d="M1758.11 631.211L1757.84 630.989L1757.05 630.309L1754.08 627.667L1751.96 625.746L1749.35 623.538C1747.46 621.968 1745.36 620.121 1742.89 618.232L1739.08 615.239C1737.75 614.178 1736.31 613.201 1734.84 612.119C1731.94 609.922 1728.69 607.789 1725.29 605.496C1717.88 600.641 1710.23 596.171 1702.36 592.103C1694.46 588.125 1686.33 584.582 1678.04 581.49C1674.19 580.153 1670.55 578.794 1667.05 577.796C1665.31 577.276 1663.65 576.735 1662.02 576.289C1660.4 575.844 1658.84 575.451 1657.33 575.069C1654.35 574.231 1651.61 573.71 1649.21 573.18C1648.02 572.925 1646.9 572.692 1645.87 572.469C1644.84 572.246 1643.89 572.129 1643.04 571.991C1641.36 571.694 1640.04 571.461 1639.11 571.301C1638.7 571.216 1638.35 571.153 1638.05 571.11L1637.71 571.025C1637.83 571.006 1637.94 571.006 1638.06 571.025C1638.33 571.025 1638.67 571.11 1639.12 571.163C1640.06 571.301 1641.38 571.492 1643.06 571.747C1643.92 571.874 1644.87 572.023 1645.9 572.182C1646.93 572.341 1648.03 572.607 1649.27 572.851C1651.68 573.35 1654.44 573.838 1657.42 574.655C1658.93 575.026 1660.5 575.43 1662.13 575.833C1663.76 576.236 1665.44 576.809 1667.18 577.319C1670.7 578.295 1674.35 579.643 1678.22 580.97C1686.55 584.049 1694.7 587.592 1702.63 591.583C1710.52 595.661 1718.18 600.153 1725.6 605.04C1728.97 607.354 1732.21 609.508 1735.09 611.726C1736.55 612.787 1737.98 613.849 1739.34 614.91L1743.13 617.935C1745.58 619.834 1747.66 621.702 1749.5 623.294L1752.09 625.544L1754.21 627.497L1757.11 630.224C1757.41 630.532 1757.67 630.766 1757.86 630.946C1758.05 631.127 1758.12 631.201 1758.11 631.211Z" fill="#FF5E81"/>
<path d="M1674.77 493.922C1675.3 497.909 1674.73 501.965 1673.13 505.653C1671.52 509.342 1668.95 512.525 1665.68 514.862C1664.37 515.774 1662.59 516.528 1661.26 515.647C1659.93 514.766 1659.98 512.612 1660.42 510.977C1661.38 507.542 1663.04 504.341 1665.28 501.572C1667.53 498.803 1670.32 496.524 1673.49 494.877C1668.58 498.17 1662.82 499.939 1656.91 499.961C1654.67 499.961 1651.98 499.377 1651.25 497.265C1650.52 495.153 1652.14 493.126 1653.87 491.853C1656.93 489.688 1660.61 488.562 1664.35 488.638C1668.1 488.715 1671.73 489.99 1674.7 492.277C1671.78 490.597 1669.44 488.064 1668.01 485.02C1666.57 481.976 1666.1 478.564 1666.65 475.244C1667.13 472.718 1668.91 469.873 1671.47 470.171C1673.03 470.351 1674.19 471.656 1675.05 472.972C1676.68 475.535 1677.74 478.419 1678.15 481.429C1678.57 484.438 1678.32 487.502 1677.44 490.409C1678.09 486.864 1679.75 483.583 1682.23 480.972C1684.71 478.36 1687.9 476.531 1691.41 475.71C1693.65 475.233 1696.34 475.318 1697.78 477.08C1699.64 479.308 1698.45 482.726 1696.72 485.092C1694.6 488.016 1691.86 490.428 1688.69 492.153C1685.52 493.877 1682 494.87 1678.4 495.058C1680.63 495.112 1682.81 495.703 1684.75 496.783C1686.7 497.862 1688.36 499.397 1689.59 501.256C1691.17 503.718 1691.6 507.56 1689.12 509.099C1686.64 510.638 1683.7 508.78 1681.69 506.828C1678.07 503.264 1675.29 498.939 1673.55 494.166" fill="#F8B7C7"/>
<path d="M1667.12 507.794C1667.35 507.857 1668.28 503.994 1670.76 499.844C1673.24 495.695 1676.16 492.999 1675.99 492.819C1675.82 492.638 1672.62 495.143 1670.1 499.452C1667.59 503.761 1666.92 507.794 1667.12 507.794Z" fill="#FF5E81"/>
<path d="M1661.32 496.374C1661.45 496.586 1664.18 494.75 1668.07 494.135C1671.97 493.519 1675.2 493.933 1675.21 493.668C1675.22 493.402 1672.02 492.712 1667.94 493.37C1663.85 494.028 1661.18 496.247 1661.32 496.374Z" fill="#FF5E81"/>
<path d="M1672.69 480.476C1672.52 480.412 1671.63 483.543 1672.23 487.438C1672.84 491.333 1675.01 493.922 1675.14 493.806C1675.27 493.689 1673.57 491.089 1673.02 487.353C1672.47 483.617 1672.94 480.518 1672.69 480.476Z" fill="#FF5E81"/>
<path d="M1676.96 490.813C1676.54 490.486 1676.03 490.29 1675.5 490.25C1674.97 490.21 1674.44 490.327 1673.97 490.588C1673.51 490.849 1673.13 491.241 1672.89 491.715C1672.64 492.189 1672.55 492.724 1672.61 493.254C1673.44 493.19 1674.28 493.265 1675.09 493.477C1675.58 492.503 1676.21 491.606 1676.96 490.813Z" fill="#FAFAFA"/>
<path d="M1692.33 482.163C1691.28 482.229 1690.25 482.48 1689.29 482.906C1684.48 484.62 1680.25 487.632 1677.05 491.609C1676.34 492.381 1675.76 493.272 1675.35 494.241C1675.55 494.4 1678.25 490.399 1683.03 487.045C1687.8 483.691 1692.43 482.397 1692.33 482.163Z" fill="#FF5E81"/>
<path d="M1619.25 564.244C1621.54 568.382 1622.66 573.065 1622.49 577.791C1622.32 582.517 1620.87 587.108 1618.3 591.073C1617.24 592.623 1615.61 594.257 1613.79 593.822C1611.96 593.387 1611.08 591.052 1610.87 589.067C1610.45 584.895 1610.9 580.681 1612.18 576.687C1613.45 572.693 1615.54 569.003 1618.3 565.846C1614.33 571.561 1608.75 575.965 1602.27 578.497C1599.83 579.452 1596.64 579.962 1594.93 577.966C1593.22 575.971 1594.14 573.053 1595.49 570.909C1597.91 567.224 1601.45 564.411 1605.59 562.883C1609.73 561.355 1614.24 561.192 1618.48 562.418C1614.57 561.832 1610.94 560.067 1608.06 557.359C1605.18 554.65 1603.2 551.128 1602.38 547.263C1601.82 544.291 1602.56 540.407 1605.49 539.643C1607.27 539.176 1609.11 540.121 1610.6 541.192C1613.48 543.297 1615.88 545.999 1617.62 549.113C1619.36 552.226 1620.4 555.679 1620.69 559.234C1619.87 555.08 1620.29 550.778 1621.89 546.858C1623.49 542.939 1626.21 539.575 1629.7 537.181C1631.95 535.684 1634.92 534.644 1637.29 535.95C1640.28 537.595 1640.47 541.85 1639.59 545.151C1638.51 549.266 1636.52 553.086 1633.76 556.329C1631.01 559.571 1627.56 562.153 1623.67 563.883C1626.12 562.994 1628.76 562.712 1631.34 563.062C1633.93 563.411 1636.4 564.381 1638.53 565.889C1641.3 567.905 1643.42 571.928 1641.36 574.676C1639.3 577.425 1635.29 576.65 1632.27 575.356C1626.78 573.004 1621.88 569.458 1617.94 564.976" fill="#F8B7C7"/>
<path d="M1616.78 582.71C1617.07 582.71 1616.43 578.051 1617.38 572.448C1618.32 566.844 1620.36 562.641 1620.1 562.525C1619.85 562.408 1617.41 566.504 1616.47 572.299C1615.54 578.094 1616.57 582.785 1616.78 582.71Z" fill="#FF5E81"/>
<path d="M1605.56 572.692C1605.79 572.861 1607.99 569.699 1611.99 567.385C1616 565.072 1619.7 564.116 1619.61 563.819C1619.53 563.522 1615.69 564.148 1611.53 566.6C1607.37 569.051 1605.36 572.617 1605.56 572.692Z" fill="#FF5E81"/>
<path d="M1611.23 550.415C1611.03 550.415 1611.34 554.236 1613.7 558.237C1616.07 562.238 1619.52 564.148 1619.59 563.915C1619.67 563.681 1616.72 561.612 1614.49 557.77C1612.26 553.928 1611.52 550.351 1611.23 550.415Z" fill="#FF5E81"/>
<path d="M1620.35 559.977C1619.75 559.799 1619.11 559.802 1618.51 559.985C1617.91 560.169 1617.38 560.524 1616.98 561.008C1616.58 561.491 1616.34 562.081 1616.27 562.704C1616.21 563.327 1616.33 563.955 1616.62 564.509C1617.51 564.084 1618.46 563.808 1619.43 563.692C1619.55 562.415 1619.86 561.163 1620.35 559.977Z" fill="#FAFAFA"/>
<path d="M1633.48 543.877C1632.35 544.406 1631.33 545.124 1630.45 546C1625.93 549.942 1622.58 555.048 1620.76 560.763C1620.31 561.919 1620.07 563.143 1620.03 564.382C1620.32 564.467 1621.56 558.937 1625.34 553.217C1629.11 547.496 1633.67 544.09 1633.48 543.877Z" fill="#FF5E81"/>
<path d="M1625.25 646.579C1628.4 649.101 1630.79 652.432 1632.19 656.215C1633.58 659.998 1633.92 664.09 1633.16 668.049C1632.84 669.609 1632.1 671.392 1630.51 671.668C1628.93 671.944 1627.48 670.363 1626.67 668.877C1624.99 665.729 1623.98 662.27 1623.69 658.714C1623.4 655.158 1623.85 651.58 1625 648.203C1623.72 653.976 1620.77 659.242 1616.51 663.337C1614.89 664.876 1612.55 666.309 1610.55 665.3C1608.56 664.292 1608.37 661.681 1608.75 659.559C1609.46 655.877 1611.33 652.52 1614.09 649.98C1616.85 647.439 1620.34 645.85 1624.07 645.443C1620.8 646.245 1617.37 646.029 1614.23 644.824C1611.08 643.62 1608.38 641.485 1606.49 638.704C1605.08 636.582 1604.36 633.249 1606.49 631.7C1607.74 630.755 1609.49 630.893 1611.01 631.254C1613.96 631.973 1616.72 633.322 1619.1 635.209C1621.48 637.096 1623.43 639.476 1624.8 642.185C1622.82 639.18 1621.76 635.661 1621.74 632.059C1621.73 628.458 1622.77 624.932 1624.74 621.915C1626.03 620.015 1628.03 618.232 1630.31 618.497C1633.19 618.816 1634.7 622.106 1635.11 624.982C1635.59 628.567 1635.27 632.215 1634.15 635.657C1633.04 639.099 1631.17 642.248 1628.68 644.87C1630.32 643.365 1632.3 642.282 1634.46 641.715C1636.61 641.147 1638.87 641.112 1641.04 641.612C1643.89 642.302 1646.86 644.796 1646.13 647.598C1645.39 650.4 1641.96 651.068 1639.15 651.068C1634.07 651.001 1629.07 649.801 1624.52 647.555" fill="#F8B7C7"/>
<path d="M1629.3 661.904C1629.52 661.787 1627.51 658.349 1626.44 653.637C1625.37 648.925 1625.6 644.955 1625.38 644.945C1625.15 644.934 1624.55 648.956 1625.71 653.806C1626.86 658.657 1629.16 662.021 1629.3 661.904Z" fill="#FF5E81"/>
<path d="M1617.24 657.659C1617.47 657.723 1618.17 654.475 1620.56 651.376C1622.95 648.277 1625.57 646.303 1625.4 646.07C1625.23 645.836 1622.42 647.609 1619.94 650.877C1617.47 654.146 1617.05 657.67 1617.24 657.659Z" fill="#FF5E81"/>
<path d="M1614.47 638.333C1614.3 638.397 1615.78 641.305 1618.95 643.639C1622.11 645.974 1625.43 646.399 1625.42 646.197C1625.41 645.995 1622.41 645.327 1619.4 643.013C1616.4 640.7 1614.67 638.163 1614.47 638.333Z" fill="#FF5E81"/>
<path d="M1624.73 642.864C1624.2 642.921 1623.7 643.132 1623.29 643.471C1622.88 643.809 1622.58 644.261 1622.42 644.769C1622.27 645.278 1622.26 645.821 1622.41 646.331C1622.56 646.842 1622.86 647.297 1623.27 647.64C1623.83 647.021 1624.49 646.494 1625.22 646.08C1624.89 645.05 1624.73 643.976 1624.73 642.896" fill="#FAFAFA"/>
<path d="M1629.82 625.947C1629.11 626.721 1628.53 627.616 1628.13 628.59C1625.86 633.154 1624.88 638.252 1625.3 643.332C1625.33 644.387 1625.53 645.43 1625.9 646.42C1626.15 646.42 1625.34 641.644 1626.47 635.913C1627.61 630.182 1630.05 626.054 1629.82 625.947Z" fill="#FF5E81"/>
<path d="M1718.58 827.324C1724 821.469 1731.11 817.463 1738.93 815.873C1737.58 823.249 1733.84 832.949 1728.48 838.16C1722.39 844.135 1716.57 847.202 1709.32 848.476C1710.1 840.625 1713.34 833.221 1718.58 827.324Z" fill="#F8B7C7"/>
<path d="M1730.64 824.172C1730.26 824.391 1729.91 824.643 1729.58 824.926C1728.93 825.435 1728.02 826.21 1726.91 827.176C1724.05 829.731 1721.34 832.46 1718.81 835.348C1716.28 838.238 1713.93 841.283 1711.78 844.464C1710.96 845.685 1710.33 846.693 1709.9 847.404C1709.67 847.76 1709.46 848.133 1709.29 848.518C1709.58 848.192 1709.83 847.837 1710.05 847.457C1710.51 846.778 1711.19 845.801 1712.03 844.602C1714.25 841.482 1716.62 838.475 1719.13 835.592C1722.08 832.227 1724.97 829.373 1727.12 827.367C1728.18 826.369 1729.07 825.573 1729.68 825.021C1730.03 824.77 1730.35 824.485 1730.64 824.172Z" fill="#FF5E81"/>
<path d="M1707.5 794.679C1712.92 788.823 1720.03 784.818 1727.85 783.228C1726.5 790.604 1722.7 800.208 1717.4 805.515C1712.06 810.857 1705.24 814.467 1697.81 815.873C1698.74 807.968 1702.13 800.555 1707.5 794.679Z" fill="#F8B7C7"/>
<path d="M1719.56 791.527C1719.18 791.751 1718.83 792.006 1718.5 792.291C1717.85 792.79 1716.94 793.565 1715.83 794.53C1712.97 797.086 1710.26 799.815 1707.73 802.702C1705.2 805.59 1702.85 808.635 1700.71 811.819C1699.88 813.039 1699.25 814.048 1698.83 814.759C1698.59 815.113 1698.39 815.486 1698.21 815.873C1698.5 815.547 1698.75 815.191 1698.97 814.812C1699.43 814.132 1700.11 813.156 1700.95 811.957C1703.17 808.837 1705.54 805.829 1708.05 802.946C1711 799.582 1713.89 796.727 1716.04 794.732C1717.1 793.724 1717.99 792.928 1718.6 792.376C1718.95 792.124 1719.27 791.84 1719.56 791.527Z" fill="#FF5E81"/>
<path d="M1677.86 788.948C1670.39 786.126 1662.22 785.733 1654.51 787.823C1659.03 793.819 1666.75 800.728 1673.86 803.105C1681.03 805.484 1688.75 805.651 1696.02 803.583C1691.65 796.919 1685.3 791.798 1677.86 788.948Z" fill="#F8B7C7"/>
<path d="M1665.67 791.527C1666.09 791.562 1666.51 791.633 1666.93 791.739C1667.74 791.909 1668.89 792.185 1670.31 792.556C1674.03 793.552 1677.69 794.778 1681.26 796.228C1684.81 797.676 1688.27 799.346 1691.61 801.227C1692.9 801.949 1693.92 802.564 1694.61 803.01C1694.98 803.22 1695.34 803.465 1695.67 803.742C1695.27 803.577 1694.89 803.382 1694.52 803.159C1693.81 802.755 1692.77 802.182 1691.48 801.492C1688.88 800.113 1685.24 798.308 1681.09 796.621C1677.55 795.18 1673.93 793.923 1670.26 792.853C1668.86 792.439 1667.71 792.121 1666.92 791.909C1666.49 791.82 1666.07 791.692 1665.67 791.527Z" fill="#FF5E81"/>
<path d="M1686.35 821.699C1678.88 818.884 1670.71 818.494 1663 820.585C1667.51 826.571 1675.23 833.49 1682.35 835.868C1689.52 838.247 1697.24 838.413 1704.5 836.345C1700.14 829.68 1693.79 824.556 1686.35 821.699Z" fill="#F8B7C7"/>
<path d="M1674.16 824.289C1674.58 824.317 1675.01 824.388 1675.42 824.501C1676.23 824.66 1677.39 824.947 1678.82 825.318C1682.53 826.313 1686.18 827.539 1689.75 828.99C1693.31 830.436 1696.77 832.106 1700.12 833.989C1701.4 834.711 1702.42 835.326 1703.11 835.772C1703.48 835.983 1703.84 836.225 1704.17 836.494C1703.78 836.337 1703.39 836.146 1703.03 835.921C1702.32 835.517 1701.27 834.944 1699.98 834.255C1693.22 830.646 1686.11 827.751 1678.75 825.616C1677.34 825.202 1676.19 824.873 1675.41 824.66C1674.98 824.567 1674.56 824.443 1674.16 824.289Z" fill="#FF5E81"/>
<path d="M1722.25 868.29C1722.02 868.062 1721.81 867.813 1721.63 867.547L1719.93 865.351L1718.72 863.759C1718.3 863.164 1717.85 862.496 1717.36 861.795C1716.41 860.373 1715.24 858.792 1714.18 856.924L1712.42 854.037C1711.8 853.029 1711.25 851.915 1710.62 850.853C1709.36 848.656 1708.2 846.194 1706.95 843.636C1704.36 838.013 1702.13 832.228 1700.29 826.316C1698.5 820.368 1697.11 814.309 1696.11 808.179C1695.73 805.355 1695.32 802.67 1695.15 800.134C1695.04 798.871 1694.91 797.65 1694.84 796.472L1694.7 793.087C1694.58 790.964 1694.64 788.98 1694.64 787.271C1694.64 786.411 1694.64 785.615 1694.64 784.883L1694.76 782.877L1694.94 780.107C1694.95 779.783 1694.98 779.46 1695.04 779.141C1695.07 779.466 1695.07 779.793 1695.04 780.118L1694.97 782.888L1694.91 784.894C1694.91 785.626 1694.91 786.422 1694.91 787.271C1694.91 788.98 1694.91 790.932 1695.04 793.076L1695.22 796.451C1695.29 797.619 1695.45 798.829 1695.55 800.091C1695.75 802.617 1696.18 805.281 1696.61 808.094C1698.55 820.296 1702.16 832.171 1707.35 843.382C1708.6 845.939 1709.73 848.391 1710.97 850.599C1711.58 851.66 1712.13 852.795 1712.72 853.782L1714.45 856.68C1715.52 858.558 1716.64 860.15 1717.56 861.583C1718.04 862.294 1718.47 862.973 1718.88 863.568L1720.05 865.202L1721.66 867.462C1721.88 867.725 1722.07 868.002 1722.25 868.29Z" fill="#FF5E81"/>
<path d="M1688.61 767.754C1689.11 759.792 1692.11 752.191 1697.18 746.029C1700.78 752.609 1703.93 762.479 1703.17 769.94C1702.4 777.456 1699.39 784.567 1694.52 790.349C1690.22 783.627 1688.16 775.72 1688.61 767.754Z" fill="#F8B7C7"/>
<path d="M1695.97 757.693C1695.82 758.097 1695.72 758.512 1695.65 758.934C1695.47 759.741 1695.24 760.908 1695 762.362C1693.76 769.949 1693.49 777.662 1694.17 785.318C1694.31 786.783 1694.45 787.971 1694.58 788.778C1694.62 789.204 1694.69 789.626 1694.8 790.041C1694.82 789.615 1694.8 789.189 1694.74 788.767C1694.67 787.94 1694.58 786.762 1694.48 785.297C1694.23 781.478 1694.17 777.649 1694.3 773.824C1694.44 770.004 1694.77 766.192 1695.3 762.405C1695.5 760.951 1695.68 759.773 1695.81 758.966C1695.9 758.547 1695.95 758.121 1695.97 757.693Z" fill="#FF5E81"/>
<path d="M1614.85 810.842C1617.01 814.236 1618.21 818.153 1618.31 822.174C1618.42 826.196 1617.43 830.169 1615.45 833.671C1614.64 835.04 1613.32 836.483 1611.76 836.25C1610.2 836.016 1609.32 834.042 1609.04 832.366C1608.46 828.845 1608.61 825.244 1609.48 821.784C1610.35 818.324 1611.92 815.08 1614.1 812.254C1611.04 817.309 1606.56 821.346 1601.21 823.854C1599.19 824.798 1596.5 825.403 1594.94 823.854C1593.38 822.304 1594.01 819.736 1595.04 817.836C1596.9 814.585 1599.75 812.014 1603.18 810.502C1606.61 808.989 1610.43 808.614 1614.09 809.431C1610.74 809.14 1607.55 807.831 1604.96 805.68C1602.38 803.529 1600.51 800.638 1599.61 797.396C1598.97 794.902 1599.39 791.569 1601.84 790.752C1603.33 790.264 1604.94 790.964 1606.27 791.813C1608.83 793.444 1611.01 795.609 1612.66 798.161C1614.31 800.712 1615.38 803.59 1615.82 806.597C1614.9 803.114 1615.02 799.438 1616.17 796.025C1617.32 792.611 1619.44 789.608 1622.28 787.388C1624.11 785.998 1626.53 784.957 1628.65 785.934C1631.28 787.165 1631.64 790.773 1631.11 793.618C1630.4 797.153 1628.92 800.486 1626.76 803.374C1624.6 806.262 1621.83 808.632 1618.64 810.312C1620.68 809.423 1622.9 809.041 1625.12 809.196C1627.33 809.351 1629.48 810.04 1631.38 811.203C1633.85 812.774 1635.87 816.064 1634.26 818.505C1632.66 820.946 1629.22 820.521 1626.58 819.566C1621.79 817.859 1617.44 815.111 1613.84 811.522" fill="#F8B7C7"/>
<path d="M1613.75 826.613C1613.99 826.613 1613.2 822.665 1613.69 817.858C1614.19 813.05 1615.7 809.367 1615.47 809.293C1615.23 809.219 1613.4 812.816 1612.93 817.783C1612.46 822.75 1613.58 826.719 1613.75 826.613Z" fill="#FF5E81"/>
<path d="M1603.7 818.749C1603.89 818.887 1605.6 816.075 1608.87 813.878C1612.13 811.681 1615.23 810.694 1615.14 810.429C1615.04 810.163 1611.82 810.927 1608.42 813.23C1605.02 815.533 1603.51 818.696 1603.7 818.749Z" fill="#FF5E81"/>
<path d="M1607.28 799.54C1607.11 799.54 1607.58 802.777 1609.81 806.035C1612.04 809.293 1615.06 810.736 1615.12 810.545C1615.17 810.354 1612.55 808.741 1610.46 805.6C1608.37 802.458 1607.53 799.465 1607.28 799.54Z" fill="#FF5E81"/>
<path d="M1615.54 807.16C1615.02 807.04 1614.48 807.077 1613.98 807.264C1613.48 807.452 1613.05 807.782 1612.74 808.213C1612.43 808.645 1612.25 809.159 1612.23 809.69C1612.21 810.222 1612.35 810.748 1612.62 811.203C1613.36 810.8 1614.15 810.514 1614.97 810.354C1615 809.27 1615.19 808.197 1615.54 807.17" fill="#FAFAFA"/>
<path d="M1625.81 792.768C1624.89 793.279 1624.06 793.943 1623.36 794.732C1621.55 796.514 1620 798.539 1618.75 800.749C1617.5 802.957 1616.55 805.324 1615.93 807.786C1615.62 808.79 1615.47 809.842 1615.51 810.895C1615.75 810.959 1616.52 806.194 1619.43 801.131C1622.33 796.069 1625.98 792.949 1625.81 792.768Z" fill="#FF5E81"/>
<defs>
<filter id="filter0_f_105_465" x="-50.3786" y="-214.183" width="409.847" height="565.914" filterUnits="userSpaceOnUse" color-interpolation-filters="sRGB">
<feFlood flood-opacity="0" result="BackgroundImageFix"/>
<feBlend mode="normal" in="SourceGraphic" in2="BackgroundImageFix" result="shape"/>
<feGaussianBlur stdDeviation="10" result="effect1_foregroundBlur_105_465"/>
</filter>
<radialGradient id="paint0_radial_105_465" cx="0" cy="0" r="1" gradientUnits="userSpaceOnUse" gradientTransform="translate(150.439 65.7465) rotate(176.723) scale(188.748 262.386)">
<stop stop-color="#F8B7C7"/>
<stop offset="0.927083" stop-color="#FF5E81" stop-opacity="0"/>
</radialGradient>
</defs>
</svg>
