<svg width="1728" height="870" viewBox="0 0 1728 870" fill="none" xmlns="http://www.w3.org/2000/svg">
<g filter="url(#filter0_f_104_464)">
<path d="M-46.2944 469.069C-671.185 811.409 -1019.16 -6.69368 -572.047 3.79939C-124.937 14.2924 -418.504 -325.383 -63.8487 -346.539C290.807 -367.694 283.868 288.192 -46.2944 469.069Z" fill="url(#paint0_radial_104_464)" fill-opacity="0.25"/>
</g>
<g filter="url(#filter1_f_104_464)">
<path d="M1928.18 97.4804C2202.15 464.782 1712.31 759.643 1678.95 473.965C1645.6 188.287 1455.57 405.66 1410.34 181.694C1365.11 -42.2707 1783.42 -96.5841 1928.18 97.4804Z" fill="url(#paint1_radial_104_464)" fill-opacity="0.25"/>
</g>
<g opacity="0.5">
<path d="M48.4187 298.122C57.5043 312.236 61.9109 328.855 61.0124 345.616C46.6993 338.917 29.0815 326.145 21.043 312.569C12.9769 298.869 9.21898 283.06 10.2579 267.196C25.9062 273.248 39.2559 284.067 48.4187 298.122Z" fill="#F8B7C7"/>
<path d="M48.4857 324.358C48.225 323.497 47.8888 322.66 47.4809 321.858C46.7887 320.272 45.7169 317.995 44.3101 315.159C40.623 307.964 36.4915 301.007 31.9397 294.326C27.3837 287.658 22.4248 281.275 17.0907 275.212C15.0141 272.979 13.3171 271.081 12.0889 269.853C11.4859 269.182 10.8287 268.562 10.1239 267.999C10.6255 268.741 11.1936 269.437 11.821 270.076C12.9821 271.393 14.6121 273.269 16.5995 275.636C20.5741 280.37 25.8885 287.046 31.2028 294.839C36.5172 302.632 40.8044 310.023 43.7519 315.449C45.2033 318.173 46.3868 320.384 47.1683 321.925C47.551 322.765 47.9912 323.578 48.4857 324.358Z" fill="#FF5E81"/>
<path d="M75.7275 240.758C85.39 227.045 90.4914 210.64 90.3085 193.866C75.7275 199.895 57.5738 211.975 48.977 225.127C40.3546 238.481 35.9436 254.118 36.3163 270.009C52.1992 264.639 65.9882 254.405 75.7275 240.758Z" fill="#F8B7C7"/>
<path d="M76.911 214.565C76.6003 215.411 76.2271 216.232 75.7945 217.022C75.0353 218.585 73.8519 220.795 72.3335 223.497C68.3815 230.526 63.9888 237.298 59.1815 243.772C54.3608 250.254 49.1405 256.429 43.551 262.261C41.3181 264.494 39.621 266.235 38.3483 267.419C37.7246 268.066 37.0446 268.656 36.3163 269.183C36.8453 268.457 37.4435 267.784 38.1026 267.173C39.2861 265.923 41.0055 264.092 43.1044 261.814C48.5426 255.885 53.6774 249.684 58.4893 243.236C64.1163 235.689 68.7162 228.477 71.8869 223.14C73.4723 220.483 74.7227 218.317 75.5712 216.821C75.9486 216.03 76.3971 215.275 76.911 214.565Z" fill="#FF5E81"/>
<path d="M4.51929 240.802C14.1818 227.09 19.2832 210.684 19.1004 193.911C4.51931 199.962 -13.6344 212.02 -22.2312 225.172C-30.8598 238.522 -35.2641 254.163 -34.8696 270.054C-18.997 264.676 -5.21743 254.443 4.51929 240.802Z" fill="#F8B7C7"/>
<path d="M5.59119 214.61C5.27536 215.453 4.90234 216.274 4.47472 217.066C3.71552 218.629 2.5544 220.84 1.036 223.542C-6.92902 237.613 -16.6288 250.628 -27.8358 262.283C-30.0687 264.516 -31.7881 266.28 -33.0609 267.441C-33.6846 268.088 -34.3646 268.679 -35.0928 269.205C-34.5551 268.486 -33.9575 267.814 -33.3065 267.196C-32.1007 265.945 -30.4037 264.137 -28.3047 261.859C-24.1291 257.393 -18.5468 250.828 -12.9198 243.281C-7.29283 235.734 -2.69299 228.521 0.477771 223.185C2.06315 220.55 3.3136 218.384 4.16211 216.865C4.56947 216.072 5.04777 215.317 5.59119 214.61Z" fill="#FF5E81"/>
<path d="M-109.293 289.369C-108.712 289.015 -108.099 288.716 -107.462 288.476L-102.081 286.243L-98.1732 284.613C-96.7441 284.054 -95.1587 283.496 -93.4617 282.893C-90.0676 281.687 -86.227 280.191 -81.8728 278.941L-75.04 276.864C-72.6731 276.15 -70.1499 275.592 -67.582 274.922C-62.424 273.493 -56.8193 272.443 -50.9243 271.237C-38.1081 268.896 -25.1513 267.404 -12.1383 266.771C0.883129 266.296 13.9218 266.676 26.8933 267.91C32.8776 268.625 38.5492 269.205 43.7966 270.143C46.4315 270.612 48.977 270.947 51.4109 271.461L58.3777 272.957C62.8435 273.828 66.7735 275.011 70.2792 275.904L75.1247 277.222L79.1439 278.517L84.6816 280.348C85.3364 280.544 85.9779 280.783 86.6019 281.062C85.9256 280.972 85.2599 280.815 84.6146 280.593L79.01 278.963L74.9684 277.78C73.4723 277.378 71.8423 276.998 70.1006 276.552C66.5949 275.726 62.6649 274.609 58.199 273.783L51.2323 272.376C48.8207 271.907 46.2752 271.572 43.6403 271.126C38.3929 270.21 32.7436 269.652 26.804 268.893C13.8725 267.736 0.881452 267.385 -12.0937 267.843C-25.049 268.468 -37.9515 269.915 -50.7234 272.175C-56.596 273.336 -62.1783 274.408 -67.3364 275.726C-69.9043 276.395 -72.4275 276.931 -74.7944 277.601L-81.6048 279.611C-86.0707 280.794 -89.822 282.223 -93.2384 283.362C-94.9354 283.943 -96.5208 284.456 -97.9722 284.992L-101.902 286.511L-107.351 288.587C-107.981 288.888 -108.63 289.149 -109.293 289.369Z" fill="#FF5E81"/>
<path d="M113.218 273.738C129.186 279.001 143.092 289.157 152.965 302.766C137.669 306.651 115.898 307.835 101.094 302.364C86.1816 296.815 73.2878 286.902 64.0938 273.916C80.0455 268.711 97.2293 268.649 113.218 273.738Z" fill="#F8B7C7"/>
<path d="M129.831 294.125C129.086 293.617 128.294 293.184 127.465 292.829C125.924 292.026 123.669 290.954 120.766 289.703C105.988 283.204 90.4515 278.59 74.5218 275.971C71.4627 275.457 68.9841 275.122 67.2424 274.944C66.3549 274.816 65.4596 274.748 64.5629 274.743C65.4213 275.012 66.3036 275.199 67.1977 275.301C68.9171 275.569 71.3733 276.015 74.4101 276.596C82.3154 278.093 90.1405 279.986 97.8559 282.268C105.565 284.567 113.152 287.258 120.587 290.329C123.445 291.512 125.745 292.561 127.286 293.187C128.107 293.57 128.958 293.884 129.831 294.125Z" fill="#FF5E81"/>
<path d="M11.888 100.798C3.50334 101.913 -5.02681 100.726 -12.7879 97.3624C-20.549 93.9991 -27.2484 88.5869 -32.1678 81.706C-34.0881 78.9595 -35.6958 75.2082 -33.8425 72.417C-31.9891 69.6258 -27.4563 69.7152 -23.9952 70.653C-16.7694 72.6753 -10.0361 76.1606 -4.21305 80.8928C1.61003 85.625 6.39874 91.5032 9.85601 98.1627C2.92536 87.8489 -0.789217 75.7105 -0.817419 63.2843C-0.817419 58.5728 0.410708 52.9235 4.83191 51.3828C9.25312 49.8421 13.5403 53.2585 16.2422 56.8981C20.796 63.3369 23.1664 71.0655 23.0056 78.9502C22.8449 86.8349 20.1614 94.4605 15.349 100.708C18.8756 94.5879 24.1849 89.6887 30.5685 86.6645C36.952 83.6402 44.1061 82.6349 51.0759 83.7826C56.4126 84.7875 62.3969 88.5388 61.7717 93.9201C61.3921 97.2026 58.6232 99.6364 55.8544 101.445C50.4676 104.879 44.4023 107.107 38.0739 107.978C31.7456 108.849 25.3037 108.342 19.1896 106.492C26.6688 107.809 33.5975 111.291 39.1181 116.506C44.6387 121.721 48.5089 128.44 50.2497 135.832C51.2769 140.544 51.0759 146.193 47.3693 149.23C42.6801 153.137 35.4901 150.659 30.5329 146.997C24.3891 142.549 19.3176 136.784 15.6897 130.124C12.0619 123.463 9.96947 116.075 9.56572 108.501C9.46612 113.188 8.22675 117.78 5.95473 121.881C3.68271 125.981 0.446388 129.467 -3.4746 132.036C-8.63267 135.363 -16.7159 136.279 -19.9536 131.054C-23.1914 125.829 -19.3061 119.644 -15.1752 115.423C-7.6769 107.808 1.42289 101.957 11.4637 98.2967" fill="#F8B7C7"/>
<path d="M-17.2964 84.6759C-17.4304 85.1672 -9.28017 87.1098 -0.549403 92.3349C8.18136 97.5599 13.853 103.7 14.2103 103.343C14.5675 102.986 9.32016 96.2425 0.276788 90.9504C-8.76659 85.6584 -17.2741 84.274 -17.2964 84.6759Z" fill="#FF5E81"/>
<path d="M6.70762 72.5061C6.28337 72.774 10.124 78.5127 11.4191 86.7075C12.7142 94.9024 11.8657 101.691 12.4239 101.735C12.9822 101.78 14.4112 95.0364 13.0268 86.4173C11.6424 77.7981 6.97558 72.1935 6.70762 72.5061Z" fill="#FF5E81"/>
<path d="M40.1569 96.4209C40.2908 96.0636 33.726 94.188 25.5312 95.4608C17.3363 96.7335 11.8879 101.311 12.1336 101.579C12.3792 101.847 17.8499 98.2743 25.7098 97.1131C33.5697 95.952 40.0899 96.9568 40.1569 96.4209Z" fill="#FF5E81"/>
<path d="M18.2965 105.397C18.985 104.513 19.3971 103.445 19.4811 102.327C19.5652 101.209 19.3176 100.092 18.7692 99.114C18.2208 98.1364 17.3961 97.3425 16.3984 96.8316C15.4007 96.3208 14.2745 96.1157 13.1608 96.2422C13.2953 97.9978 13.1368 99.7636 12.6918 101.467C14.74 102.5 16.6278 103.824 18.2965 105.397Z" fill="#FAFAFA"/>
<path d="M36.6288 137.752C36.4644 135.545 35.9362 133.379 35.0658 131.344C31.4338 121.248 25.1004 112.343 16.7558 105.598C15.1203 104.098 13.2398 102.89 11.1958 102.026C10.8608 102.427 19.279 108.121 26.335 118.17C33.3911 128.218 36.1153 137.953 36.6288 137.752Z" fill="#FF5E81"/>
<path d="M-19.8198 607.316C-4.739 599.953 7.64294 588.032 15.5722 573.241C-0.0583184 571.499 -21.9187 573.241 -35.7852 580.766C-51.4158 589.43 -61.2183 599.299 -68.1851 613.121C-51.8553 616.357 -34.9199 614.324 -19.8198 607.316Z" fill="#F8B7C7"/>
<path d="M39.2415 649.407C54.3182 642.059 66.7004 630.154 74.6335 615.377C59.003 613.635 37.2319 615.377 23.2761 622.879C9.28171 630.422 -2.12889 641.988 -9.48105 656.083C7.05778 659.037 24.107 656.701 39.2415 649.407Z" fill="#F8B7C7"/>
<path d="M52.9069 627.032C52.2081 627.629 51.4612 628.167 50.674 628.64C49.2672 629.645 47.1683 631.007 44.5334 632.637C30.7648 641.142 15.9874 647.893 0.544654 652.734C-2.42515 653.649 -4.8367 654.319 -6.5114 654.721C-7.37426 654.979 -8.25492 655.173 -9.14626 655.301C-8.32709 654.92 -7.47511 654.614 -6.60072 654.386C-4.94835 653.872 -2.58144 653.113 0.343698 652.153C6.19398 650.166 14.2102 647.196 22.673 643.221C29.9932 639.86 37.1402 636.134 44.0868 632.057C46.7663 630.494 48.91 629.198 50.3837 628.305C51.1783 627.795 52.0239 627.368 52.9069 627.032Z" fill="#FF5E81"/>
<path d="M32.833 712.621C33.9849 729.359 29.8279 746.033 20.9538 760.272C11.6201 747.566 2.37578 727.827 1.88453 712.04C1.44451 696.155 5.78524 680.503 14.3443 667.114C25.133 679.965 31.6017 695.887 32.833 712.621Z" fill="#F8B7C7"/>
<path d="M20.2392 735.62C20.433 734.739 20.5451 733.842 20.5742 732.94C20.7305 731.221 20.8644 728.72 20.9761 725.616C21.5013 709.46 20.001 693.302 16.5102 677.519C15.818 674.482 15.2151 672.07 14.7239 670.396C14.5294 669.516 14.2528 668.656 13.8977 667.828C13.9893 668.725 14.1536 669.614 14.389 670.485C14.7686 672.16 15.2821 674.616 15.885 677.653C19.0237 693.444 20.5203 709.517 20.3509 725.616C20.3509 728.697 20.3509 731.198 20.2169 732.918C20.1422 733.817 20.1497 734.721 20.2392 735.62Z" fill="#FF5E81"/>
<path d="M-100.138 575.184C-99.8122 575.778 -99.4389 576.346 -99.0218 576.881L-95.6054 581.637L-93.1269 585.053C-92.189 586.281 -91.1172 587.554 -90.0007 588.961C-87.7678 591.752 -85.1999 595.034 -82.1185 598.361L-77.3623 603.676C-75.71 605.507 -73.8567 607.293 -71.981 609.213C-68.319 613.099 -64.0764 616.917 -59.6775 621.003C-49.9205 629.636 -39.6124 637.624 -28.8184 644.918C-17.92 652.072 -6.56764 658.509 5.16682 664.188C10.6375 666.667 15.7956 669.123 20.7973 670.999C23.2982 671.981 25.6651 673.008 28.0097 673.835L34.7085 676.067C38.9734 677.653 42.948 678.68 46.4091 679.729C48.1284 680.221 49.7362 680.712 51.2322 681.114L55.3408 682.074L61.0348 683.391C61.6921 683.577 62.3647 683.704 63.0444 683.771C62.4058 683.52 61.7489 683.319 61.0794 683.168L55.4525 681.627L51.3885 680.556C49.9148 680.131 48.3071 679.595 46.5877 679.082C43.1713 677.988 39.219 676.849 34.9988 675.264L28.3 672.874C26.0671 672.026 23.6332 670.976 21.1546 669.994C16.1975 668.074 11.0841 665.528 5.5241 663.094C-6.12073 657.368 -17.4033 650.932 -28.2602 643.824C-39.0063 636.558 -49.2902 628.63 -59.0523 620.088C-63.5182 616.024 -67.7161 612.25 -71.4004 608.41C-73.2537 606.512 -75.1294 604.748 -76.8041 602.939L-81.5826 597.692C-84.7087 594.409 -87.2542 591.194 -89.5765 588.447C-90.7376 587.063 -91.8094 585.812 -92.7919 584.607L-95.3598 581.257L-98.9325 576.657C-99.3003 576.139 -99.7031 575.647 -100.138 575.184Z" fill="#FF5E81"/>
<path d="M82.0467 703.801C98.3842 707.616 115.508 706.194 130.993 699.737C119.94 688.572 101.964 676.18 86.3339 673.165C70.7232 670.171 54.5731 671.937 39.9782 678.234C50.9635 690.968 65.6841 699.915 82.0467 703.801Z" fill="#F8B7C7"/>
<path d="M106.765 695.07C105.863 695.117 104.958 695.08 104.063 694.958C102.344 694.847 99.843 694.579 96.7839 694.177C88.775 693.128 80.8399 691.577 73.0255 689.532C65.2103 687.477 57.5293 684.942 50.0263 681.94C47.1459 680.779 44.8459 679.707 43.3275 679.038C42.4946 678.704 41.6947 678.292 40.9383 677.809C41.8046 678.031 42.649 678.33 43.4615 678.703C45.0692 679.35 47.4138 680.266 50.2943 681.338C56.0776 683.57 64.1831 686.25 73.2935 688.662C82.4038 691.073 90.7997 692.614 96.9179 693.552C99.9547 694.021 102.433 694.378 104.153 694.601C105.035 694.681 105.91 694.838 106.765 695.07Z" fill="#FF5E81"/>
<path d="M-43.9799 828.622C-50.6061 823.359 -58.5397 819.998 -66.9301 818.901C-75.3205 817.804 -83.8514 819.01 -91.6083 822.392C-94.6675 823.776 -97.9722 826.165 -97.8159 829.515C-97.6596 832.864 -93.7296 835.119 -90.2909 836.08C-83.0516 838.06 -75.4824 838.531 -68.0535 837.463C-60.6245 836.395 -53.4944 833.811 -47.106 829.872C-58.3438 835.169 -67.7665 843.667 -74.1915 854.3C-76.603 858.32 -78.4564 863.813 -75.4419 867.43C-72.4274 871.047 -67.0237 870.288 -62.8482 868.546C-55.6475 865.365 -49.6517 859.967 -45.7353 853.138C-41.8189 846.309 -40.1868 838.408 -41.0771 830.587C-41.1827 837.666 -39.1219 844.608 -35.1709 850.482C-31.2198 856.357 -25.5673 860.884 -18.9711 863.455C-13.88 865.331 -6.82391 865.197 -4.59098 860.24C-3.22889 857.248 -4.34536 853.72 -5.79677 850.772C-8.64715 845.029 -12.7113 839.974 -17.708 835.957C-22.7046 831.94 -28.5145 829.056 -34.7356 827.505C-27.6499 830.185 -19.9345 830.732 -12.5419 829.077C-5.14926 827.422 1.59697 823.639 6.86395 818.194C10.1687 814.666 12.8929 809.731 11.3298 805.176C9.32018 799.415 1.86219 797.852 -4.30071 798.343C-11.8698 799.029 -19.1888 801.403 -25.7194 805.29C-32.25 809.178 -37.826 814.48 -42.0373 820.806C-39.7266 816.727 -38.4383 812.148 -38.2828 807.463C-38.1273 802.777 -39.109 798.123 -41.1441 793.899C-43.8682 788.406 -50.3214 783.449 -55.7921 786.263C-61.2628 789.076 -61.0842 796.4 -59.7221 802.117C-57.236 812.523 -52.4692 822.247 -45.7662 830.587" fill="#F8B7C7"/>
<path d="M52.4827 506.767C62.612 522.524 67.5186 541.072 66.5055 559.777C50.54 552.363 30.7786 538.028 21.8469 522.866C12.8571 507.563 8.6791 489.91 9.85602 472.201C27.3403 478.964 42.2534 491.057 52.4827 506.767Z" fill="#F8B7C7"/>
<path d="M52.4827 536.041C52.163 535.087 51.7827 534.155 51.3439 533.249C50.5847 531.485 49.3789 528.962 47.8158 525.881C43.7069 517.851 39.098 510.088 34.0163 502.636C28.9566 495.173 23.4224 488.042 17.448 481.289C15.215 478.699 13.2277 476.645 11.8656 475.282C11.1815 474.528 10.4345 473.834 9.6327 473.206C10.2012 474.037 10.8359 474.821 11.5307 475.55C12.8035 476.98 14.6345 479.101 16.8674 481.736C22.6538 488.608 28.0868 495.77 33.1455 503.194C39.0627 511.88 43.8636 520.142 47.146 526.193C48.776 529.23 50.0711 531.709 50.9643 533.428C51.3737 534.352 51.8829 535.228 52.4827 536.041Z" fill="#FF5E81"/>
<path d="M14.0538 455.275C28.0973 446.863 39.1302 434.236 45.5828 419.191C30.1979 418.812 9.23063 422.429 -3.54174 430.847C-16.5234 439.338 -26.6405 451.548 -32.5699 465.882C-16.3006 467.328 0.0113389 463.618 14.0538 455.275Z" fill="#F8B7C7"/>
<path d="M25.4418 432.276C24.8521 432.933 24.1933 433.524 23.4769 434.04C22.2041 435.134 20.2838 436.653 17.8499 438.506C11.5214 443.201 4.90659 447.496 -1.95623 451.368C-8.81708 455.237 -15.9088 458.682 -23.1914 461.684C-26.0049 462.823 -28.2825 463.671 -29.8902 464.229C-30.707 464.557 -31.5514 464.811 -32.4134 464.989C-31.6458 464.564 -30.8471 464.198 -30.0242 463.894C-28.4611 463.269 -26.2059 462.309 -23.3254 461.103C-17.81 458.692 -10.2851 455.119 -2.26884 450.608C5.74739 446.098 12.6918 441.476 17.6042 437.992C20.0605 436.251 22.0701 434.822 23.3875 433.817C24.0289 433.248 24.716 432.732 25.4418 432.276Z" fill="#FF5E81"/>
<path d="M82.5157 455.253C93.6172 443.743 100.819 429.034 103.103 413.207C88.4776 416.757 69.6094 425.466 59.5835 436.675C49.5072 447.988 43.0655 462.07 41.0948 477.091C56.8529 474.343 71.3453 466.702 82.5157 455.253Z" fill="#F8B7C7"/>
<path d="M87.4504 430.758C87.0327 431.533 86.5627 432.279 86.0437 432.991C85.1059 434.353 83.6545 436.251 81.8458 438.573C72.2752 450.661 61.2337 461.508 48.977 470.861C46.6101 472.648 44.6675 474.032 43.3054 474.947C42.6109 475.479 41.8625 475.935 41.0724 476.31C41.696 475.72 42.36 475.176 43.0597 474.68C44.3772 473.675 46.2528 472.223 48.5528 470.37C53.1526 466.708 59.3601 461.438 65.7687 455.141C72.1772 448.845 77.5585 442.726 81.3992 438.193C83.2748 435.961 84.7709 434.085 85.865 432.79C86.3155 432.055 86.8474 431.373 87.4504 430.758Z" fill="#FF5E81"/>
<path d="M-178.112 410.55L-177.42 410.862L-175.5 411.867L-168.109 415.797L-162.772 418.678C-160.807 419.682 -158.641 420.754 -156.341 421.893C-151.719 424.126 -146.494 426.917 -140.554 429.53L-131.265 433.772C-128.027 435.224 -124.566 436.586 -121.083 438.06C-114.072 441.119 -106.39 443.887 -98.3518 446.991C-80.7724 453.249 -62.8858 458.607 -44.7615 463.046C-26.6757 467.268 -8.37662 470.518 10.057 472.782C18.6091 473.608 26.7147 474.59 34.3513 474.881C38.1696 475.104 41.854 475.372 45.382 475.506L55.5865 475.684C62.0843 475.908 67.9569 475.684 73.115 475.528L80.305 475.327L86.3563 474.925L94.7075 474.389L96.9404 474.278H97.6996L96.9627 474.412L94.7298 474.635L86.3786 475.394L80.3497 475.908L73.1373 476.198C67.9793 476.354 61.9727 476.712 55.5865 476.533L45.3597 476.421C41.8093 476.421 38.125 476.064 34.3067 475.885C26.6477 475.617 18.4975 474.68 9.92305 473.876C-8.62882 471.663 -27.0421 468.413 -45.2304 464.14C-63.3656 459.697 -81.2538 454.301 -98.8207 447.974C-106.859 444.892 -114.563 442.079 -121.552 439.042C-125.08 437.524 -128.496 436.139 -131.734 434.576L-141.001 430.267C-146.94 427.587 -152.165 424.796 -156.631 422.451L-163.017 419.147L-168.31 416.177L-175.589 412.024L-177.465 410.929L-178.112 410.55Z" fill="#FF5E81"/>
<path d="M138.942 478.944C132.238 471.596 127.657 462.564 125.691 452.814C123.724 443.064 124.445 432.962 127.777 423.59C129.139 419.883 131.685 415.819 135.637 415.73C139.589 415.641 142.537 420.062 143.944 424.014C146.85 432.349 148.014 441.192 147.365 449.995C146.716 458.798 144.267 467.374 140.17 475.193C145.454 461.568 154.663 449.818 166.63 441.431C171.096 438.26 177.438 435.648 181.926 438.886C186.414 442.123 185.967 448.532 184.27 453.578C181.116 462.295 175.255 469.773 167.545 474.92C159.835 480.067 150.68 482.612 141.42 482.182C149.711 481.464 158.023 483.297 165.243 487.436C172.462 491.574 178.244 497.821 181.814 505.338C184.449 511.166 184.851 519.45 179.224 522.464C175.808 524.318 171.587 523.29 168.059 521.839C161.12 518.955 154.887 514.604 149.788 509.085C144.689 503.566 140.844 497.009 138.518 489.863C142.235 497.968 143.496 506.983 142.147 515.797C140.798 524.61 136.897 532.836 130.926 539.457C127.063 543.61 121.48 547.205 116.01 545.709C109.087 543.811 106.654 535.214 106.743 528.024C106.929 519.076 109.118 510.284 113.148 502.293C117.178 494.302 122.948 487.316 130.032 481.847C125.444 484.899 120.183 486.788 114.701 487.352C109.22 487.916 103.684 487.138 98.5704 485.085C91.8716 482.338 85.5524 475.148 88.4105 468.517C91.2687 461.885 99.8655 461.483 106.698 462.644C119.084 464.749 130.846 469.585 141.13 476.801" fill="#F8B7C7"/>
<path d="M134.9 439.957C134.32 440.158 137.915 449.314 138.741 461.26C139.567 473.206 137.49 482.785 138.071 482.897C138.651 483.008 141.621 473.407 140.661 461.103C139.701 448.8 135.28 439.712 134.9 439.957Z" fill="#FF5E81"/>
<path d="M162.767 454.918C162.209 454.672 159.284 462.242 152.25 469.008C145.216 475.774 138.093 479.502 138.428 480.061C138.763 480.619 146.288 477.448 153.59 470.37C160.892 463.291 163.236 454.985 162.767 454.918Z" fill="#FF5E81"/>
<path d="M162.187 503.261C162.611 503.15 160.088 495.513 153.255 488.502C146.422 481.49 138.451 479.28 138.406 479.793C138.361 480.307 145.44 483.076 151.803 489.841C158.167 496.607 161.628 503.552 162.187 503.261Z" fill="#FF5E81"/>
<path d="M138.83 488.211C140.156 488.29 141.476 487.973 142.622 487.301C143.767 486.628 144.687 485.63 145.264 484.433C145.84 483.236 146.048 481.895 145.861 480.58C145.674 479.265 145.1 478.035 144.212 477.047C142.603 478.351 140.793 479.384 138.852 480.106C139.243 482.771 139.243 485.479 138.852 488.144" fill="#FAFAFA"/>
<path d="M119.94 527.645C121.977 526.015 123.715 524.043 125.075 521.817C132.377 511.53 136.71 499.433 137.602 486.849C137.945 484.292 137.855 481.695 137.334 479.168C136.709 479.168 136.887 491.047 131.953 504.623C127.018 518.2 119.471 527.288 119.94 527.645Z" fill="#FF5E81"/>
</g>
<g opacity="0.5">
<path d="M1678.58 298.122C1669.5 312.236 1665.09 328.855 1665.99 345.616C1680.3 338.917 1697.92 326.145 1705.96 312.569C1714.02 298.869 1717.78 283.06 1716.74 267.196C1701.09 273.248 1687.74 284.067 1678.58 298.122Z" fill="#F8B7C7"/>
<path d="M1678.51 324.358C1678.77 323.497 1679.11 322.66 1679.52 321.858C1680.21 320.272 1681.28 317.995 1682.69 315.159C1686.38 307.964 1690.51 301.007 1695.06 294.326C1699.62 287.658 1704.58 281.275 1709.91 275.212C1711.99 272.979 1713.68 271.081 1714.91 269.853C1715.51 269.182 1716.17 268.562 1716.88 267.999C1716.37 268.741 1715.81 269.437 1715.18 270.076C1714.02 271.393 1712.39 273.269 1710.4 275.636C1706.43 280.37 1701.11 287.046 1695.8 294.839C1690.48 302.632 1686.2 310.023 1683.25 315.449C1681.8 318.173 1680.61 320.384 1679.83 321.925C1679.45 322.765 1679.01 323.578 1678.51 324.358Z" fill="#FF5E81"/>
<path d="M1651.27 240.758C1641.61 227.045 1636.51 210.64 1636.69 193.866C1651.27 199.895 1669.43 211.975 1678.02 225.127C1686.65 238.481 1691.06 254.118 1690.68 270.009C1674.8 264.639 1661.01 254.405 1651.27 240.758Z" fill="#F8B7C7"/>
<path d="M1650.09 214.565C1650.4 215.411 1650.77 216.232 1651.21 217.022C1651.96 218.585 1653.15 220.795 1654.67 223.497C1658.62 230.526 1663.01 237.298 1667.82 243.772C1672.64 250.254 1677.86 256.429 1683.45 262.261C1685.68 264.494 1687.38 266.235 1688.65 267.419C1689.28 268.066 1689.96 268.656 1690.68 269.183C1690.15 268.457 1689.56 267.784 1688.9 267.173C1687.71 265.923 1685.99 264.092 1683.9 261.814C1678.46 255.885 1673.32 249.684 1668.51 243.236C1662.88 235.689 1658.28 228.477 1655.11 223.14C1653.53 220.483 1652.28 218.317 1651.43 216.821C1651.05 216.03 1650.6 215.275 1650.09 214.565Z" fill="#FF5E81"/>
<path d="M1722.48 240.802C1712.82 227.09 1707.72 210.684 1707.9 193.911C1722.48 199.962 1740.63 212.02 1749.23 225.172C1757.86 238.522 1762.26 254.163 1761.87 270.054C1746 264.676 1732.22 254.443 1722.48 240.802Z" fill="#F8B7C7"/>
<path d="M1721.41 214.61C1721.72 215.453 1722.1 216.274 1722.53 217.066C1723.28 218.629 1724.45 220.84 1725.96 223.542C1733.93 237.613 1743.63 250.628 1754.84 262.283C1757.07 264.516 1758.79 266.28 1760.06 267.441C1760.68 268.088 1761.36 268.679 1762.09 269.205C1761.56 268.486 1760.96 267.814 1760.31 267.196C1759.1 265.945 1757.4 264.137 1755.3 261.859C1751.13 257.393 1745.55 250.828 1739.92 243.281C1734.29 235.734 1729.69 228.521 1726.52 223.185C1724.94 220.55 1723.69 218.384 1722.84 216.865C1722.43 216.072 1721.95 215.317 1721.41 214.61Z" fill="#FF5E81"/>
<path d="M1836.29 289.369C1835.71 289.015 1835.1 288.716 1834.46 288.476L1829.08 286.243L1825.17 284.613C1823.74 284.054 1822.16 283.496 1820.46 282.893C1817.07 281.687 1813.23 280.191 1808.87 278.941L1802.04 276.864C1799.67 276.15 1797.15 275.592 1794.58 274.922C1789.42 273.493 1783.82 272.443 1777.92 271.237C1765.11 268.896 1752.15 267.404 1739.14 266.771C1726.12 266.296 1713.08 266.676 1700.11 267.91C1694.12 268.625 1688.45 269.205 1683.2 270.143C1680.57 270.612 1678.02 270.947 1675.59 271.461L1668.62 272.957C1664.16 273.828 1660.23 275.011 1656.72 275.904L1651.88 277.222L1647.86 278.517L1642.32 280.348C1641.66 280.544 1641.02 280.783 1640.4 281.062C1641.07 280.972 1641.74 280.815 1642.39 280.593L1647.99 278.963L1652.03 277.78C1653.53 277.378 1655.16 276.998 1656.9 276.552C1660.41 275.726 1664.34 274.609 1668.8 273.783L1675.77 272.376C1678.18 271.907 1680.72 271.572 1683.36 271.126C1688.61 270.21 1694.26 269.652 1700.2 268.893C1713.13 267.736 1726.12 267.385 1739.09 267.843C1752.05 268.468 1764.95 269.915 1777.72 272.175C1783.6 273.336 1789.18 274.408 1794.34 275.726C1796.9 276.395 1799.43 276.931 1801.79 277.601L1808.6 279.611C1813.07 280.794 1816.82 282.223 1820.24 283.362C1821.94 283.943 1823.52 284.456 1824.97 284.992L1828.9 286.511L1834.35 288.587C1834.98 288.888 1835.63 289.149 1836.29 289.369Z" fill="#FF5E81"/>
<path d="M1613.78 273.738C1597.81 279.001 1583.91 289.157 1574.04 302.766C1589.33 306.651 1611.1 307.835 1625.91 302.364C1640.82 296.815 1653.71 286.902 1662.91 273.916C1646.95 268.711 1629.77 268.649 1613.78 273.738Z" fill="#F8B7C7"/>
<path d="M1597.17 294.125C1597.91 293.617 1598.71 293.184 1599.54 292.829C1601.08 292.026 1603.33 290.954 1606.23 289.703C1621.01 283.204 1636.55 278.59 1652.48 275.971C1655.54 275.457 1658.02 275.122 1659.76 274.944C1660.65 274.816 1661.54 274.748 1662.44 274.743C1661.58 275.012 1660.7 275.199 1659.8 275.301C1658.08 275.569 1655.63 276.015 1652.59 276.596C1644.68 278.093 1636.86 279.986 1629.14 282.268C1621.44 284.567 1613.85 287.258 1606.41 290.329C1603.55 291.512 1601.25 292.561 1599.71 293.187C1598.89 293.57 1598.04 293.884 1597.17 294.125Z" fill="#FF5E81"/>
<path d="M1715.11 100.798C1723.5 101.913 1732.03 100.726 1739.79 97.3624C1747.55 93.9991 1754.25 88.5869 1759.17 81.706C1761.09 78.9595 1762.7 75.2082 1760.84 72.417C1758.99 69.6258 1754.46 69.7152 1751 70.653C1743.77 72.6753 1737.04 76.1606 1731.21 80.8928C1725.39 85.625 1720.6 91.5032 1717.14 98.1627C1724.07 87.8489 1727.79 75.7105 1727.82 63.2843C1727.82 58.5728 1726.59 52.9235 1722.17 51.3828C1717.75 49.8421 1713.46 53.2585 1710.76 56.8981C1706.2 63.3369 1703.83 71.0655 1703.99 78.9502C1704.16 86.8349 1706.84 94.4605 1711.65 100.708C1708.12 94.5879 1702.82 89.6887 1696.43 86.6645C1690.05 83.6402 1682.89 82.6349 1675.92 83.7826C1670.59 84.7875 1664.6 88.5388 1665.23 93.9201C1665.61 97.2026 1668.38 99.6364 1671.15 101.445C1676.53 104.879 1682.6 107.107 1688.93 107.978C1695.25 108.849 1701.7 108.342 1707.81 106.492C1700.33 107.809 1693.4 111.291 1687.88 116.506C1682.36 121.721 1678.49 128.44 1676.75 135.832C1675.72 140.544 1675.92 146.193 1679.63 149.23C1684.32 153.137 1691.51 150.659 1696.47 146.997C1702.61 142.549 1707.68 136.784 1711.31 130.124C1714.94 123.463 1717.03 116.075 1717.43 108.501C1717.53 113.188 1718.77 117.78 1721.05 121.881C1723.32 125.981 1726.55 129.467 1730.47 132.036C1735.63 135.363 1743.72 136.279 1746.95 131.054C1750.19 125.829 1746.31 119.644 1742.18 115.423C1734.68 107.808 1725.58 101.957 1715.54 98.2967" fill="#F8B7C7"/>
<path d="M1744.3 84.6759C1744.43 85.1672 1736.28 87.1098 1727.55 92.3349C1718.82 97.5599 1713.15 103.7 1712.79 103.343C1712.43 102.986 1717.68 96.2425 1726.72 90.9504C1735.77 85.6584 1744.27 84.274 1744.3 84.6759Z" fill="#FF5E81"/>
<path d="M1720.29 72.5061C1720.72 72.774 1716.88 78.5127 1715.58 86.7075C1714.29 94.9024 1715.13 101.691 1714.58 101.735C1714.02 101.78 1712.59 95.0364 1713.97 86.4173C1715.36 77.7981 1720.02 72.1935 1720.29 72.5061Z" fill="#FF5E81"/>
<path d="M1686.84 96.4209C1686.71 96.0636 1693.27 94.188 1701.47 95.4608C1709.66 96.7335 1715.11 101.311 1714.87 101.579C1714.62 101.847 1709.15 98.2743 1701.29 97.1131C1693.43 95.952 1686.91 96.9568 1686.84 96.4209Z" fill="#FF5E81"/>
<path d="M1708.7 105.397C1708.02 104.513 1707.6 103.445 1707.52 102.327C1707.43 101.209 1707.68 100.092 1708.23 99.114C1708.78 98.1364 1709.6 97.3425 1710.6 96.8316C1711.6 96.3208 1712.73 96.1157 1713.84 96.2422C1713.7 97.9978 1713.86 99.7636 1714.31 101.467C1712.26 102.5 1710.37 103.824 1708.7 105.397Z" fill="#FAFAFA"/>
<path d="M1690.37 137.752C1690.54 135.545 1691.06 133.379 1691.93 131.344C1695.57 121.248 1701.9 112.343 1710.24 105.598C1711.88 104.098 1713.76 102.89 1715.8 102.026C1716.14 102.427 1707.72 108.121 1700.66 118.17C1693.61 128.218 1690.88 137.953 1690.37 137.752Z" fill="#FF5E81"/>
<path d="M1746.82 607.316C1731.74 599.953 1719.36 588.032 1711.43 573.241C1727.06 571.499 1748.92 573.241 1762.79 580.766C1778.42 589.43 1788.22 599.299 1795.19 613.121C1778.86 616.357 1761.92 614.324 1746.82 607.316Z" fill="#F8B7C7"/>
<path d="M1687.76 649.407C1672.68 642.059 1660.3 630.154 1652.37 615.377C1668 613.635 1689.77 615.377 1703.72 622.879C1717.72 630.422 1729.13 641.988 1736.48 656.083C1719.94 659.037 1702.89 656.701 1687.76 649.407Z" fill="#F8B7C7"/>
<path d="M1674.09 627.032C1674.79 627.629 1675.54 628.167 1676.33 628.64C1677.73 629.645 1679.83 631.007 1682.47 632.637C1696.24 641.142 1711.01 647.893 1726.46 652.734C1729.43 653.649 1731.84 654.319 1733.51 654.721C1734.37 654.979 1735.25 655.173 1736.15 655.301C1735.33 654.92 1734.48 654.614 1733.6 654.386C1731.95 653.872 1729.58 653.113 1726.66 652.153C1720.81 650.166 1712.79 647.196 1704.33 643.221C1697.01 639.86 1689.86 636.134 1682.91 632.057C1680.23 630.494 1678.09 629.198 1676.62 628.305C1675.82 627.795 1674.98 627.368 1674.09 627.032Z" fill="#FF5E81"/>
<path d="M1694.17 712.621C1693.02 729.359 1697.17 746.033 1706.05 760.272C1715.38 747.566 1724.62 727.827 1725.12 712.04C1725.56 696.155 1721.21 680.503 1712.66 667.114C1701.87 679.965 1695.4 695.887 1694.17 712.621Z" fill="#F8B7C7"/>
<path d="M1706.76 735.62C1706.57 734.739 1706.45 733.842 1706.43 732.94C1706.27 731.221 1706.14 728.72 1706.02 725.616C1705.5 709.46 1707 693.302 1710.49 677.519C1711.18 674.482 1711.78 672.07 1712.28 670.396C1712.47 669.516 1712.75 668.656 1713.1 667.828C1713.01 668.725 1712.85 669.614 1712.61 670.485C1712.23 672.16 1711.72 674.616 1711.11 677.653C1707.98 693.444 1706.48 709.517 1706.65 725.616C1706.65 728.697 1706.65 731.198 1706.78 732.918C1706.86 733.817 1706.85 734.721 1706.76 735.62Z" fill="#FF5E81"/>
<path d="M1827.14 575.184C1826.81 575.778 1826.44 576.346 1826.02 576.881L1822.61 581.637L1820.13 585.053C1819.19 586.281 1818.12 587.554 1817 588.961C1814.77 591.752 1812.2 595.034 1809.12 598.361L1804.36 603.676C1802.71 605.507 1800.86 607.293 1798.98 609.213C1795.32 613.099 1791.08 616.917 1786.68 621.003C1776.92 629.636 1766.61 637.624 1755.82 644.918C1744.92 652.072 1733.57 658.509 1721.83 664.188C1716.36 666.667 1711.2 669.123 1706.2 670.999C1703.7 671.981 1701.33 673.008 1698.99 673.835L1692.29 676.067C1688.03 677.653 1684.05 678.68 1680.59 679.729C1678.87 680.221 1677.26 680.712 1675.77 681.114L1671.66 682.074L1665.97 683.391C1665.31 683.577 1664.64 683.704 1663.96 683.771C1664.59 683.52 1665.25 683.319 1665.92 683.168L1671.55 681.627L1675.61 680.556C1677.09 680.131 1678.69 679.595 1680.41 679.082C1683.83 677.988 1687.78 676.849 1692 675.264L1698.7 672.874C1700.93 672.026 1703.37 670.976 1705.85 669.994C1710.8 668.074 1715.92 665.528 1721.48 663.094C1733.12 657.368 1744.4 650.932 1755.26 643.824C1766.01 636.558 1776.29 628.63 1786.05 620.088C1790.52 616.024 1794.72 612.25 1798.4 608.41C1800.25 606.512 1802.13 604.748 1803.8 602.939L1808.58 597.692C1811.71 594.409 1814.25 591.194 1816.58 588.447C1817.74 587.063 1818.81 585.812 1819.79 584.607L1822.36 581.257L1825.93 576.657C1826.3 576.139 1826.7 575.647 1827.14 575.184Z" fill="#FF5E81"/>
<path d="M1644.95 703.801C1628.62 707.616 1611.49 706.194 1596.01 699.737C1607.06 688.572 1625.04 676.18 1640.67 673.165C1656.28 670.171 1672.43 671.937 1687.02 678.234C1676.04 690.968 1661.32 699.915 1644.95 703.801Z" fill="#F8B7C7"/>
<path d="M1620.23 695.07C1621.14 695.117 1622.04 695.08 1622.94 694.958C1624.66 694.847 1627.16 694.579 1630.22 694.177C1638.23 693.128 1646.16 691.577 1653.97 689.532C1661.79 687.477 1669.47 684.942 1676.97 681.94C1679.85 680.779 1682.15 679.707 1683.67 679.038C1684.51 678.704 1685.31 678.292 1686.06 677.809C1685.2 678.031 1684.35 678.33 1683.54 678.703C1681.93 679.35 1679.59 680.266 1676.71 681.338C1670.92 683.57 1662.82 686.25 1653.71 688.662C1644.6 691.073 1636.2 692.614 1630.08 693.552C1627.05 694.021 1624.57 694.378 1622.85 694.601C1621.96 694.681 1621.09 694.838 1620.23 695.07Z" fill="#FF5E81"/>
<path d="M1770.98 828.622C1777.61 823.359 1785.54 819.998 1793.93 818.901C1802.32 817.804 1810.85 819.01 1818.61 822.392C1821.67 823.776 1824.97 826.165 1824.82 829.515C1824.66 832.864 1820.73 835.119 1817.29 836.08C1810.05 838.06 1802.48 838.531 1795.05 837.463C1787.62 836.395 1780.49 833.811 1774.11 829.872C1785.34 835.169 1794.77 843.667 1801.19 854.3C1803.6 858.32 1805.46 863.813 1802.44 867.43C1799.43 871.047 1794.02 870.288 1789.85 868.546C1782.65 865.365 1776.65 859.967 1772.74 853.138C1768.82 846.309 1767.19 838.408 1768.08 830.587C1768.18 837.666 1766.12 844.608 1762.17 850.482C1758.22 856.357 1752.57 860.884 1745.97 863.455C1740.88 865.331 1733.82 865.197 1731.59 860.24C1730.23 857.248 1731.35 853.72 1732.8 850.772C1735.65 845.029 1739.71 839.974 1744.71 835.957C1749.7 831.94 1755.51 829.056 1761.74 827.505C1754.65 830.185 1746.93 830.732 1739.54 829.077C1732.15 827.422 1725.4 823.639 1720.14 818.194C1716.83 814.666 1714.11 809.731 1715.67 805.176C1717.68 799.415 1725.14 797.852 1731.3 798.343C1738.87 799.029 1746.19 801.403 1752.72 805.29C1759.25 809.178 1764.83 814.48 1769.04 820.806C1766.73 816.727 1765.44 812.148 1765.28 807.463C1765.13 802.777 1766.11 798.123 1768.14 793.899C1770.87 788.406 1777.32 783.449 1782.79 786.263C1788.26 789.076 1788.08 796.4 1786.72 802.117C1784.24 812.523 1779.47 822.247 1772.77 830.587" fill="#F8B7C7"/>
<path d="M1674.52 506.767C1664.39 522.524 1659.48 541.072 1660.49 559.777C1676.46 552.363 1696.22 538.028 1705.15 522.866C1714.14 507.563 1718.32 489.91 1717.14 472.201C1699.66 478.964 1684.75 491.057 1674.52 506.767Z" fill="#F8B7C7"/>
<path d="M1674.52 536.041C1674.84 535.087 1675.22 534.155 1675.66 533.249C1676.42 531.485 1677.62 528.962 1679.18 525.881C1683.29 517.851 1687.9 510.088 1692.98 502.636C1698.04 495.173 1703.58 488.042 1709.55 481.289C1711.78 478.699 1713.77 476.645 1715.13 475.282C1715.82 474.528 1716.57 473.834 1717.37 473.206C1716.8 474.037 1716.16 474.821 1715.47 475.55C1714.2 476.98 1712.37 479.101 1710.13 481.736C1704.35 488.608 1698.91 495.77 1693.85 503.194C1687.94 511.88 1683.14 520.142 1679.85 526.193C1678.22 529.23 1676.93 531.709 1676.04 533.428C1675.63 534.352 1675.12 535.228 1674.52 536.041Z" fill="#FF5E81"/>
<path d="M1712.95 455.275C1698.9 446.863 1687.87 434.236 1681.42 419.191C1696.8 418.812 1717.77 422.429 1730.54 430.847C1743.52 439.338 1753.64 451.548 1759.57 465.882C1743.3 467.328 1726.99 463.618 1712.95 455.275Z" fill="#F8B7C7"/>
<path d="M1701.56 432.276C1702.15 432.933 1702.81 433.524 1703.52 434.04C1704.8 435.134 1706.72 436.653 1709.15 438.506C1715.48 443.201 1722.09 447.496 1728.96 451.368C1735.82 455.237 1742.91 458.682 1750.19 461.684C1753 462.823 1755.28 463.671 1756.89 464.229C1757.71 464.557 1758.55 464.811 1759.41 464.989C1758.65 464.564 1757.85 464.198 1757.02 463.894C1755.46 463.269 1753.21 462.309 1750.33 461.103C1744.81 458.692 1737.29 455.119 1729.27 450.608C1721.25 446.098 1714.31 441.476 1709.4 437.992C1706.94 436.251 1704.93 434.822 1703.61 433.817C1702.97 433.248 1702.28 432.732 1701.56 432.276Z" fill="#FF5E81"/>
<path d="M1644.48 455.253C1633.38 443.743 1626.18 429.034 1623.9 413.207C1638.52 416.757 1657.39 425.466 1667.42 436.675C1677.49 447.988 1683.93 462.07 1685.91 477.091C1670.15 474.343 1655.65 466.702 1644.48 455.253Z" fill="#F8B7C7"/>
<path d="M1639.55 430.758C1639.97 431.533 1640.44 432.279 1640.96 432.991C1641.89 434.353 1643.35 436.251 1645.15 438.573C1654.72 450.661 1665.77 461.508 1678.02 470.861C1680.39 472.648 1682.33 474.032 1683.69 474.947C1684.39 475.479 1685.14 475.935 1685.93 476.31C1685.3 475.72 1684.64 475.176 1683.94 474.68C1682.62 473.675 1680.75 472.223 1678.45 470.37C1673.85 466.708 1667.64 461.438 1661.23 455.141C1654.82 448.845 1649.44 442.726 1645.6 438.193C1643.73 435.961 1642.23 434.085 1641.13 432.79C1640.68 432.055 1640.15 431.373 1639.55 430.758Z" fill="#FF5E81"/>
<path d="M1905.11 410.55L1904.42 410.862L1902.5 411.867L1895.11 415.797L1889.77 418.678C1887.81 419.682 1885.64 420.754 1883.34 421.893C1878.72 424.126 1873.49 426.917 1867.55 429.53L1858.27 433.772C1855.03 435.224 1851.57 436.586 1848.08 438.06C1841.07 441.119 1833.39 443.887 1825.35 446.991C1807.77 453.249 1789.89 458.607 1771.76 463.046C1753.68 467.268 1735.38 470.518 1716.94 472.782C1708.39 473.608 1700.29 474.59 1692.65 474.881C1688.83 475.104 1685.15 475.372 1681.62 475.506L1671.41 475.684C1664.92 475.908 1659.04 475.684 1653.88 475.528L1646.69 475.327L1640.64 474.925L1632.29 474.389L1630.06 474.278H1629.3L1630.04 474.412L1632.27 474.635L1640.62 475.394L1646.65 475.908L1653.86 476.198C1659.02 476.354 1665.03 476.712 1671.41 476.533L1681.64 476.421C1685.19 476.421 1688.88 476.064 1692.69 475.885C1700.35 475.617 1708.5 474.68 1717.08 473.876C1735.63 471.663 1754.04 468.413 1772.23 464.14C1790.37 459.697 1808.25 454.301 1825.82 447.974C1833.86 444.892 1841.56 442.079 1848.55 439.042C1852.08 437.524 1855.5 436.139 1858.73 434.576L1868 430.267C1873.94 427.587 1879.17 424.796 1883.63 422.451L1890.02 419.147L1895.31 416.177L1902.59 412.024L1904.46 410.929L1905.11 410.55Z" fill="#FF5E81"/>
<path d="M1588.06 478.944C1594.76 471.596 1599.34 462.564 1601.31 452.814C1603.28 443.064 1602.55 432.962 1599.22 423.59C1597.86 419.883 1595.32 415.819 1591.36 415.73C1587.41 415.641 1584.46 420.062 1583.06 424.014C1580.15 432.349 1578.99 441.192 1579.64 449.995C1580.28 458.798 1582.73 467.374 1586.83 475.193C1581.55 461.568 1572.34 449.818 1560.37 441.431C1555.9 438.26 1549.56 435.648 1545.07 438.886C1540.59 442.123 1541.03 448.532 1542.73 453.578C1545.88 462.295 1551.75 469.773 1559.46 474.92C1567.17 480.067 1576.32 482.612 1585.58 482.182C1577.29 481.464 1568.98 483.297 1561.76 487.436C1554.54 491.574 1548.76 497.821 1545.19 505.338C1542.55 511.166 1542.15 519.45 1547.78 522.464C1551.19 524.318 1555.41 523.29 1558.94 521.839C1565.88 518.955 1572.11 514.604 1577.21 509.085C1582.31 503.566 1586.16 497.009 1588.48 489.863C1584.77 497.968 1583.5 506.983 1584.85 515.797C1586.2 524.61 1590.1 532.836 1596.07 539.457C1599.94 543.61 1605.52 547.205 1610.99 545.709C1617.91 543.811 1620.35 535.214 1620.26 528.024C1620.07 519.076 1617.88 510.284 1613.85 502.293C1609.82 494.302 1604.05 487.316 1596.97 481.847C1601.56 484.899 1606.82 486.788 1612.3 487.352C1617.78 487.916 1623.32 487.138 1628.43 485.085C1635.13 482.338 1641.45 475.148 1638.59 468.517C1635.73 461.885 1627.13 461.483 1620.3 462.644C1607.92 464.749 1596.15 469.585 1585.87 476.801" fill="#F8B7C7"/>
<path d="M1592.1 439.957C1592.68 440.158 1589.09 449.314 1588.26 461.26C1587.43 473.206 1589.51 482.785 1588.93 482.897C1588.35 483.008 1585.38 473.407 1586.34 461.103C1587.3 448.8 1591.72 439.712 1592.1 439.957Z" fill="#FF5E81"/>
<path d="M1564.23 454.918C1564.79 454.672 1567.72 462.242 1574.75 469.008C1581.78 475.774 1588.91 479.502 1588.57 480.061C1588.24 480.619 1580.71 477.448 1573.41 470.37C1566.11 463.291 1563.76 454.985 1564.23 454.918Z" fill="#FF5E81"/>
<path d="M1564.81 503.261C1564.39 503.15 1566.91 495.513 1573.75 488.502C1580.58 481.49 1588.55 479.28 1588.59 479.793C1588.64 480.307 1581.56 483.076 1575.2 489.841C1568.83 496.607 1565.37 503.552 1564.81 503.261Z" fill="#FF5E81"/>
<path d="M1588.17 488.211C1586.84 488.29 1585.52 487.973 1584.38 487.301C1583.23 486.628 1582.31 485.63 1581.74 484.433C1581.16 483.236 1580.95 481.895 1581.14 480.58C1581.33 479.265 1581.9 478.035 1582.79 477.047C1584.4 478.351 1586.21 479.384 1588.15 480.106C1587.76 482.771 1587.76 485.479 1588.15 488.144" fill="#FAFAFA"/>
<path d="M1607.06 527.645C1605.02 526.015 1603.29 524.043 1601.92 521.817C1594.62 511.53 1590.29 499.433 1589.4 486.849C1589.05 484.292 1589.15 481.695 1589.67 479.168C1590.29 479.168 1590.11 491.047 1595.05 504.623C1599.98 518.2 1607.53 527.288 1607.06 527.645Z" fill="#FF5E81"/>
</g>
<defs>
<filter id="filter0_f_104_464" x="-794.093" y="-367.039" width="1015.84" height="939.888" filterUnits="userSpaceOnUse" color-interpolation-filters="sRGB">
<feFlood flood-opacity="0" result="BackgroundImageFix"/>
<feBlend mode="normal" in="SourceGraphic" in2="BackgroundImageFix" result="shape"/>
<feGaussianBlur stdDeviation="10" result="effect1_foregroundBlur_104_464"/>
</filter>
<filter id="filter1_f_104_464" x="1386.93" y="-41.4336" width="644.166" height="649.979" filterUnits="userSpaceOnUse" color-interpolation-filters="sRGB">
<feFlood flood-opacity="0" result="BackgroundImageFix"/>
<feBlend mode="normal" in="SourceGraphic" in2="BackgroundImageFix" result="shape"/>
<feGaussianBlur stdDeviation="10" result="effect1_foregroundBlur_104_464"/>
</filter>
<radialGradient id="paint0_radial_104_464" cx="0" cy="0" r="1" gradientUnits="userSpaceOnUse" gradientTransform="translate(-234.892 145.095) rotate(-120.153) scale(374.988 521.284)">
<stop stop-color="#F8B7C7"/>
<stop offset="0.927083" stop-color="#FF5E81" stop-opacity="0"/>
</radialGradient>
<radialGradient id="paint1_radial_104_464" cx="0" cy="0" r="1" gradientUnits="userSpaceOnUse" gradientTransform="translate(1738.75 246.598) rotate(141.843) scale(241.157 335.241)">
<stop stop-color="#F8B7C7"/>
<stop offset="0.927083" stop-color="#FF5E81" stop-opacity="0"/>
</radialGradient>
</defs>
</svg>
