<svg width="2495" height="1033" viewBox="0 0 2495 1033" fill="none" xmlns="http://www.w3.org/2000/svg">
<path opacity="0.3" d="M488.052 40.8283C272.46 -7.37096 58.6155 128.327 10.4163 343.919C-37.7829 559.511 97.9155 773.356 313.507 821.555L488.052 40.8283ZM313.507 821.555C614.055 888.747 847.334 928.176 1062.77 926.003C1290.17 923.709 1474.04 875.513 1674.18 806.462L1413.25 50.2087C1252.61 105.633 1160.72 124.974 1054.7 126.044C936.707 127.234 778.906 105.854 488.052 40.8283L313.507 821.555ZM1674.18 806.462C1704.8 795.896 1747.76 792.095 1887.39 851.853C1934.33 871.94 2050.11 926.192 2128.43 956.541C2221.04 992.427 2348.5 1033.05 2494.19 1032.66L2492.01 232.661C2492.47 232.66 2473.74 232.386 2417.48 210.586C2346.93 183.248 2311.17 163.031 2202.16 116.379C2029.9 42.6577 1743.41 -63.7009 1413.25 50.2087L1674.18 806.462Z" fill="url(#paint0_linear_159_3085)"/>
<defs>
<linearGradient id="paint0_linear_159_3085" x1="2338.99" y1="274.632" x2="2285.79" y2="827.214" gradientUnits="userSpaceOnUse">
<stop stop-color="#FF5E81"/>
<stop offset="1" stop-color="#FF5E81" stop-opacity="0"/>
</linearGradient>
</defs>
</svg>
