<svg width="512" height="512" viewBox="0 0 512 512" fill="none" xmlns="http://www.w3.org/2000/svg">
<path d="M255.997 42.6624C373.629 42.6624 469.331 138.342 469.331 255.996C469.331 373.628 373.629 469.329 255.997 469.329C189.288 469.329 127.635 438.972 86.8881 386.086C81.6614 379.281 82.9201 369.532 89.7254 364.326C96.4881 359.078 106.216 360.38 111.464 367.142C146.301 412.369 198.973 438.31 255.997 438.31C356.52 438.31 438.312 356.54 438.312 255.996C438.312 155.473 356.52 73.6811 255.997 73.6811C155.475 73.6811 73.6827 155.473 73.6827 255.996C73.6827 265.34 74.3867 274.62 75.7734 283.708C77.0534 292.156 71.2507 300.07 62.7814 301.372C54.2694 302.78 46.3974 296.87 45.1174 288.401C43.4961 277.777 42.6641 266.876 42.6641 255.996C42.6641 138.342 138.365 42.6624 255.997 42.6624ZM256.215 320.975C265.047 320.975 272.215 328.143 272.215 336.975C272.215 345.807 265.047 352.975 256.215 352.975C247.383 352.975 240.108 345.807 240.108 336.975C240.108 328.143 247.17 320.975 256.002 320.975H256.215ZM255.997 159.017C264.829 159.017 271.997 166.185 271.997 175.017V269.31C271.997 278.142 264.829 285.31 255.997 285.31C247.165 285.31 239.997 278.142 239.997 269.31V175.017C239.997 166.185 247.165 159.017 255.997 159.017Z" fill="#703D57" fill-opacity="0.7"/>
</svg>
