<svg width="512" height="512" viewBox="0 0 512 512" fill="none" xmlns="http://www.w3.org/2000/svg">
<path d="M256.126 75.5159C291.224 53.074 334.181 47.3324 373.774 59.791C408.21 70.5001 436.845 95.0986 453.021 127.868C471.936 167.586 474.511 213.351 460.174 255.01C446.978 293.36 425.344 328.126 396.927 356.646C378.295 375.797 358.217 393.429 336.879 409.382L335.75 410.341C328.661 415.113 319.128 413.239 314.291 406.122C311.832 402.685 310.844 398.379 311.554 394.188C312.263 389.997 314.609 386.277 318.056 383.877C338.078 368.791 356.955 352.188 374.527 334.209C399.832 309.306 419.157 278.791 430.998 245.038C442.386 211.404 440.081 174.525 424.598 142.634C412.138 117.547 390.184 98.7126 363.797 90.4737C330.141 79.7521 293.473 86.2517 265.349 107.924C259.758 112.144 252.117 112.144 246.526 107.924C218.415 86.2216 181.733 79.7193 148.078 90.4737C121.514 98.5306 99.3419 117.308 86.7131 142.443C71.5791 174.31 69.4142 210.977 80.6895 244.463C92.5799 278.135 111.9 308.577 137.16 333.442C174.486 369.903 215.645 402.059 259.891 429.326C265.518 433.302 267.993 440.518 266.021 447.2C264.049 453.881 258.079 458.51 251.232 458.666C248.145 458.685 245.126 457.749 242.573 455.981C196.482 427.583 153.617 394.075 114.76 356.071C86.1855 327.645 64.4714 292.854 51.3247 254.434C37.4832 212.833 40.3245 167.347 59.2306 127.868C75.4072 95.0986 104.042 70.5001 138.478 59.791C178.071 47.3324 221.028 53.074 256.126 75.5159ZM338.95 138.607C367.018 147.634 386.996 172.98 389.586 202.849L389.706 205.352C389.606 208.677 388.471 211.907 386.433 214.56C383.886 217.876 380.139 220.013 376.033 220.492C367.412 221.626 359.508 215.459 358.338 206.684C357.552 188.962 345.967 173.635 329.35 168.331C323.172 164.401 320.428 156.681 322.704 149.632C324.981 142.584 331.688 138.032 338.95 138.607Z" fill="#703D57" fill-opacity="0.7"/>
</svg>
