<svg width="531" height="531" viewBox="0 0 531 531" fill="none" xmlns="http://www.w3.org/2000/svg">
<path d="M202.107 459.61V391.958C202.107 374.688 216.209 360.689 233.605 360.689H297.197C305.55 360.689 313.562 363.983 319.469 369.847C325.376 375.711 328.695 383.665 328.695 391.958V459.61C328.642 466.79 331.478 473.694 336.574 478.789C341.669 483.884 348.603 486.75 355.835 486.75H399.22C419.482 486.802 438.932 478.848 453.279 464.643C467.625 450.438 475.688 431.149 475.688 411.034V218.304C475.688 202.056 468.432 186.643 455.877 176.218L308.29 59.2036C282.617 38.6869 245.833 39.3494 220.927 60.7769L76.7076 176.218C63.5594 186.336 55.7008 201.794 55.3125 218.304V410.838C55.3125 452.763 89.5483 486.75 131.78 486.75H174.174C189.196 486.75 201.404 474.719 201.513 459.807L202.107 459.61Z" fill="#703D57"/>
</svg>
