<svg width="512" height="512" viewBox="0 0 512 512" fill="none" xmlns="http://www.w3.org/2000/svg">
<path d="M312.499 334.083C321.329 334.083 328.498 341.075 328.498 349.688V368.76C328.498 418.334 287.151 458.667 236.31 458.667H135.042C84.1173 458.667 42.667 418.233 42.667 368.537C42.667 359.924 49.8351 352.952 58.6654 352.952C67.4956 352.952 74.6637 359.924 74.6637 368.537C74.6637 401.046 101.757 427.455 135.042 427.455H236.31C269.511 427.455 296.501 401.127 296.501 368.76V349.688C296.501 341.075 303.669 334.083 312.499 334.083ZM453.331 240.378C459.813 240.378 465.651 244.188 468.124 250.045C470.596 255.882 469.204 262.611 464.633 267.07L403.923 326.028C400.785 329.048 396.713 330.588 392.62 330.588C388.527 330.588 384.413 329.048 381.296 325.988C375.063 319.867 375.063 309.997 381.338 303.916L414.602 271.61H203.714C194.884 271.61 187.695 264.618 187.695 256.004C187.695 247.39 194.884 240.378 203.714 240.378H453.331ZM236.106 53.3334C287.051 53.3334 328.502 93.767 328.502 143.463V162.332C328.502 170.925 321.334 177.918 312.503 177.918C303.673 177.918 296.505 170.925 296.505 162.332V143.463C296.505 110.954 269.412 84.5453 236.106 84.5453H134.859C101.657 84.5453 74.6679 110.893 74.6679 143.24V297.577C74.6679 306.19 67.4998 313.183 58.6695 313.183C49.8392 313.183 42.6711 306.19 42.6711 297.577V143.24C42.6711 93.6657 84.0176 53.3334 134.859 53.3334H236.106ZM381.255 186.083C387.488 179.922 397.586 179.881 403.881 185.962L419.173 200.716C425.468 206.797 425.51 216.667 419.298 222.788C416.16 225.868 412.046 227.429 407.933 227.429C403.86 227.429 399.788 225.909 396.671 222.909L381.359 208.134C375.084 202.074 375.042 192.184 381.255 186.083Z" fill="#703D57" fill-opacity="0.7"/>
</svg>
