<svg width="512" height="512" viewBox="0 0 512 512" fill="none" xmlns="http://www.w3.org/2000/svg">
<path d="M329.425 36.5714H176.077C112.821 36.5714 73.1426 80.7283 73.1426 151.575V443.992C73.1426 464.586 89.4484 481.28 109.563 481.28C115.652 481.28 121.646 479.725 127.006 476.766L251.793 407.489L397.09 477.159C401.03 478.852 405.465 478.873 409.42 477.217C413.375 475.56 416.524 472.362 418.175 468.327C420.611 460.892 417.659 452.724 411.083 448.702L266.744 379.621C257.314 374.314 245.888 374.314 236.458 379.621L111.48 448.702C110.046 449.505 108.312 449.505 106.879 448.702C105.516 447.804 104.715 446.239 104.771 444.581V151.575C104.962 99.176 130.648 69.3456 176.652 69.3456H330C389.039 69.3456 397.665 118.409 397.665 147.847V161.192H231.666C227.445 161.345 223.458 163.21 220.581 166.376C217.705 169.542 216.176 173.749 216.331 178.07C216.533 186.653 223.282 193.563 231.666 193.77H397.09V365.491C397.09 374.487 404.213 381.78 413 381.78C421.712 381.781 428.804 374.607 428.909 365.687V147.847C428.909 79.1582 390.956 36.5714 329.425 36.5714Z" fill="#703D57" fill-opacity="0.7"/>
</svg>
